<svg id="Layer_1" data-name="Layer 1" xmlns="http://www.w3.org/2000/svg" viewBox="0 0 90 43.14"><defs><style>.cls-1,.cls-2{fill:none;}  .cls-1{clip-rule:evenodd;}  .cls-2{fill-rule:evenodd;}  .cls-3{fill:#fff;}  .cls-4{fill:#f2f5f7;}  .cls-5{fill:#016fd0;}  .cls-6{clip-path:url(#clip-path);}  .cls-7{clip-path:url(#clip-path-2);}  .cls-8{clip-path:url(#clip-path-3);}  .cls-9{clip-path:url(#clip-path-4);}  .cls-10{clip-path:url(#clip-path-5);}  .cls-11{clip-path:url(#clip-path-11);}  .cls-12{clip-path:url(#clip-path-12);}  .cls-13{clip-path:url(#clip-path-13);}  .cls-14{clip-path:url(#clip-path-14);}  .cls-15{clip-path:url(#clip-path-15);}</style><clipPath id="clip-path"><path class="cls-1" d="M-56.71,83.13h2.85l.34,0a1.24,1.24,0,0,0,1-1.2,1.23,1.23,0,0,0-1-1.2,1.87,1.87,0,0,0-.34,0h-2.85Z"/></clipPath><clipPath id="clip-path-2"><path class="cls-1" d="M-54.19,66.11a4.8,4.8,0,0,0-4.93,4.66v4.85h7.46c1.58.08,2.74.84,2.74,2.18A2.27,2.27,0,0,1-51.16,80v0c1.6.11,2.82.94,2.82,2.25s-1.34,2.33-3.13,2.33h-7.65v9.51h7.23A4.8,4.8,0,0,0-47,89.43V66.11Z"/></clipPath><clipPath id="clip-path-3"><path class="cls-1" d="M-52.85,78.14a1.13,1.13,0,0,0-1-1.11l-.28,0h-2.59v2.27h2.59l.28,0a1.14,1.14,0,0,0,1-1.12"/></clipPath><clipPath id="clip-path-4"><path class="cls-1" d="M-81.47,66.11a4.8,4.8,0,0,0-4.93,4.66V82.29a10.37,10.37,0,0,0,4.27,1A2.33,2.33,0,0,0-79.49,81V75.62h4.24V81c0,2.11-1.38,3.81-6.09,3.81a22.32,22.32,0,0,1-5.06-.58v9.83h7.23a4.8,4.8,0,0,0,4.93-4.66V66.11Z"/></clipPath><clipPath id="clip-path-5"><path class="cls-1" d="M-67.83,66.11a4.8,4.8,0,0,0-4.93,4.66v6.11c1.25-1,3.41-1.65,6.92-1.5a23.41,23.41,0,0,1,3.87.56v2a10,10,0,0,0-3.73-1c-2.67-.19-4.27,1-4.27,3.22s1.6,3.41,4.27,3.22a10.28,10.28,0,0,0,3.73-1v2a23.41,23.41,0,0,1-3.87.56c-3.51.15-5.67-.48-6.92-1.5V94.09h7.23a4.8,4.8,0,0,0,4.93-4.66V66.11Z"/></clipPath><clipPath id="clip-path-11"><path class="cls-1" d="M55,83.13h2.85l.34,0a1.24,1.24,0,0,0,1-1.2,1.23,1.23,0,0,0-1-1.2,1.87,1.87,0,0,0-.34,0H55Z"/></clipPath><clipPath id="clip-path-12"><path class="cls-1" d="M57.49,66.11a4.8,4.8,0,0,0-4.93,4.66v4.85H60c1.58.08,2.74.84,2.74,2.18A2.28,2.28,0,0,1,60.52,80v0c1.6.11,2.82.94,2.82,2.25S62,84.58,60.2,84.58H52.56v9.51h7.23a4.8,4.8,0,0,0,4.93-4.66V66.11Z"/></clipPath><clipPath id="clip-path-13"><path class="cls-1" d="M58.83,78.14a1.13,1.13,0,0,0-1-1.11l-.29,0H55v2.27h2.58l.29,0a1.14,1.14,0,0,0,1-1.12"/></clipPath><clipPath id="clip-path-14"><path class="cls-1" d="M30.21,66.11a4.8,4.8,0,0,0-4.93,4.66V82.29a10.33,10.33,0,0,0,4.26,1c1.71,0,2.65-1,2.65-2.31V75.62h4.24V81c0,2.11-1.38,3.81-6.09,3.81a22.32,22.32,0,0,1-5.06-.58v9.83h7.23a4.8,4.8,0,0,0,4.93-4.66V66.11Z"/></clipPath><clipPath id="clip-path-15"><path class="cls-1" d="M43.85,66.11a4.8,4.8,0,0,0-4.93,4.66v6.11c1.25-1,3.41-1.65,6.92-1.5a23.41,23.41,0,0,1,3.87.56v2a10,10,0,0,0-3.73-1c-2.67-.19-4.27,1-4.27,3.22s1.6,3.41,4.27,3.22a10.28,10.28,0,0,0,3.73-1v2a23.41,23.41,0,0,1-3.87.56c-3.51.15-5.67-.48-6.92-1.5V94.09h7.23a4.8,4.8,0,0,0,4.93-4.66V66.11Z"/></clipPath></defs><title>Payment-Method-Logos</title><rect class="cls-3" x="0.5" y="0.5" width="89" height="42.14" rx="1.78"/><path class="cls-4" d="M87.72,1A1.28,1.28,0,0,1,89,2.28V40.87a1.27,1.27,0,0,1-1.28,1.27H2.28A1.27,1.27,0,0,1,1,40.87V2.28A1.28,1.28,0,0,1,2.28,1H87.72m0-1H2.28A2.28,2.28,0,0,0,0,2.28V40.87a2.28,2.28,0,0,0,2.28,2.27H87.72A2.28,2.28,0,0,0,90,40.87V2.28A2.28,2.28,0,0,0,87.72,0Z"/><path class="cls-5" d="M15.76,6.89H74.1V22.64l-2.89,4.51,2.89,4v5.09H15.76V19.8l1.8-2.08-1.8-2Z"/><path class="cls-3" d="M27.08,31.8V22.64h9.7l1,1.36,1.08-1.36H74.1v8.53a4.08,4.08,0,0,1-2,.63H52.62l-1.17-1.44V31.8H47.6V29.34a3.23,3.23,0,0,1-1.66.34H44.63V31.8H38.81l-1-1.39L36.72,31.8Z"/><path class="cls-3" d="M15.76,15.74l2.18-5.1h3.79L23,13.49V10.64h4.7l.74,2.06.71-2.06H50.23v1a4.55,4.55,0,0,1,2.93-1l6.85,0,1.22,2.82V10.64h3.93l1.09,1.62V10.64h4V19.8h-4l-1-1.63V19.8H59.43l-.58-1.45H57.29l-.57,1.45H52.8a3.86,3.86,0,0,1-2.57-1v1H44.32l-1.17-1.45V19.8h-22l-.59-1.45H19l-.58,1.45h-2.7Z"/><path class="cls-5" d="M18.72,11.77l-2.95,6.86h1.92l.54-1.38H21.4l.54,1.38h2L21,11.77Zm1.09,1.59,1,2.4H18.84Z"/><path class="cls-5" d="M24.1,18.62V11.77h2.73l1.59,4.42L30,11.77h2.71v6.85H31V13.57l-1.82,5.05h-1.5l-1.82-5.05v5.05Z"/><path class="cls-5" d="M33.85,18.62V11.77h5.6V13.3H35.58v1.17h3.77v1.45H35.58v1.22h3.87v1.48Z"/><path class="cls-5" d="M40.44,11.77v6.86h1.71V16.19h.72l2.06,2.44H47L44.77,16.1A2.09,2.09,0,0,0,46.65,14a2.22,2.22,0,0,0-2.4-2.22Zm1.71,1.53h2a.79.79,0,0,1,.81.72.78.78,0,0,1-.78.73h-2Z"/><path class="cls-5" d="M49.1,18.62H47.35V11.77H49.1Z"/><path class="cls-5" d="M53.25,18.62h-.38c-1.82,0-2.93-1.44-2.93-3.4a3.13,3.13,0,0,1,3.4-3.45h1.9v1.62h-2a1.65,1.65,0,0,0-1.6,1.85,1.68,1.68,0,0,0,1.85,1.89H54Z"/><path class="cls-5" d="M57,11.77,54,18.63H56l.55-1.38h3.16l.54,1.38h2l-3-6.86Zm1.09,1.59,1,2.4H57.11Z"/><path class="cls-5" d="M62.37,18.62V11.77h2.18l2.78,4.31V11.77H69v6.85h-2.1L64.08,14.2v4.42Z"/><path class="cls-5" d="M28.25,30.63V23.77h5.6V25.3H30v1.18h3.77v1.44H30v1.22h3.86v1.49Z"/><path class="cls-5" d="M55.67,30.63V23.77h5.6V25.3H57.4v1.18h3.76v1.44H57.4v1.22h3.87v1.49Z"/><path class="cls-5" d="M34.07,30.63l2.72-3.39L34,23.77h2.16l1.66,2.14,1.67-2.14h2.08L38.81,27.2l2.73,3.43H39.38l-1.61-2.12L36.2,30.63Z"/><path class="cls-5" d="M41.75,23.77v6.86h1.76V28.46h1.8c1.53,0,2.69-.81,2.69-2.38a2.26,2.26,0,0,0-2.47-2.31Zm1.76,1.55h1.9a.77.77,0,0,1,.84.79.79.79,0,0,1-.85.79H43.51Z"/><path class="cls-5" d="M48.74,23.77v6.86h1.71V28.19h.73l2,2.44h2.1L53.07,28.1A2.09,2.09,0,0,0,55,26a2.21,2.21,0,0,0-2.39-2.22Zm1.71,1.53h2a.8.8,0,0,1,.82.72.78.78,0,0,1-.79.73h-2Z"/><path class="cls-5" d="M62.06,30.63V29.14h3.43c.51,0,.73-.28.73-.58S66,28,65.49,28H63.94a1.92,1.92,0,0,1-2.1-2.05c0-1.1.69-2.16,2.69-2.16h3.34l-.72,1.54H64.26c-.55,0-.72.29-.72.57a.6.6,0,0,0,.63.6H65.8a1.88,1.88,0,0,1,2.15,2,2.06,2.06,0,0,1-2.24,2.19Z"/><path class="cls-5" d="M68.35,30.63V29.14h3.43c.51,0,.73-.28.73-.58s-.22-.58-.73-.58H70.23a1.91,1.91,0,0,1-2.09-2.05c0-1.1.68-2.16,2.69-2.16h3.33l-.72,1.54H70.56c-.56,0-.73.29-.73.57a.6.6,0,0,0,.63.6h1.63a1.88,1.88,0,0,1,2.15,2A2.06,2.06,0,0,1,72,30.63Z"/></svg>
