<?xml version="1.0" encoding="utf-8"?>
<!-- Generator: Adobe Illustrator 27.0.0, SVG Export Plug-In . SVG Version: 6.00 Build 0) -->
<svg version="1.1" id="Layer_1" xmlns="http://www.w3.org/2000/svg" xmlns:xlink="http://www.w3.org/1999/xlink" x="0px" y="0px" viewBox="0 0 90 43.1" style="enable-background:new 0 0 90 43.1;" xml:space="preserve">
	<style type="text/css">
		.st0{fill:#FFFFFF;}
		.st1{fill:#F2F5F7;}
		.st2{fill-rule:evenodd;clip-rule:evenodd;fill:#212930;}
	</style>
	<g>
		<path class="st0" d="M2.3,0.5h85.4c1,0,1.8,0.8,1.8,1.8v38.6c0,1-0.8,1.8-1.8,1.8H2.3c-1,0-1.8-0.8-1.8-1.8V2.3
		C0.5,1.3,1.3,0.5,2.3,0.5z" />
		<path class="st1" d="M87.7,1C88.4,1,89,1.6,89,2.3v38.6c0,0.7-0.6,1.3-1.3,1.3l0,0H2.3c-0.7,0-1.3-0.6-1.3-1.3l0,0V2.3
		C1,1.6,1.6,1,2.3,1H87.7 M87.7,0H2.3C1,0,0,1,0,2.3v38.6c0,1.3,1,2.3,2.3,2.3h85.4c1.3,0,2.3-1,2.3-2.3V2.3C90,1,89,0,87.7,0z" />
	</g>
	<path class="st2" d="M12.3,27H9.1l1.8-5.2c-1.7-1.3-4.1-1.1-5.6,0.4l-2.1-2.1c2.4-2.4,6-2.8,8.7-1.2l3-8.3H18L23.8,27h-3.3l-1.1-3.3
	c-1.9,0.8-4.1,0.8-6-0.1L12.3,27z M14.5,20.9c1.2,0.7,2.8,0.7,4,0.1l-2-5.9L14.5,20.9z M54.1,27.2c1.5,0,2.6-0.6,3.4-1.5v0.8
	c0,0.2,0.2,0.4,0.4,0.4h2.6V10.6h-3.1v6.3c-0.7-0.8-1.9-1.3-3.3-1.3c-2.5,0-5.4,1.9-5.4,5.8C48.7,25.3,51.7,27.2,54.1,27.2z
	 M54.7,24.4c-1.7,0-3-1.3-3-3c0-1.7,1.3-3,3-3c1.7,0,2.9,1.3,2.9,3S56.4,24.4,54.7,24.4z M67.2,27.2c1.5,0,2.6-0.6,3.4-1.5v0.8
	c0,0.2,0.2,0.4,0.4,0.4h2.6V15.8H71c-0.2,0-0.4,0.2-0.4,0.4v0.7c-0.7-0.8-1.9-1.3-3.3-1.3c-2.5,0-5.4,1.9-5.4,5.8
	C61.8,25.3,64.8,27.2,67.2,27.2z M67.8,24.4c-1.7,0-3-1.3-3-3c0-1.7,1.3-3,3-3c1.7,0,2.9,1.3,2.9,3C70.7,23,69.5,24.4,67.8,24.4z
	 M31.6,15.3c-1.8,0-3.1,0.8-3.9,1.7v-0.8c0-0.2-0.2-0.4-0.4-0.4H25V27h3.2v-5.9c0-2,0.9-3.2,2.6-3.2c1.6,0,2.3,1,2.3,3V27h3.2v-6.3
	C36.3,16.5,34,15.3,31.6,15.3z M38.8,32.5h2.3c0.5,0,0.9-0.3,1.1-0.7l6.3-16h-3.2l-2.6,7l-2.8-7h-3.3l4.5,10.9L38.8,32.5z
	 M79.4,32.5H77l2.3-5.8l-4.5-10.9h3.3l2.8,7l2.6-7h3.2l-6.3,16C80.3,32.2,79.8,32.5,79.4,32.5z" />
</svg>
