<svg id="Layer_1" data-name="Layer 1" xmlns="http://www.w3.org/2000/svg" viewBox="0 0 90 43.14"><defs><style>.cls-1,.cls-2{fill:none;}  .cls-1{clip-rule:evenodd;}  .cls-3{fill:#fff;}  .cls-4{fill:#f2f5f7;}  .cls-5{clip-path:url(#clip-path);}  .cls-6{clip-path:url(#clip-path-2);}  .cls-7{clip-path:url(#clip-path-3);}  .cls-8{clip-path:url(#clip-path-4);}  .cls-9{clip-path:url(#clip-path-5);}  .cls-10{clip-path:url(#clip-path-6);}  .cls-11{clip-path:url(#clip-path-7);}  .cls-12{clip-path:url(#clip-path-8);}  .cls-13{clip-path:url(#clip-path-9);}  .cls-14{clip-path:url(#clip-path-10);}  .cls-15{clip-path:url(#clip-path-11);}  .cls-16{clip-path:url(#clip-path-12);}  .cls-17{clip-path:url(#clip-path-13);}  .cls-18{clip-path:url(#clip-path-14);}  .cls-19{clip-path:url(#clip-path-15);}  .cls-20{clip-path:url(#clip-path-16);}  .cls-21{clip-path:url(#clip-path-17);}  .cls-22{clip-path:url(#clip-path-18);}  .cls-23{clip-path:url(#clip-path-19);}  .cls-24{clip-path:url(#clip-path-20);}</style><clipPath id="clip-path"><path class="cls-1" d="M-98.18,202.44h-3.19v10.65h3.17a5.93,5.93,0,0,0,4-1.23,5.26,5.26,0,0,0,2-4.09c0-3.14-2.45-5.33-6-5.33m2.54,8a4.25,4.25,0,0,1-3,.84h-.59v-7h.59a4.16,4.16,0,0,1,3,.86,3.52,3.52,0,0,1,1.2,2.65,3.58,3.58,0,0,1-1.2,2.68"/></clipPath><clipPath id="clip-path-2"><rect class="cls-2" x="-91.21" y="202.44" width="2.17" height="10.64"/></clipPath><clipPath id="clip-path-3"><path class="cls-1" d="M-83.73,206.53c-1.3-.46-1.69-.77-1.69-1.34s.68-1.18,1.62-1.18a2.27,2.27,0,0,1,1.75.86l1.14-1.42a5,5,0,0,0-3.27-1.18,3.21,3.21,0,0,0-3.47,3c0,1.46.7,2.21,2.73,2.91a8.57,8.57,0,0,1,1.5.61,1.25,1.25,0,0,1,.65,1.1,1.55,1.55,0,0,1-1.68,1.5A2.57,2.57,0,0,1-86.82,210l-1.4,1.3a4.38,4.38,0,0,0,3.85,2,3.52,3.52,0,0,0,3.84-3.49c0-1.69-.73-2.46-3.2-3.32"/></clipPath><clipPath id="clip-path-4"><path class="cls-1" d="M-79.85,207.77A5.65,5.65,0,0,0-74,213.33a6.18,6.18,0,0,0,2.72-.63v-2.44a3.56,3.56,0,0,1-2.62,1.17,3.56,3.56,0,0,1-3.74-3.67A3.61,3.61,0,0,1-74,204.1a3.71,3.71,0,0,1,2.72,1.2v-2.44a5.69,5.69,0,0,0-2.67-.66,5.74,5.74,0,0,0-5.93,5.57"/></clipPath><clipPath id="clip-path-5"><polygon class="cls-1" points="-54.05 209.59 -57.01 202.44 -59.38 202.44 -54.66 213.36 -53.49 213.36 -48.69 202.44 -51.04 202.44 -54.05 209.59"/></clipPath><clipPath id="clip-path-6"><polygon class="cls-1" points="-47.71 213.09 -41.55 213.09 -41.55 211.28 -45.54 211.28 -45.54 208.41 -41.7 208.41 -41.7 206.61 -45.54 206.61 -45.54 204.25 -41.55 204.25 -41.55 202.44 -47.71 202.44 -47.71 213.09"/></clipPath><clipPath id="clip-path-7"><path class="cls-1" d="M-33,205.58c0-2-1.43-3.14-3.94-3.14h-3.21v10.65h2.16v-4.28h.29l3,4.28H-32l-3.5-4.49a2.87,2.87,0,0,0,2.53-3m-4.35,1.76h-.64v-3.22h.67c1.35,0,2.09.54,2.09,1.58s-.74,1.64-2.12,1.64"/></clipPath><clipPath id="clip-path-8"><path class="cls-1" d="M-58.73,207.77a5.79,5.79,0,0,1-5.92,5.66,5.78,5.78,0,0,1-5.91-5.66,5.78,5.78,0,0,1,5.91-5.66,5.79,5.79,0,0,1,5.92,5.66"/></clipPath><clipPath id="clip-path-9"><path class="cls-1" d="M13.5,202.45H10.31v10.64h3.17a6,6,0,0,0,4-1.23,5.25,5.25,0,0,0,2-4.09c0-3.14-2.45-5.32-6-5.32m2.53,8a4.22,4.22,0,0,1-3,.85h-.58v-7h.58a4.13,4.13,0,0,1,3,.86,3.52,3.52,0,0,1,1.21,2.65A3.59,3.59,0,0,1,16,210.44"/></clipPath><clipPath id="clip-path-10"><rect class="cls-2" x="20.47" y="202.45" width="2.17" height="10.64"/></clipPath><clipPath id="clip-path-11"><path class="cls-1" d="M28,206.53c-1.3-.46-1.69-.76-1.69-1.34s.68-1.18,1.62-1.18a2.31,2.31,0,0,1,1.75.86l1.13-1.42a5,5,0,0,0-3.27-1.18,3.22,3.22,0,0,0-3.47,3c0,1.47.7,2.22,2.74,2.92a9.29,9.29,0,0,1,1.5.6,1.27,1.27,0,0,1,.65,1.11,1.55,1.55,0,0,1-1.68,1.5A2.59,2.59,0,0,1,24.86,210l-1.4,1.29a4.38,4.38,0,0,0,3.85,2,3.52,3.52,0,0,0,3.84-3.49c0-1.69-.73-2.46-3.2-3.32"/></clipPath><clipPath id="clip-path-12"><path class="cls-1" d="M31.83,207.77a5.65,5.65,0,0,0,5.87,5.56,6.32,6.32,0,0,0,2.73-.62v-2.45a3.52,3.52,0,0,1-2.62,1.17,3.56,3.56,0,0,1-3.74-3.67,3.62,3.62,0,0,1,3.63-3.66,3.75,3.75,0,0,1,2.73,1.2v-2.44a5.81,5.81,0,0,0-2.68-.65,5.73,5.73,0,0,0-5.92,5.56"/></clipPath><clipPath id="clip-path-13"><polygon class="cls-1" points="57.63 209.59 54.67 202.45 52.29 202.45 57.02 213.36 58.18 213.36 62.99 202.45 60.64 202.45 57.63 209.59"/></clipPath><clipPath id="clip-path-14"><polygon class="cls-1" points="63.97 213.09 70.13 213.09 70.13 211.29 66.14 211.29 66.14 208.41 69.98 208.41 69.98 206.61 66.14 206.61 66.14 204.25 70.13 204.25 70.13 202.45 63.97 202.45 63.97 213.09"/></clipPath><clipPath id="clip-path-15"><path class="cls-1" d="M78.72,205.59c0-2-1.44-3.14-3.94-3.14H71.56v10.64h2.17v-4.28H74l3,4.28h2.67l-3.5-4.48a2.87,2.87,0,0,0,2.53-3m-4.35,1.76h-.64v-3.23h.67c1.35,0,2.09.54,2.09,1.58s-.74,1.65-2.12,1.65"/></clipPath><clipPath id="clip-path-16"><path class="cls-1" d="M53,207.77A5.93,5.93,0,1,1,47,202.12,5.79,5.79,0,0,1,53,207.77"/></clipPath><clipPath id="clip-path-17"><rect class="cls-2" x="-86.93" y="135.67" width="40.5" height="22.5" rx="3.89"/></clipPath><clipPath id="clip-path-18"><path class="cls-2" d="M-77,143.23a6,6,0,0,1-1.73,4.23l2.34,3.22h-2.09l-2.55-3.5.66-.5a4.28,4.28,0,0,0,1.71-3.45ZM-83,150.68h1.7v-7.45H-83Zm7,0h1.6v-7.45h-1.6Zm15.64-5.29a1.86,1.86,0,0,0-1.58.72v-.58h-1.52v5.15h1.54V148a1.09,1.09,0,0,1,1.15-1.17c.67,0,1.06.41,1.06,1.16v2.72h1.53V147.4a2,2,0,0,0-2.18-2Zm-9.2.14H-68v5.15h-1.53v-.33a2.63,2.63,0,0,1-1.52.47,2.71,2.71,0,0,1-2.69-2.72A2.71,2.71,0,0,1-71,145.38a2.64,2.64,0,0,1,1.52.48v-.33Zm0,2.57a1.35,1.35,0,0,0-1.38-1.32,1.35,1.35,0,0,0-1.39,1.32,1.36,1.36,0,0,0,1.39,1.33A1.36,1.36,0,0,0-69.5,148.1Zm3.9-1.9v-.67h-1.56v5.15h1.57v-2.41c0-.81.87-1.24,1.47-1.24h0v-1.5a1.92,1.92,0,0,0-1.5.67Zm12.23-.67h1.53v5.15h-1.53v-.33a2.62,2.62,0,0,1-1.51.47,2.7,2.7,0,0,1-2.69-2.72,2.7,2.7,0,0,1,2.69-2.72,2.63,2.63,0,0,1,1.51.48v-.33Zm0,2.57a1.35,1.35,0,0,0-1.39-1.32,1.35,1.35,0,0,0-1.38,1.32,1.36,1.36,0,0,0,1.38,1.33A1.36,1.36,0,0,0-53.37,148.1Zm3.16.75a1,1,0,0,0-1,1,1,1,0,0,0,1,1,1,1,0,0,0,1-1A1,1,0,0,0-50.21,148.85Z"/></clipPath><clipPath id="clip-path-19"><rect class="cls-2" x="24.75" y="135.67" width="40.5" height="22.5" rx="3.89"/></clipPath><clipPath id="clip-path-20"><path class="cls-2" d="M34.65,143.23a6,6,0,0,1-1.73,4.23l2.34,3.22h-2.1l-2.54-3.5.66-.5A4.28,4.28,0,0,0,33,143.23Zm-5.93,7.45h1.7v-7.45h-1.7Zm7,0h1.6v-7.45h-1.6Zm15.64-5.29a1.86,1.86,0,0,0-1.58.72v-.58H48.29v5.15h1.54V148A1.09,1.09,0,0,1,51,146.8c.67,0,1.06.41,1.06,1.16v2.72h1.52V147.4a2,2,0,0,0-2.17-2Zm-9.2.14h1.53v5.15H42.19v-.33a2.73,2.73,0,1,1,0-4.49v-.33Zm0,2.57a1.39,1.39,0,1,0-1.38,1.33A1.35,1.35,0,0,0,42.18,148.1Zm3.9-1.9v-.67H44.51v5.15h1.57v-2.41c0-.81.88-1.24,1.48-1.24h0v-1.5a1.92,1.92,0,0,0-1.5.67Zm12.23-.67h1.53v5.15H58.31v-.33a2.62,2.62,0,0,1-1.51.47,2.72,2.72,0,0,1,0-5.44,2.63,2.63,0,0,1,1.51.48v-.33Zm0,2.57a1.39,1.39,0,1,0-1.39,1.33A1.35,1.35,0,0,0,58.31,148.1Zm3.15.75a1,1,0,1,0,1,1A1,1,0,0,0,61.46,148.85Z"/></clipPath></defs><title>Payment-Method-Logos</title><rect class="cls-3" x="0.5" y="0.5" width="89" height="42.14" rx="1.78"/><path class="cls-4" d="M87.72,1A1.28,1.28,0,0,1,89,2.28V40.87a1.27,1.27,0,0,1-1.28,1.27H2.28A1.27,1.27,0,0,1,1,40.87V2.28A1.28,1.28,0,0,1,2.28,1H87.72m0-1H2.28A2.28,2.28,0,0,0,0,2.28V40.87a2.28,2.28,0,0,0,2.28,2.27H87.72A2.28,2.28,0,0,0,90,40.87V2.28A2.28,2.28,0,0,0,87.72,0Z"/><path d="M23.16,11.27a4.29,4.29,0,0,1-3.39,1.58A4.63,4.63,0,0,1,21,9.41a5.08,5.08,0,0,1,3.37-1.7A5,5,0,0,1,23.16,11.27Zm1.17,1.82C22.46,13,20.86,14.14,20,14.14s-2.26-1-3.74-1A5.56,5.56,0,0,0,11.55,16c-2,3.41-.53,8.45,1.43,11.22.95,1.37,2.09,2.88,3.6,2.83s2-.91,3.71-.91S22.53,30,24,30s2.54-1.37,3.5-2.74a12.2,12.2,0,0,0,1.56-3.16A5,5,0,0,1,26,19.57a5.05,5.05,0,0,1,2.47-4.25A5.35,5.35,0,0,0,24.33,13.09Zm10.8-3.82V29.84h3.26v-7H42.9c4.11,0,7-2.77,7-6.79A6.51,6.51,0,0,0,43,9.27ZM38.39,12h3.75C45,12,46.58,13.44,46.58,16S45,20.13,42.13,20.13H38.39ZM55.83,30a5.38,5.38,0,0,0,4.8-2.63h.06v2.47h3V19.6c0-3-2.42-4.88-6.14-4.88-3.45,0-6,1.94-6.1,4.6h2.93a2.86,2.86,0,0,1,3.08-2.1c2,0,3.1.91,3.1,2.58v1.14l-4.06.25c-3.78.22-5.82,1.74-5.82,4.38S52.81,30,55.83,30Zm.88-2.44c-1.73,0-2.84-.82-2.84-2.07s1.07-2,3.1-2.16l3.62-.22v1.16C60.59,26.19,58.92,27.56,56.71,27.56Zm11,7.88c3.17,0,4.66-1.2,6-4.8l5.71-15.72H76.1L72.27,27.07h-.06L68.38,14.92H65l5.51,15-.3.91A2.59,2.59,0,0,1,67.45,33c-.26,0-.76,0-1-.06v2.47A12,12,0,0,0,67.74,35.44Z"/></svg>
