<?xml version="1.0" encoding="utf-8"?>
<!-- Generator: Adobe Illustrator 26.5.0, SVG Export Plug-In . SVG Version: 6.00 Build 0)  -->
<svg version="1.1" id="Layer_1" xmlns="http://www.w3.org/2000/svg" xmlns:xlink="http://www.w3.org/1999/xlink" x="0px" y="0px"
	 viewBox="0 0 90 43.1" style="enable-background:new 0 0 90 43.1;" xml:space="preserve">
<style type="text/css">
	.st0{fill:#FFFFFF;}
	.st1{fill:#F2F5F7;}
	.st2{fill:#1E3764;}
	.st3{fill:url(#blue-symbol_00000181048674502973462710000006834353281639149985_);}
	.st4{fill:url(#yellow-symbol_00000025443553765435649540000007735613100457145262_);}
</style>
<g>
	<path class="st0" d="M2.3,0.5h85.4c1,0,1.8,0.8,1.8,1.8v38.6c0,1-0.8,1.8-1.8,1.8H2.3c-1,0-1.8-0.8-1.8-1.8V2.3
		C0.5,1.3,1.3,0.5,2.3,0.5z"/>
	<path class="st1" d="M87.7,1C88.4,1,89,1.6,89,2.3v38.6c0,0.7-0.6,1.3-1.3,1.3l0,0H2.3c-0.7,0-1.3-0.6-1.3-1.3l0,0V2.3
		C1,1.6,1.6,1,2.3,1H87.7 M87.7,0H2.3C1,0,0,1,0,2.3v38.6c0,1.3,1,2.3,2.3,2.3h85.4c1.3,0,2.3-1,2.3-2.3V2.3C90,1,89,0,87.7,0z"/>
</g>
<g>
	<path id="Bancontact" class="st2" d="M18.4,37.9v-7.7h2.4c1.7,0,2.8,0.6,2.8,2c0,0.8-0.4,1.3-0.8,1.6c0.7,0.3,1.1,1,1.1,1.8
		c0,1.5-1.1,2.3-2.9,2.3L18.4,37.9z M20,33.4h1.1c0.7,0,1-0.3,1-1s-0.5-0.9-1.3-0.9H20V33.4z M20,36.6h0.9c0.9,0,1.5-0.2,1.5-1
		c0-0.7-0.5-1-1.3-1H20V36.6z M26.9,38c-1.5,0-2.3-0.7-2.3-1.7c0-1.1,0.9-1.7,2.2-1.7c0.3,0,0.7,0,1,0.1v-0.3c0-0.7-0.4-1-1.1-1
		c-0.5,0-1,0.1-1.4,0.3L25,32.5c0.5-0.2,1.2-0.3,1.9-0.3c1.6,0,2.4,0.9,2.4,2.3v3C28.8,37.8,28,38,26.9,38L26.9,38z M27.8,36.8v-1.2
		c-0.3-0.1-0.5-0.1-0.8-0.1c-0.5,0-0.9,0.2-0.9,0.7s0.3,0.7,0.9,0.7C27.3,37,27.5,36.9,27.8,36.8L27.8,36.8z M30.3,37.9v-5.3
		c0.8-0.3,1.6-0.5,2.5-0.5c1.6,0,2.5,0.8,2.5,2.2v3.5h-1.5v-3.4c0-0.8-0.4-1.1-1-1.1c-0.3,0-0.7,0.1-1,0.2v4.3L30.3,37.9z
		 M40.6,32.5l-0.3,1.2c-0.4-0.2-0.8-0.3-1.2-0.3c-0.9,0-1.4,0.6-1.4,1.7c0,1.1,0.5,1.7,1.4,1.7c0.4,0,0.8-0.1,1.2-0.3l0.2,1.2
		c-0.5,0.2-1,0.3-1.6,0.3c-1.8,0-2.9-1.1-2.9-2.9c0-1.8,1-2.9,2.8-2.9C39.5,32.2,40.1,32.3,40.6,32.5L40.6,32.5z M43.9,38
		c-1.7,0-2.7-1.2-2.7-2.9c0-1.8,1.1-2.9,2.7-2.9c1.7,0,2.7,1.2,2.7,2.9C46.6,36.9,45.6,38,43.9,38z M43.9,36.8
		c0.8,0,1.2-0.6,1.2-1.7c0-1-0.4-1.7-1.2-1.7s-1.2,0.6-1.2,1.7S43.1,36.8,43.9,36.8z M47.5,37.9v-5.3c0.8-0.3,1.6-0.5,2.5-0.5
		c1.6,0,2.5,0.8,2.5,2.2v3.5H51v-3.4c0-0.8-0.4-1.1-1-1.1c-0.3,0-0.7,0.1-1,0.2v4.3L47.5,37.9z M55.9,38c-1.3,0-2-0.7-2-2.2v-2.4
		h-0.7v-1.2h0.7V31l1.5-0.1v1.3h1.2v1.2h-1.2v2.3c0,0.6,0.3,0.9,0.8,0.9c0.2,0,0.4,0,0.6-0.1l0.1,1.2C56.5,38,56.2,38.1,55.9,38z
		 M59.7,38c-1.5,0-2.3-0.7-2.3-1.7c0-1.1,0.9-1.7,2.2-1.7c0.3,0,0.7,0,1,0.1v-0.3c0-0.7-0.4-1-1.1-1c-0.5,0-1,0.1-1.4,0.3l-0.3-1.2
		c0.5-0.2,1.2-0.3,1.9-0.3c1.6,0,2.4,0.9,2.4,2.3v3C61.7,37.8,60.8,38,59.7,38z M60.6,36.8v-1.2c-0.3-0.1-0.5-0.1-0.8-0.1
		c-0.5,0-0.9,0.2-0.9,0.7s0.3,0.7,0.9,0.7C60.1,37,60.4,36.9,60.6,36.8z M67.3,32.5L67,33.7c-0.4-0.2-0.8-0.3-1.2-0.3
		c-0.9,0-1.4,0.6-1.4,1.7c0,1.1,0.5,1.7,1.4,1.7c0.4,0,0.8-0.1,1.2-0.3l0.2,1.2c-0.5,0.2-1,0.3-1.6,0.3c-1.8,0-2.9-1.1-2.9-2.9
		c0-1.8,1-2.9,2.8-2.9C66.2,32.2,66.8,32.3,67.3,32.5z M70.6,38c-1.3,0-2-0.7-2-2.2v-2.4h-0.7v-1.2h0.7V31l1.5-0.1v1.3h1.2v1.2h-1.2
		v2.3c0,0.6,0.3,0.9,0.8,0.9c0.2,0,0.4,0,0.6-0.1l0.1,1.2C71.3,38,70.9,38.1,70.6,38z"/>
	<g>
		
			<linearGradient id="blue-symbol_00000085972602787202940800000015957192738478895258_" gradientUnits="userSpaceOnUse" x1="23.7985" y1="1055.5437" x2="43.236" y2="1048.3242" gradientTransform="matrix(1 0 0 1 0 -1034)">
			<stop  offset="0" style="stop-color:#005AB9"/>
			<stop  offset="1" style="stop-color:#1E3764"/>
		</linearGradient>
		<path id="blue-symbol" style="fill:url(#blue-symbol_00000085972602787202940800000015957192738478895258_);" d="M29,26.4
			c8,0,12-5.3,16-10.7H18.4v10.7H29z"/>
		
			<linearGradient id="yellow-symbol_00000147914813987942938690000013903164249752358273_" gradientUnits="userSpaceOnUse" x1="46.5974" y1="1050.6193" x2="67.236" y2="1043.5779" gradientTransform="matrix(1 0 0 1 0 -1034)">
			<stop  offset="0" style="stop-color:#FBA900"/>
			<stop  offset="1" style="stop-color:#FFD800"/>
		</linearGradient>
		<path id="yellow-symbol" style="fill:url(#yellow-symbol_00000147914813987942938690000013903164249752358273_);" d="M61,5
			c-8,0-12,5.3-16,10.7h26.6V5H61z"/>
	</g>
</g>
</svg>
