<svg id="Layer_1" data-name="Layer 1" xmlns="http://www.w3.org/2000/svg" viewBox="0 0 90 43.14"><defs><style>.cls-1,.cls-2,.cls-3{fill:none;}  .cls-1{clip-rule:evenodd;}  .cls-16,.cls-17,.cls-18,.cls-19,.cls-2{fill-rule:evenodd;}  .cls-4{clip-path:url(#clip-path);}  .cls-5{clip-path:url(#clip-path-2);}  .cls-6{clip-path:url(#clip-path-3);}  .cls-7{clip-path:url(#clip-path-4);}  .cls-8{clip-path:url(#clip-path-5);}  .cls-9{clip-path:url(#clip-path-11);}  .cls-10{clip-path:url(#clip-path-12);}  .cls-11{clip-path:url(#clip-path-13);}  .cls-12{clip-path:url(#clip-path-14);}  .cls-13{clip-path:url(#clip-path-15);}  .cls-14{fill:#fff;}  .cls-15{fill:#f2f5f7;}  .cls-16{fill:#de2b38;}  .cls-17{fill:#1d427c;}  .cls-18{fill:#008285;}  .cls-19{fill:#fefefe;}  .cls-20{clip-path:url(#clip-path-21);}  .cls-21{clip-path:url(#clip-path-22);}  .cls-22{clip-path:url(#clip-path-23);}  .cls-23{clip-path:url(#clip-path-24);}  .cls-24{clip-path:url(#clip-path-25);}  .cls-25{clip-path:url(#clip-path-26);}  .cls-26{clip-path:url(#clip-path-27);}  .cls-27{clip-path:url(#clip-path-28);}  .cls-28{clip-path:url(#clip-path-29);}  .cls-29{clip-path:url(#clip-path-30);}  .cls-30{clip-path:url(#clip-path-31);}  .cls-31{clip-path:url(#clip-path-32);}  .cls-32{clip-path:url(#clip-path-33);}  .cls-33{clip-path:url(#clip-path-34);}  .cls-34{clip-path:url(#clip-path-35);}  .cls-35{clip-path:url(#clip-path-36);}  .cls-36{clip-path:url(#clip-path-37);}  .cls-37{clip-path:url(#clip-path-38);}  .cls-38{clip-path:url(#clip-path-39);}  .cls-39{clip-path:url(#clip-path-40);}  .cls-40{clip-path:url(#clip-path-41);}  .cls-41{clip-path:url(#clip-path-42);}  .cls-42{clip-path:url(#clip-path-43);}  .cls-43{clip-path:url(#clip-path-44);}  .cls-44{clip-path:url(#clip-path-45);}  .cls-45{clip-path:url(#clip-path-46);}  .cls-46{clip-path:url(#clip-path-47);}  .cls-47{clip-path:url(#clip-path-48);}  .cls-48{clip-path:url(#clip-path-49);}  .cls-49{clip-path:url(#clip-path-50);}  .cls-50{clip-path:url(#clip-path-51);}  .cls-51{clip-path:url(#clip-path-52);}  .cls-52{clip-path:url(#clip-path-53);}  .cls-53{clip-path:url(#clip-path-54);}  .cls-54{clip-path:url(#clip-path-55);}  .cls-55{clip-path:url(#clip-path-56);}  .cls-56{clip-path:url(#clip-path-57);}  .cls-57{clip-path:url(#clip-path-58);}  .cls-58{clip-path:url(#clip-path-59);}  .cls-59{clip-path:url(#clip-path-60);}  .cls-60{clip-path:url(#clip-path-61);}  .cls-61{clip-path:url(#clip-path-62);}  .cls-62{clip-path:url(#clip-path-63);}  .cls-63{clip-path:url(#clip-path-64);}  .cls-64{clip-path:url(#clip-path-65);}  .cls-65{clip-path:url(#clip-path-66);}  .cls-66{clip-path:url(#clip-path-67);}  .cls-67{clip-path:url(#clip-path-68);}  .cls-68{clip-path:url(#clip-path-69);}  .cls-69{clip-path:url(#clip-path-70);}  .cls-70{clip-path:url(#clip-path-71);}  .cls-71{clip-path:url(#clip-path-72);}  .cls-72{clip-path:url(#clip-path-73);}  .cls-73{clip-path:url(#clip-path-74);}  .cls-74{clip-path:url(#clip-path-75);}  .cls-75{clip-path:url(#clip-path-76);}  .cls-76{clip-path:url(#clip-path-77);}  .cls-77{clip-path:url(#clip-path-78);}  .cls-78{clip-path:url(#clip-path-79);}  .cls-79{clip-path:url(#clip-path-80);}  .cls-80{clip-path:url(#clip-path-81);}  .cls-81{clip-path:url(#clip-path-82);}  .cls-82{clip-path:url(#clip-path-83);}  .cls-83{clip-path:url(#clip-path-84);}  .cls-84{clip-path:url(#clip-path-85);}  .cls-85{clip-path:url(#clip-path-86);}  .cls-86{clip-path:url(#clip-path-87);}  .cls-87{clip-path:url(#clip-path-88);}  .cls-88{clip-path:url(#clip-path-89);}  .cls-89{clip-path:url(#clip-path-90);}  .cls-90{clip-path:url(#clip-path-91);}  .cls-91{clip-path:url(#clip-path-92);}  .cls-92{clip-path:url(#clip-path-93);}  .cls-93{clip-path:url(#clip-path-94);}  .cls-94{clip-path:url(#clip-path-95);}  .cls-95{clip-path:url(#clip-path-96);}  .cls-96{clip-path:url(#clip-path-97);}  .cls-97{clip-path:url(#clip-path-98);}</style><clipPath id="clip-path"><path class="cls-1" d="M-56.71-96.94h2.85a1.86,1.86,0,0,0,.34,0,1.22,1.22,0,0,0,1-1.19,1.23,1.23,0,0,0-1-1.2,1.87,1.87,0,0,0-.34,0h-2.85Z"/></clipPath><clipPath id="clip-path-2"><path class="cls-1" d="M-54.19-114a4.8,4.8,0,0,0-4.93,4.66v4.84h7l.48,0c1.58.08,2.74.84,2.74,2.18a2.27,2.27,0,0,1-2.24,2.14v.05c1.6.11,2.82.94,2.82,2.25s-1.34,2.33-3.13,2.33h-7.65V-86h7.23A4.8,4.8,0,0,0-47-90.64V-114Z"/></clipPath><clipPath id="clip-path-3"><path class="cls-1" d="M-52.85-101.93a1.13,1.13,0,0,0-1-1.11l-.28,0h-2.59v2.27h2.59l.28,0a1.14,1.14,0,0,0,1-1.12"/></clipPath><clipPath id="clip-path-4"><path class="cls-1" d="M-81.47-114a4.8,4.8,0,0,0-4.93,4.66v11.52a10.36,10.36,0,0,0,4.27,1c1.7,0,2.64-1,2.64-2.31v-5.41h4.24V-99c0,2.12-1.38,3.82-6.09,3.82a22.32,22.32,0,0,1-5.06-.58V-86h7.23a4.8,4.8,0,0,0,4.93-4.66V-114Z"/></clipPath><clipPath id="clip-path-5"><path class="cls-1" d="M-67.83-114a4.8,4.8,0,0,0-4.93,4.66v6.11c1.25-1,3.41-1.65,6.92-1.5a24,24,0,0,1,3.87.55v2a10,10,0,0,0-3.73-1c-2.67-.19-4.27,1-4.27,3.22s1.6,3.41,4.27,3.22a10.28,10.28,0,0,0,3.73-1v2a23.41,23.41,0,0,1-3.87.56c-3.51.15-5.67-.48-6.92-1.5V-86h7.23a4.8,4.8,0,0,0,4.93-4.66V-114Z"/></clipPath><clipPath id="clip-path-11"><path class="cls-1" d="M55-96.94h2.85a1.86,1.86,0,0,0,.34,0,1.22,1.22,0,0,0,1-1.19,1.23,1.23,0,0,0-1-1.2,1.87,1.87,0,0,0-.34,0H55Z"/></clipPath><clipPath id="clip-path-12"><path class="cls-1" d="M57.49-114a4.8,4.8,0,0,0-4.93,4.66v4.84h7l.49,0c1.58.08,2.74.84,2.74,2.18a2.28,2.28,0,0,1-2.24,2.14v.05c1.6.11,2.82.94,2.82,2.25S62-95.49,60.2-95.49H52.56V-86h7.23a4.8,4.8,0,0,0,4.93-4.66V-114Z"/></clipPath><clipPath id="clip-path-13"><path class="cls-1" d="M58.83-101.93a1.13,1.13,0,0,0-1-1.11l-.29,0H55v2.27h2.58l.29,0a1.14,1.14,0,0,0,1-1.12"/></clipPath><clipPath id="clip-path-14"><path class="cls-1" d="M30.21-114a4.8,4.8,0,0,0-4.93,4.66v11.52a10.31,10.31,0,0,0,4.26,1c1.71,0,2.65-1,2.65-2.31v-5.41h4.24V-99c0,2.12-1.38,3.82-6.09,3.82a22.32,22.32,0,0,1-5.06-.58V-86h7.23a4.8,4.8,0,0,0,4.93-4.66V-114Z"/></clipPath><clipPath id="clip-path-15"><path class="cls-1" d="M43.85-114a4.8,4.8,0,0,0-4.93,4.66v6.11c1.25-1,3.41-1.65,6.92-1.5a24,24,0,0,1,3.87.55v2a10,10,0,0,0-3.73-1c-2.67-.19-4.27,1-4.27,3.22s1.6,3.41,4.27,3.22a10.28,10.28,0,0,0,3.73-1v2a23.41,23.41,0,0,1-3.87.56c-3.51.15-5.67-.48-6.92-1.5V-86h7.23a4.8,4.8,0,0,0,4.93-4.66V-114Z"/></clipPath><clipPath id="clip-path-21"><path class="cls-3" d="M-87.54,99.19c0,.74.53.82,1,.82,2.07,0,2.76-1.57,2.76-3a2.9,2.9,0,0,0-2.68-3.09,1.82,1.82,0,0,0-.33,0,4.71,4.71,0,0,0-.75,0Zm-.94-4.51c0-.86-.46-.81-.89-.81v-.21h2.77c2.48,0,3.84,1.62,3.84,3.36,0,1-.56,3.34-3.95,3.34H-89.4v-.25c.58-.06.86-.07.89-.72Z"/></clipPath><clipPath id="clip-path-22"><path class="cls-3" d="M-81.33,94.47A.47.47,0,0,1-81.8,94a.47.47,0,0,1,.47-.47h0a.47.47,0,0,1,.46.46A.48.48,0,0,1-81.33,94.47Zm-1,5.62h.19c.27,0,.46,0,.46-.32V97.16c0-.41-.14-.48-.5-.66v-.16l1-.34A.34.34,0,0,1-81,96s.07.06.07.13v3.69c0,.32.21.32.48.32h.16v.25h-2.06Z"/></clipPath><clipPath id="clip-path-23"><path class="cls-3" d="M-79.42,97.21c0-.35-.1-.45-.55-.63v-.19c.4-.13.81-.26,1.26-.45,0,0,.06,0,.06.08v.63A2.86,2.86,0,0,1-77,95.94c.81,0,1.09.59,1.09,1.34v2.44c0,.32.22.32.48.32h.18v.25h-2.06V100h.17c.27,0,.47,0,.47-.32V97.27c0-.55-.33-.81-.89-.81a2.53,2.53,0,0,0-1.11.46v2.84c0,.32.21.32.48.32H-78v.25H-80v-.25h.17c.27,0,.46,0,.46-.32V97.21"/></clipPath><clipPath id="clip-path-24"><path class="cls-3" d="M-72.8,97.37c.24,0,.27-.13.27-.25a.82.82,0,0,0-.74-.88h-.08c-.57,0-1,.43-1.09,1.13Zm-1.7.3a2.62,2.62,0,0,0,0,.56,1.63,1.63,0,0,0,1.41,1.63,1.85,1.85,0,0,0,1.3-.64l.14.13a2.3,2.3,0,0,1-1.79,1.09,1.93,1.93,0,0,1-1.83-2v-.08a2.15,2.15,0,0,1,1.94-2.45,1.54,1.54,0,0,1,1.63,1.42v.26l-.09.06Z"/></clipPath><clipPath id="clip-path-25"><path class="cls-3" d="M-71.48,100.07h.26c.27,0,.45,0,.45-.32V97.06c0-.3-.35-.36-.49-.43v-.15c.7-.3,1.08-.54,1.17-.54s.09,0,.09.12v.85h0c.24-.37.64-1,1.23-1a.51.51,0,0,1,.54.49h0a.45.45,0,0,1-.43.49h0c-.3,0-.3-.23-.64-.23a.83.83,0,0,0-.7.82v2.25c0,.32.19.32.46.32H-69v.25H-71.5v-.25"/></clipPath><clipPath id="clip-path-26"><path class="cls-3" d="M-67.79,99a1.28,1.28,0,0,0,1.22,1.18.67.67,0,0,0,.76-.57.49.49,0,0,0,0-.12c0-1.13-2.09-.76-2.09-2.31a1.33,1.33,0,0,1,1.39-1.24h.1a2.49,2.49,0,0,1,1.1.28l.06,1h-.22a1,1,0,0,0-1-1h0a.68.68,0,0,0-.74.62v0c0,1.12,2.23.81,2.23,2.29,0,.63-.51,1.31-1.62,1.31a2.68,2.68,0,0,1-1.18-.33l-.1-1.1.17,0"/></clipPath><clipPath id="clip-path-27"><path class="cls-3" d="M-56.35,95.36h-.24a1.82,1.82,0,0,0-2-1.58h0a2.73,2.73,0,0,0-2.71,3,3.13,3.13,0,0,0,2.85,3.35,2,2,0,0,0,1.94-1.63l.22.06-.22,1.4a5.37,5.37,0,0,1-2.12.51,3.42,3.42,0,0,1-3.67-3.15c0-.15,0-.31,0-.46a3.54,3.54,0,0,1,3.64-3.39,6.81,6.81,0,0,1,2.27.51l.1,1.38"/></clipPath><clipPath id="clip-path-28"><path class="cls-3" d="M-56,100.07h.19c.27,0,.46,0,.46-.32V94.4c0-.62-.14-.64-.51-.74V93.5a5.31,5.31,0,0,0,1-.41.84.84,0,0,1,.21-.11c.06,0,.08.06.08.14v6.63c0,.32.21.32.48.32h.16v.25H-56v-.25"/></clipPath><clipPath id="clip-path-29"><path class="cls-3" d="M-49.83,99.79c0,.17.1.18.26.18h.39v.2a11.1,11.1,0,0,0-1.39.3h0V99.7a2.61,2.61,0,0,1-1.7.81,1,1,0,0,1-1-1V96.91c0-.25,0-.49-.58-.54V96.2l1.24-.1c.11,0,.11.07.11.28v2.45c0,.29,0,1.11.81,1.11a2.11,2.11,0,0,0,1.18-.59V96.77c0-.18-.45-.29-.81-.39v-.17c.87,0,1.41-.14,1.5-.14s.08.08.08.18v3.54"/></clipPath><clipPath id="clip-path-30"><path class="cls-3" d="M-47.95,99.24a1,1,0,0,0,1,1c1,0,1.47-1,1.47-1.87A1.84,1.84,0,0,0-47,96.45a1.46,1.46,0,0,0-.91.46Zm0-2.61a2.36,2.36,0,0,1,1.43-.69,1.85,1.85,0,0,1,1.83,1.89.49.49,0,0,1,0,.12A2.44,2.44,0,0,1-47,100.47a2.87,2.87,0,0,1-1.35-.3l-.28.23-.21-.11a9.32,9.32,0,0,0,.13-1.75V94.4c0-.62-.13-.64-.5-.74V93.5a5.31,5.31,0,0,0,1-.41A.7.7,0,0,1-48,93s.08.06.08.14Z"/></clipPath><clipPath id="clip-path-31"><path class="cls-3" d="M-89.38,105.91h.08c.19,0,.39,0,.39-.3v-2.74c0-.27-.2-.29-.39-.29h-.08v-.16h1.59v.19h0c-.19,0-.4,0-.4.29v2.75c0,.27.21.29.4.29h.07v.16h-1.59v-.16"/></clipPath><clipPath id="clip-path-32"><path class="cls-3" d="M-87.8,106.05v-.12h0c-.19,0-.41,0-.41-.32v-2.74c0-.28.22-.32.41-.32h0v-.11h-1.56v.11h0c.19,0,.41,0,.41.32v2.74c0,.29-.22.32-.41.32h0v.12h1.56Zm0,0h-1.59v-.22h.1c.18,0,.36,0,.36-.27v-2.73c0-.25-.18-.27-.36-.28h-.1v-.2h1.59v.22h0c-.19,0-.37,0-.37.28v2.74c0,.25.18.27.37.27h.09v.2Z"/></clipPath><clipPath id="clip-path-33"><path class="cls-3" d="M-84.19,105.05h0v-2c0-.43-.29-.49-.45-.49h-.11v-.16h1.37v.19h-.07c-.22,0-.46,0-.46.66v2.38a2.35,2.35,0,0,0,0,.53h-.2l-2.69-3v2.12c0,.45.09.61.49.61h.09v.16H-87.6v-.16h.07c.37,0,.47-.25.47-.66V103a.46.46,0,0,0-.46-.46h-.08v-.16h1.07l2.34,2.63"/></clipPath><clipPath id="clip-path-34"><path class="cls-3" d="M-84.2,105.05m0,0,.11,1.09h.17a4.34,4.34,0,0,1,0-.51v-2.39c0-.63.26-.69.49-.69h.05v-.11h-1.33v.11h.12a.47.47,0,0,1,.48.44.22.22,0,0,1,0,.08v2h0l-2.32-2.63h-1v.12h0a.49.49,0,0,1,.5.48h0v2.2c0,.42-.12.69-.5.69h0V106h1.35v-.11h-.07c-.41,0-.52-.18-.52-.64v-2.2Zm.19,0h-.2l-2.65-3v2.07c0,.45.07.58.47.58h.1v.21h-1.38v-.22h.1c.35,0,.45-.22.45-.64V103a.45.45,0,0,0-.45-.45h-.1v-.2h1.08l2.31,2.59v-1.91a.43.43,0,0,0-.38-.46h-.18v-.2h1.38v.2h-.1c-.22,0-.44,0-.45.64v2.38a4.69,4.69,0,0,0,0,.53h0Z"/></clipPath><clipPath id="clip-path-35"><path class="cls-3" d="M-82.59,102.68c-.39,0-.41.09-.48.48h-.16a1.17,1.17,0,0,1,.06-.45,3.23,3.23,0,0,0,0-.44H-83c0,.15.18.15.32.15H-80c.15,0,.28,0,.29-.17h.12c0,.14,0,.29-.05.43a2.94,2.94,0,0,0,0,.42l-.15.06c0-.2,0-.51-.39-.51h-.84v2.81c0,.41.18.45.43.45h.11v.16h-1.74v-.16h.11c.29,0,.44,0,.44-.44v-2.79h-.88"/></clipPath><clipPath id="clip-path-36"><path class="cls-3" d="M-80.52,106.09h-1.74v-.22h.11c.29,0,.4,0,.41-.42v-2.77h.07v2.81c0,.43-.17.47-.46.47h-.08v.11h1.68V106h-.09c-.25,0-.45-.06-.45-.48v-2.82h.88c.35,0,.4.29.41.49h.11v-.41l0-.41h-.08c0,.15-.18.16-.31.16h-2.71c-.13,0-.26,0-.31-.16h-.08a3.23,3.23,0,0,1,0,.44c0,.13,0,.27-.06.41h.11c.07-.37.12-.48.51-.47h0c-.39,0-.39.07-.47.45h-.2c0-.14,0-.29.06-.44a3.09,3.09,0,0,0,0-.43h.2c0,.13.13.13.27.13H-80c.14,0,.25,0,.26-.14h.14a1.21,1.21,0,0,1-.05.42,1,1,0,0,0,0,.42h0l-.19.07h0c0-.2,0-.48-.37-.48H-81v2.75c0,.39.16.42.41.42h.06v.21h0"/></clipPath><clipPath id="clip-path-37"><path class="cls-3" d="M-79.43,105.91h.08c.18,0,.39,0,.39-.3v-2.74c0-.27-.21-.29-.39-.29h-.08v-.16h2.64v.81h-.16c0-.34-.09-.61-.64-.61h-.72V104h.62c.31,0,.38-.18.41-.47h.16v1.22h-.16c0-.31,0-.52-.4-.52h-.63v1.22c0,.34.3.34.63.34.63,0,.91,0,1.06-.64h.15c-.07.29-.13.56-.17.82h-2.8v-.17"/></clipPath><clipPath id="clip-path-38"><path class="cls-3" d="M-76.65,106.05c.05-.27.1-.53.17-.82h-.11c-.15.59-.45.65-1.07.64-.33,0-.66,0-.66-.36v-1.27h.65c.37,0,.4.22.42.51h.12v-1.16h-.13c0,.27-.12.46-.43.46h-.63v-1.44h.75c.54,0,.63.28.66.6h.11a4.17,4.17,0,0,1,0-.5v-.25h-2.59v.11h0c.19,0,.41,0,.41.32v2.74c0,.29-.22.32-.41.32h0v.11h2.74Zm0,0h-2.8v-.22h.1c.18,0,.35,0,.36-.27v-2.73c0-.25-.18-.27-.36-.28h-.1v-.2h2.64v.8h0l-.18,0h0c0-.34-.08-.59-.62-.6h-.71V104h.6c.3,0,.36-.15.39-.43h.21v1.21h-.19c0-.32,0-.5-.38-.5h-.61v1.2c0,.32.27.31.62.32.62,0,.87,0,1-.63h0l.17,0h0q-.11.42-.18.81h0Z"/></clipPath><clipPath id="clip-path-39"><path class="cls-3" d="M-75.08,104.18h.26c.52,0,.81-.19.81-.81a.71.71,0,0,0-.66-.77h-.4Zm-.67-1.21c0-.38-.21-.39-.37-.39h-.09v-.16h1.63c.66,0,1.24.17,1.24.92a1,1,0,0,1-.67.9l.9,1.34a.58.58,0,0,0,.51.31v.16h-1a14.35,14.35,0,0,1-1.08-1.7H-75v1.13c0,.4.19.41.43.41h.09v.16h-1.65v-.16h.09c.19,0,.37-.09.37-.28Z"/></clipPath><clipPath id="clip-path-40"><path class="cls-3" d="M-74.82,104.17c.51,0,.81-.19.81-.82a.69.69,0,0,0-.63-.74h-.11a1.22,1.22,0,0,0-.27,0v1.51Zm-.26,0h0v-1.6h.3a.74.74,0,0,1,.82.64v.17c0,.63-.31.82-.82.82Zm0,.14h.37A16.48,16.48,0,0,0-73.65,106h1v-.12a.6.6,0,0,1-.51-.32l-.91-1.36h0a1,1,0,0,0,.72-.9c0-.73-.56-.9-1.22-.9h-1.63v.11h.06c.17,0,.4,0,.4.42v2.66c0,.2-.19.3-.4.3h-.06v.12h1.61v-.12h-.07c-.24,0-.46,0-.46-.44v-1.14Zm2.44,1.74h-1a13.14,13.14,0,0,1-1.09-1.69h-.31v1.1c0,.39.17.39.41.39h.12v.21h-1.66v-.23h.12c.19,0,.35-.08.35-.26V103c0-.37-.19-.37-.35-.38h-.12v-.2h1.63c.66,0,1.26.19,1.26,1a1,1,0,0,1-.71.9l.88,1.31a.55.55,0,0,0,.49.3h0v.24Z"/></clipPath><clipPath id="clip-path-41"><path class="cls-3" d="M-69.12,105.05h0v-2a.43.43,0,0,0-.37-.49h-.2v-.16h1.38v.19h-.09c-.22,0-.46,0-.46.66v2.38a4.68,4.68,0,0,0,0,.53h-.2l-2.69-3v2.12c0,.45.09.61.49.61h.09v.16h-1.39v-.16h.18c.36,0,.48-.25.48-.66V103a.48.48,0,0,0-.48-.43h-.06v-.16h1.06l2.26,2.6"/></clipPath><clipPath id="clip-path-42"><path class="cls-3" d="M-69.12,105.05m.11,1.09h.17a4.34,4.34,0,0,1,0-.51v-2.39c0-.63.26-.69.48-.69h0v-.11h-1.32v.11h.09a.46.46,0,0,1,.48.43v2.07h0l-2.32-2.63h-1.05v.12h.05a.48.48,0,0,1,.5.48h0v2.2c0,.42-.11.69-.49.69h-.06V106h1.35v-.11h-.07c-.41,0-.51-.18-.51-.64v-2.2Zm.2,0H-69l-2.66-3v2.07c0,.45.09.58.48.58h.11v.21h-1.38v-.22h.1c.34,0,.44-.22.45-.64V103a.45.45,0,0,0-.45-.43h-.09v-.2h1.09l2.26,2.58v-1.92a.42.42,0,0,0-.35-.47h-.22v-.2h1.38v.22h-.1c-.21,0-.44,0-.44.64v2.38a4.69,4.69,0,0,0,0,.53h0Z"/></clipPath><clipPath id="clip-path-43"><path class="cls-3" d="M-66.68,103h0l-.49,1.48h1Zm-.76,2.32a2.77,2.77,0,0,0-.12.41c0,.15.22.18.39.18h.06v.16h-1.2v-.16h0a.48.48,0,0,0,.46-.34l.81-2.44a3.75,3.75,0,0,0,.2-.65,3.41,3.41,0,0,0,.48-.22h0l0,.13,1,2.74c.06.18.13.37.19.53a.35.35,0,0,0,.35.21h0V106h-1.53v-.16h0c.12,0,.33,0,.33-.15a3.37,3.37,0,0,0,.1-.34l-.21-.6h-1.2Z"/></clipPath><clipPath id="clip-path-44"><path class="cls-3" d="M-66.68,103m-.45,1.45h.92l-.47-1.4Zm-.05.05.5-1.53h0l.5,1.53Zm1.06,1.54h1.46v-.12h0a.35.35,0,0,1-.37-.22c-.06-.16-.13-.36-.18-.53l-1-2.74v-.12h0a2.11,2.11,0,0,1-.46.21,4.88,4.88,0,0,1-.2.65l-.81,2.39a.51.51,0,0,1-.48.36h0v.12H-67v-.12h0c-.17,0-.41,0-.41-.2a2.17,2.17,0,0,1,.11-.42h0l.17-.56h1.22l.21.63a1.27,1.27,0,0,1,.11.38c0,.16-.23.17-.35.17h0Zm1.48,0h-1.53v-.22h.09c.12,0,.3,0,.3-.12a1.64,1.64,0,0,0-.1-.38l-.2-.59h-1.17l-.16.53a1.52,1.52,0,0,0-.12.4c0,.13.2.16.37.16h.08v.2h-1.19v-.2h0a.44.44,0,0,0,.43-.32l.82-2.44a5.16,5.16,0,0,0,.2-.67,2.62,2.62,0,0,0,.48-.22,0,0,0,0,1,.05,0,.06.06,0,0,1,.06,0l.05.13,1,2.74a4.6,4.6,0,0,0,.19.52.29.29,0,0,0,.32.2h.06v.2Z"/></clipPath><clipPath id="clip-path-45"><path class="cls-3" d="M-64.42,102.68c-.39,0-.41.09-.48.48H-65c0-.15,0-.3.06-.45a1.62,1.62,0,0,0,0-.44h.14c0,.15.17.15.3.15h2.76c.14,0,.27,0,.28-.17h.12c0,.14,0,.29,0,.43a2.94,2.94,0,0,0,0,.42l-.16.06c0-.2,0-.51-.39-.51h-.9v2.81c0,.41.18.45.43.45h.1v.16H-64.1v-.16h.1c.29,0,.44,0,.44-.44v-2.79h-.81"/></clipPath><clipPath id="clip-path-46"><path class="cls-3" d="M-62.36,106.09H-64.1v-.22H-64c.3,0,.41,0,.42-.42v-2.77h.06v2.81c0,.43-.17.47-.46.47h-.11v.11h1.67V106h-.08c-.25,0-.45-.06-.45-.48v-2.82H-62c.35,0,.4.29.41.49h.11a2.81,2.81,0,0,1,0-.41,1.15,1.15,0,0,1,.05-.41h-.08c0,.15-.17.16-.3.16h-2.7c-.13,0-.26,0-.31-.16h-.08v.44c0,.13,0,.27-.06.41h.1c.08-.37.12-.48.52-.47h0c-.39,0-.39.07-.47.45H-65a1.09,1.09,0,0,1,.06-.44,3.23,3.23,0,0,0,0-.44h.17c0,.13.13.13.27.13h2.76c.14,0,.25,0,.26-.14h.15a1,1,0,0,1-.06.42,1.24,1.24,0,0,0,0,.43h0l-.18.06h0c0-.19,0-.48-.37-.48h-.81v2.76c0,.39.16.42.4.42h.13v.21h0"/></clipPath><clipPath id="clip-path-47"><path class="cls-3" d="M-61.23,105.91h.07c.19,0,.39,0,.39-.3v-2.74c0-.27-.2-.29-.39-.29h-.07v-.16h1.63v.19h-.08c-.18,0-.39,0-.39.29v2.75c0,.27.21.29.39.29h.08v.16h-1.63v-.16"/></clipPath><clipPath id="clip-path-48"><path class="cls-3" d="M-59.66,106.05v-.12h-.05c-.19,0-.41,0-.41-.32v-2.74c0-.28.22-.32.41-.32h.05v-.11h-1.56v.11h0c.19,0,.41,0,.41.32v2.74c0,.29-.22.32-.41.32h0v.12h1.56Zm0,0h-1.63v-.22h.1c.19,0,.36,0,.36-.27v-2.73c0-.25-.17-.27-.36-.28h-.1v-.2h1.63v.22h-.1c-.19,0-.36,0-.36.28v2.74c0,.25.17.27.36.27h.1v.2Z"/></clipPath><clipPath id="clip-path-49"><path class="cls-3" d="M-57.47,105.92c1,0,1.19-.9,1.19-1.63s-.41-1.68-1.28-1.68-1.19.81-1.19,1.51c0,.94.43,1.84,1.28,1.84m-.08-3.58a1.84,1.84,0,0,1,2,1.66.61.61,0,0,1,0,.14,1.92,1.92,0,0,1-1.84,2h-.14a1.83,1.83,0,0,1-1.95-1.72v-.15a1.91,1.91,0,0,1,1.88-1.93h.05"/></clipPath><clipPath id="clip-path-50"><path class="cls-3" d="M-58.77,104.08c0-.7.27-1.53,1.21-1.53s1.3.94,1.3,1.71-.18,1.68-1.21,1.68v-.07c1,0,1.16-.87,1.16-1.63s-.4-1.63-1.25-1.63-1.16.81-1.16,1.49c0,.94.42,1.81,1.25,1.81v0c-.87,0-1.3-.92-1.3-1.86m-.74.19a1.94,1.94,0,0,1,1.92-2h0a1.89,1.89,0,0,0-1.91,1.86v0a1.83,1.83,0,0,0,1.8,1.85h.13a1.9,1.9,0,0,0,2-1.82v-.16a1.82,1.82,0,0,0-1.84-1.79h-.14a1.85,1.85,0,0,1,2,1.67v.15a2,2,0,0,1-1.86,2h-.14a1.88,1.88,0,0,1-2-1.78.92.92,0,0,1,0-.16"/></clipPath><clipPath id="clip-path-51"><path class="cls-3" d="M-52,105.05h0v-2a.44.44,0,0,0-.37-.49h-.2v-.16h1.37v.19h-.08c-.21,0-.46,0-.46.66v2.38a2.35,2.35,0,0,0,0,.53H-52l-2.69-3v2.12c0,.45.09.61.48.61h.09v.16h-1.38v-.16h.07c.36,0,.48-.25.48-.66V103a.47.47,0,0,0-.47-.46h-.08v-.16h1.07l2.37,2.63"/></clipPath><clipPath id="clip-path-52"><path class="cls-3" d="M-52,105.05m.1,1.09h.17a4.34,4.34,0,0,1,0-.51v-2.39c0-.63.27-.69.49-.69h0v-.11h-1.33v.11h.09A.47.47,0,0,1-52,103a.28.28,0,0,1,0,.09v2h0l-2.33-2.63h-1v.12h0a.5.5,0,0,1,.51.49h0v2.2c0,.42-.13.69-.5.69h-.05V106H-54v-.11h-.07c-.41,0-.51-.18-.51-.64v-2.2Zm.2,0h-.22l-2.65-3v2.07c0,.45.07.58.46.58H-54v.21H-55.4v-.22h.1c.34,0,.45-.22.45-.64V103a.45.45,0,0,0-.45-.45h-.14v-.2h1.08L-52,105v-1.92a.42.42,0,0,0-.36-.47h-.21v-.2h1.37v.22h-.07c-.21,0-.43,0-.44.64v2.38a4.69,4.69,0,0,0,0,.53h0Z"/></clipPath><clipPath id="clip-path-53"><path class="cls-3" d="M-49.58,103h0l-.49,1.48h1Zm-.82,2.32a1.91,1.91,0,0,0-.11.41c0,.15.22.18.39.18H-50v.16h-1.2v-.16h0a.47.47,0,0,0,.45-.34l.82-2.44a4.84,4.84,0,0,0,.19-.65,3,3,0,0,0,.48-.22h0v.13l1,2.74c.06.18.13.37.19.53a.34.34,0,0,0,.35.21h0V106h-1.54v-.16h.06c.11,0,.33,0,.33-.15a2.27,2.27,0,0,0,.19-.34l-.2-.6H-50.2Z"/></clipPath><clipPath id="clip-path-54"><path class="cls-3" d="M-49.58,103m-.45,1.45h.91l-.46-1.4Zm-.07.05.51-1.53h0l.5,1.53Zm1.07,1.54h1.47v-.12h0a.35.35,0,0,1-.37-.22c-.07-.16-.13-.36-.2-.53l-1-2.74s0-.09,0-.12h0a2.06,2.06,0,0,1-.48.21,3.72,3.72,0,0,1-.19.65l-.82,2.39a.49.49,0,0,1-.48.36h0v.12h1.16v-.12h0c-.17,0-.41,0-.42-.2a2.25,2.25,0,0,1,.13-.42h0l.17-.56h1.22l.2.63a1.66,1.66,0,0,1,.11.38c0,.16-.23.17-.34.17h0Zm1.48,0h-1.53v-.22H-49c.13,0,.3,0,.3-.12a1.64,1.64,0,0,0-.1-.38l-.2-.59h-1.18l-.17.53a3,3,0,0,0-.11.4c0,.13.19.16.36.16H-50v.2H-51.2v-.2h0a.46.46,0,0,0,.44-.32l.81-2.44a5.6,5.6,0,0,0,.21-.66,2.65,2.65,0,0,0,.48-.23h.05a0,0,0,0,1,0,0l.05.13,1,2.74c.07.18.13.37.2.53a.3.3,0,0,0,.32.19h0v.2Z"/></clipPath><clipPath id="clip-path-55"><path class="cls-3" d="M-46.26,105.56c0,.2.14.27.31.29a4,4,0,0,0,.69,0,.71.71,0,0,0,.5-.28,1.18,1.18,0,0,0,.16-.38h.15c0,.3-.13.6-.19.9H-47.4v-.17h.07c.19,0,.39,0,.39-.35v-2.68c0-.27-.2-.3-.39-.3h-.07v-.16h1.63v.18h-.13c-.2,0-.35,0-.35.28v2.7"/></clipPath><clipPath id="clip-path-56"><path class="cls-3" d="M-44.66,106.05c.06-.29.13-.57.19-.82h-.11a1.22,1.22,0,0,1-.16.37.74.74,0,0,1-.52.29h-.69a.31.31,0,0,1-.34-.31v-2.73c0-.28.18-.3.38-.3h.1v-.11h-1.62v.11h0c.18,0,.41,0,.41.32v2.69c0,.34-.23.37-.41.37h0v.12h2.77Zm0,0h-2.76v-.22h.1c.19,0,.37,0,.38-.33v-2.69c0-.25-.19-.26-.38-.27h-.1v-.21h1.63v.24h-.15c-.21,0-.33,0-.34.26v2.7c0,.2.13.25.3.27h.68a.86.86,0,0,0,.49-.27,1.34,1.34,0,0,0,.16-.37h.2l-.2.89h0Z"/></clipPath><clipPath id="clip-path-57"><path class="cls-3" d="M-44.6,102.82h.06c.08,0,.11,0,.11-.14a.11.11,0,0,0-.11-.12h-.06Zm-.19.3h0c.08,0,.08,0,.08-.05v-.46c0-.06,0-.07-.07-.07h.28c.1,0,.18,0,.18.14a.16.16,0,0,1-.13.17l.09.12a.8.8,0,0,0,.13.13h-.11s-.1-.11-.2-.26h-.06V103h.08Zm.28.15a.45.45,0,0,0,.44-.45.46.46,0,0,0-.44-.45.46.46,0,0,0-.45.45A.45.45,0,0,0-44.51,103.27Zm0-1a.53.53,0,0,1,.55.54h0a.55.55,0,0,1-.55.56.55.55,0,0,1-.55-.56.53.53,0,0,1,.53-.55Z"/></clipPath><clipPath id="clip-path-58"><path class="cls-3" d="M-77.16,84a8.85,8.85,0,0,1,8.88-8.83A8.86,8.86,0,0,1-59.45,84a8.85,8.85,0,0,1-8.86,8.83A8.85,8.85,0,0,1-77.16,84v0"/></clipPath><clipPath id="clip-path-59"><path class="cls-3" d="M-68.31,93a9.19,9.19,0,0,1-9.24-9.08,9.06,9.06,0,0,1,8.85-9.26h2.77a9.36,9.36,0,0,1,9.6,9.12v.14c0,5-4.58,9.09-9.59,9.09Zm0-17.58a8.38,8.38,0,0,0-8.37,8.42,8.4,8.4,0,0,0,8.42,8.38,8.4,8.4,0,0,0,8.38-8.4,8.4,8.4,0,0,0-8.42-8.4Zm-1.88,13.38v-10a5.33,5.33,0,0,0-3,6.89,5.29,5.29,0,0,0,3,3Zm7.23-5a5.31,5.31,0,0,0-3.42-5v9.93a5.3,5.3,0,0,0,3.42-5Z"/></clipPath><clipPath id="clip-path-60"><path class="cls-3" d="M24.14,99.19c0,.74.53.82,1,.82,2.07,0,2.76-1.57,2.76-3a2.9,2.9,0,0,0-2.68-3.09,1.82,1.82,0,0,0-.33,0,4.71,4.71,0,0,0-.75,0Zm-.94-4.51c0-.86-.46-.81-.89-.81v-.21h2.77c2.48,0,3.84,1.62,3.84,3.36,0,1-.56,3.34-4,3.34H22.28v-.25c.58-.06.85-.07.89-.72Z"/></clipPath><clipPath id="clip-path-61"><path class="cls-3" d="M30.35,94.47a.47.47,0,1,1,0-.94h0a.47.47,0,0,1,.46.46A.48.48,0,0,1,30.35,94.47Zm-1,5.62h.19c.27,0,.46,0,.46-.32V97.16c0-.41-.14-.48-.5-.66v-.16c.45-.14,1-.32,1-.34a.41.41,0,0,1,.18,0s.07.06.07.13v3.69c0,.32.21.32.48.32h.16v.25H29.31Z"/></clipPath><clipPath id="clip-path-62"><path class="cls-3" d="M32.26,97.21c0-.35-.11-.45-.55-.63v-.19c.4-.13.81-.26,1.26-.45,0,0,.05,0,.05.08v.63a2.89,2.89,0,0,1,1.67-.71c.82,0,1.1.59,1.1,1.34v2.44c0,.32.21.32.48.32h.18v.25H34.39V100h.17c.27,0,.47,0,.47-.32V97.27c0-.55-.34-.81-.89-.81a2.57,2.57,0,0,0-1.12.46v2.84c0,.32.22.32.49.32h.17v.25H31.62v-.25h.18c.26,0,.46,0,.46-.32V97.21"/></clipPath><clipPath id="clip-path-63"><path class="cls-3" d="M38.88,97.37c.24,0,.27-.13.27-.25a.82.82,0,0,0-.74-.88h-.08c-.58,0-1,.43-1.1,1.13Zm-1.7.3a2.62,2.62,0,0,0,0,.56,1.63,1.63,0,0,0,1.41,1.63,1.87,1.87,0,0,0,1.3-.64l.14.13a2.31,2.31,0,0,1-1.79,1.09,1.93,1.93,0,0,1-1.83-2v-.08a2.15,2.15,0,0,1,1.94-2.45A1.53,1.53,0,0,1,40,97.31a.28.28,0,0,1,0,.09v.17l-.09.06Z"/></clipPath><clipPath id="clip-path-64"><path class="cls-3" d="M40.2,100.07h.26c.27,0,.45,0,.45-.32V97.06c0-.3-.35-.36-.49-.43v-.15c.7-.3,1.08-.54,1.17-.54s.09,0,.09.12v.85h0c.23-.37.64-1,1.23-1a.51.51,0,0,1,.54.49h0a.46.46,0,0,1-.44.49h0c-.31,0-.31-.23-.64-.23a.83.83,0,0,0-.7.82v2.25c0,.32.19.32.46.32h.53v.25H40.18v-.25"/></clipPath><clipPath id="clip-path-65"><path class="cls-3" d="M43.89,99a1.28,1.28,0,0,0,1.22,1.18.67.67,0,0,0,.76-.57.49.49,0,0,0,0-.12c0-1.13-2.09-.76-2.09-2.31a1.32,1.32,0,0,1,1.39-1.24h.1a2.49,2.49,0,0,1,1.1.28l.06,1h-.22a1,1,0,0,0-1-1h0a.7.7,0,0,0-.75.62v0c0,1.12,2.23.81,2.23,2.29,0,.63-.51,1.31-1.63,1.31a2.67,2.67,0,0,1-1.17-.33l-.1-1.1.17,0"/></clipPath><clipPath id="clip-path-66"><path class="cls-3" d="M55.33,95.36h-.24a1.82,1.82,0,0,0-2-1.58h0a2.74,2.74,0,0,0-2.72,3,3.14,3.14,0,0,0,2.86,3.35,2,2,0,0,0,1.94-1.63l.22.06-.22,1.4a5.42,5.42,0,0,1-2.13.51,3.42,3.42,0,0,1-3.66-3.15,2.36,2.36,0,0,1,0-.46A3.54,3.54,0,0,1,53,93.51a6.81,6.81,0,0,1,2.27.51l.1,1.38"/></clipPath><clipPath id="clip-path-67"><path class="cls-3" d="M55.67,100.07h.19c.27,0,.46,0,.46-.32V94.4c0-.62-.14-.64-.51-.74V93.5a5.31,5.31,0,0,0,1-.41A.7.7,0,0,1,57,93c.05,0,.08.06.08.14v6.63c0,.32.21.32.48.32h.16v.25H55.67v-.25"/></clipPath><clipPath id="clip-path-68"><path class="cls-3" d="M61.84,99.79c0,.17.11.18.27.18h.38v.2a11,11,0,0,0-1.38.3h0V99.7a2.61,2.61,0,0,1-1.7.81,1,1,0,0,1-1.06-1s0-.08,0-.13V96.91c0-.25,0-.49-.58-.54V96.2L59,96.1c.11,0,.11.07.11.28v2.45c0,.29,0,1.11.81,1.11a2.11,2.11,0,0,0,1.18-.59V96.77c0-.18-.46-.29-.81-.39v-.17c.87,0,1.4-.14,1.49-.14s.09.08.09.18v3.54"/></clipPath><clipPath id="clip-path-69"><path class="cls-3" d="M63.72,99.24a1,1,0,0,0,1,1c1,0,1.46-1,1.46-1.87a1.83,1.83,0,0,0-1.53-1.9,1.48,1.48,0,0,0-.92.46Zm0-2.61a2.41,2.41,0,0,1,1.44-.69A1.85,1.85,0,0,1,67,97.83s0,.08,0,.12a2.45,2.45,0,0,1-2.3,2.52,2.86,2.86,0,0,1-1.34-.3l-.28.23-.21-.11A10.24,10.24,0,0,0,63,98.54V94.4c0-.62-.14-.64-.5-.74V93.5a5,5,0,0,0,1-.41.91.91,0,0,1,.22-.11s.08.06.08.14Z"/></clipPath><clipPath id="clip-path-70"><path class="cls-3" d="M22.3,105.91h.08c.18,0,.39,0,.39-.3v-2.74c0-.27-.21-.29-.39-.29H22.3v-.16h1.59v.19h-.06c-.18,0-.39,0-.39.29v2.75c0,.27.21.29.39.29h.08v.16H22.32v-.16"/></clipPath><clipPath id="clip-path-71"><path class="cls-3" d="M23.87,106.05v-.12h0c-.18,0-.4,0-.4-.32v-2.74c0-.28.22-.32.4-.32h.05v-.11H22.32v.11h.05c.19,0,.41,0,.41.32v2.74c0,.29-.22.32-.41.32h-.05v.12h1.55Zm0,0H22.29v-.22h.09c.19,0,.37,0,.37-.27v-2.73c0-.25-.18-.27-.37-.28h-.09v-.2h1.58v.22h0c-.18,0-.36,0-.36.28v2.74c0,.25.18.27.36.27h.1v.2Z"/></clipPath><clipPath id="clip-path-72"><path class="cls-3" d="M27.49,105.05h0v-2c0-.43-.29-.49-.45-.49h-.11v-.16H28.3v.19h-.07c-.22,0-.46,0-.46.66v2.38a2.35,2.35,0,0,0,0,.53h-.2l-2.69-3v2.12c0,.45.09.61.49.61h.09v.16H24.08v-.16h.07c.37,0,.47-.25.47-.66V103a.46.46,0,0,0-.46-.46h-.08v-.16h1.06l2.35,2.63"/></clipPath><clipPath id="clip-path-73"><path class="cls-3" d="M27.48,105.05m0,0,.11,1.09h.17a2.17,2.17,0,0,1,0-.51v-2.39c0-.63.26-.69.49-.69h.05v-.11H27v.11h.12a.47.47,0,0,1,.48.44.22.22,0,0,1,0,.08v2h0l-2.33-2.63h-1v.12h0a.49.49,0,0,1,.5.48h0v2.2c0,.42-.12.69-.5.69h0V106h1.35v-.11h-.07c-.42,0-.52-.18-.52-.64v-2.2Zm.19,0h-.2l-2.66-3v2.07c0,.45.08.58.48.58h.1v.21H24.12v-.22h.1c.35,0,.44-.22.44-.64V103a.45.45,0,0,0-.44-.45h-.1v-.2H25.2L27.51,105v-1.91a.43.43,0,0,0-.38-.46H27v-.2h1.38v.2h-.1c-.22,0-.44,0-.45.64v2.38a4.69,4.69,0,0,0,0,.53h0Z"/></clipPath><clipPath id="clip-path-74"><path class="cls-3" d="M29.09,102.68c-.4,0-.41.09-.49.48h-.15a1.17,1.17,0,0,1,.06-.45,3.23,3.23,0,0,0,0-.44h.12c.05.15.18.15.32.15h2.69c.15,0,.28,0,.29-.17h.12c0,.14,0,.29,0,.43a2.94,2.94,0,0,0,0,.42l-.16.06c0-.2,0-.51-.39-.51h-.84v2.81c0,.41.19.45.44.45h.11v.16H29.42v-.16h.11c.29,0,.43,0,.43-.44v-2.79h-.87"/></clipPath><clipPath id="clip-path-75"><path class="cls-3" d="M31.16,106.09H29.42v-.22h.11c.29,0,.4,0,.41-.42v-2.77H30v2.81c0,.43-.17.47-.45.47h-.08v.11h1.67V106h-.08c-.25,0-.45-.06-.45-.48v-2.82h.88c.35,0,.39.29.41.49H32v-.41l.05-.41H32c0,.15-.17.16-.3.16H29c-.12,0-.26,0-.31-.16h-.08a1.62,1.62,0,0,1,0,.44c0,.13,0,.27,0,.41h.11c.07-.37.11-.48.51-.47h0c-.4,0-.39.07-.47.45h-.2c0-.14.05-.29.05-.44a1.55,1.55,0,0,0,0-.43h.21c0,.13.13.13.27.13h2.72c.14,0,.25,0,.26-.14h.14a1.21,1.21,0,0,1,0,.42,1,1,0,0,0,0,.42h0l-.19.07h0c0-.2,0-.48-.37-.48h-.81v2.75c0,.39.16.42.41.42h.06v.21h0"/></clipPath><clipPath id="clip-path-76"><path class="cls-3" d="M32.25,105.91h.07c.19,0,.4,0,.4-.3v-2.74c0-.27-.21-.29-.4-.29h-.07v-.16h2.64v.81h-.16c0-.34-.09-.61-.64-.61h-.72V104H34c.31,0,.38-.18.41-.47h.16v1.22H34.4c0-.31,0-.52-.41-.52h-.62v1.22c0,.34.3.34.63.34.63,0,.91,0,1.06-.64h.15c-.07.29-.13.56-.17.82h-2.8v-.17"/></clipPath><clipPath id="clip-path-77"><path class="cls-3" d="M35,106.05c0-.27.1-.53.17-.82h-.11c-.15.59-.45.65-1.07.64-.33,0-.66,0-.66-.36v-1.27H34c.37,0,.4.22.42.51h.12v-1.16h-.13c0,.27-.12.46-.43.46h-.63v-1.44h.75c.54,0,.63.28.66.6h.11a4.17,4.17,0,0,1,0-.5v-.25H32.29v.11h.05c.19,0,.41,0,.41.32v2.74c0,.29-.22.32-.41.32h-.05v.11H35Zm0,0h-2.8v-.22h.09c.19,0,.36,0,.37-.27v-2.73c0-.25-.18-.27-.37-.28h-.09v-.2h2.63v.8h0l-.17,0h0c0-.34-.09-.59-.62-.6h-.71V104H34c.3,0,.36-.15.39-.43h.21v1.21h-.19c0-.32,0-.5-.38-.5h-.62v1.2c0,.32.28.31.62.32.63,0,.88,0,1-.63h0l.17,0h0q-.1.42-.18.81h0Z"/></clipPath><clipPath id="clip-path-78"><path class="cls-3" d="M36.6,104.18h.26c.52,0,.81-.19.81-.81a.72.72,0,0,0-.66-.77h-.4ZM35.93,103c0-.38-.21-.39-.37-.39h-.09v-.16H37.1c.65,0,1.24.17,1.24.92a1,1,0,0,1-.67.9l.9,1.34a.58.58,0,0,0,.51.31v.16h-1a14.35,14.35,0,0,1-1.08-1.7h-.35v1.13c0,.4.19.41.43.41h.09v.16H35.51v-.16h.09c.19,0,.37-.09.37-.28Z"/></clipPath><clipPath id="clip-path-79"><path class="cls-3" d="M36.86,104.17c.51,0,.81-.19.81-.82a.69.69,0,0,0-.64-.74h-.1a1.22,1.22,0,0,0-.27,0v1.51Zm-.26,0h0v-1.6h.3a.72.72,0,0,1,.81.64.48.48,0,0,1,0,.17c0,.63-.3.82-.81.82Zm0,.14H37A18.51,18.51,0,0,0,38,106h1v-.12a.6.6,0,0,1-.51-.32l-.91-1.36h0a1,1,0,0,0,.72-.9c0-.73-.57-.9-1.22-.9H35.47v.11h.06c.16,0,.4,0,.4.42v2.66c0,.2-.19.3-.4.3h-.06v.12h1.61v-.12H37c-.24,0-.46,0-.46-.44v-1.14ZM39,106.09H38a13.14,13.14,0,0,1-1.09-1.69h-.31v1.1c0,.39.17.39.41.39h.11v.21H35.49v-.23h.12c.19,0,.35-.08.35-.26V103c0-.37-.19-.37-.35-.38h-.12v-.2h1.63c.66,0,1.26.19,1.26,1a1,1,0,0,1-.71.9l.87,1.31a.58.58,0,0,0,.5.3h0v.24Z"/></clipPath><clipPath id="clip-path-80"><path class="cls-3" d="M42.56,105.05h0v-2a.44.44,0,0,0-.37-.49H42v-.16h1.37v.19h-.08c-.22,0-.46,0-.46.66v2.38a4.68,4.68,0,0,0,0,.53h-.21l-2.68-3v2.12c0,.45.09.61.49.61h.09v.16H39.12v-.16h.18c.36,0,.47-.25.47-.66V103a.46.46,0,0,0-.47-.43h-.06v-.16H40.3l2.26,2.6"/></clipPath><clipPath id="clip-path-81"><path class="cls-3" d="M42.56,105.05m.1,1.09h.17v-2.9c0-.63.27-.69.49-.69h0v-.11H42v.11h.09a.47.47,0,0,1,.49.43.28.28,0,0,1,0,.09v2h0l-2.32-2.63h-1v.12h.06a.49.49,0,0,1,.5.48h0v2.2c0,.42-.12.69-.49.69h-.06V106H40.6v-.11h-.07c-.41,0-.51-.18-.51-.64v-2.2Zm.21,0h-.22l-2.66-3v2.07c0,.45.08.58.48.58h.11v.21H39.2v-.22h.1c.34,0,.44-.22.45-.64V103a.45.45,0,0,0-.45-.43h-.09v-.2h1.08L42.56,105v-1.92a.42.42,0,0,0-.36-.47H42v-.2h1.37v.22h-.09c-.22,0-.44,0-.44.64v2.38a2.35,2.35,0,0,0,0,.53h0Z"/></clipPath><clipPath id="clip-path-82"><path class="cls-3" d="M45,103h0l-.49,1.48h1Zm-.77,2.32a2.75,2.75,0,0,0-.11.41c0,.15.22.18.39.18h.06v.16h-1.2v-.16h0a.49.49,0,0,0,.46-.34l.81-2.44a3.75,3.75,0,0,0,.2-.65,3.41,3.41,0,0,0,.48-.22h0l0,.13,1,2.74c.06.18.13.37.19.53a.35.35,0,0,0,.34.21h0V106H45.33v-.16h.06c.12,0,.33,0,.33-.15a1.89,1.89,0,0,0,.09-.34l-.2-.6h-1.2Z"/></clipPath><clipPath id="clip-path-83"><path class="cls-3" d="M45,103m-.45,1.45h.92l-.47-1.4Zm0,.05L45,103h0l.5,1.53Zm1.06,1.54H47v-.12h0a.35.35,0,0,1-.37-.22c-.06-.16-.13-.36-.18-.53l-1-2.74v-.12h0a2,2,0,0,1-.47.21,4.84,4.84,0,0,1-.19.65L44,105.57a.49.49,0,0,1-.47.36h0v.12h1.15v-.12h0c-.17,0-.41,0-.42-.2a3.31,3.31,0,0,1,.12-.42h0l.17-.56h1.22l.21.63a1.66,1.66,0,0,1,.11.38c0,.16-.23.17-.35.17h0Zm1.48,0H45.51v-.22h.08c.13,0,.31,0,.31-.12a2.36,2.36,0,0,0-.1-.38l-.21-.59H44.43l-.16.53a1.52,1.52,0,0,0-.12.4c0,.13.2.16.37.16h.08v.2H43.4v-.2h.06a.44.44,0,0,0,.43-.32l.82-2.44a5.16,5.16,0,0,0,.2-.67,2.62,2.62,0,0,0,.48-.22,0,0,0,0,1,0,0,.06.06,0,0,1,.06,0l0,.13,1,2.74a3.24,3.24,0,0,0,.19.52.29.29,0,0,0,.32.2h.06v.2Z"/></clipPath><clipPath id="clip-path-84"><path class="cls-3" d="M47.26,102.68c-.4,0-.41.09-.49.48h-.14c0-.15,0-.3.06-.45a1.62,1.62,0,0,0,0-.44h.13c0,.15.17.15.31.15h2.75c.15,0,.28,0,.29-.17h.12a3.18,3.18,0,0,1-.06.43c0,.13,0,.28,0,.42l-.15.06c0-.2,0-.51-.39-.51h-.9v2.81c0,.41.17.45.43.45h.1v.16H47.58v-.16h.1c.29,0,.44,0,.44-.44v-2.79H47.3"/></clipPath><clipPath id="clip-path-85"><path class="cls-3" d="M49.32,106.09H47.58v-.22h.12c.3,0,.41,0,.42-.42v-2.77h.06v2.81c0,.43-.17.47-.46.47h-.11v.11h1.67V106H49.2c-.25,0-.46-.06-.46-.48v-2.82h.9c.35,0,.4.29.41.49h.11a2.81,2.81,0,0,1,0-.41,1.15,1.15,0,0,1,.05-.41h-.08c0,.15-.17.16-.3.16H47.12c-.12,0-.26,0-.3-.16h-.09a3.23,3.23,0,0,1,0,.44c0,.13,0,.27,0,.41h.1c.08-.37.12-.48.52-.47h0c-.4,0-.39.07-.48.45h-.19a1.09,1.09,0,0,1,.06-.44,3.23,3.23,0,0,0,0-.44h.17c0,.13.13.13.26.13h2.76c.15,0,.26,0,.27-.14h.15a1,1,0,0,1-.06.42,1.24,1.24,0,0,0,0,.43h0l-.18.06h0c0-.19,0-.48-.37-.48h-.81v2.76c0,.39.16.42.4.42h.12v.21h0"/></clipPath><clipPath id="clip-path-86"><path class="cls-3" d="M50.45,105.91h.07c.19,0,.39,0,.39-.3v-2.74c0-.27-.2-.29-.39-.29h-.07v-.16h1.62v.19H52c-.19,0-.39,0-.39.29v2.75c0,.27.2.29.39.29h.07v.16H50.45v-.16"/></clipPath><clipPath id="clip-path-87"><path class="cls-3" d="M52,106.05v-.12H52c-.19,0-.41,0-.41-.32v-2.74c0-.28.22-.32.41-.32H52v-.11H50.45v.11h0c.19,0,.41,0,.41.32v2.74c0,.29-.22.32-.41.32h0v.12H52Zm0,0H50.39v-.22h.1c.18,0,.36,0,.36-.27v-2.73c0-.25-.18-.27-.36-.28h-.1v-.2H52v.22h-.1c-.19,0-.37,0-.37.28v2.74c0,.25.18.27.37.27H52v.2Z"/></clipPath><clipPath id="clip-path-88"><path class="cls-3" d="M54.21,105.92c1,0,1.19-.9,1.19-1.63s-.41-1.68-1.28-1.68-1.19.81-1.19,1.51c0,.94.43,1.84,1.28,1.84m-.08-3.58a1.84,1.84,0,0,1,2,1.66.61.61,0,0,1,0,.14,1.92,1.92,0,0,1-1.84,2h-.14a1.83,1.83,0,0,1-1.95-1.72v-.15a1.9,1.9,0,0,1,1.88-1.93h.05"/></clipPath><clipPath id="clip-path-89"><path class="cls-3" d="M52.9,104.08c0-.7.28-1.53,1.22-1.53s1.3.94,1.3,1.71-.18,1.68-1.21,1.68v-.07c1,0,1.16-.87,1.16-1.63s-.41-1.63-1.25-1.63S53,103.42,53,104.1c0,.94.43,1.81,1.26,1.81v0c-.87,0-1.31-.92-1.31-1.86m-.73.19a1.94,1.94,0,0,1,1.92-2h0a1.89,1.89,0,0,0-1.91,1.86v0a1.83,1.83,0,0,0,1.8,1.85h.13a1.9,1.9,0,0,0,2-1.82.81.81,0,0,0,0-.16,1.81,1.81,0,0,0-1.84-1.79h-.13a1.85,1.85,0,0,1,2,1.67v.15a2,2,0,0,1-1.86,2h-.14a1.89,1.89,0,0,1-2-1.78v-.16"/></clipPath><clipPath id="clip-path-90"><path class="cls-3" d="M59.65,105.05h0v-2a.42.42,0,0,0-.37-.49h-.2v-.16h1.38v.19h-.08c-.21,0-.47,0-.47.66v2.38a4.68,4.68,0,0,0,0,.53h-.19l-2.7-3v2.12c0,.45.09.61.49.61h.09v.16H56.22v-.16h.07c.36,0,.47-.25.47-.66V103a.46.46,0,0,0-.46-.46h-.08v-.16h1.06l2.37,2.63"/></clipPath><clipPath id="clip-path-91"><path class="cls-3" d="M59.65,105.05m.11,1.09h.17a4.34,4.34,0,0,1,0-.51v-2.39c0-.63.27-.69.49-.69h0v-.11H59.14v.11h.09a.46.46,0,0,1,.48.43.27.27,0,0,1,0,.09v2h0l-2.33-2.63h-1v.12h0a.49.49,0,0,1,.5.49h0v2.2c0,.42-.12.69-.49.69H56.3V106h1.33v-.11h-.06c-.41,0-.51-.18-.51-.64v-2.2Zm.19,0h-.21l-2.65-3v2.07c0,.45.07.58.46.58h.12v.21H56.28v-.22h.1c.34,0,.45-.22.45-.64V103a.45.45,0,0,0-.45-.45h-.15v-.2h1.09l2.33,2.6v-1.92a.4.4,0,0,0-.35-.47h-.22v-.2h1.38v.22h-.07c-.22,0-.44,0-.44.64v2.38a2.35,2.35,0,0,0,0,.53h0Z"/></clipPath><clipPath id="clip-path-92"><path class="cls-3" d="M62.1,103h0l-.49,1.48h1Zm-.82,2.32a1.91,1.91,0,0,0-.11.41c0,.15.22.18.39.18h.06v.16H60.43v-.16h0a.47.47,0,0,0,.45-.34l.82-2.44a4.84,4.84,0,0,0,.19-.65,2.52,2.52,0,0,0,.47-.22h0a.29.29,0,0,1,0,.13l1,2.74c.06.18.13.37.19.53a.34.34,0,0,0,.35.21h0V106H62.33v-.16h.06c.11,0,.32,0,.32-.15a1.68,1.68,0,0,0,.2-.34l-.2-.6H61.48Z"/></clipPath><clipPath id="clip-path-93"><path class="cls-3" d="M62.1,103m-.45,1.45h.91l-.46-1.4Zm-.07.05.51-1.53h0l.49,1.53Zm1.07,1.54h1.46v-.12h0a.34.34,0,0,1-.36-.22c-.07-.16-.13-.36-.2-.53l-1-2.74s0-.09-.05-.12h0a1.82,1.82,0,0,1-.47.21,3.72,3.72,0,0,1-.19.65l-.82,2.39a.49.49,0,0,1-.48.36h0v.12h1.16v-.12h0c-.17,0-.41,0-.42-.2a3.31,3.31,0,0,1,.12-.42h0l.18-.56h1.22l.2.63a1.66,1.66,0,0,1,.11.38c0,.16-.23.17-.35.17h0Zm1.48,0H62.6v-.22h.08c.12,0,.3,0,.3-.12a1.64,1.64,0,0,0-.1-.38l-.2-.59H61.49l-.16.53a2,2,0,0,0-.11.4c0,.13.19.16.36.16h.08v.2H60.48v-.2h0a.46.46,0,0,0,.44-.32l.81-2.44c.07-.2.16-.46.21-.66a2.65,2.65,0,0,0,.48-.23h0a.06.06,0,0,1,.06,0l.05.13,1,2.74c.07.18.13.37.2.53a.3.3,0,0,0,.32.19h0v.2Z"/></clipPath><clipPath id="clip-path-94"><path class="cls-3" d="M65.42,105.56c0,.2.14.27.31.29a4,4,0,0,0,.69,0,.71.71,0,0,0,.5-.28,1.18,1.18,0,0,0,.16-.38h.15c0,.3-.13.6-.19.9H64.28v-.17h.07c.19,0,.39,0,.39-.35v-2.68c0-.27-.2-.3-.39-.3h-.07v-.16h1.63v.18h-.13c-.2,0-.35,0-.35.28v2.7"/></clipPath><clipPath id="clip-path-95"><path class="cls-3" d="M67,106.05c.06-.29.13-.57.19-.82h-.12a1.2,1.2,0,0,1-.15.37.76.76,0,0,1-.52.29h-.69a.3.3,0,0,1-.34-.31v-2.73c0-.28.18-.3.38-.3h.1v-.11H64.25v.11h0c.19,0,.42,0,.42.32v2.69c0,.34-.23.37-.42.37h0v.12H67Zm0,0H64.26v-.22h.1c.19,0,.37,0,.37-.33v-2.69c0-.25-.18-.26-.37-.27h-.1v-.21h1.63v.24h-.16c-.2,0-.32,0-.33.26v2.7c0,.2.13.25.29.27h.69a.86.86,0,0,0,.49-.27,1.34,1.34,0,0,0,.16-.37h.19l-.19.89h0Z"/></clipPath><clipPath id="clip-path-96"><path class="cls-3" d="M67.08,102.82h.06c.08,0,.11,0,.11-.14a.11.11,0,0,0-.11-.12h-.06Zm-.19.3h0c.07,0,.08,0,.08-.05v-.46c0-.06,0-.07-.07-.07h.28c.09,0,.18,0,.18.14a.17.17,0,0,1-.13.17l.09.12a.74.74,0,0,0,.12.13h-.1s-.1-.11-.2-.26h-.06V103h.08Zm.28.15a.45.45,0,0,0,.44-.45.45.45,0,1,0-.89,0A.45.45,0,0,0,67.17,103.27Zm0-1a.53.53,0,0,1,.55.54h0a.56.56,0,1,1-1.11,0,.55.55,0,0,1,.54-.55Z"/></clipPath><clipPath id="clip-path-97"><path class="cls-3" d="M34.51,84a8.86,8.86,0,1,1,8.86,8.88A8.86,8.86,0,0,1,34.51,84v0"/></clipPath><clipPath id="clip-path-98"><path class="cls-3" d="M43.37,93a9.19,9.19,0,0,1-9.24-9.08A9.06,9.06,0,0,1,43,74.63h2.77a9.35,9.35,0,0,1,9.59,9.12.66.66,0,0,1,0,.14c0,5-4.58,9.09-9.59,9.09Zm0-17.58a8.4,8.4,0,1,0,8.43,8.4,8.4,8.4,0,0,0-8.43-8.4ZM41.49,88.77v-10a5.33,5.33,0,0,0,0,9.93Zm7.23-5a5.31,5.31,0,0,0-3.42-5v9.93a5.3,5.3,0,0,0,3.42-5Z"/></clipPath></defs><title>Payment-Method-Logos</title><rect class="cls-14" x="0.5" y="0.5" width="89" height="42.14" rx="1.78"/><path class="cls-15" d="M87.72,1A1.28,1.28,0,0,1,89,2.28V40.87a1.27,1.27,0,0,1-1.28,1.27H2.28A1.27,1.27,0,0,1,1,40.87V2.28A1.28,1.28,0,0,1,2.28,1H87.72m0-1H2.28A2.28,2.28,0,0,0,0,2.28V40.87a2.28,2.28,0,0,0,2.28,2.27H87.72A2.28,2.28,0,0,0,90,40.87V2.28A2.28,2.28,0,0,0,87.72,0Z"/><path class="cls-16" d="M32.41,9.29H42.74a1.93,1.93,0,0,1,2.08,1.76,1.77,1.77,0,0,1-.09.76l-4.8,19.55a3.48,3.48,0,0,1-3.26,2.5H26.38a1.94,1.94,0,0,1-2.08-1.79,1.9,1.9,0,0,1,.08-.71l4.8-19.55a3.48,3.48,0,0,1,3.26-2.49"/><path class="cls-17" d="M41.87,9.29H52.2a1.93,1.93,0,0,1,2.09,1.77,1.72,1.72,0,0,1-.08.75L49.4,31.36a3.48,3.48,0,0,1-3.26,2.5H35.85a1.94,1.94,0,0,1-2.08-1.79,1.89,1.89,0,0,1,.07-.71l4.82-19.55a3.46,3.46,0,0,1,3.26-2.49"/><path class="cls-18" d="M53.29,9.29H63.61a1.93,1.93,0,0,1,2.09,1.77,1.89,1.89,0,0,1-.09.75l-4.8,19.55a3.49,3.49,0,0,1-3.26,2.5H47.25a1.93,1.93,0,0,1-2.07-1.78,1.78,1.78,0,0,1,.08-.72l4.8-19.55a3.48,3.48,0,0,1,3.26-2.49"/><path class="cls-19" d="M54.83,23.77l-1,4h.33l-.2.82h-.33l-.07.25h-1.2l.07-.25H50l.2-.76h.24l1-4,.19-.81h1.23l-.1.41a2.34,2.34,0,0,1,.61-.31c.3-.07,2.07-.1,2.07-.1l-.21.81Zm-2.16,0-.25,1a5.2,5.2,0,0,1,.55-.21,2.63,2.63,0,0,1,.49-.07l.18-.74Zm-.34,1.53-.26,1a3.35,3.35,0,0,1,.55-.23,4,4,0,0,1,.5-.08l.18-.73Zm-.61,2.44h1l.22-.9h-1ZM55.55,23h1.3v.45c0,.07.06.12.22.12h.22l-.21.76H56.4c-.61,0-.82-.21-.82-.49Z"/><path class="cls-19" d="M55.74,26.59H54.49l.17-.68h1.42l.16-.62h-1.4l.18-.77h3.9l-.18.77H57.43l-.17.62h1.31l-.16.68H57l-.23.29h.58l.2.81a.27.27,0,0,0,.06.17.61.61,0,0,0,.3.05h.17l-.2.81h-.75a.79.79,0,0,1-.33-.13.43.43,0,0,1-.26-.28l-.2-.86-.58.82a1,1,0,0,1-.91.46H54l.18-.73h.35a.59.59,0,0,0,.25-.07.38.38,0,0,0,.18-.15ZM42,24.72h3.26l-.2.75H43.77l-.16.64H45l-.19.81H43.42l-.26,1c0,.11.33.13.46.13l.67-.09-.22.81H42.55a1.34,1.34,0,0,1-.35,0,.38.38,0,0,1-.25-.18.28.28,0,0,1-.1-.32l.34-1.37h-.75l.21-.81h.75l.15-.64h-.74Zm2.12-1.33h1.36l-.2.77H43.43l-.19.17c-.08.08-.11,0-.22.1a1.21,1.21,0,0,1-.59.16h-.6l.19-.75h.18a.61.61,0,0,0,.3-.05.58.58,0,0,0,.19-.25L43,23h1.34ZM46,23h1.15l-.13.55a3.3,3.3,0,0,1,.59-.38,7.45,7.45,0,0,1,.82-.17h1.85l-.5,2a2.39,2.39,0,0,1-.26.67.71.71,0,0,1-.3.27,1.23,1.23,0,0,1-.42.14H46.46l-.4,1.63c0,.15-.06.23,0,.27a.24.24,0,0,0,.18.09l.82-.07-.22.87H45.27a.84.84,0,0,1-.38-.08c-.08-.06-.21-.15-.22-.25a3.1,3.1,0,0,1,.08-.42Zm2.57,2H46.71l-.09.37h1.89Zm-1.8-.32a2.08,2.08,0,0,1,1-.43h1l.11-.43H47Z"/><path class="cls-19" d="M49.59,26.21l-.07.48a.59.59,0,0,1-.18.36.86.86,0,0,1-.61.21H48.1v.54c0,.16,0,.14.07.17l.09.05h.81l-.21.81h-.69a2.51,2.51,0,0,1-1-.1.3.3,0,0,1-.15-.31l-.1-2.13h1.12v.43h.27a.54.54,0,0,0,.18,0,.28.28,0,0,0,.08-.11l.08-.35Zm-16-10.66-.76,3.32a2.25,2.25,0,0,1-.64,1.38,1.26,1.26,0,0,1-.77.26.68.68,0,0,1-.8-.55.31.31,0,0,1,0-.1v-.15s.15-.81.15-.85.75-2.86.88-3.26v0a10.11,10.11,0,0,1-1.74,0l-.05.21L29.13,19l-.08.28-.12.89a1.33,1.33,0,0,0,.16.67c.35.58,1.36.66,1.92.66a3.9,3.9,0,0,0,1.87-.41,2.64,2.64,0,0,0,1.19-1.78l.09-.32s.81-3,.91-3.36V15.6a12,12,0,0,1-1.47,0m4.28,5.91H36.57v0c0-.22.11-.44.16-.66l.08-.3A11.91,11.91,0,0,0,37,19.33c0-.16,0-.35-.25-.35a1,1,0,0,0-.4.12c-.07.25-.22.94-.28,1.26-.16.67-.17.75-.23,1.08v0H34.54v-.05c.1-.4.2-.81.3-1.19a17.48,17.48,0,0,0,.39-2l.05,0c.6-.08.75-.1,1.4-.22l0,.06-.1.34.33-.18a2.14,2.14,0,0,1,.82-.19.72.72,0,0,1,.7.36c.12.28,0,.62-.12,1.3l-.09.35c-.17.75-.19.89-.28,1.4Zm2.11,0H38.62a4,4,0,0,1,.15-.49,2.77,2.77,0,0,0,.15-.49c.09-.38.14-.64.19-.87s.07-.42.09-.64h0l.71-.1.73-.12h0c-.06.24-.12.48-.17.71l-.18.7c-.12.5-.17.69-.19.82a2.5,2.5,0,0,1-.08.45h0Zm4.67-1.7a1.55,1.55,0,0,0-.14-1.33A1.59,1.59,0,0,0,43.28,18a2.43,2.43,0,0,0-1.56.52A2.27,2.27,0,0,0,41,19.85c-.12.45-.25,1.3.56,1.62A2.44,2.44,0,0,0,44,21a2.71,2.71,0,0,0,.57-1.15m-1.23-.13a2.66,2.66,0,0,1-.31.81.51.51,0,0,1-.39.24.32.32,0,0,1-.3-.36,2.18,2.18,0,0,1,.08-.57c.14-.57.3-1,.71-1s.34.36.21.93m12.81.88a.82.82,0,0,1-.51.22.32.32,0,0,1-.31-.35,2.82,2.82,0,0,1,.09-.57c.13-.56.3-1,.71-1s.39.25.36.66a.51.51,0,0,1-.06.28,2,2,0,0,0-.14.53,2.33,2.33,0,0,1-.17.26Zm2-2.55c-.65.11-.81.14-1.44.22l0,0v.14a.81.81,0,0,0-.45-.36,1.8,1.8,0,0,0-1.49.51,2.48,2.48,0,0,0-.69,1.27c-.11.47-.24,1.3.57,1.63a1.6,1.6,0,0,0,.72.11,1.11,1.11,0,0,0,.68-.3.79.79,0,0,1-.06.22l0,0h1.38l.06,0c.09-.51.18-1,.41-2,.12-.47.24-.93.35-1.4Zm-10,3.42H47v0c.06-.22.11-.44.16-.66l.08-.3a11.38,11.38,0,0,0,.23-1.18c0-.16,0-.35-.25-.35a.89.89,0,0,0-.39.12c-.07.25-.22.94-.29,1.26-.15.68-.17.75-.23,1.08v0H44.92v-.05c.11-.39.21-.81.31-1.19a17.48,17.48,0,0,0,.39-2l.05,0c.6-.08.74-.1,1.39-.22l0,.06-.09.34.33-.18a2.28,2.28,0,0,1,.81-.19.74.74,0,0,1,.74.39c.12.28,0,.62-.13,1.31l-.08.34c-.17.76-.2.9-.29,1.41Zm5.07-4.07a1.32,1.32,0,0,1-.7.88,2.41,2.41,0,0,1-1,.15h-.24v-.09l.42-1.77v-.15H52l.91.07a.69.69,0,0,1,.39.89h0m-.56-1.85H50.57l0,.21-.42,1.79s-1,3.78-1,3.95h1.55l.27-1.23.21-.81a.32.32,0,0,1,.12-.11h.09a4.37,4.37,0,0,0,2.55-.53,2.59,2.59,0,0,0,1-1.53,2.33,2.33,0,0,0,.07-.53,1.12,1.12,0,0,0-.2-.69c-.39-.5-1.14-.51-2-.52M40.6,18.43c.34-.22.39-.54.09-.7a1.21,1.21,0,0,0-1.15.11c-.35.23-.39.54-.09.7a1.21,1.21,0,0,0,1.15-.11M62.53,18,62.48,18c-.65.12-.76.15-1.35.22h-.05c-.44,1-.42.76-.81,1.51v-.09L60.18,18l0-.06c-.68.12-.69.15-1.31.22h0v.08h0a8.89,8.89,0,0,1,.13.88A8.47,8.47,0,0,0,59,20c.07.48.1.72.17,1.45-.42.66-.52.92-.92,1.49h0l-.28.43a.47.47,0,0,1-.1.1.67.67,0,0,1-.2,0h-.21l-.18.81h.81a1,1,0,0,0,.93-.5l.5-.82Z"/></svg>
