<svg id="Layer_1" data-name="Layer 1" xmlns="http://www.w3.org/2000/svg" viewBox="0 0 90 43.14"><defs><style>.cls-1,.cls-2,.cls-3{fill:none;}  .cls-2{clip-rule:evenodd;}  .cls-3,.cls-6{fill-rule:evenodd;}  .cls-4{fill:#fff;}  .cls-5{fill:#f2f5f7;}  .cls-6{fill:#e7242e;}  .cls-7{clip-path:url(#clip-path);}  .cls-8{clip-path:url(#clip-path-2);}  .cls-9{clip-path:url(#clip-path-3);}  .cls-10{clip-path:url(#clip-path-4);}  .cls-11{clip-path:url(#clip-path-5);}  .cls-12{clip-path:url(#clip-path-6);}  .cls-13{clip-path:url(#clip-path-7);}  .cls-14{clip-path:url(#clip-path-8);}  .cls-15{clip-path:url(#clip-path-9);}  .cls-16{clip-path:url(#clip-path-15);}  .cls-17{clip-path:url(#clip-path-16);}  .cls-18{clip-path:url(#clip-path-17);}  .cls-19{clip-path:url(#clip-path-18);}  .cls-20{clip-path:url(#clip-path-19);}</style><clipPath id="clip-path"><rect class="cls-1" x="-86.93" y="-442.71" width="40.5" height="22.5" rx="3.89"/></clipPath><clipPath id="clip-path-2"><path class="cls-1" d="M-77-435.15a6,6,0,0,1-1.73,4.23l2.34,3.22h-2.09l-2.55-3.5.66-.5a4.28,4.28,0,0,0,1.71-3.45ZM-83-427.7h1.7v-7.45H-83Zm7,0h1.6v-7.45h-1.6ZM-60.29-433a1.86,1.86,0,0,0-1.58.72v-.58h-1.52v5.15h1.54v-2.71a1.09,1.09,0,0,1,1.15-1.17c.67,0,1.06.41,1.06,1.16v2.72h1.53V-431a2,2,0,0,0-2.18-2Zm-9.2.14H-68v5.15h-1.53V-428a2.63,2.63,0,0,1-1.52.47,2.71,2.71,0,0,1-2.69-2.72A2.71,2.71,0,0,1-71-433a2.64,2.64,0,0,1,1.52.48v-.33Zm0,2.57a1.35,1.35,0,0,0-1.38-1.32,1.35,1.35,0,0,0-1.39,1.32,1.36,1.36,0,0,0,1.39,1.33A1.35,1.35,0,0,0-69.5-430.28Zm3.9-1.9v-.67h-1.56v5.15h1.57v-2.41c0-.81.87-1.24,1.47-1.24h0v-1.5a1.92,1.92,0,0,0-1.5.67Zm12.23-.67h1.53v5.15h-1.53V-428a2.62,2.62,0,0,1-1.51.47,2.7,2.7,0,0,1-2.69-2.72A2.7,2.7,0,0,1-54.88-433a2.63,2.63,0,0,1,1.51.48v-.33Zm0,2.57a1.35,1.35,0,0,0-1.39-1.32,1.35,1.35,0,0,0-1.38,1.32,1.35,1.35,0,0,0,1.38,1.33A1.36,1.36,0,0,0-53.37-430.28Zm3.16.75a1,1,0,0,0-1,1,1,1,0,0,0,1,1,1,1,0,0,0,1-1A1,1,0,0,0-50.21-429.53Z"/></clipPath><clipPath id="clip-path-3"><rect class="cls-1" x="24.75" y="-442.71" width="40.5" height="22.5" rx="3.89"/></clipPath><clipPath id="clip-path-4"><path class="cls-1" d="M34.65-435.15a6,6,0,0,1-1.73,4.23l2.34,3.22h-2.1l-2.54-3.5.66-.5A4.28,4.28,0,0,0,33-435.15Zm-5.93,7.45h1.7v-7.45h-1.7Zm7,0h1.6v-7.45h-1.6ZM51.39-433a1.86,1.86,0,0,0-1.58.72v-.58H48.29v5.15h1.54v-2.71A1.09,1.09,0,0,1,51-431.58c.67,0,1.06.41,1.06,1.16v2.72h1.52V-431a2,2,0,0,0-2.17-2Zm-9.2.14h1.53v5.15H42.19V-428a2.68,2.68,0,0,1-1.52.47A2.7,2.7,0,0,1,38-430.28,2.7,2.7,0,0,1,40.67-433a2.69,2.69,0,0,1,1.52.48v-.33Zm0,2.57a1.35,1.35,0,0,0-1.38-1.32,1.35,1.35,0,0,0-1.39,1.32,1.36,1.36,0,0,0,1.39,1.33A1.35,1.35,0,0,0,42.18-430.28Zm3.9-1.9v-.67H44.51v5.15h1.57v-2.41c0-.81.88-1.24,1.48-1.24h0v-1.5a1.92,1.92,0,0,0-1.5.67Zm12.23-.67h1.53v5.15H58.31V-428a2.62,2.62,0,0,1-1.51.47,2.71,2.71,0,0,1-2.7-2.72A2.71,2.71,0,0,1,56.8-433a2.63,2.63,0,0,1,1.51.48v-.33Zm0,2.57a1.35,1.35,0,0,0-1.39-1.32,1.35,1.35,0,0,0-1.38,1.32,1.35,1.35,0,0,0,1.38,1.33A1.36,1.36,0,0,0,58.31-430.28Zm3.15.75a1,1,0,0,0-1,1,1,1,0,0,0,1,1,1,1,0,0,0,1-1A1,1,0,0,0,61.46-429.53Z"/></clipPath><clipPath id="clip-path-5"><path class="cls-2" d="M-56.71,265.36h2.85a1.87,1.87,0,0,0,.34,0,1.23,1.23,0,0,0,1-1.2,1.23,1.23,0,0,0-1-1.2,1.87,1.87,0,0,0-.34,0h-2.85Z"/></clipPath><clipPath id="clip-path-6"><path class="cls-2" d="M-54.19,248.34A4.8,4.8,0,0,0-59.12,253v4.85h7l.48,0c1.58.07,2.74.84,2.74,2.17,0,1-.79,1.94-2.24,2.14v.05c1.6.11,2.82.94,2.82,2.25s-1.34,2.33-3.13,2.33h-7.65v9.51h7.23A4.8,4.8,0,0,0-47,271.66V248.34Z"/></clipPath><clipPath id="clip-path-7"><path class="cls-2" d="M-52.85,260.38a1.14,1.14,0,0,0-1-1.12l-.28,0h-2.59v2.27h2.59l.28,0a1.13,1.13,0,0,0,1-1.11"/></clipPath><clipPath id="clip-path-8"><path class="cls-2" d="M-81.47,248.34A4.8,4.8,0,0,0-86.4,253v11.52a10.22,10.22,0,0,0,4.27,1.05,2.33,2.33,0,0,0,2.64-2.31v-5.41h4.24v5.41c0,2.12-1.38,3.81-6.09,3.81a22.32,22.32,0,0,1-5.06-.58v9.83h7.23a4.8,4.8,0,0,0,4.93-4.66V248.34Z"/></clipPath><clipPath id="clip-path-9"><path class="cls-2" d="M-67.83,248.34A4.8,4.8,0,0,0-72.76,253v6.11c1.25-1,3.41-1.65,6.92-1.5a23.41,23.41,0,0,1,3.87.56v2a10.2,10.2,0,0,0-3.73-1c-2.67-.19-4.27,1-4.27,3.22s1.6,3.41,4.27,3.22a10.08,10.08,0,0,0,3.73-1v2a24,24,0,0,1-3.87.55c-3.51.15-5.67-.48-6.92-1.49v10.76h7.23a4.8,4.8,0,0,0,4.93-4.66V248.34Z"/></clipPath><clipPath id="clip-path-15"><path class="cls-2" d="M55,265.36h2.85a1.87,1.87,0,0,0,.34,0,1.22,1.22,0,0,0,0-2.4,1.87,1.87,0,0,0-.34,0H55Z"/></clipPath><clipPath id="clip-path-16"><path class="cls-2" d="M57.49,248.34A4.8,4.8,0,0,0,52.56,253v4.85h7l.49,0c1.58.07,2.74.84,2.74,2.17a2.27,2.27,0,0,1-2.24,2.14v.05c1.6.11,2.82.94,2.82,2.25s-1.34,2.33-3.14,2.33H52.56v9.51h7.23a4.8,4.8,0,0,0,4.93-4.66V248.34Z"/></clipPath><clipPath id="clip-path-17"><path class="cls-2" d="M58.83,260.38a1.14,1.14,0,0,0-1-1.12l-.29,0H55v2.27h2.58l.29,0a1.13,1.13,0,0,0,1-1.11"/></clipPath><clipPath id="clip-path-18"><path class="cls-2" d="M30.21,248.34A4.8,4.8,0,0,0,25.28,253v11.52a10.17,10.17,0,0,0,4.26,1.05c1.71,0,2.65-1,2.65-2.31v-5.41h4.24v5.41c0,2.12-1.38,3.81-6.09,3.81a22.32,22.32,0,0,1-5.06-.58v9.83h7.23a4.8,4.8,0,0,0,4.93-4.66V248.34Z"/></clipPath><clipPath id="clip-path-19"><path class="cls-2" d="M43.85,248.34A4.8,4.8,0,0,0,38.92,253v6.11c1.25-1,3.41-1.65,6.92-1.5a23.41,23.41,0,0,1,3.87.56v2a10.2,10.2,0,0,0-3.73-1c-2.67-.19-4.27,1-4.27,3.22s1.6,3.41,4.27,3.22a10.08,10.08,0,0,0,3.73-1v2a24,24,0,0,1-3.87.55c-3.51.15-5.67-.48-6.92-1.49v10.76h7.23a4.8,4.8,0,0,0,4.93-4.66V248.34Z"/></clipPath></defs><title>Payment-Method-Logos</title><rect class="cls-4" x="0.5" y="0.5" width="89" height="42.14" rx="1.78"/><path class="cls-5" d="M87.72,1A1.28,1.28,0,0,1,89,2.28V40.87a1.27,1.27,0,0,1-1.28,1.27H2.28A1.27,1.27,0,0,1,1,40.87V2.28A1.28,1.28,0,0,1,2.28,1H87.72m0-1H2.28A2.28,2.28,0,0,0,0,2.28V40.87a2.28,2.28,0,0,0,2.28,2.27H87.72A2.28,2.28,0,0,0,90,40.87V2.28A2.28,2.28,0,0,0,87.72,0Z"/><path class="cls-6" d="M58.44,20.55l7.35,8.89a14,14,0,0,0-.26-16.11Zm-20.84-8c5.5,0,9.63,1.42,10.06,6.13l5.78-6.13H65A13.57,13.57,0,0,0,54.58,7.71H32.46a13.54,13.54,0,0,0-10.37,4.87Zm-9,5.93L26.6,24h7.91c2.34,0,3-1,3.57-2.88s-.79-2.6-2.38-2.6ZM53.49,30.19l-6.12-7.85c-1.13,5.35-4.83,7.85-11.76,7.85H21.79a13.53,13.53,0,0,0,10.67,5.24H54.58a13.55,13.55,0,0,0,10.67-5.24Z"/></svg>
