<svg id="Layer_1" data-name="Layer 1" xmlns="http://www.w3.org/2000/svg" viewBox="0 0 90 43.14"><defs><style>.cls-1,.cls-2,.cls-3{fill:none;}  .cls-1{clip-rule:evenodd;}  .cls-2{fill-rule:evenodd;}  .cls-4{fill:#fff;}  .cls-5{fill:#f2f5f7;}  .cls-6{clip-path:url(#clip-path);}  .cls-7{clip-path:url(#clip-path-2);}  .cls-8{clip-path:url(#clip-path-3);}  .cls-9{clip-path:url(#clip-path-4);}  .cls-10{clip-path:url(#clip-path-5);}  .cls-11{clip-path:url(#clip-path-11);}  .cls-12{clip-path:url(#clip-path-12);}  .cls-13{clip-path:url(#clip-path-13);}  .cls-14{clip-path:url(#clip-path-14);}  .cls-15{clip-path:url(#clip-path-15);}  .cls-16{clip-path:url(#clip-path-21);}  .cls-17{clip-path:url(#clip-path-22);}  .cls-18{clip-path:url(#clip-path-23);}  .cls-19{clip-path:url(#clip-path-24);}  .cls-20{clip-path:url(#clip-path-25);}  .cls-21{clip-path:url(#clip-path-26);}  .cls-22{clip-path:url(#clip-path-27);}  .cls-23{clip-path:url(#clip-path-28);}  .cls-24{clip-path:url(#clip-path-29);}  .cls-25{clip-path:url(#clip-path-30);}  .cls-26{clip-path:url(#clip-path-31);}  .cls-27{clip-path:url(#clip-path-32);}  .cls-28{clip-path:url(#clip-path-33);}  .cls-29{clip-path:url(#clip-path-34);}  .cls-30{clip-path:url(#clip-path-35);}  .cls-31{clip-path:url(#clip-path-36);}  .cls-32{clip-path:url(#clip-path-37);}  .cls-33{clip-path:url(#clip-path-38);}  .cls-34{clip-path:url(#clip-path-39);}  .cls-35{clip-path:url(#clip-path-40);}  .cls-36{clip-path:url(#clip-path-41);}  .cls-37{clip-path:url(#clip-path-42);}  .cls-38{clip-path:url(#clip-path-43);}  .cls-39{clip-path:url(#clip-path-44);}  .cls-40{clip-path:url(#clip-path-45);}  .cls-41{clip-path:url(#clip-path-46);}  .cls-42{clip-path:url(#clip-path-47);}  .cls-43{clip-path:url(#clip-path-48);}  .cls-44{clip-path:url(#clip-path-49);}  .cls-45{clip-path:url(#clip-path-50);}  .cls-46{clip-path:url(#clip-path-51);}  .cls-47{clip-path:url(#clip-path-52);}  .cls-48{clip-path:url(#clip-path-53);}  .cls-49{clip-path:url(#clip-path-54);}  .cls-50{clip-path:url(#clip-path-55);}  .cls-51{clip-path:url(#clip-path-56);}  .cls-52{clip-path:url(#clip-path-57);}  .cls-53{clip-path:url(#clip-path-58);}  .cls-54{clip-path:url(#clip-path-59);}  .cls-55{clip-path:url(#clip-path-60);}  .cls-56{clip-path:url(#clip-path-61);}  .cls-57{fill:#1a1919;}  .cls-58{clip-path:url(#clip-path-62);}  .cls-59{clip-path:url(#clip-path-64);}  .cls-60{clip-path:url(#clip-path-66);}  .cls-61{clip-path:url(#clip-path-68);}  .cls-62{clip-path:url(#clip-path-70);}  .cls-63{clip-path:url(#clip-path-72);}  .cls-64{clip-path:url(#clip-path-74);}  .cls-65{clip-path:url(#clip-path-76);}  .cls-66{clip-path:url(#clip-path-78);}  .cls-67{clip-path:url(#clip-path-80);}  .cls-68{clip-path:url(#clip-path-82);}  .cls-69{clip-path:url(#clip-path-84);}  .cls-70{clip-path:url(#clip-path-86);}  .cls-71{clip-path:url(#clip-path-88);}  .cls-72{clip-path:url(#clip-path-90);}  .cls-73{clip-path:url(#clip-path-92);}  .cls-74{clip-path:url(#clip-path-94);}  .cls-75{clip-path:url(#clip-path-96);}  .cls-76{clip-path:url(#clip-path-98);}  .cls-77{clip-path:url(#clip-path-100);}  .cls-78{clip-path:url(#clip-path-102);}  .cls-79{clip-path:url(#clip-path-104);}  .cls-80{clip-path:url(#clip-path-106);}  .cls-81{clip-path:url(#clip-path-108);}  .cls-82{clip-path:url(#clip-path-110);}  .cls-83{clip-path:url(#clip-path-112);}  .cls-84{clip-path:url(#clip-path-114);}  .cls-85{clip-path:url(#clip-path-116);}  .cls-86{clip-path:url(#clip-path-118);}  .cls-87{clip-path:url(#clip-path-120);}  .cls-88{clip-path:url(#clip-path-122);}  .cls-89{clip-path:url(#clip-path-124);}  .cls-90{clip-path:url(#clip-path-126);}  .cls-91{clip-path:url(#clip-path-128);}  .cls-92{clip-path:url(#clip-path-130);}  .cls-93{clip-path:url(#clip-path-132);}  .cls-94{clip-path:url(#clip-path-134);}  .cls-95{fill:#fffffe;}  .cls-96{clip-path:url(#clip-path-136);}  .cls-97{fill:#0069aa;}</style><clipPath id="clip-path"><path class="cls-1" d="M-56.71-165.78h2.85a1.87,1.87,0,0,0,.34,0,1.23,1.23,0,0,0,1-1.2,1.23,1.23,0,0,0-1-1.2,1.87,1.87,0,0,0-.34,0h-2.85Z"/></clipPath><clipPath id="clip-path-2"><path class="cls-1" d="M-54.19-182.8a4.81,4.81,0,0,0-4.93,4.67v4.84h7l.48,0c1.58.07,2.74.84,2.74,2.17,0,1-.79,1.94-2.24,2.14v.05c1.6.11,2.82.94,2.82,2.26s-1.34,2.33-3.13,2.33h-7.65v9.5h7.23A4.8,4.8,0,0,0-47-159.48V-182.8Z"/></clipPath><clipPath id="clip-path-3"><path class="cls-1" d="M-52.85-170.76a1.14,1.14,0,0,0-1-1.12l-.28,0h-2.59v2.27h2.59l.28,0a1.13,1.13,0,0,0,1-1.11"/></clipPath><clipPath id="clip-path-4"><path class="cls-1" d="M-81.47-182.8a4.81,4.81,0,0,0-4.93,4.67v11.51a10.22,10.22,0,0,0,4.27,1.05c1.7,0,2.64-1,2.64-2.31v-5.41h4.24v5.41c0,2.12-1.38,3.81-6.09,3.81a22.32,22.32,0,0,1-5.06-.58v9.83h7.23a4.8,4.8,0,0,0,4.93-4.66V-182.8Z"/></clipPath><clipPath id="clip-path-5"><path class="cls-1" d="M-67.83-182.8a4.81,4.81,0,0,0-4.93,4.67v6.1c1.25-1,3.41-1.65,6.92-1.5A23.41,23.41,0,0,1-62-173v2a10.2,10.2,0,0,0-3.73-1c-2.67-.19-4.27,1-4.27,3.22s1.6,3.41,4.27,3.22a10.08,10.08,0,0,0,3.73-1v2a24,24,0,0,1-3.87.55c-3.51.15-5.67-.48-6.92-1.49v10.76h7.23a4.8,4.8,0,0,0,4.93-4.66V-182.8Z"/></clipPath><clipPath id="clip-path-11"><path class="cls-1" d="M55-165.78h2.85a1.87,1.87,0,0,0,.34,0,1.23,1.23,0,0,0,1-1.2,1.23,1.23,0,0,0-1-1.2,1.87,1.87,0,0,0-.34,0H55Z"/></clipPath><clipPath id="clip-path-12"><path class="cls-1" d="M57.49-182.8a4.81,4.81,0,0,0-4.93,4.67v4.84h7l.49,0c1.58.07,2.74.84,2.74,2.17A2.27,2.27,0,0,1,60.52-169v.05c1.6.11,2.82.94,2.82,2.26s-1.34,2.33-3.14,2.33H52.56v9.5h7.23a4.8,4.8,0,0,0,4.93-4.66V-182.8Z"/></clipPath><clipPath id="clip-path-13"><path class="cls-1" d="M58.83-170.76a1.14,1.14,0,0,0-1-1.12l-.29,0H55v2.27h2.58l.29,0a1.13,1.13,0,0,0,1-1.11"/></clipPath><clipPath id="clip-path-14"><path class="cls-1" d="M30.21-182.8a4.81,4.81,0,0,0-4.93,4.67v11.51a10.17,10.17,0,0,0,4.26,1.05c1.71,0,2.65-1,2.65-2.31v-5.41h4.24v5.41c0,2.12-1.38,3.81-6.09,3.81a22.32,22.32,0,0,1-5.06-.58v9.83h7.23a4.8,4.8,0,0,0,4.93-4.66V-182.8Z"/></clipPath><clipPath id="clip-path-15"><path class="cls-1" d="M43.85-182.8a4.81,4.81,0,0,0-4.93,4.67v6.1c1.25-1,3.41-1.65,6.92-1.5a23.41,23.41,0,0,1,3.87.56v2A10.2,10.2,0,0,0,46-172c-2.67-.19-4.27,1-4.27,3.22s1.6,3.41,4.27,3.22a10.08,10.08,0,0,0,3.73-1v2a24,24,0,0,1-3.87.55c-3.51.15-5.67-.48-6.92-1.49v10.76h7.23a4.8,4.8,0,0,0,4.93-4.66V-182.8Z"/></clipPath><clipPath id="clip-path-21"><path class="cls-3" d="M-87.54,30.36c0,.74.53.81,1,.81,2.07,0,2.76-1.56,2.76-3a2.89,2.89,0,0,0-2.68-3.08h-.33a6.28,6.28,0,0,0-.75,0Zm-.94-4.51c0-.87-.46-.82-.89-.82v-.21h2.77c2.48,0,3.84,1.63,3.84,3.36,0,.95-.56,3.35-3.95,3.35H-89.4v-.25c.58-.06.86-.08.89-.73Z"/></clipPath><clipPath id="clip-path-22"><path class="cls-3" d="M-81.33,25.63a.47.47,0,0,1-.47-.47.47.47,0,0,1,.47-.47h0a.47.47,0,0,1,.46.46A.47.47,0,0,1-81.33,25.63Zm-1,5.62h.19c.27,0,.46,0,.46-.32v-2.6c0-.42-.14-.48-.5-.67v-.15c.45-.14,1-.32,1-.35a.33.33,0,0,1,.17,0s.07.05.07.13v3.68c0,.32.21.32.48.32h.16v.25h-2.06Z"/></clipPath><clipPath id="clip-path-23"><path class="cls-3" d="M-79.42,28.38c0-.36-.1-.46-.55-.64v-.18c.4-.14.81-.27,1.26-.46,0,0,.06,0,.06.09v.63A2.81,2.81,0,0,1-77,27.1c.81,0,1.09.59,1.09,1.34v2.44c0,.32.22.32.48.32h.18v.25h-2.06V31.2h.17c.27,0,.47,0,.47-.32V28.43c0-.55-.33-.81-.89-.81a2.65,2.65,0,0,0-1.11.46v2.85c0,.31.21.31.48.31H-78v.26H-80v-.26h.17c.27,0,.46,0,.46-.31V28.38"/></clipPath><clipPath id="clip-path-24"><path class="cls-3" d="M-72.8,28.53c.24,0,.27-.13.27-.24a.82.82,0,0,0-.74-.89h-.08c-.57,0-1,.43-1.09,1.13Zm-1.7.3a2.62,2.62,0,0,0,0,.56A1.62,1.62,0,0,0-73.09,31a1.85,1.85,0,0,0,1.3-.64l.14.13a2.27,2.27,0,0,1-1.79,1.09,1.93,1.93,0,0,1-1.83-2V29.5a2.14,2.14,0,0,1,1.94-2.44,1.52,1.52,0,0,1,1.63,1.41v.27l-.09.05Z"/></clipPath><clipPath id="clip-path-25"><path class="cls-3" d="M-71.48,31.23h.26c.27,0,.45,0,.45-.31v-2.7c0-.3-.35-.36-.49-.43v-.15c.7-.3,1.08-.54,1.17-.54s.09,0,.09.12v.86h0c.24-.38.64-1,1.23-1a.52.52,0,0,1,.54.5h0a.45.45,0,0,1-.43.48h0c-.3,0-.3-.22-.64-.22a.81.81,0,0,0-.7.81v2.26c0,.31.19.31.46.31H-69v.26H-71.5v-.26"/></clipPath><clipPath id="clip-path-26"><path class="cls-3" d="M-67.79,30.15a1.27,1.27,0,0,0,1.22,1.18.66.66,0,0,0,.76-.57.41.41,0,0,0,0-.11c0-1.13-2.09-.77-2.09-2.31A1.32,1.32,0,0,1-66.5,27.1h.1a2.48,2.48,0,0,1,1.1.27l.06,1h-.22a1,1,0,0,0-1-.95h0a.68.68,0,0,0-.74.61v0c0,1.13,2.23.82,2.23,2.29,0,.64-.51,1.31-1.62,1.31a2.54,2.54,0,0,1-1.18-.32l-.1-1.11.17-.05"/></clipPath><clipPath id="clip-path-27"><path class="cls-3" d="M-56.35,26.52h-.24a1.82,1.82,0,0,0-2-1.58h0a2.74,2.74,0,0,0-2.71,3,3.12,3.12,0,0,0,2.85,3.34,2,2,0,0,0,1.94-1.63l.22.06-.22,1.4a5.2,5.2,0,0,1-2.12.51,3.4,3.4,0,0,1-3.67-3.15c0-.15,0-.31,0-.46a3.54,3.54,0,0,1,3.64-3.39,6.82,6.82,0,0,1,2.27.52l.1,1.37"/></clipPath><clipPath id="clip-path-28"><path class="cls-3" d="M-56,31.23h.19c.27,0,.46,0,.46-.31V25.57c0-.63-.14-.64-.51-.75v-.15a6.13,6.13,0,0,0,1-.42l.21-.11c.06,0,.08.06.08.14v6.64c0,.31.21.31.48.31h.16v.26H-56v-.26"/></clipPath><clipPath id="clip-path-29"><path class="cls-3" d="M-49.83,31c0,.17.1.18.26.18h.39v.19a11.1,11.1,0,0,0-1.39.3h0v-.77a2.56,2.56,0,0,1-1.7.81,1,1,0,0,1-1-1V28.08c0-.26,0-.49-.58-.54v-.18l1.24-.1c.11,0,.11.08.11.29V30c0,.29,0,1.11.81,1.11a2.1,2.1,0,0,0,1.18-.58V27.94c0-.19-.45-.3-.81-.39v-.17c.87-.06,1.41-.14,1.5-.14s.08.07.08.18V31"/></clipPath><clipPath id="clip-path-30"><path class="cls-3" d="M-47.95,30.4a1,1,0,0,0,1,1c1,0,1.47-1,1.47-1.86A1.85,1.85,0,0,0-47,27.61a1.47,1.47,0,0,0-.91.47Zm0-2.61a2.42,2.42,0,0,1,1.43-.69A1.87,1.87,0,0,1-44.69,29a.49.49,0,0,1,0,.12A2.43,2.43,0,0,1-47,31.63a2.75,2.75,0,0,1-1.35-.3l-.28.23-.21-.11a9.25,9.25,0,0,0,.13-1.75V25.57c0-.63-.13-.64-.5-.75v-.15a6.13,6.13,0,0,0,1-.42,1,1,0,0,1,.21-.11s.08.06.08.14Z"/></clipPath><clipPath id="clip-path-31"><path class="cls-3" d="M-89.38,37.07h.08c.19,0,.39,0,.39-.29V34c0-.27-.2-.3-.39-.3h-.08v-.16h1.59v.19h0c-.19,0-.4,0-.4.3v2.74c0,.27.21.29.4.29h.07v.17h-1.59V37.1"/></clipPath><clipPath id="clip-path-32"><path class="cls-3" d="M-87.8,37.21V37.1h0c-.19,0-.41,0-.41-.32V34c0-.29.22-.32.41-.32h0V33.6h-1.56v.12h0c.19,0,.41,0,.41.32v2.74c0,.28-.22.32-.41.32h0v.11h1.56Zm0,0h-1.59V37h.1c.18,0,.36,0,.36-.27V34c0-.26-.18-.27-.36-.28h-.1v-.21h1.59v.22h0c-.19,0-.37,0-.37.28V36.8c0,.25.18.26.37.26h.09v.21Z"/></clipPath><clipPath id="clip-path-33"><path class="cls-3" d="M-84.19,36.22h0v-2c0-.43-.29-.49-.45-.49h-.11v-.16h1.37v.19h-.07c-.22,0-.46,0-.46.66v2.38a2.35,2.35,0,0,0,0,.53h-.2l-2.69-3v2.12c0,.46.09.61.49.61h.09v.16H-87.6v-.16h.07c.37,0,.47-.24.47-.66v-2.2a.46.46,0,0,0-.46-.47h-.08v-.16h1.07l2.34,2.64"/></clipPath><clipPath id="clip-path-34"><path class="cls-3" d="M-84.2,36.22m0,0,.11,1.08h.17a4.17,4.17,0,0,1,0-.5V34.4c0-.63.26-.68.49-.68h.05V33.6h-1.33v.12h.12a.46.46,0,0,1,.48.43.19.19,0,0,1,0,.08v2h0l-2.32-2.63h-1v.11h0a.5.5,0,0,1,.5.48h0V36.4c0,.41-.12.68-.5.68h0v.11h1.35v-.11h-.07c-.41,0-.52-.18-.52-.64V34.25Zm.19.05h-.2l-2.65-3v2.07c0,.46.07.59.47.59h.1v.2h-1.38V37h.1c.35,0,.45-.22.45-.63V34.21a.45.45,0,0,0-.45-.45h-.1v-.21h1.08l2.31,2.59V34.23a.42.42,0,0,0-.38-.45h-.18v-.2h1.38v.2h-.1c-.22,0-.44,0-.45.65V36.8a4.51,4.51,0,0,0,0,.52h0Z"/></clipPath><clipPath id="clip-path-35"><path class="cls-3" d="M-82.59,33.84c-.39,0-.41.1-.48.48h-.16a1.19,1.19,0,0,1,.06-.45,3.23,3.23,0,0,0,0-.44H-83c0,.16.18.15.32.15H-80c.15,0,.28,0,.29-.16h.12c0,.13,0,.28-.05.42a2.94,2.94,0,0,0,0,.42l-.15.06c0-.2,0-.5-.39-.5h-.84v2.8c0,.41.18.45.43.45h.11v.16h-1.74v-.16h.11c.29,0,.44,0,.44-.44V33.84h-.88"/></clipPath><clipPath id="clip-path-36"><path class="cls-3" d="M-80.52,37.25h-1.74V37h.11c.29,0,.4,0,.41-.41V33.85h.07v2.81c0,.42-.17.46-.46.46h-.08v.11h1.68v-.11h-.09c-.25,0-.45-.06-.45-.47V33.82h.88c.35,0,.4.3.41.49h.11v-.4l0-.41h-.08c0,.14-.18.15-.31.15h-2.71c-.13,0-.26,0-.31-.15h-.08a3.09,3.09,0,0,1,0,.43c0,.14,0,.28-.06.41h.11c.07-.36.12-.48.51-.47h0c-.39,0-.39.08-.47.46h-.2c0-.15,0-.29.06-.44a3.23,3.23,0,0,0,0-.44h.2c0,.13.13.13.27.13H-80c.14,0,.25,0,.26-.14h.14a1.16,1.16,0,0,1-.05.42c-.06.14,0,.29,0,.43h0l-.19.06h0c0-.19,0-.48-.37-.48H-81v2.75c0,.39.16.43.41.43h.06v.2h0"/></clipPath><clipPath id="clip-path-37"><path class="cls-3" d="M-79.43,37.07h.08c.18,0,.39,0,.39-.29V34c0-.27-.21-.3-.39-.3h-.08v-.16h2.64v.81h-.16c0-.34-.09-.61-.64-.61h-.72v1.37h.62c.31,0,.38-.18.41-.46h.16V35.9h-.16c0-.31,0-.51-.4-.51h-.63v1.22c0,.33.3.33.63.33.63,0,.91,0,1.06-.63h.15c-.07.28-.13.55-.17.81h-2.8V37"/></clipPath><clipPath id="clip-path-38"><path class="cls-3" d="M-76.65,37.21c.05-.27.1-.53.17-.81h-.11c-.15.58-.45.64-1.07.63-.33,0-.66,0-.66-.36V35.4h.65c.37,0,.4.22.42.52h.12V34.75h-.13c0,.28-.12.47-.43.47h-.63V33.77h.75c.54,0,.63.28.66.61h.11a4.34,4.34,0,0,1,0-.51v-.25h-2.59v.11h0c.19,0,.41,0,.41.32V36.8c0,.28-.22.31-.41.31h0v.12H-78Zm0,0h-2.8V37h.1c.18,0,.35,0,.36-.27V34c0-.26-.18-.27-.36-.28h-.1v-.21h2.64v.8h0l-.18,0h0c0-.34-.08-.58-.62-.59h-.71v1.35h.6c.3,0,.36-.16.39-.44h.21v1.21h-.19c0-.32,0-.49-.38-.49h-.61v1.19c0,.32.27.31.62.32.62,0,.87,0,1-.63h0l.17,0h0c-.07.28-.13.56-.18.82h0Z"/></clipPath><clipPath id="clip-path-39"><path class="cls-3" d="M-75.08,35.35h.26c.52,0,.81-.2.81-.82a.7.7,0,0,0-.66-.76.17.17,0,0,0-.1,0,1.5,1.5,0,0,0-.3,0Zm-.67-1.22c0-.38-.21-.39-.37-.39h-.09v-.16h1.63c.66,0,1.24.18,1.24.92a1,1,0,0,1-.67.9l.9,1.35a.58.58,0,0,0,.51.31v.16h-1a14.35,14.35,0,0,1-1.08-1.7H-75v1.12c0,.4.19.42.43.42h.09v.16h-1.65v-.16h.09c.19,0,.37-.09.37-.28Z"/></clipPath><clipPath id="clip-path-40"><path class="cls-3" d="M-74.82,35.33c.51,0,.81-.19.81-.81a.69.69,0,0,0-.63-.75H-75v1.52Zm-.26,0h0v-1.6h.3a.75.75,0,0,1,.82.65v.17c0,.63-.31.81-.82.81Zm0,.15h.37a16.35,16.35,0,0,0,1.06,1.68h1v-.11a.61.61,0,0,1-.51-.33l-.91-1.36h0a1,1,0,0,0,.72-.9c0-.73-.56-.9-1.22-.9h-1.63v.12h.06c.17,0,.4,0,.4.41V36.8c0,.2-.19.3-.4.3h-.06v.11h1.61V37.1h-.07c-.24,0-.46,0-.46-.44V35.52Zm2.44,1.73h-1a13,13,0,0,1-1.09-1.68h-.31v1.09c0,.4.17.4.41.4h.12v.2h-1.66V37h.12c.19,0,.35-.08.35-.25V34.13c0-.36-.19-.36-.35-.37h-.12v-.21h1.63c.66,0,1.26.19,1.26,1a1,1,0,0,1-.71.9l.88,1.31a.53.53,0,0,0,.49.3h0v.24Z"/></clipPath><clipPath id="clip-path-41"><path class="cls-3" d="M-69.12,36.22h0v-2a.42.42,0,0,0-.37-.48h-.2v-.16h1.38v.19h-.09c-.22,0-.46,0-.46.66v2.38a4.69,4.69,0,0,0,0,.53h-.2l-2.69-3v2.12c0,.46.09.61.49.61h.09v.16h-1.39v-.16h.18c.36,0,.48-.24.48-.66v-2.2a.48.48,0,0,0-.48-.44h-.06v-.16h1.06l2.26,2.61"/></clipPath><clipPath id="clip-path-42"><path class="cls-3" d="M-69.12,36.22-69,37.3h.17a4.17,4.17,0,0,1,0-.5V34.4c0-.63.26-.68.48-.68h0V33.6h-1.32v.12h.09a.45.45,0,0,1,.48.42v2.08h0l-2.32-2.63h-1.05v.11h.05a.49.49,0,0,1,.5.48h0V36.4c0,.41-.11.68-.49.68h-.06v.11h1.35v-.11h-.07c-.41,0-.51-.18-.51-.64V34.25Zm.2.05H-69l-2.66-3v2.07c0,.46.09.59.48.59h.11v.2h-1.38V37h.1c.34,0,.44-.22.45-.63V34.21a.46.46,0,0,0-.45-.44h-.09v-.2h1.09l2.26,2.58V34.23a.42.42,0,0,0-.35-.47h-.22v-.21h1.38v.22h-.1c-.21,0-.44,0-.44.65V36.8a4.51,4.51,0,0,0,0,.52h0Z"/></clipPath><clipPath id="clip-path-43"><path class="cls-3" d="M-66.68,34.17h0l-.49,1.48h1Zm-.76,2.32a2.64,2.64,0,0,0-.12.4c0,.16.22.18.39.18h.06v.16h-1.2v-.16h0a.47.47,0,0,0,.46-.33L-67,34.3a3.86,3.86,0,0,0,.2-.66,3.41,3.41,0,0,0,.48-.22h0l0,.13,1,2.74c.06.19.13.37.19.54a.33.33,0,0,0,.35.2h0v.16h-1.53V37h0c.12,0,.33,0,.33-.15a3.37,3.37,0,0,0,.1-.34l-.21-.6h-1.2Z"/></clipPath><clipPath id="clip-path-44"><path class="cls-3" d="M-66.68,34.17m-.45,1.45h.92l-.47-1.4Zm-.05.05.5-1.53h0l.5,1.53Zm1.06,1.54h1.46V37.1h0a.38.38,0,0,1-.37-.22c-.06-.17-.13-.36-.18-.54l-1-2.74v-.12h0a2.11,2.11,0,0,1-.46.21,4.88,4.88,0,0,1-.2.65l-.81,2.4a.53.53,0,0,1-.48.36h0v.11H-67V37.1h0c-.17,0-.41,0-.41-.21a1.91,1.91,0,0,1,.11-.41h0l.17-.56h1.22l.21.62a1.34,1.34,0,0,1,.11.39c0,.15-.23.17-.35.17h0Zm1.48,0h-1.53V37h.09c.12,0,.3,0,.3-.12a1.78,1.78,0,0,0-.1-.38l-.2-.58h-1.17l-.16.53a1.42,1.42,0,0,0-.12.4c0,.13.2.15.37.15h.08v.2h-1.19V37h0a.42.42,0,0,0,.43-.32l.82-2.44a5.16,5.16,0,0,0,.2-.67,2.09,2.09,0,0,0,.48-.22h.11l.05.13,1,2.74a4.76,4.76,0,0,0,.19.53.3.3,0,0,0,.32.19h.06v.21Z"/></clipPath><clipPath id="clip-path-45"><path class="cls-3" d="M-64.42,33.84c-.39,0-.41.1-.48.48H-65c0-.15,0-.29.06-.45a1.62,1.62,0,0,0,0-.44h.14c0,.16.17.15.3.15h2.76c.14,0,.27,0,.28-.16h.12c0,.13,0,.28,0,.42a2.94,2.94,0,0,0,0,.42l-.16.06c0-.2,0-.5-.39-.5h-.9v2.8c0,.41.18.45.43.45h.1v.16H-64.1v-.16h.1c.29,0,.44,0,.44-.44V33.84h-.81"/></clipPath><clipPath id="clip-path-46"><path class="cls-3" d="M-62.36,37.25H-64.1V37H-64c.3,0,.41,0,.42-.41V33.85h.06v2.81c0,.42-.17.46-.46.46h-.11v.11h1.67v-.11h-.08c-.25,0-.45-.06-.45-.47V33.82H-62c.35,0,.4.3.41.49h.11a2.67,2.67,0,0,1,0-.4,1.15,1.15,0,0,1,.05-.41h-.08c0,.14-.17.15-.3.15h-2.7c-.13,0-.26,0-.31-.15h-.08v.43c0,.14,0,.28-.06.41h.1c.08-.36.12-.48.52-.47h0c-.39,0-.39.08-.47.46H-65a1.14,1.14,0,0,1,.06-.45,3.23,3.23,0,0,0,0-.44h.17c0,.13.13.13.27.13h2.76c.14,0,.25,0,.26-.14h.15a1,1,0,0,1-.06.43,1.19,1.19,0,0,0,0,.42h0l-.18.06h0c0-.19,0-.48-.37-.48h-.81v2.76c0,.39.16.43.4.43h.13v.2h0"/></clipPath><clipPath id="clip-path-47"><path class="cls-3" d="M-61.23,37.07h.07c.19,0,.39,0,.39-.29V34c0-.27-.2-.3-.39-.3h-.07v-.16h1.63v.19h-.08c-.18,0-.39,0-.39.3v2.74c0,.27.21.29.39.29h.08v.17h-1.63V37.1"/></clipPath><clipPath id="clip-path-48"><path class="cls-3" d="M-59.66,37.21V37.1h-.05c-.19,0-.41,0-.41-.32V34c0-.29.22-.32.41-.32h.05V33.6h-1.56v.12h0c.19,0,.41,0,.41.32v2.74c0,.28-.22.32-.41.32h0v.11h1.56Zm0,0h-1.63V37h.1c.19,0,.36,0,.36-.27V34c0-.26-.17-.27-.36-.28h-.1v-.21h1.63v.22h-.1c-.19,0-.36,0-.36.28V36.8c0,.25.17.26.36.26h.1v.19Z"/></clipPath><clipPath id="clip-path-49"><path class="cls-3" d="M-57.47,37.08c1,0,1.19-.9,1.19-1.63s-.41-1.68-1.28-1.68-1.19.82-1.19,1.52c0,.94.43,1.83,1.28,1.83m-.08-3.57a1.82,1.82,0,0,1,2,1.65.76.76,0,0,1,0,.15,1.92,1.92,0,0,1-1.84,2h-.14a1.84,1.84,0,0,1-1.95-1.72v-.15a1.9,1.9,0,0,1,1.88-1.93h.05"/></clipPath><clipPath id="clip-path-50"><path class="cls-3" d="M-58.77,35.25c0-.7.27-1.54,1.21-1.54s1.3.94,1.3,1.71-.18,1.68-1.21,1.68V37c1,0,1.16-.87,1.16-1.63s-.4-1.63-1.25-1.63-1.16.82-1.16,1.49c0,.94.42,1.81,1.25,1.81v0c-.87,0-1.3-.91-1.3-1.86m-.74.19a1.93,1.93,0,0,1,1.92-2h0a1.88,1.88,0,0,0-1.91,1.85v0a1.82,1.82,0,0,0,1.8,1.85h.13a1.9,1.9,0,0,0,2-1.82v-.16a1.82,1.82,0,0,0-1.84-1.79h-.14a1.87,1.87,0,0,1,2,1.68v.14a1.94,1.94,0,0,1-1.86,2h-.14a1.87,1.87,0,0,1-2-1.78.81.81,0,0,1,0-.16"/></clipPath><clipPath id="clip-path-51"><path class="cls-3" d="M-52,36.22h0v-2a.43.43,0,0,0-.37-.48h-.2v-.16h1.37v.19h-.08c-.21,0-.46,0-.46.66v2.38a2.35,2.35,0,0,0,0,.53H-52l-2.69-3v2.12c0,.46.09.61.48.61h.09v.16h-1.38v-.16h.07c.36,0,.48-.24.48-.66v-2.2a.47.47,0,0,0-.47-.47h-.08v-.16h1.07L-52,36.22"/></clipPath><clipPath id="clip-path-52"><path class="cls-3" d="M-52,36.22m.1,1.08h.17a4.17,4.17,0,0,1,0-.5V34.4c0-.63.27-.68.49-.68h0V33.6h-1.33v.12h.09a.46.46,0,0,1,.49.42.28.28,0,0,1,0,.09v2h0l-2.33-2.63h-1v.11h0a.51.51,0,0,1,.51.49h0V36.4c0,.41-.13.68-.5.68h-.05v.11H-54v-.11h-.07c-.41,0-.51-.18-.51-.64V34.25Zm.2.05h-.22l-2.65-3v2.07c0,.46.07.59.46.59H-54v.2H-55.4V37h.1c.34,0,.45-.22.45-.63V34.21a.45.45,0,0,0-.45-.45h-.14v-.21h1.08l2.34,2.6V34.23a.42.42,0,0,0-.36-.47h-.21v-.21h1.37v.22h-.07c-.21,0-.43,0-.44.65V36.8a4.51,4.51,0,0,0,0,.52h0Z"/></clipPath><clipPath id="clip-path-53"><path class="cls-3" d="M-49.58,34.17h0l-.49,1.48h1Zm-.82,2.32a1.82,1.82,0,0,0-.11.4c0,.16.22.18.39.18H-50v.16h-1.2v-.16h0a.46.46,0,0,0,.45-.33L-50,34.3a5,5,0,0,0,.19-.66,3,3,0,0,0,.48-.22h0v.13l1,2.74c.06.19.13.37.19.54a.33.33,0,0,0,.35.2h0v.16h-1.54V37h.06c.11,0,.33,0,.33-.15a1.86,1.86,0,0,0,.19-.34l-.2-.6H-50.2Z"/></clipPath><clipPath id="clip-path-54"><path class="cls-3" d="M-49.58,34.17-50,35.62h.91l-.46-1.4Zm-.07.05.51-1.53h0l.5,1.53ZM-49,37.21h1.47V37.1h0a.38.38,0,0,1-.37-.22c-.07-.17-.13-.36-.2-.54l-1-2.74s0-.09,0-.12h0a2.06,2.06,0,0,1-.48.21,3.48,3.48,0,0,1-.19.65l-.82,2.4a.5.5,0,0,1-.48.36h0v.11h1.16V37.1h0c-.17,0-.41,0-.42-.21a2,2,0,0,1,.13-.41h0l.17-.56h1.22l.2.62a1.74,1.74,0,0,1,.11.39c0,.15-.23.17-.34.17h0Zm1.48,0h-1.53V37H-49c.13,0,.3,0,.3-.12a1.78,1.78,0,0,0-.1-.38L-49,36h-1.18l-.17.53a2.62,2.62,0,0,0-.11.4c0,.13.19.15.36.15H-50v.2H-51.2V37h0a.46.46,0,0,0,.44-.32l.81-2.44a4.62,4.62,0,0,0,.21-.66,2.12,2.12,0,0,0,.48-.23h.1l.05.13,1,2.74c.07.19.13.37.2.54a.28.28,0,0,0,.32.18h0v.21Z"/></clipPath><clipPath id="clip-path-55"><path class="cls-3" d="M-46.26,36.72c0,.21.14.27.31.29a2.66,2.66,0,0,0,.69,0,.7.7,0,0,0,.5-.27,1.4,1.4,0,0,0,.16-.38h.15c0,.3-.13.59-.19.89H-47.4v-.16h.07c.19,0,.39,0,.39-.35V34.05c0-.27-.2-.29-.39-.29h-.07V33.6h1.63v.17h-.13c-.2,0-.35,0-.35.28v2.7"/></clipPath><clipPath id="clip-path-56"><path class="cls-3" d="M-44.66,37.21c.06-.28.13-.56.19-.81h-.11a1.17,1.17,0,0,1-.16.36.75.75,0,0,1-.52.3h-.69a.31.31,0,0,1-.34-.31V34c0-.29.18-.3.38-.3h.1V33.6h-1.62v.12h0c.18,0,.41,0,.41.32v2.68c0,.34-.23.38-.41.38h0v.11h2.77Zm0,0h-2.76V37h.1c.19,0,.37,0,.38-.32V34c0-.25-.19-.27-.38-.28h-.1v-.2h1.63v.23h-.15c-.21,0-.33,0-.34.27v2.7c0,.19.13.24.3.27h.68a.82.82,0,0,0,.49-.28,1.22,1.22,0,0,0,.16-.37h.2l-.2.89h0Z"/></clipPath><clipPath id="clip-path-57"><path class="cls-3" d="M-44.6,34h.06c.08,0,.11-.06.11-.14a.11.11,0,0,0-.11-.12h-.06Zm-.19.29h0c.08,0,.08,0,.08-.05v-.46c0-.05,0-.07-.07-.07h.28c.1,0,.18,0,.18.15a.15.15,0,0,1-.13.16l.09.12a.53.53,0,0,0,.13.13h-.11s-.1-.11-.2-.26h-.06v.19h.08Zm.28.15a.44.44,0,0,0,.44-.44.45.45,0,0,0-.44-.45A.45.45,0,0,0-45,34,.45.45,0,0,0-44.51,34.43Zm0-1A.55.55,0,0,1-44,34v0a.55.55,0,0,1-.55.55.55.55,0,0,1-.55-.55.55.55,0,0,1,.53-.56Z"/></clipPath><clipPath id="clip-path-58"><path class="cls-3" d="M-77.16,15.12a8.86,8.86,0,0,1,8.88-8.83,8.86,8.86,0,0,1,8.83,8.88A8.86,8.86,0,0,1-68.31,24a8.86,8.86,0,0,1-8.85-8.86v0"/></clipPath><clipPath id="clip-path-59"><path class="cls-3" d="M-68.31,24.14a9.21,9.21,0,0,1-9.24-9.09A9.06,9.06,0,0,1-68.7,5.79h2.77a9.37,9.37,0,0,1,9.6,9.13v.13c0,5-4.58,9.09-9.59,9.09Zm0-17.59A8.4,8.4,0,0,0-76.68,15a8.38,8.38,0,0,0,8.42,8.37A8.4,8.4,0,0,0-59.88,15a8.42,8.42,0,0,0-8.42-8.4Zm-1.88,13.39V10a5.32,5.32,0,0,0-3,6.88,5.31,5.31,0,0,0,3,3.05ZM-63,15a5.32,5.32,0,0,0-3.42-5v9.94A5.32,5.32,0,0,0-63,15Z"/></clipPath><clipPath id="clip-path-60"><path class="cls-3" d="M24.14,30.36c0,.74.53.81,1,.81,2.07,0,2.76-1.56,2.76-3a2.89,2.89,0,0,0-2.68-3.08h-.33a6.28,6.28,0,0,0-.75,0Zm-.94-4.51c0-.87-.46-.82-.89-.82v-.21h2.77c2.48,0,3.84,1.63,3.84,3.36,0,.95-.56,3.35-4,3.35H22.28v-.25c.58-.06.85-.08.89-.73Z"/></clipPath><clipPath id="clip-path-61"><rect class="cls-3" x="-83.87" y="-188.93" width="715.95" height="1038.13"/></clipPath><clipPath id="clip-path-62"><path class="cls-3" d="M30.35,25.63a.47.47,0,1,1,0-.94h0a.47.47,0,0,1,0,.94Zm-1,5.62h.19c.27,0,.46,0,.46-.32v-2.6c0-.42-.14-.48-.5-.67v-.15c.45-.14,1-.32,1-.35a.39.39,0,0,1,.18,0s.07.05.07.13v3.68c0,.32.21.32.48.32h.16v.25H29.31Z"/></clipPath><clipPath id="clip-path-64"><path class="cls-3" d="M32.26,28.38c0-.36-.11-.46-.55-.64v-.18c.4-.14.81-.27,1.26-.46,0,0,.05,0,.05.09v.63a2.84,2.84,0,0,1,1.67-.72c.82,0,1.1.59,1.1,1.34v2.44c0,.32.21.32.48.32h.18v.25H34.39V31.2h.17c.27,0,.47,0,.47-.32V28.43c0-.55-.34-.81-.89-.81a2.69,2.69,0,0,0-1.12.46v2.85c0,.31.22.31.49.31h.17v.26H31.62v-.26h.18c.26,0,.46,0,.46-.31V28.38"/></clipPath><clipPath id="clip-path-66"><path class="cls-3" d="M38.88,28.53c.24,0,.27-.13.27-.24a.82.82,0,0,0-.74-.89h-.08c-.58,0-1,.43-1.1,1.13Zm-1.7.3a2.62,2.62,0,0,0,0,.56A1.62,1.62,0,0,0,38.59,31a1.87,1.87,0,0,0,1.3-.64l.14.13a2.29,2.29,0,0,1-1.79,1.09,1.93,1.93,0,0,1-1.83-2V29.5a2.14,2.14,0,0,1,1.94-2.44A1.51,1.51,0,0,1,40,28.47a.28.28,0,0,1,0,.09v.18l-.09.05Z"/></clipPath><clipPath id="clip-path-68"><path class="cls-3" d="M40.2,31.23h.26c.27,0,.45,0,.45-.31v-2.7c0-.3-.35-.36-.49-.43v-.15c.7-.3,1.08-.54,1.17-.54s.09,0,.09.12v.86h0c.23-.38.64-1,1.23-1a.52.52,0,0,1,.54.5h0a.45.45,0,0,1-.44.48h0c-.31,0-.31-.22-.64-.22a.81.81,0,0,0-.7.81v2.26c0,.31.19.31.46.31h.53v.26H40.18v-.26"/></clipPath><clipPath id="clip-path-70"><path class="cls-3" d="M43.89,30.15a1.27,1.27,0,0,0,1.22,1.18.66.66,0,0,0,.76-.57.41.41,0,0,0,0-.11c0-1.13-2.09-.77-2.09-2.31a1.31,1.31,0,0,1,1.39-1.24h.1a2.48,2.48,0,0,1,1.1.27l.06,1h-.22a1,1,0,0,0-1-.95h0a.69.69,0,0,0-.75.61v0c0,1.13,2.23.82,2.23,2.29,0,.64-.51,1.31-1.63,1.31a2.53,2.53,0,0,1-1.17-.32l-.1-1.11.17-.05"/></clipPath><clipPath id="clip-path-72"><path class="cls-3" d="M55.33,26.52h-.24a1.82,1.82,0,0,0-2-1.58h0a2.74,2.74,0,0,0-2.72,3,3.13,3.13,0,0,0,2.86,3.34,2,2,0,0,0,1.94-1.63l.22.06-.22,1.4a5.25,5.25,0,0,1-2.13.51,3.4,3.4,0,0,1-3.66-3.15,2.36,2.36,0,0,1,0-.46A3.54,3.54,0,0,1,53,24.67a6.82,6.82,0,0,1,2.27.52l.1,1.37"/></clipPath><clipPath id="clip-path-74"><path class="cls-3" d="M55.67,31.23h.19c.27,0,.46,0,.46-.31V25.57c0-.63-.14-.64-.51-.75v-.15a6.13,6.13,0,0,0,1-.42,1,1,0,0,1,.21-.11c.05,0,.08.06.08.14v6.64c0,.31.21.31.48.31h.16v.26H55.67v-.26"/></clipPath><clipPath id="clip-path-76"><path class="cls-3" d="M61.84,31c0,.17.11.18.27.18h.38v.19a11,11,0,0,0-1.38.3h0v-.77a2.56,2.56,0,0,1-1.7.81,1,1,0,0,1-1.06-1s0-.09,0-.13V28.08c0-.26,0-.49-.58-.54v-.18l1.24-.1c.11,0,.11.08.11.29V30c0,.29,0,1.11.81,1.11a2.1,2.1,0,0,0,1.18-.58V27.94c0-.19-.46-.3-.81-.39v-.17c.87-.06,1.4-.14,1.49-.14s.09.07.09.18V31"/></clipPath><clipPath id="clip-path-78"><path class="cls-3" d="M63.72,30.4a1,1,0,0,0,1,1c1,0,1.46-1,1.46-1.86a1.83,1.83,0,0,0-1.53-1.91,1.49,1.49,0,0,0-.92.47Zm0-2.61a2.47,2.47,0,0,1,1.44-.69A1.87,1.87,0,0,1,67,29s0,.08,0,.12a2.44,2.44,0,0,1-2.3,2.51,2.74,2.74,0,0,1-1.34-.3l-.28.23-.21-.11A10.16,10.16,0,0,0,63,29.7V25.57c0-.63-.14-.64-.5-.75v-.15a5.67,5.67,0,0,0,1-.42l.22-.11s.08.06.08.14Z"/></clipPath><clipPath id="clip-path-80"><path class="cls-3" d="M22.3,37.07h.08c.18,0,.39,0,.39-.29V34c0-.27-.21-.3-.39-.3H22.3v-.16h1.59v.19h-.06c-.18,0-.39,0-.39.3v2.74c0,.27.21.29.39.29h.08v.17H22.32V37.1"/></clipPath><clipPath id="clip-path-82"><path class="cls-3" d="M23.87,37.21V37.1h0c-.18,0-.4,0-.4-.32V34c0-.29.22-.32.4-.32h.05V33.6H22.32v.12h.05c.19,0,.41,0,.41.32v2.74c0,.28-.22.32-.41.32h-.05v.11h1.55Zm0,0H22.29V37h.09c.19,0,.37,0,.37-.27V34c0-.26-.18-.27-.37-.28h-.09v-.21h1.58v.22h0c-.18,0-.36,0-.36.28V36.8c0,.25.18.26.36.26h.1v.21Z"/></clipPath><clipPath id="clip-path-84"><path class="cls-3" d="M27.49,36.22h0v-2c0-.43-.29-.49-.45-.49h-.11v-.16H28.3v.19h-.07c-.22,0-.46,0-.46.66v2.38a2.35,2.35,0,0,0,0,.53h-.2l-2.69-3v2.12c0,.46.09.61.49.61h.09v.16H24.08v-.16h.07c.37,0,.47-.24.47-.66v-2.2a.46.46,0,0,0-.46-.47h-.08v-.16h1.06l2.35,2.64"/></clipPath><clipPath id="clip-path-86"><path class="cls-3" d="M27.48,36.22m0,0,.11,1.08h.17a2.09,2.09,0,0,1,0-.5V34.4c0-.63.26-.68.49-.68h.05V33.6H27v.12h.12a.46.46,0,0,1,.48.43.19.19,0,0,1,0,.08v2h0l-2.33-2.63h-1v.11h0a.5.5,0,0,1,.5.48h0V36.4c0,.41-.12.68-.5.68h0v.11h1.35v-.11h-.07c-.42,0-.52-.18-.52-.64V34.25Zm.19.05h-.2l-2.66-3v2.07c0,.46.08.59.48.59h.1v.2H24.12V37h.1c.35,0,.44-.22.44-.63V34.21a.45.45,0,0,0-.44-.45h-.1v-.21H25.2l2.31,2.59V34.23a.42.42,0,0,0-.38-.45H27v-.2h1.38v.2h-.1c-.22,0-.44,0-.45.65V36.8a4.51,4.51,0,0,0,0,.52h0Z"/></clipPath><clipPath id="clip-path-88"><path class="cls-3" d="M29.09,33.84c-.4,0-.41.1-.49.48h-.15a1.19,1.19,0,0,1,.06-.45,3.23,3.23,0,0,0,0-.44h.12c.05.16.18.15.32.15h2.69c.15,0,.28,0,.29-.16h.12c0,.13,0,.28,0,.42a2.94,2.94,0,0,0,0,.42l-.16.06c0-.2,0-.5-.39-.5h-.84v2.8c0,.41.19.45.44.45h.11v.16H29.42v-.16h.11c.29,0,.43,0,.43-.44V33.84h-.87"/></clipPath><clipPath id="clip-path-90"><path class="cls-3" d="M31.16,37.25H29.42V37h.11c.29,0,.4,0,.41-.41V33.85H30v2.81c0,.42-.17.46-.45.46h-.08v.11h1.67v-.11h-.08c-.25,0-.45-.06-.45-.47V33.82h.88c.35,0,.39.3.41.49H32v-.4l.05-.41H32c0,.14-.17.15-.3.15H29c-.12,0-.26,0-.31-.15h-.08a1.55,1.55,0,0,1,0,.43c0,.14,0,.28,0,.41h.11c.07-.36.11-.48.51-.47h0c-.4,0-.39.08-.47.46h-.2c0-.15.05-.29.05-.44a1.62,1.62,0,0,0,0-.44h.21c0,.13.13.13.27.13h2.72c.14,0,.25,0,.26-.14h.14a1.16,1.16,0,0,1,0,.42c-.06.14,0,.29,0,.43h0l-.19.06h0c0-.19,0-.48-.37-.48h-.81v2.75c0,.39.16.43.41.43h.06v.2h0"/></clipPath><clipPath id="clip-path-92"><path class="cls-3" d="M32.25,37.07h.07c.19,0,.4,0,.4-.29V34c0-.27-.21-.3-.4-.3h-.07v-.16h2.64v.81h-.16c0-.34-.09-.61-.64-.61h-.72v1.37H34c.31,0,.38-.18.41-.46h.16V35.9H34.4c0-.31,0-.51-.41-.51h-.62v1.22c0,.33.3.33.63.33.63,0,.91,0,1.06-.63h.15c-.07.28-.13.55-.17.81h-2.8V37"/></clipPath><clipPath id="clip-path-94"><path class="cls-3" d="M35,37.21c0-.27.1-.53.17-.81h-.11c-.15.58-.45.64-1.07.63-.33,0-.66,0-.66-.36V35.4H34c.37,0,.4.22.42.52h.12V34.75h-.13c0,.28-.12.47-.43.47h-.63V33.77h.75c.54,0,.63.28.66.61h.11a4.34,4.34,0,0,1,0-.51v-.25H32.29v.11h.05c.19,0,.41,0,.41.32V36.8c0,.28-.22.31-.41.31h-.05v.12h1.37Zm0,0h-2.8V37h.09c.19,0,.36,0,.37-.27V34c0-.26-.18-.27-.37-.28h-.09v-.21h2.63v.8h0l-.17,0h0c0-.34-.09-.58-.62-.59h-.71v1.35H34c.3,0,.36-.16.39-.44h.21v1.21h-.19c0-.32,0-.49-.38-.49h-.62v1.19c0,.32.28.31.62.32.63,0,.88,0,1-.63h0l.17,0h0c-.07.28-.13.56-.18.82h0Z"/></clipPath><clipPath id="clip-path-96"><path class="cls-3" d="M36.6,35.35h.26c.52,0,.81-.2.81-.82a.71.71,0,0,0-.66-.76.17.17,0,0,0-.1,0,1.5,1.5,0,0,0-.3,0Zm-.67-1.22c0-.38-.21-.39-.37-.39h-.09v-.16H37.1c.65,0,1.24.18,1.24.92a1,1,0,0,1-.67.9l.9,1.35a.58.58,0,0,0,.51.31v.16h-1A14.35,14.35,0,0,1,37,35.52h-.35v1.12c0,.4.19.42.43.42h.09v.16H35.51v-.16h.09c.19,0,.37-.09.37-.28Z"/></clipPath><clipPath id="clip-path-98"><path class="cls-3" d="M36.86,35.33c.51,0,.81-.19.81-.81a.7.7,0,0,0-.64-.75h-.37v1.52Zm-.26,0h0v-1.6h.3a.73.73,0,0,1,.81.65.48.48,0,0,1,0,.17c0,.63-.3.81-.81.81Zm0,.15H37A18.36,18.36,0,0,0,38,37.2h1v-.11a.61.61,0,0,1-.51-.33L37.6,35.4h0a1,1,0,0,0,.72-.9c0-.73-.57-.9-1.22-.9H35.47v.12h.06c.16,0,.4,0,.4.41V36.8c0,.2-.19.3-.4.3h-.06v.11h1.61V37.1H37c-.24,0-.46,0-.46-.44V35.52ZM39,37.25H38a13,13,0,0,1-1.09-1.68h-.31v1.09c0,.4.17.4.41.4h.11v.2H35.49V37h.12c.19,0,.35-.08.35-.25V34.13c0-.36-.19-.36-.35-.37h-.12v-.21h1.63c.66,0,1.26.19,1.26,1a1,1,0,0,1-.71.9l.87,1.31a.56.56,0,0,0,.5.3h0v.24Z"/></clipPath><clipPath id="clip-path-100"><path class="cls-3" d="M42.56,36.22h0v-2a.43.43,0,0,0-.37-.48H42v-.16h1.37v.19h-.08c-.22,0-.46,0-.46.66v2.38a4.69,4.69,0,0,0,0,.53h-.21l-2.68-3v2.12c0,.46.09.61.49.61h.09v.16H39.12v-.16h.18c.36,0,.47-.24.47-.66v-2.2a.46.46,0,0,0-.47-.44h-.06v-.16H40.3l2.26,2.61"/></clipPath><clipPath id="clip-path-102"><path class="cls-3" d="M42.56,36.22m.1,1.08h.17V34.4c0-.63.27-.68.49-.68h0V33.6H42v.12h.09a.45.45,0,0,1,.49.42.28.28,0,0,1,0,.09v2h0l-2.32-2.63h-1v.11h.06a.5.5,0,0,1,.5.48h0V36.4c0,.41-.12.68-.49.68h-.06v.11H40.6v-.11h-.07c-.41,0-.51-.18-.51-.64V34.25Zm.21.05h-.22l-2.66-3v2.07c0,.46.08.59.48.59h.11v.2H39.2V37h.1c.34,0,.44-.22.45-.63V34.21a.46.46,0,0,0-.45-.44h-.09v-.2h1.08l2.27,2.58V34.23a.42.42,0,0,0-.36-.47H42v-.21h1.37v.22h-.09c-.22,0-.44,0-.44.65V36.8a2.26,2.26,0,0,0,0,.52h0Z"/></clipPath><clipPath id="clip-path-104"><path class="cls-3" d="M45,34.17h0l-.49,1.48h1Zm-.77,2.32a2.62,2.62,0,0,0-.11.4c0,.16.22.18.39.18h.06v.16h-1.2v-.16h0a.48.48,0,0,0,.46-.33l.81-2.44a3.86,3.86,0,0,0,.2-.66,3.41,3.41,0,0,0,.48-.22h0l0,.13,1,2.74c.06.19.13.37.19.54a.32.32,0,0,0,.34.2h0v.16H45.33V37h.06c.12,0,.33,0,.33-.15a1.89,1.89,0,0,0,.09-.34l-.2-.6h-1.2Z"/></clipPath><clipPath id="clip-path-106"><path class="cls-3" d="M45,34.17m-.45,1.45h.92L45,34.22Zm0,.05.5-1.53h0l.5,1.53Zm1.06,1.54H47V37.1h0a.38.38,0,0,1-.37-.22c-.06-.17-.13-.36-.18-.54l-1-2.74v-.12h0a2,2,0,0,1-.47.21,4.84,4.84,0,0,1-.19.65L44,36.74a.5.5,0,0,1-.47.36h0v.11h1.15V37.1h0c-.17,0-.41,0-.42-.21a2.77,2.77,0,0,1,.12-.41h0l.17-.56h1.22l.21.62a1.74,1.74,0,0,1,.11.39c0,.15-.23.17-.35.17h0Zm1.48,0H45.51V37h.08c.13,0,.31,0,.31-.12a2.66,2.66,0,0,0-.1-.38L45.59,36H44.43l-.16.53a1.42,1.42,0,0,0-.12.4c0,.13.2.15.37.15h.08v.2H43.4V37h.06a.42.42,0,0,0,.43-.32l.82-2.44a5.16,5.16,0,0,0,.2-.67,2.09,2.09,0,0,0,.48-.22h.11l0,.13,1,2.74a3.35,3.35,0,0,0,.19.53A.3.3,0,0,0,47,37h.06v.21Z"/></clipPath><clipPath id="clip-path-108"><path class="cls-3" d="M47.26,33.84c-.4,0-.41.1-.49.48h-.14c0-.15,0-.29.06-.45a1.62,1.62,0,0,0,0-.44h.13c0,.16.17.15.31.15h2.75c.15,0,.28,0,.29-.16h.12a3.27,3.27,0,0,1-.06.42c0,.14,0,.28,0,.42l-.15.06c0-.2,0-.5-.39-.5h-.9v2.8c0,.41.17.45.43.45h.1v.16H47.58v-.16h.1c.29,0,.44,0,.44-.44V33.84H47.3"/></clipPath><clipPath id="clip-path-110"><path class="cls-3" d="M49.32,37.25H47.58V37h.12c.3,0,.41,0,.42-.41V33.85h.06v2.81c0,.42-.17.46-.46.46h-.11v.11h1.67v-.11H49.2c-.25,0-.46-.06-.46-.47V33.82h.9c.35,0,.4.3.41.49h.11a2.67,2.67,0,0,1,0-.4,1.15,1.15,0,0,1,.05-.41h-.08c0,.14-.17.15-.3.15H47.12c-.12,0-.26,0-.3-.15h-.09a3.09,3.09,0,0,1,0,.43c0,.14,0,.28,0,.41h.1c.08-.36.12-.48.52-.47h0c-.4,0-.39.08-.48.46h-.19a1.14,1.14,0,0,1,.06-.45,3.23,3.23,0,0,0,0-.44h.17c0,.13.13.13.26.13h2.76c.15,0,.26,0,.27-.14h.15a1,1,0,0,1-.06.43,1.19,1.19,0,0,0,0,.42h0l-.18.06h0c0-.19,0-.48-.37-.48h-.81v2.76c0,.39.16.43.4.43h.12v.2h0"/></clipPath><clipPath id="clip-path-112"><path class="cls-3" d="M50.45,37.07h.07c.19,0,.39,0,.39-.29V34c0-.27-.2-.3-.39-.3h-.07v-.16h1.62v.19H52c-.19,0-.39,0-.39.3v2.74c0,.27.2.29.39.29h.07v.17H50.45V37.1"/></clipPath><clipPath id="clip-path-114"><path class="cls-3" d="M52,37.21V37.1H52c-.19,0-.41,0-.41-.32V34c0-.29.22-.32.41-.32H52V33.6H50.45v.12h0c.19,0,.41,0,.41.32v2.74c0,.28-.22.32-.41.32h0v.11H52Zm0,0H50.39V37h.1c.18,0,.36,0,.36-.27V34c0-.26-.18-.27-.36-.28h-.1v-.21H52v.22h-.1c-.19,0-.37,0-.37.28V36.8c0,.25.18.26.37.26H52v.19Z"/></clipPath><clipPath id="clip-path-116"><path class="cls-3" d="M54.21,37.08c1,0,1.19-.9,1.19-1.63s-.41-1.68-1.28-1.68-1.19.82-1.19,1.52c0,.94.43,1.83,1.28,1.83m-.08-3.57a1.82,1.82,0,0,1,2,1.65.76.76,0,0,1,0,.15,1.93,1.93,0,0,1-1.84,2h-.14a1.84,1.84,0,0,1-1.95-1.72v-.15a1.89,1.89,0,0,1,1.88-1.93h.05"/></clipPath><clipPath id="clip-path-118"><path class="cls-3" d="M52.9,35.25c0-.7.28-1.54,1.22-1.54s1.3.94,1.3,1.71-.18,1.68-1.21,1.68V37c1,0,1.16-.87,1.16-1.63s-.41-1.63-1.25-1.63S53,34.59,53,35.26c0,.94.43,1.81,1.26,1.81v0c-.87,0-1.31-.91-1.31-1.86m-.73.19a1.93,1.93,0,0,1,1.92-2h0a1.88,1.88,0,0,0-1.91,1.85v0A1.82,1.82,0,0,0,54,37.25h.13a1.9,1.9,0,0,0,2-1.82.92.92,0,0,0,0-.16,1.81,1.81,0,0,0-1.84-1.79h-.13a1.87,1.87,0,0,1,2,1.68v.14a2,2,0,0,1-1.86,2h-.14a1.89,1.89,0,0,1-2-1.78V35.4"/></clipPath><clipPath id="clip-path-120"><path class="cls-3" d="M59.65,36.22h0v-2a.42.42,0,0,0-.37-.48h-.2v-.16h1.38v.19h-.08c-.21,0-.47,0-.47.66v2.38a4.69,4.69,0,0,0,0,.53h-.19l-2.7-3v2.12c0,.46.09.61.49.61h.09v.16H56.22v-.16h.07c.36,0,.47-.24.47-.66v-2.2a.46.46,0,0,0-.46-.47h-.08v-.16h1.06l2.37,2.64"/></clipPath><clipPath id="clip-path-122"><path class="cls-3" d="M59.65,36.22m.11,1.08h.17a4.17,4.17,0,0,1,0-.5V34.4c0-.63.27-.68.49-.68h0V33.6H59.14v.12h.09a.44.44,0,0,1,.48.42.27.27,0,0,1,0,.09v2h0l-2.33-2.63h-1v.11h0a.5.5,0,0,1,.5.49h0V36.4c0,.41-.12.68-.49.68H56.3v.11h1.33v-.11h-.06c-.41,0-.51-.18-.51-.64V34.25Zm.19.05h-.21l-2.65-3v2.07c0,.46.07.59.46.59h.12v.2H56.28V37h.1c.34,0,.45-.22.45-.63V34.21a.45.45,0,0,0-.45-.45h-.15v-.21h1.09l2.33,2.6V34.23a.4.4,0,0,0-.35-.47h-.22v-.21h1.38v.22h-.07c-.22,0-.44,0-.44.65V36.8a2.26,2.26,0,0,0,0,.52h0Z"/></clipPath><clipPath id="clip-path-124"><path class="cls-3" d="M62.1,34.17h0l-.49,1.48h1Zm-.82,2.32a1.82,1.82,0,0,0-.11.4c0,.16.22.18.39.18h.06v.16H60.43v-.16h0a.46.46,0,0,0,.45-.33l.82-2.44a5,5,0,0,0,.19-.66,2.52,2.52,0,0,0,.47-.22h0a.28.28,0,0,1,0,.13l1,2.74c.06.19.13.37.19.54a.33.33,0,0,0,.35.2h0v.16H62.33V37h.06c.11,0,.32,0,.32-.15a1.45,1.45,0,0,0,.2-.34l-.2-.6H61.48Z"/></clipPath><clipPath id="clip-path-126"><path class="cls-3" d="M62.1,34.17m-.45,1.45h.91l-.46-1.4Zm-.07.05.51-1.53h0l.49,1.53Zm1.07,1.54h1.46V37.1h0a.37.37,0,0,1-.36-.22c-.07-.17-.13-.36-.2-.54l-1-2.74s0-.09-.05-.12h0a1.82,1.82,0,0,1-.47.21,3.48,3.48,0,0,1-.19.65l-.82,2.4a.5.5,0,0,1-.48.36h0v.11h1.16V37.1h0c-.17,0-.41,0-.42-.21a2.77,2.77,0,0,1,.12-.41h0l.18-.56h1.22l.2.62a1.74,1.74,0,0,1,.11.39c0,.15-.23.17-.35.17h0Zm1.48,0H62.6V37h.08c.12,0,.3,0,.3-.12a1.78,1.78,0,0,0-.1-.38l-.2-.58H61.49l-.16.53a1.82,1.82,0,0,0-.11.4c0,.13.19.15.36.15h.08v.2H60.48V37h0a.46.46,0,0,0,.44-.32l.81-2.44a6.37,6.37,0,0,0,.21-.66,2.12,2.12,0,0,0,.48-.23h.1l.05.13,1,2.74c.07.19.13.37.2.54A.28.28,0,0,0,64,37h0v.21Z"/></clipPath><clipPath id="clip-path-128"><path class="cls-3" d="M65.42,36.72c0,.21.14.27.31.29a2.66,2.66,0,0,0,.69,0,.7.7,0,0,0,.5-.27,1.4,1.4,0,0,0,.16-.38h.15c0,.3-.13.59-.19.89H64.28v-.16h.07c.19,0,.39,0,.39-.35V34.05c0-.27-.2-.29-.39-.29h-.07V33.6h1.63v.17h-.13c-.2,0-.35,0-.35.28v2.7"/></clipPath><clipPath id="clip-path-130"><path class="cls-3" d="M67,37.21c.06-.28.13-.56.19-.81h-.12a1.14,1.14,0,0,1-.15.36.78.78,0,0,1-.52.3h-.69a.3.3,0,0,1-.34-.31V34c0-.29.18-.3.38-.3h.1V33.6H64.25v.12h0c.19,0,.42,0,.42.32v2.68c0,.34-.23.38-.42.38h0v.11H67Zm0,0H64.26V37h.1c.19,0,.37,0,.37-.32V34c0-.25-.18-.27-.37-.28h-.1v-.2h1.63v.23h-.16c-.2,0-.32,0-.33.27v2.7c0,.19.13.24.29.27h.69a.82.82,0,0,0,.49-.28,1.22,1.22,0,0,0,.16-.37h.19l-.19.89h0Z"/></clipPath><clipPath id="clip-path-132"><path class="cls-3" d="M67.08,34h.06c.08,0,.11-.06.11-.14a.11.11,0,0,0-.11-.12h-.06Zm-.19.29h0c.07,0,.08,0,.08-.05v-.46c0-.05,0-.07-.07-.07h.28c.09,0,.18,0,.18.15a.15.15,0,0,1-.13.16l.09.12a.5.5,0,0,0,.12.13h-.1s-.1-.11-.2-.26h-.06v.19h.08Zm.28.15a.45.45,0,1,0-.45-.44A.44.44,0,0,0,67.17,34.43Zm0-1a.55.55,0,0,1,.55.54v0a.56.56,0,0,1-1.11,0,.56.56,0,0,1,.54-.56Z"/></clipPath><clipPath id="clip-path-134"><path class="cls-3" d="M34.51,15.12A8.86,8.86,0,1,1,43.37,24a8.86,8.86,0,0,1-8.86-8.89v0"/></clipPath><clipPath id="clip-path-136"><path class="cls-3" d="M43.37,24.14a9.21,9.21,0,0,1-9.24-9.09A9.06,9.06,0,0,1,43,5.79h2.77a9.36,9.36,0,0,1,9.59,9.13.57.57,0,0,1,0,.13c0,5-4.58,9.09-9.59,9.09Zm0-17.59A8.4,8.4,0,1,0,51.8,15a8.41,8.41,0,0,0-8.43-8.4ZM41.49,19.94V10a5.33,5.33,0,0,0,0,9.93Zm7.23-5a5.32,5.32,0,0,0-3.42-5v9.94a5.32,5.32,0,0,0,3.42-5Z"/></clipPath></defs><title>Payment-Method-Logos</title><rect class="cls-4" x="0.5" y="0.5" width="89" height="42.14" rx="1.78"/><path class="cls-5" d="M87.72,1A1.28,1.28,0,0,1,89,2.28V40.87a1.27,1.27,0,0,1-1.28,1.27H2.28A1.27,1.27,0,0,1,1,40.87V2.28A1.28,1.28,0,0,1,2.28,1H87.72m0-1H2.28A2.28,2.28,0,0,0,0,2.28V40.87a2.28,2.28,0,0,0,2.28,2.27H87.72A2.28,2.28,0,0,0,90,40.87V2.28A2.28,2.28,0,0,0,87.72,0Z"/><g class="cls-55"><g class="cls-56"><rect class="cls-57" x="18.74" y="21.21" width="13.8" height="13.86"/></g></g><g class="cls-58"><g class="cls-56"><rect class="cls-57" x="25.71" y="21.09" width="9.22" height="13.97"/></g></g><g class="cls-59"><g class="cls-56"><rect class="cls-57" x="28.04" y="23.52" width="11.98" height="11.55"/></g></g><g class="cls-60"><g class="cls-56"><rect class="cls-57" x="32.83" y="23.52" width="10.77" height="11.7"/></g></g><g class="cls-61"><g class="cls-56"><rect class="cls-57" x="36.61" y="23.52" width="10.44" height="11.55"/></g></g><g class="cls-62"><g class="cls-56"><rect class="cls-57" x="40.14" y="23.52" width="10.09" height="11.7"/></g></g><g class="cls-63"><g class="cls-56"><rect class="cls-57" x="45.74" y="21.06" width="13.17" height="14.16"/></g></g><g class="cls-64"><g class="cls-56"><rect class="cls-57" x="52.1" y="20.57" width="9.22" height="14.5"/></g></g><g class="cls-65"><g class="cls-56"><rect class="cls-57" x="54.15" y="23.66" width="11.93" height="11.55"/></g></g><g class="cls-66"><g class="cls-56"><rect class="cls-57" x="58.9" y="20.57" width="11.66" height="14.65"/></g></g><g class="cls-67"><g class="cls-56"><rect class="cls-57" x="18.72" y="30.01" width="8.75" height="10.81"/></g></g><g class="cls-68"><g class="cls-56"><rect class="cls-57" x="18.7" y="29.98" width="8.8" height="10.85"/></g></g><g class="cls-69"><g class="cls-56"><rect class="cls-57" x="20.52" y="30.01" width="11.36" height="10.88"/></g></g><g class="cls-70"><g class="cls-56"><rect class="cls-57" x="20.5" y="29.98" width="11.41" height="10.93"/></g></g><g class="cls-71"><g class="cls-56"><rect class="cls-57" x="24.87" y="29.84" width="10.79" height="10.97"/></g></g><g class="cls-72"><g class="cls-56"><rect class="cls-57" x="24.84" y="29.81" width="10.85" height="11.02"/></g></g><g class="cls-73"><g class="cls-56"><rect class="cls-57" x="28.67" y="30.01" width="10.14" height="10.81"/></g></g><g class="cls-74"><g class="cls-56"><rect class="cls-57" x="28.65" y="29.98" width="10.18" height="10.85"/></g></g><g class="cls-75"><g class="cls-56"><rect class="cls-57" x="31.88" y="30.01" width="10.73" height="10.81"/></g></g><g class="cls-76"><g class="cls-56"><rect class="cls-57" x="31.86" y="29.98" width="10.78" height="10.85"/></g></g><g class="cls-77"><g class="cls-56"><rect class="cls-57" x="35.61" y="30.01" width="11.36" height="10.88"/></g></g><g class="cls-78"><g class="cls-56"><rect class="cls-57" x="35.59" y="29.98" width="11.41" height="10.93"/></g></g><g class="cls-79"><g class="cls-56"><rect class="cls-57" x="39.8" y="29.87" width="10.81" height="10.94"/></g></g><g class="cls-80"><g class="cls-56"><rect class="cls-57" x="39.77" y="29.85" width="10.85" height="10.98"/></g></g><g class="cls-81"><g class="cls-56"><rect class="cls-57" x="43.04" y="29.84" width="10.79" height="10.97"/></g></g><g class="cls-82"><g class="cls-56"><rect class="cls-57" x="43.01" y="29.81" width="10.85" height="11.02"/></g></g><g class="cls-83"><g class="cls-56"><rect class="cls-57" x="46.86" y="30.01" width="8.75" height="10.81"/></g></g><g class="cls-84"><g class="cls-56"><rect class="cls-57" x="46.85" y="29.98" width="8.8" height="10.85"/></g></g><g class="cls-85"><g class="cls-56"><rect class="cls-57" x="48.61" y="29.92" width="11.09" height="10.97"/></g></g><g class="cls-86"><g class="cls-56"><rect class="cls-57" x="48.6" y="29.9" width="11.14" height="11.01"/></g></g><g class="cls-87"><g class="cls-56"><rect class="cls-57" x="52.68" y="30.01" width="11.36" height="10.88"/></g></g><g class="cls-88"><g class="cls-56"><rect class="cls-57" x="52.66" y="29.98" width="11.41" height="10.93"/></g></g><g class="cls-89"><g class="cls-56"><rect class="cls-57" x="56.87" y="29.87" width="10.81" height="10.94"/></g></g><g class="cls-90"><g class="cls-56"><rect class="cls-57" x="56.84" y="29.85" width="10.85" height="10.98"/></g></g><g class="cls-91"><g class="cls-56"><rect class="cls-57" x="60.7" y="30.01" width="10.11" height="10.81"/></g></g><g class="cls-92"><g class="cls-56"><rect class="cls-57" x="60.68" y="29.98" width="10.16" height="10.85"/></g></g><g class="cls-93"><g class="cls-56"><rect class="cls-57" x="63.04" y="29.85" width="8.26" height="8.26"/></g></g><g class="cls-94"><g class="cls-56"><rect class="cls-95" x="30.93" y="2.69" width="24.87" height="24.87"/></g></g><g class="cls-96"><g class="cls-56"><rect class="cls-97" x="30.55" y="2.21" width="28.38" height="25.51"/></g></g></svg>
