<svg id="Layer_1" data-name="Layer 1" xmlns="http://www.w3.org/2000/svg" viewBox="0 0 90 43.14"><defs><style>.cls-1,.cls-2{fill:none;}  .cls-1{clip-rule:evenodd;}  .cls-3{fill:#fff;}  .cls-4{fill:#f2f5f7;}  .cls-5{clip-path:url(#clip-path);}  .cls-6{clip-path:url(#clip-path-2);}  .cls-7{clip-path:url(#clip-path-3);}  .cls-8{clip-path:url(#clip-path-4);}  .cls-9{clip-path:url(#clip-path-5);}  .cls-10{clip-path:url(#clip-path-6);}  .cls-11{clip-path:url(#clip-path-7);}  .cls-12{clip-path:url(#clip-path-8);}  .cls-13{clip-path:url(#clip-path-9);}  .cls-14{clip-path:url(#clip-path-10);}  .cls-15{fill:#231f1f;}  .cls-16{clip-path:url(#clip-path-11);}  .cls-17{clip-path:url(#clip-path-13);}  .cls-18{clip-path:url(#clip-path-15);}  .cls-19{clip-path:url(#clip-path-17);}  .cls-20{clip-path:url(#clip-path-19);}  .cls-21{clip-path:url(#clip-path-21);}  .cls-22{clip-path:url(#clip-path-23);}  .cls-23{fill:#f4811f;}  .cls-24{clip-path:url(#clip-path-25);}  .cls-25{clip-path:url(#clip-path-26);}  .cls-26{clip-path:url(#clip-path-27);}  .cls-27{clip-path:url(#clip-path-28);}</style><clipPath id="clip-path"><path class="cls-1" d="M-98.18,16.24h-3.19V26.88h3.17a5.93,5.93,0,0,0,4-1.23,5.24,5.24,0,0,0,2-4.08c0-3.14-2.45-5.33-6-5.33m2.54,8a4.25,4.25,0,0,1-3,.85h-.59V18h.59a4.16,4.16,0,0,1,3,.86,3.52,3.52,0,0,1,1.2,2.65,3.55,3.55,0,0,1-1.2,2.68"/></clipPath><clipPath id="clip-path-2"><rect class="cls-2" x="-91.21" y="16.24" width="2.17" height="10.64"/></clipPath><clipPath id="clip-path-3"><path class="cls-1" d="M-83.73,20.32c-1.3-.46-1.69-.76-1.69-1.34s.68-1.18,1.62-1.18a2.29,2.29,0,0,1,1.75.87l1.14-1.43a5,5,0,0,0-3.27-1.18,3.21,3.21,0,0,0-3.47,3.05c0,1.47.7,2.22,2.73,2.92a8.57,8.57,0,0,1,1.5.61,1.24,1.24,0,0,1,.65,1.1,1.55,1.55,0,0,1-1.68,1.5,2.57,2.57,0,0,1-2.37-1.42l-1.4,1.29a4.36,4.36,0,0,0,3.85,2,3.52,3.52,0,0,0,3.84-3.5c0-1.69-.73-2.45-3.2-3.32"/></clipPath><clipPath id="clip-path-4"><path class="cls-1" d="M-79.85,21.57A5.64,5.64,0,0,0-74,27.12a6.17,6.17,0,0,0,2.72-.62V24.06a3.54,3.54,0,0,1-2.62,1.16,3.55,3.55,0,0,1-3.74-3.67A3.61,3.61,0,0,1-74,17.9a3.71,3.71,0,0,1,2.72,1.2V16.65A5.8,5.8,0,0,0-73.92,16a5.73,5.73,0,0,0-5.93,5.57"/></clipPath><clipPath id="clip-path-5"><polygon class="cls-1" points="-54.05 23.39 -57.01 16.24 -59.38 16.24 -54.66 27.16 -53.49 27.16 -48.69 16.24 -51.04 16.24 -54.05 23.39"/></clipPath><clipPath id="clip-path-6"><polygon class="cls-1" points="-47.71 26.88 -41.55 26.88 -41.55 25.08 -45.54 25.08 -45.54 22.21 -41.7 22.21 -41.7 20.41 -45.54 20.41 -45.54 18.04 -41.55 18.04 -41.55 16.24 -47.71 16.24 -47.71 26.88"/></clipPath><clipPath id="clip-path-7"><path class="cls-1" d="M-33,19.38c0-2-1.43-3.14-3.94-3.14h-3.21V26.88h2.16V22.61h.29l3,4.27H-32l-3.5-4.48a2.87,2.87,0,0,0,2.53-3m-4.35,1.76h-.64V17.92h.67c1.35,0,2.09.54,2.09,1.57s-.74,1.65-2.12,1.65"/></clipPath><clipPath id="clip-path-8"><path class="cls-1" d="M-58.73,21.57a5.8,5.8,0,0,1-5.92,5.66,5.79,5.79,0,0,1-5.91-5.66,5.78,5.78,0,0,1,5.91-5.66,5.79,5.79,0,0,1,5.92,5.66"/></clipPath><clipPath id="clip-path-9"><path class="cls-1" d="M13.5,16.24H10.31V26.89h3.17a6,6,0,0,0,4-1.23,5.26,5.26,0,0,0,2-4.09c0-3.14-2.45-5.33-6-5.33m2.53,8a4.22,4.22,0,0,1-3,.84h-.58v-7h.58a4.13,4.13,0,0,1,3,.86,3.52,3.52,0,0,1,1.21,2.65A3.59,3.59,0,0,1,16,24.24"/></clipPath><clipPath id="clip-path-10"><rect class="cls-2" x="-1026.97" y="-262.86" width="2005.86" height="467.27"/></clipPath><clipPath id="clip-path-11"><rect class="cls-2" x="20.47" y="16.24" width="2.17" height="10.64"/></clipPath><clipPath id="clip-path-13"><path class="cls-1" d="M28,20.33c-1.3-.46-1.69-.77-1.69-1.34s.68-1.18,1.62-1.18a2.27,2.27,0,0,1,1.75.86l1.13-1.42a5,5,0,0,0-3.27-1.18A3.22,3.22,0,0,0,24,19.12c0,1.46.7,2.21,2.74,2.92a8.4,8.4,0,0,1,1.5.6,1.25,1.25,0,0,1,.65,1.1,1.55,1.55,0,0,1-1.68,1.5,2.58,2.58,0,0,1-2.37-1.41l-1.4,1.29a4.38,4.38,0,0,0,3.85,2,3.52,3.52,0,0,0,3.84-3.49c0-1.69-.73-2.46-3.2-3.32"/></clipPath><clipPath id="clip-path-15"><path class="cls-1" d="M31.83,21.57a5.65,5.65,0,0,0,5.87,5.56,6.32,6.32,0,0,0,2.73-.62V24.06a3.67,3.67,0,0,1-6.36-2.5A3.61,3.61,0,0,1,37.7,17.9a3.75,3.75,0,0,1,2.73,1.2V16.66a5.9,5.9,0,0,0-8.6,4.91"/></clipPath><clipPath id="clip-path-17"><polygon class="cls-1" points="57.63 23.39 54.67 16.24 52.29 16.24 57.02 27.16 58.18 27.16 62.99 16.24 60.64 16.24 57.63 23.39"/></clipPath><clipPath id="clip-path-19"><polygon class="cls-1" points="63.97 26.89 70.13 26.89 70.13 25.08 66.14 25.08 66.14 22.21 69.98 22.21 69.98 20.41 66.14 20.41 66.14 18.05 70.13 18.05 70.13 16.24 63.97 16.24 63.97 26.89"/></clipPath><clipPath id="clip-path-21"><path class="cls-1" d="M78.72,19.39c0-2-1.44-3.15-3.94-3.15H71.56V26.89h2.17V22.61H74l3,4.28h2.67l-3.5-4.49a2.86,2.86,0,0,0,2.53-3m-4.35,1.75h-.64V17.92h.67c1.35,0,2.09.54,2.09,1.58s-.74,1.64-2.12,1.64"/></clipPath><clipPath id="clip-path-23"><path class="cls-1" d="M53,21.57a5.93,5.93,0,0,1-11.84,0,5.93,5.93,0,0,1,11.84,0"/></clipPath><clipPath id="clip-path-25"><rect class="cls-2" x="-86.93" y="-50.53" width="40.5" height="22.5" rx="3.89"/></clipPath><clipPath id="clip-path-26"><path class="cls-2" d="M-77-43a6,6,0,0,1-1.73,4.23l2.34,3.22h-2.09L-81.06-39l.66-.5A4.28,4.28,0,0,0-78.69-43ZM-83-35.52h1.7V-43H-83Zm7,0h1.6V-43h-1.6Zm15.64-5.29a1.88,1.88,0,0,0-1.58.71v-.58h-1.52v5.16h1.54v-2.71A1.09,1.09,0,0,1-60.7-39.4c.67,0,1.06.41,1.06,1.16v2.72h1.53V-38.8a2,2,0,0,0-2.18-2Zm-9.2.13H-68v5.16h-1.53v-.33a2.71,2.71,0,0,1-1.52.47A2.71,2.71,0,0,1-73.7-38.1,2.71,2.71,0,0,1-71-40.82a2.71,2.71,0,0,1,1.52.47v-.33Zm0,2.58a1.36,1.36,0,0,0-1.38-1.33,1.36,1.36,0,0,0-1.39,1.33,1.36,1.36,0,0,0,1.39,1.33A1.36,1.36,0,0,0-69.5-38.1Zm3.9-1.9v-.68h-1.56v5.16h1.57v-2.41c0-.81.87-1.25,1.47-1.25h0v-1.5a1.89,1.89,0,0,0-1.5.68Zm12.23-.68h1.53v5.16h-1.53v-.33a2.7,2.7,0,0,1-1.51.47,2.7,2.7,0,0,1-2.69-2.72,2.7,2.7,0,0,1,2.69-2.72,2.7,2.7,0,0,1,1.51.47v-.33Zm0,2.58a1.36,1.36,0,0,0-1.39-1.33,1.36,1.36,0,0,0-1.38,1.33,1.36,1.36,0,0,0,1.38,1.33A1.36,1.36,0,0,0-53.37-38.1Zm3.16.75a1,1,0,0,0-1,1,1,1,0,0,0,1,1,1,1,0,0,0,1-1A1,1,0,0,0-50.21-37.35Z"/></clipPath><clipPath id="clip-path-27"><rect class="cls-2" x="24.75" y="-50.53" width="40.5" height="22.5" rx="3.89"/></clipPath><clipPath id="clip-path-28"><path class="cls-2" d="M34.65-43a6,6,0,0,1-1.73,4.23l2.34,3.22h-2.1L30.62-39l.66-.5A4.28,4.28,0,0,0,33-43Zm-5.93,7.45h1.7V-43h-1.7Zm7,0h1.6V-43h-1.6Zm15.64-5.29a1.88,1.88,0,0,0-1.58.71v-.58H48.29v5.16h1.54v-2.71A1.09,1.09,0,0,1,51-39.4c.67,0,1.06.41,1.06,1.16v2.72h1.52V-38.8a2,2,0,0,0-2.17-2Zm-9.2.13h1.53v5.16H42.19v-.33a2.76,2.76,0,0,1-1.52.47A2.7,2.7,0,0,1,38-38.1a2.7,2.7,0,0,1,2.69-2.72,2.76,2.76,0,0,1,1.52.47v-.33Zm0,2.58a1.36,1.36,0,0,0-1.38-1.33,1.36,1.36,0,0,0-1.39,1.33,1.36,1.36,0,0,0,1.39,1.33A1.36,1.36,0,0,0,42.18-38.1Zm3.9-1.9v-.68H44.51v5.16h1.57v-2.41c0-.81.88-1.25,1.48-1.25h0v-1.5a1.89,1.89,0,0,0-1.5.68Zm12.23-.68h1.53v5.16H58.31v-.33a2.7,2.7,0,0,1-1.51.47,2.71,2.71,0,0,1-2.7-2.72,2.71,2.71,0,0,1,2.7-2.72,2.7,2.7,0,0,1,1.51.47v-.33Zm0,2.58a1.36,1.36,0,0,0-1.39-1.33,1.36,1.36,0,0,0-1.38,1.33,1.36,1.36,0,0,0,1.38,1.33A1.36,1.36,0,0,0,58.31-38.1Zm3.15.75a1,1,0,0,0-1,1,1,1,0,0,0,1,1,1,1,0,0,0,1-1A1,1,0,0,0,61.46-37.35Z"/></clipPath></defs><title>Payment-Method-Logos</title><rect class="cls-3" x="0.5" y="0.49" width="89" height="42.14" rx="1.78"/><path class="cls-4" d="M87.72,1A1.28,1.28,0,0,1,89,2.27V40.86a1.28,1.28,0,0,1-1.28,1.28H2.28A1.28,1.28,0,0,1,1,40.86V2.27A1.28,1.28,0,0,1,2.28,1H87.72m0-1H2.28A2.28,2.28,0,0,0,0,2.27V40.86a2.28,2.28,0,0,0,2.28,2.28H87.72A2.28,2.28,0,0,0,90,40.86V2.27A2.28,2.28,0,0,0,87.72,0Z"/><g class="cls-13"><g class="cls-14"><rect class="cls-15" x="7.12" y="13.05" width="15.55" height="17.04"/></g></g><g class="cls-16"><g class="cls-14"><rect class="cls-15" x="17.27" y="13.05" width="8.56" height="17.04"/></g></g><g class="cls-17"><g class="cls-14"><rect class="cls-15" x="20.26" y="12.87" width="14.08" height="17.47"/></g></g><g class="cls-18"><g class="cls-14"><rect class="cls-15" x="28.64" y="12.81" width="14.99" height="17.52"/></g></g><g class="cls-19"><g class="cls-14"><rect class="cls-15" x="49.1" y="13.05" width="17.09" height="17.31"/></g></g><g class="cls-20"><g class="cls-14"><rect class="cls-15" x="60.78" y="13.05" width="12.55" height="17.04"/></g></g><g class="cls-21"><g class="cls-14"><rect class="cls-15" x="68.37" y="13.05" width="14.52" height="17.03"/></g></g><g class="cls-22"><g class="cls-14"><rect class="cls-23" x="37.92" y="12.72" width="18.22" height="17.71"/></g></g></svg>
