<svg id="Layer_1" data-name="Layer 1" xmlns="http://www.w3.org/2000/svg" viewBox="0 0 90 43.14"><defs><style>.cls-1,.cls-2,.cls-3{fill:none;}  .cls-2{clip-rule:evenodd;}  .cls-3,.cls-6,.cls-7{fill-rule:evenodd;}  .cls-4{fill:#fff;}  .cls-5{fill:#f2f5f7;}  .cls-6{fill:#2c68b2;}  .cls-7{fill:#f9c212;}  .cls-8{clip-path:url(#clip-path);}  .cls-9{clip-path:url(#clip-path-2);}  .cls-10{clip-path:url(#clip-path-3);}  .cls-11{clip-path:url(#clip-path-4);}  .cls-12{clip-path:url(#clip-path-5);}  .cls-13{clip-path:url(#clip-path-6);}  .cls-14{clip-path:url(#clip-path-7);}  .cls-15{clip-path:url(#clip-path-8);}  .cls-16{clip-path:url(#clip-path-9);}  .cls-17{clip-path:url(#clip-path-15);}  .cls-18{clip-path:url(#clip-path-16);}  .cls-19{clip-path:url(#clip-path-17);}  .cls-20{clip-path:url(#clip-path-18);}  .cls-21{clip-path:url(#clip-path-19);}</style><clipPath id="clip-path"><rect class="cls-1" x="-86.93" y="-308.47" width="40.5" height="22.5" rx="3.89"/></clipPath><clipPath id="clip-path-2"><path class="cls-1" d="M-77-300.91a5.93,5.93,0,0,1-1.73,4.22l2.34,3.23h-2.09l-2.55-3.5.66-.5a4.28,4.28,0,0,0,1.71-3.45ZM-83-293.46h1.7v-7.45H-83Zm7,0h1.6v-7.44h-1.6Zm15.64-5.29a1.89,1.89,0,0,0-1.58.72v-.58h-1.52v5.15h1.54v-2.7a1.08,1.08,0,0,1,1.15-1.17c.67,0,1.06.41,1.06,1.16v2.71h1.53v-3.27a2,2,0,0,0-2.18-2Zm-9.2.14H-68v5.15h-1.53v-.32a2.71,2.71,0,0,1-1.52.47A2.71,2.71,0,0,1-73.7-296,2.71,2.71,0,0,1-71-298.76a2.71,2.71,0,0,1,1.52.47v-.33Zm0,2.58a1.36,1.36,0,0,0-1.38-1.33A1.36,1.36,0,0,0-72.27-296a1.35,1.35,0,0,0,1.39,1.32A1.35,1.35,0,0,0-69.5-296Zm3.9-1.91v-.67h-1.56v5.15h1.57v-2.4c0-.81.87-1.25,1.47-1.25h0v-1.5a1.92,1.92,0,0,0-1.5.67Zm12.23-.67h1.53v5.15h-1.53v-.32a2.7,2.7,0,0,1-1.51.47A2.7,2.7,0,0,1-57.57-296a2.7,2.7,0,0,1,2.69-2.72,2.7,2.7,0,0,1,1.51.47v-.33Zm0,2.58a1.36,1.36,0,0,0-1.39-1.33A1.36,1.36,0,0,0-56.14-296a1.35,1.35,0,0,0,1.38,1.32A1.35,1.35,0,0,0-53.37-296Zm3.16.75a1,1,0,0,0-1,1,1,1,0,0,0,1,1,1,1,0,0,0,1-1A1,1,0,0,0-50.21-295.29Z"/></clipPath><clipPath id="clip-path-3"><rect class="cls-1" x="24.75" y="-308.47" width="40.5" height="22.5" rx="3.89"/></clipPath><clipPath id="clip-path-4"><path class="cls-1" d="M34.65-300.91a5.93,5.93,0,0,1-1.73,4.22l2.34,3.23h-2.1L30.62-297l.66-.5A4.28,4.28,0,0,0,33-300.91Zm-5.93,7.45h1.7v-7.45h-1.7Zm7,0h1.6v-7.44h-1.6Zm15.64-5.29a1.89,1.89,0,0,0-1.58.72v-.58H48.29v5.15h1.54v-2.7A1.08,1.08,0,0,1,51-297.34c.67,0,1.06.41,1.06,1.16v2.71h1.52v-3.27a2,2,0,0,0-2.17-2Zm-9.2.14h1.53v5.15H42.19v-.32a2.76,2.76,0,0,1-1.52.47A2.7,2.7,0,0,1,38-296a2.7,2.7,0,0,1,2.69-2.72,2.76,2.76,0,0,1,1.52.47v-.33Zm0,2.58a1.36,1.36,0,0,0-1.38-1.33A1.36,1.36,0,0,0,39.41-296a1.35,1.35,0,0,0,1.39,1.32A1.35,1.35,0,0,0,42.18-296Zm3.9-1.91v-.67H44.51v5.15h1.57v-2.4c0-.81.88-1.25,1.48-1.25h0v-1.5a1.92,1.92,0,0,0-1.5.67Zm12.23-.67h1.53v5.15H58.31v-.32a2.7,2.7,0,0,1-1.51.47A2.71,2.71,0,0,1,54.1-296a2.71,2.71,0,0,1,2.7-2.72,2.7,2.7,0,0,1,1.51.47v-.33Zm0,2.58a1.36,1.36,0,0,0-1.39-1.33A1.36,1.36,0,0,0,55.54-296a1.35,1.35,0,0,0,1.38,1.32A1.35,1.35,0,0,0,58.31-296Zm3.15.75a1,1,0,0,0-1,1,1,1,0,0,0,1,1,1,1,0,0,0,1-1A1,1,0,0,0,61.46-295.29Z"/></clipPath><clipPath id="clip-path-5"><path class="cls-2" d="M-56.71,399.59h2.85a1.87,1.87,0,0,0,.34,0,1.23,1.23,0,0,0,1-1.2,1.24,1.24,0,0,0-1-1.2l-.34,0h-2.85Z"/></clipPath><clipPath id="clip-path-6"><path class="cls-2" d="M-54.19,382.58a4.8,4.8,0,0,0-4.93,4.66v4.84h7l.48,0c1.58.08,2.74.84,2.74,2.17,0,1.05-.79,1.94-2.24,2.14v.06c1.6.11,2.82.94,2.82,2.25s-1.34,2.33-3.13,2.33h-7.65v9.51h7.23A4.81,4.81,0,0,0-47,405.89V382.58Z"/></clipPath><clipPath id="clip-path-7"><path class="cls-2" d="M-52.85,394.61a1.13,1.13,0,0,0-1-1.11l-.28,0h-2.59v2.27h2.59l.28,0a1.14,1.14,0,0,0,1-1.12"/></clipPath><clipPath id="clip-path-8"><path class="cls-2" d="M-81.47,382.58a4.8,4.8,0,0,0-4.93,4.66v11.52a10.36,10.36,0,0,0,4.27,1c1.7,0,2.64-1,2.64-2.31v-5.41h4.24v5.41c0,2.12-1.38,3.82-6.09,3.82a22.32,22.32,0,0,1-5.06-.58v9.83h7.23a4.8,4.8,0,0,0,4.93-4.67V382.58Z"/></clipPath><clipPath id="clip-path-9"><path class="cls-2" d="M-67.83,382.58a4.8,4.8,0,0,0-4.93,4.66v6.11c1.25-1,3.41-1.65,6.92-1.5a24,24,0,0,1,3.87.55v2a10,10,0,0,0-3.73-1c-2.67-.19-4.27,1-4.27,3.22s1.6,3.41,4.27,3.22a10.28,10.28,0,0,0,3.73-1v2a23.41,23.41,0,0,1-3.87.56c-3.51.15-5.67-.49-6.92-1.5v10.77h7.23a4.81,4.81,0,0,0,4.93-4.67V382.58Z"/></clipPath><clipPath id="clip-path-15"><path class="cls-2" d="M55,399.59h2.85a1.87,1.87,0,0,0,.34,0,1.23,1.23,0,0,0,1-1.2,1.24,1.24,0,0,0-1-1.2l-.34,0H55Z"/></clipPath><clipPath id="clip-path-16"><path class="cls-2" d="M57.49,382.58a4.8,4.8,0,0,0-4.93,4.66v4.84h7l.49,0c1.58.08,2.74.84,2.74,2.17a2.27,2.27,0,0,1-2.24,2.14v.06c1.6.11,2.82.94,2.82,2.25s-1.34,2.33-3.14,2.33H52.56v9.51h7.23a4.81,4.81,0,0,0,4.93-4.67V382.58Z"/></clipPath><clipPath id="clip-path-17"><path class="cls-2" d="M58.83,394.61a1.13,1.13,0,0,0-1-1.11l-.29,0H55v2.27h2.58l.29,0a1.14,1.14,0,0,0,1-1.12"/></clipPath><clipPath id="clip-path-18"><path class="cls-2" d="M30.21,382.58a4.8,4.8,0,0,0-4.93,4.66v11.52a10.31,10.31,0,0,0,4.26,1c1.71,0,2.65-1,2.65-2.31v-5.41h4.24v5.41c0,2.12-1.38,3.82-6.09,3.82a22.32,22.32,0,0,1-5.06-.58v9.83h7.23a4.81,4.81,0,0,0,4.93-4.67V382.58Z"/></clipPath><clipPath id="clip-path-19"><path class="cls-2" d="M43.85,382.58a4.8,4.8,0,0,0-4.93,4.66v6.11c1.25-1,3.41-1.65,6.92-1.5a24,24,0,0,1,3.87.55v2a10,10,0,0,0-3.73-1c-2.67-.19-4.27,1-4.27,3.22s1.6,3.41,4.27,3.22a10.28,10.28,0,0,0,3.73-1v2a23.41,23.41,0,0,1-3.87.56c-3.51.15-5.67-.49-6.92-1.5v10.77h7.23a4.81,4.81,0,0,0,4.93-4.67V382.58Z"/></clipPath></defs><title>Payment-Method-Logos</title><rect class="cls-4" x="0.5" y="0.5" width="89" height="42.14" rx="1.78"/><path class="cls-5" d="M87.72,1A1.28,1.28,0,0,1,89,2.28V40.87a1.27,1.27,0,0,1-1.28,1.27H2.28A1.27,1.27,0,0,1,1,40.87V2.28A1.28,1.28,0,0,1,2.28,1H87.72m0-1H2.28A2.28,2.28,0,0,0,0,2.28V40.87a2.28,2.28,0,0,0,2.28,2.27H87.72A2.28,2.28,0,0,0,90,40.87V2.28A2.28,2.28,0,0,0,87.72,0Z"/><polygon class="cls-6" points="51.76 33.33 49.48 33.33 49.48 35.31 52.03 35.31 52.03 35.9 48.71 35.9 48.71 30.41 51.9 30.41 51.9 31 49.48 31 49.48 32.74 51.76 32.74 51.76 33.33"/><polygon class="cls-6" points="53.21 35.9 53.98 35.9 53.98 30.12 53.21 30.12 53.21 35.9"/><path class="cls-6" d="M55.93,33.54a1.21,1.21,0,0,1,1.18-1.15,1,1,0,0,1,1.06,1.15Zm3,.18a1.7,1.7,0,0,0-1.75-1.85,2,2,0,0,0-2,2.13,1.91,1.91,0,0,0,2.09,2,3.73,3.73,0,0,0,1.41-.25l-.14-.51a3,3,0,0,1-1.17.2,1.31,1.31,0,0,1-1.45-1.37h3A1.46,1.46,0,0,0,58.92,33.72Zm4.18,2a3.1,3.1,0,0,1-1.21.23,1.94,1.94,0,0,1-2.11-2,2.08,2.08,0,0,1,2.27-2.1,2.51,2.51,0,0,1,1.07.21l-.17.54a2.07,2.07,0,0,0-.9-.18,1.48,1.48,0,0,0,0,3,2.34,2.34,0,0,0,.94-.19ZM65.26,31V32h1.1v.54h-1.1v2.13c0,.49.15.77.58.77a1.56,1.56,0,0,0,.44,0l0,.54a2.24,2.24,0,0,1-.69.1,1.15,1.15,0,0,1-.83-.3,1.47,1.47,0,0,1-.29-1V32.5h-.66V32h.66v-.74Zm2.17,2.18c0-.47,0-.87,0-1.23h.67l0,.78h0a1.28,1.28,0,0,1,1.18-.86h.21v.68a1,1,0,0,0-.26,0,1,1,0,0,0-1,.91,1.79,1.79,0,0,0,0,.34v2.1h-.77Zm4.75,2.26a1.54,1.54,0,1,1,1.28-1.53,1.37,1.37,0,0,1-1.28,1.53m0-3.58A2,2,0,0,0,70.11,34a2,2,0,0,0,2,2,2,2,0,0,0,2.11-2.09,1.93,1.93,0,0,0-2-2M75.43,33c0-.41,0-.74,0-1.06h.68l.05.65h0a1.59,1.59,0,0,1,1.4-.73A1.47,1.47,0,0,1,79,33.55V35.9h-.77V33.63c0-.64-.25-1.17-1-1.17a1.1,1.1,0,0,0-1,.74.85.85,0,0,0,0,.33V35.9h-.77Z"/><path class="cls-7" d="M23,9.53a2.51,2.51,0,0,0-2.53-2H11.1L11,8.09a23.84,23.84,0,0,1,5.41,1.68,2.2,2.2,0,0,1,1.31,1.74l.06.23,6.41,3.71Z"/><polygon class="cls-6" points="30.98 7.51 25.28 20.97 24.16 15.45 17.75 11.74 22.06 27.29 27.86 27.29 36.75 7.51 30.98 7.51"/><polygon class="cls-6" points="39.1 7.51 34.56 27.29 40.05 27.29 44.59 7.51 39.1 7.51"/><path class="cls-6" d="M67.66,20.28l2.89-7.42,1.66,7.42ZM74.43,7.52H69.75A2.52,2.52,0,0,0,67.41,9L59.18,27.29h5.76l1.15-3h7l.67,3h5.07ZM51.78,13c0-.71.74-1.46,2.33-1.65a10.9,10.9,0,0,1,5.41.88l1-4.19a15.6,15.6,0,0,0-5.13-.88c-5.42,0-9.24,2.69-9.27,6.54,0,2.84,2.73,4.43,4.8,5.38s2.86,1.59,2.85,2.46c0,1.32-1.71,1.91-3.28,1.93a12.1,12.1,0,0,1-5.64-1.25l-1,4.34a18,18,0,0,0,6.09,1.05c5.77,0,9.54-2.66,9.56-6.77,0-5.22-7.74-5.51-7.69-7.84"/></svg>
