<?xml version="1.0" encoding="utf-8"?>
<!-- Generator: Adobe Illustrator 27.7.0, SVG Export Plug-In . SVG Version: 6.00 Build 0)  -->
<svg version="1.1" id="Layer_1" xmlns="http://www.w3.org/2000/svg" xmlns:xlink="http://www.w3.org/1999/xlink" x="0px" y="0px"
	 viewBox="0 0 90 43.0999985" style="enable-background:new 0 0 90 43.0999985;" xml:space="preserve">
<style type="text/css">
	.st0{fill:#FFFFFF;}
	.st1{fill:#F2F5F7;}
	.st2{fill:#71706F;}
	.st3{fill:#B90466;}
</style>
<path class="st0" d="M2.3,0.5h85.4000015c1,0,1.8000031,0.8,1.8000031,1.8v38.5999985c0,1-0.8000031,1.7999992-1.8000031,1.7999992
	H2.3c-1,0-1.8-0.7999992-1.8-1.7999992V2.3C0.5,1.3,1.3,0.5,2.3,0.5z"/>
<path class="st1" d="M87.6999969,1C88.4000015,1,89,1.6,89,2.3v38.5999985c0,0.7000008-0.5999985,1.2999992-1.3000031,1.2999992l0,0
	H2.3c-0.7,0-1.3-0.5999985-1.3-1.2999992l0,0V2.3C1,1.6,1.6,1,2.3,1H87.6999969 M87.6999969,0H2.3C1,0,0,1,0,2.3v38.5999985
	c0,1.2999992,1,2.2999992,2.3,2.2999992h85.4000015c1.3000031,0,2.3000031-1,2.3000031-2.2999992V2.3C90,1,89,0,87.6999969,0z"/>
<g>
	<path class="st2" d="M55.1748352,21.5521984L55.1748352,21.5521984h-2.8517723c-0.316864,0-0.572113-0.2508507-0.572113-0.5677128
		c0-0.316864,0.255249-0.59412,0.572113-0.59412h4.3392677v-2.1388264h-4.3392677
		c-1.5139008,0-2.7461472,1.2366467-2.7461472,2.7461472c0,1.5095024,1.2322464,2.7461491,2.7461472,2.7461491h2.8121643
		c0.316864,0,0.572113,0.2508507,0.572113,0.5677128c0,0.316864-0.255249,0.5501118-0.572113,0.5501118h-6.0292053
		c-0.5105057,0.9769955-1.0078011,1.8131618-2.0200043,2.231245h8.0888138
		c1.4874992-0.0220032,2.706543-1.2806549,2.706543-2.7769547C57.8813744,22.8152504,56.6623306,21.5742035,55.1748352,21.5521984"
		/>
	<path class="st2" d="M44.2474518,18.2515392c-2.4160843,0-4.3832779,1.9803944-4.3832779,4.4096794v0.0924187v9.083416h2.1872368
		V27.092905h2.1916389c2.4160843,0,4.3744736-2.0068016,4.3744736-4.4360847
		C48.6219254,20.2231331,46.6635323,18.2515392,44.2474518,18.2515392 M44.2474518,24.8572598h-2.1960411v-2.2048416
		c0-1.2322464,0.9813957-2.2356472,2.1960411-2.2356472c1.2146416,0,2.2048378,1.0034008,2.2048378,2.2356472
		S45.4620934,24.8572598,44.2474518,24.8572598"/>
	<path class="st3" d="M32.9415894,27.092905c-2.0684128,0-3.8067608-1.4742947-4.2776546-3.39748
		c0,0-0.1364269-0.6381264-0.1364269-1.0562096c0-0.4180851,0.1276245-1.0606136,0.1276245-1.0606136
		c0.475296-1.9187832,2.2092419-3.3490696,4.2732544-3.3490696c2.429287,0,4.4228859,1.9715939,4.4228859,4.4008808v1.0694122
		h-6.4516907c0.3828754,0.7437496,1.1530304,1.1618328,2.0420074,1.1618328h5.8003616l0.0088005-6.2976589
		c0-0.9373875-0.7657547-1.7075424-1.7075424-1.7075424h-8.2208424c-0.9373875,0-1.7075424,0.7437496-1.7075424,1.6855373v8.2208424
		c0,0.9373875,0.770155,1.7295456,1.7075424,1.7295456h8.2208424c0.8405685,0,1.5447083-0.6029205,1.6811371-1.3950787h-5.7827568
		V27.092905z"/>
	<path class="st3" d="M32.9327888,20.3155518c-0.8845787,0-1.6547318,0.5413074-2.0376091,1.2410469h4.0752144
		C34.5875206,20.8568592,33.8173637,20.3155518,32.9327888,20.3155518"/>
	<path class="st3" d="M36.6559334,14.1807251c0-2.0068016-1.6679344-3.6307259-3.7231445-3.6307259
		c-2.0200062,0-3.6659336,1.5755148-3.7187443,3.5339069c0,0.0088015,0,0.0176029,0,0.0264044v1.087018
		c0,0.1320257,0.1056213,0.2596512,0.2420483,0.2596512h1.3686733c0.1320267,0,0.2508507-0.1276255,0.2508507-0.2596512v-1.0166035
		c0-1.0034008,0.8317661-1.8175631,1.8615704-1.8175631c1.029808,0,1.8615723,0.8141623,1.8615723,1.8175631v1.0166035
		c0,0.1320257,0.1056213,0.2596512,0.2420502,0.2596512h1.3686752c0.1320229,0,0.2508469-0.1276255,0.2508469-0.2596512v-1.0166035
		H36.6559334z"/>
	<path class="st2" d="M46.7031403,29.9314728l-0.19804,1.1222248c-0.096817,0.5677128-0.4708939,0.827364-0.9725952,0.827364
		c-0.4268837,0-0.7569504-0.2772541-0.6601295-0.827364l0.19804-1.1222248h0.3036575l-0.1980362,1.1222248
		c-0.061615,0.3520699,0.096817,0.5501099,0.3916779,0.5501099c0.3036575,0,0.5677109-0.1804371,0.6293259-0.5501099
		l0.19804-1.1222248H46.7031403z M45.5017014,29.5794029c0,0.0924187,0.0704155,0.1364269,0.1496277,0.1364269
		c0.0968208,0,0.2024422-0.0660133,0.2024422-0.19804c0-0.0924187-0.0616112-0.1364269-0.1408272-0.1364269
		C45.611721,29.3813629,45.5017014,29.442976,45.5017014,29.5794029 M46.1618309,29.5750027
		c0,0.0968208,0.0748177,0.1408291,0.1540337,0.1408291c0.0836143,0,0.19804-0.0660133,0.19804-0.1936378
		c0-0.0924187-0.0660133-0.1408291-0.140831-0.1408291C46.2762566,29.3813629,46.1618309,29.442976,46.1618309,29.5750027"/>
	<path class="st2" d="M47.4380875,29.9314728l-0.1364288,0.7745552c0.118824-0.158432,0.356472-0.2420483,0.5193062-0.2420483
		c0.3432693,0,0.5765152,0.2024403,0.5765152,0.5721149c0,0.5237045-0.3652725,0.8405685-0.831768,0.8405685
		c-0.1804352,0-0.334465-0.0660133-0.4312859-0.237648l-0.0528107,0.2024403h-0.2684517l0.3388672-1.9099808h0.2860565V29.9314728z
		 M47.2268448,31.2385349c-0.0132027,0.2244453,0.1364288,0.3696728,0.3476715,0.3696728
		c0.2684517,0,0.5237045-0.2068405,0.5413055-0.5193024c0.0132027-0.2288456-0.136425-0.3652725-0.3432693-0.3652725
		C47.508503,30.7236309,47.2400475,30.9392757,47.2268448,31.2385349"/>
	<path class="st2" d="M48.9563904,31.2781429c-0.0088005,0.1848373,0.1364288,0.3388672,0.3828773,0.3388672
		c0.1364288,0,0.316864-0.0528107,0.4180832-0.1452274l0.1540298,0.1760349
		c-0.1672325,0.1540298-0.413681,0.2332458-0.6249237,0.2332458c-0.3916779,0-0.6205254-0.2332458-0.6205254-0.5941181
		c0-0.4752941,0.3740768-0.8317661,0.8537712-0.8317661c0.4400864,0,0.6865387,0.2640533,0.5369072,0.8229656h-1.1002197V31.2781429
		z M49.8277664,31.0448971c0.0220032-0.2332458-0.1144257-0.3300667-0.3432693-0.3300667
		c-0.2068405,0-0.39608,0.0968208-0.4796944,0.3300667H49.8277664z"/>
	<path class="st2" d="M50.8135643,30.4859848L50.8003616,30.66642c0.1320267-0.1716328,0.2904587-0.2112408,0.4356842-0.2112408
		c0.1320267,0,0.2508507,0.0484104,0.3124657,0.1144218l-0.1716347,0.2464504
		c-0.0616112-0.0572109-0.1232262-0.0836163-0.2244453-0.0836163c-0.1936378,0-0.3872795,0.118824-0.4312859,0.3696728
		l-0.1320267,0.730547h-0.2816582l0.2420502-1.3510704h0.2640533V30.4859848z"/>
	<polygon class="st2" points="52.9171829,30.4859848 53.0580101,31.5553989 53.5773163,30.4859848 53.8897781,30.4859848 
		53.1812363,31.8370552 52.8511696,31.8370552 52.7147446,30.9480762 52.4990997,31.3881645 52.2614517,31.8370552 
		51.931385,31.8370552 51.693737,30.4859848 52.010601,30.4859848 52.1514282,31.5553989 52.6707344,30.4859848 	"/>
	<path class="st2" d="M54.2550507,31.2781429c-0.0088005,0.1848373,0.1364288,0.3388672,0.3828773,0.3388672
		c0.1364288,0,0.316864-0.0528107,0.4180832-0.1452274l0.1540298,0.1760349
		c-0.1672325,0.1540298-0.413681,0.2332458-0.6249237,0.2332458c-0.3916779,0-0.6205254-0.2332458-0.6205254-0.5941181
		c0-0.4752941,0.3740768-0.8317661,0.8537712-0.8317661c0.4400864,0,0.6865387,0.2640533,0.5369072,0.8229656h-1.1002197V31.2781429
		z M55.1264229,31.0448971c0.022007-0.2332458-0.1144218-0.3300667-0.3432655-0.3300667
		c-0.2068443,0-0.39608,0.0968208-0.4796982,0.3300667H55.1264229z"/>
	<path class="st2" d="M56.1342239,30.4859848l-0.2376442,1.3510704h-0.2816582l0.237648-1.3510704H56.1342239z
		 M55.8833771,30.1207123c0,0.0968189,0.0704155,0.1452274,0.1496277,0.1452274
		c0.1100235,0,0.2112427-0.0704136,0.2112427-0.2068405c0-0.0924187-0.0660133-0.1452293-0.1408272-0.1452293
		C55.9977989,29.9182701,55.8833771,29.9842834,55.8833771,30.1207123"/>
	<path class="st2" d="M57.3884773,30.8204517c-0.0880165-0.0968208-0.2024422-0.1276264-0.3344688-0.1276264
		c-0.1848373,0-0.3212624,0.0616131-0.3212624,0.1804371c0,0.1012192,0.1056213,0.1408291,0.2684517,0.1540318
		c0.2464523,0.0220032,0.5633125,0.1056194,0.4972992,0.453289c-0.0484085,0.2508507-0.2992592,0.4004803-0.651329,0.4004803
		c-0.2200432,0-0.4312859-0.0484104-0.5765152-0.2508507l0.1848373-0.2024403
		c0.1012192,0.1408291,0.2816582,0.19804,0.4400902,0.2024403c0.136425,0,0.294857-0.0484104,0.3212624-0.1760349
		c0.0264053-0.1232243-0.0836182-0.1672325-0.2816544-0.1848373c-0.2332497-0.0220051-0.4841003-0.1056213-0.4841003-0.3652725
		c0-0.3388691,0.3652725-0.4576912,0.6425285-0.4576912c0.2112427,0,0.3608742,0.0484104,0.4884987,0.1804352L57.3884773,30.8204517
		z"/>
	<path class="st2" d="M58.2862549,30.4859848l-0.1276245,0.7261448c-0.0440102,0.2332458,0.0616112,0.3916779,0.2992592,0.3916779
		c0.2244453,0,0.413681-0.1848373,0.4488907-0.4092808l0.1232224-0.7085419h0.2816582l-0.237648,1.3510704h-0.255249
		l0.017601-0.1936398c-0.158432,0.1496315-0.316864,0.2244453-0.5060997,0.2244453
		c-0.3344688,0-0.5325089-0.2376461-0.4576912-0.6469288l0.1276245-0.730547h0.2860565V30.4859848z"/>
	<path class="st2" d="M60.5571098,31.8370552l0.1320267-0.7217445c0.0396118-0.2332458-0.039608-0.3872776-0.2992592-0.3872776
		c-0.2244415,0-0.413681,0.1804371-0.453289,0.4048824l-0.1232224,0.7085419h-0.2816582l0.237648-1.3510704h0.2596512
		l-0.0220032,0.19804c0.158432-0.1452293,0.3212624-0.2156429,0.4972992-0.2156429
		c0.3300667,0,0.5457115,0.2288456,0.4708939,0.6425285l-0.1320267,0.7261448h-0.2860603V31.8370552z"/>
	<path class="st2" d="M61.5165024,32.0218925c-0.0176048,0.1848373,0.1232262,0.2596512,0.3608742,0.2596512
		c0.2112389,0,0.435688-0.1144218,0.4884949-0.4136829l0.039608-0.2332458
		c-0.1232224,0.1716347-0.3476677,0.2420483-0.5193024,0.2420483c-0.3476715,0-0.5897179-0.2068405-0.5897179-0.5809155
		c0-0.5325069,0.39608-0.8405685,0.8449707-0.8405685c0.1892357,0,0.3608704,0.0924187,0.4224815,0.2464485l0.0484085-0.2156429
		h0.2728539l-0.237648,1.3906784c-0.0880165,0.514904-0.4708939,0.673336-0.8185616,0.673336
		c-0.4180832,0-0.6469307-0.2024384-0.5897179-0.5281067H61.5165024L61.5165024,32.0218925z M61.5957184,31.2473373
		c0,0.2332458,0.1496315,0.3696728,0.3696747,0.3696728c0.5853157,0,0.7437477-0.8977776,0.158432-0.8977776
		C61.8465691,30.7192326,61.5957184,30.9260731,61.5957184,31.2473373"/>
</g>
</svg>
