<svg id="Layer_1" data-name="Layer 1" xmlns="http://www.w3.org/2000/svg" viewBox="0 0 90 43.14"><defs><style>.cls-1,.cls-2,.cls-3{fill:none;}  .cls-2{clip-rule:evenodd;}  .cls-3{fill-rule:evenodd;}  .cls-4{clip-path:url(#clip-path);}  .cls-5{clip-path:url(#clip-path-2);}  .cls-6{fill:#fff;}  .cls-7{fill:#f2f5f7;}  .cls-8{clip-path:url(#clip-path-3);}  .cls-9{clip-path:url(#clip-path-4);}  .cls-10{clip-path:url(#clip-path-5);}  .cls-11{clip-path:url(#clip-path-6);}  .cls-12{fill:#528ac0;}  .cls-13{clip-path:url(#clip-path-7);}  .cls-14{fill:#fefefe;}  .cls-15{clip-path:url(#clip-path-9);}  .cls-16{clip-path:url(#clip-path-10);}  .cls-17{clip-path:url(#clip-path-11);}  .cls-18{clip-path:url(#clip-path-12);}  .cls-19{clip-path:url(#clip-path-13);}  .cls-20{clip-path:url(#clip-path-19);}  .cls-21{clip-path:url(#clip-path-20);}  .cls-22{clip-path:url(#clip-path-21);}  .cls-23{clip-path:url(#clip-path-22);}  .cls-24{clip-path:url(#clip-path-23);}</style><clipPath id="clip-path"><rect class="cls-1" x="-86.93" y="-565.09" width="40.5" height="22.5" rx="3.89"/></clipPath><clipPath id="clip-path-2"><path class="cls-1" d="M-77-557.52a5.93,5.93,0,0,1-1.73,4.22l2.34,3.23h-2.09l-2.55-3.51.66-.49a4.29,4.29,0,0,0,1.71-3.45ZM-83-550.07h1.7v-7.45H-83Zm7,0h1.6v-7.44h-1.6Zm15.64-5.29a1.86,1.86,0,0,0-1.58.72v-.58h-1.52v5.15h1.54v-2.7a1.08,1.08,0,0,1,1.15-1.17c.67,0,1.06.4,1.06,1.16v2.71h1.53v-3.27a2,2,0,0,0-2.18-2Zm-9.2.14H-68v5.15h-1.53v-.33a2.64,2.64,0,0,1-1.52.48,2.71,2.71,0,0,1-2.69-2.72A2.71,2.71,0,0,1-71-555.37a2.63,2.63,0,0,1,1.52.47v-.33Zm0,2.58A1.36,1.36,0,0,0-70.88-554a1.36,1.36,0,0,0-1.39,1.33,1.35,1.35,0,0,0,1.39,1.32A1.35,1.35,0,0,0-69.5-552.65Zm3.9-1.91v-.67h-1.56v5.15h1.57v-2.4c0-.81.87-1.25,1.47-1.25h0v-1.5a1.92,1.92,0,0,0-1.5.67Zm12.23-.67h1.53v5.15h-1.53v-.33a2.63,2.63,0,0,1-1.51.48,2.7,2.7,0,0,1-2.69-2.72,2.7,2.7,0,0,1,2.69-2.72,2.62,2.62,0,0,1,1.51.47v-.33Zm0,2.58A1.36,1.36,0,0,0-54.76-554a1.36,1.36,0,0,0-1.38,1.33,1.35,1.35,0,0,0,1.38,1.32A1.35,1.35,0,0,0-53.37-552.65Zm3.16.75a1,1,0,0,0-1,1,1,1,0,0,0,1,1,1,1,0,0,0,1-1A1,1,0,0,0-50.21-551.9Z"/></clipPath><clipPath id="clip-path-3"><rect class="cls-1" x="24.75" y="-565.09" width="40.5" height="22.5" rx="3.89"/></clipPath><clipPath id="clip-path-4"><path class="cls-1" d="M34.65-557.52a5.93,5.93,0,0,1-1.73,4.22l2.34,3.23h-2.1l-2.54-3.51.66-.49A4.29,4.29,0,0,0,33-557.52Zm-5.93,7.45h1.7v-7.45h-1.7Zm7,0h1.6v-7.44h-1.6Zm15.64-5.29a1.86,1.86,0,0,0-1.58.72v-.58H48.29v5.15h1.54v-2.7A1.08,1.08,0,0,1,51-553.95c.67,0,1.06.4,1.06,1.16v2.71h1.52v-3.27a2,2,0,0,0-2.17-2Zm-9.2.14h1.53v5.15H42.19v-.33a2.69,2.69,0,0,1-1.52.48A2.7,2.7,0,0,1,38-552.65a2.7,2.7,0,0,1,2.69-2.72,2.68,2.68,0,0,1,1.52.47v-.33Zm0,2.58A1.36,1.36,0,0,0,40.8-554a1.36,1.36,0,0,0-1.39,1.33,1.35,1.35,0,0,0,1.39,1.32A1.35,1.35,0,0,0,42.18-552.65Zm3.9-1.91v-.67H44.51v5.15h1.57v-2.4c0-.81.88-1.25,1.48-1.25h0v-1.5a1.92,1.92,0,0,0-1.5.67Zm12.23-.67h1.53v5.15H58.31v-.33a2.63,2.63,0,0,1-1.51.48,2.71,2.71,0,0,1-2.7-2.72,2.71,2.71,0,0,1,2.7-2.72,2.62,2.62,0,0,1,1.51.47v-.33Zm0,2.58A1.36,1.36,0,0,0,56.92-554a1.36,1.36,0,0,0-1.38,1.33,1.35,1.35,0,0,0,1.38,1.32A1.35,1.35,0,0,0,58.31-552.65Zm3.15.75a1,1,0,0,0-1,1,1,1,0,0,0,1,1,1,1,0,0,0,1-1A1,1,0,0,0,61.46-551.9Z"/></clipPath><clipPath id="clip-path-5"><path class="cls-1" d="M57.87,18.15V25A10.14,10.14,0,0,1,47.8,35.13H41.32a10.15,10.15,0,0,1-9.19-10.07V18.15A10.14,10.14,0,0,1,42.27,8h5.46a10.52,10.52,0,0,1,1.12.07,10,10,0,0,1,2.52.6A10.14,10.14,0,0,1,57.87,18.15Z"/></clipPath><clipPath id="clip-path-6"><rect class="cls-1" x="-20.52" y="-11.02" width="131.31" height="64.71"/></clipPath><clipPath id="clip-path-7"><path class="cls-1" d="M46.45,18.24h4.92V23H46.45v5.2a7.66,7.66,0,0,1-5.13,6.86A10,10,0,0,1,37.54,34v-4.7s3.19,0,3.19-2.18V23h-8.6v-4.6h8.63V15.84s-.48-7,8.08-7.76a10.13,10.13,0,0,1,2.53.6v5.9h-.82S46.45,14.11,46.45,18.24Z"/></clipPath><clipPath id="clip-path-9"><path class="cls-2" d="M-56.71,143h2.85a1.87,1.87,0,0,0,.34,0,1.23,1.23,0,0,0,1-1.2,1.24,1.24,0,0,0-1-1.2l-.34,0h-2.85Z"/></clipPath><clipPath id="clip-path-10"><path class="cls-2" d="M-54.19,126a4.8,4.8,0,0,0-4.93,4.66v4.84h7l.48,0c1.58.08,2.74.84,2.74,2.17,0,1.05-.79,1.94-2.24,2.14v.06c1.6.1,2.82.94,2.82,2.25s-1.34,2.33-3.13,2.33h-7.65V154h7.23A4.81,4.81,0,0,0-47,149.28V126Z"/></clipPath><clipPath id="clip-path-11"><path class="cls-2" d="M-52.85,138a1.12,1.12,0,0,0-1-1.11l-.28,0h-2.59v2.28h2.59l.28,0a1.12,1.12,0,0,0,1-1.11"/></clipPath><clipPath id="clip-path-12"><path class="cls-2" d="M-81.47,126a4.8,4.8,0,0,0-4.93,4.66v11.52a10.36,10.36,0,0,0,4.27,1c1.7,0,2.64-1,2.64-2.31v-5.41h4.24v5.41c0,2.12-1.38,3.82-6.09,3.82a22.32,22.32,0,0,1-5.06-.58V154h7.23a4.8,4.8,0,0,0,4.93-4.67V126Z"/></clipPath><clipPath id="clip-path-13"><path class="cls-2" d="M-67.83,126a4.8,4.8,0,0,0-4.93,4.66v6.11c1.25-1,3.41-1.65,6.92-1.5a24,24,0,0,1,3.87.55v2a10,10,0,0,0-3.73-1c-2.67-.19-4.27,1-4.27,3.22s1.6,3.41,4.27,3.22a10.28,10.28,0,0,0,3.73-1v2a23.41,23.41,0,0,1-3.87.56c-3.51.15-5.67-.49-6.92-1.5V154h7.23a4.81,4.81,0,0,0,4.93-4.67V126Z"/></clipPath><clipPath id="clip-path-19"><path class="cls-2" d="M55,143h2.85a1.87,1.87,0,0,0,.34,0,1.23,1.23,0,0,0,1-1.2,1.24,1.24,0,0,0-1-1.2l-.34,0H55Z"/></clipPath><clipPath id="clip-path-20"><path class="cls-2" d="M57.49,126a4.8,4.8,0,0,0-4.93,4.66v4.84h7l.49,0c1.58.08,2.74.84,2.74,2.17a2.27,2.27,0,0,1-2.24,2.14v.06c1.6.1,2.82.94,2.82,2.25s-1.34,2.33-3.14,2.33H52.56V154h7.23a4.81,4.81,0,0,0,4.93-4.67V126Z"/></clipPath><clipPath id="clip-path-21"><path class="cls-2" d="M58.83,138a1.12,1.12,0,0,0-1-1.11,1.85,1.85,0,0,0-.29,0H55v2.28h2.58a1.85,1.85,0,0,0,.29,0,1.12,1.12,0,0,0,1-1.11"/></clipPath><clipPath id="clip-path-22"><path class="cls-2" d="M30.21,126a4.8,4.8,0,0,0-4.93,4.66v11.52a10.31,10.31,0,0,0,4.26,1c1.71,0,2.65-1,2.65-2.31v-5.41h4.24v5.41c0,2.12-1.38,3.82-6.09,3.82a22.32,22.32,0,0,1-5.06-.58V154h7.23a4.81,4.81,0,0,0,4.93-4.67V126Z"/></clipPath><clipPath id="clip-path-23"><path class="cls-2" d="M43.85,126a4.8,4.8,0,0,0-4.93,4.66v6.11c1.25-1,3.41-1.65,6.92-1.5a24,24,0,0,1,3.87.55v2a10,10,0,0,0-3.73-1c-2.67-.19-4.27,1-4.27,3.22s1.6,3.41,4.27,3.22a10.28,10.28,0,0,0,3.73-1v2a23.41,23.41,0,0,1-3.87.56c-3.51.15-5.67-.49-6.92-1.5V154h7.23a4.81,4.81,0,0,0,4.93-4.67V126Z"/></clipPath></defs><title>Payment-Method-Logos</title><rect class="cls-6" x="0.5" y="0.5" width="89" height="42.14" rx="1.78"/><path class="cls-7" d="M87.72,1A1.28,1.28,0,0,1,89,2.28V40.87a1.27,1.27,0,0,1-1.28,1.27H2.28A1.27,1.27,0,0,1,1,40.87V2.28A1.28,1.28,0,0,1,2.28,1H87.72m0-1H2.28A2.28,2.28,0,0,0,0,2.28V40.87a2.28,2.28,0,0,0,2.28,2.27H87.72A2.28,2.28,0,0,0,90,40.87V2.28A2.28,2.28,0,0,0,87.72,0Z"/><g class="cls-10"><g class="cls-11"><rect class="cls-12" x="28.96" y="4.84" width="32.08" height="33.46"/></g></g><g class="cls-13"><g class="cls-11"><rect class="cls-14" x="28.96" y="4.91" width="25.58" height="33.35"/></g></g></svg>
