<?xml version="1.0" encoding="utf-8"?>
<!-- Generator: Adobe Illustrator 26.3.1, SVG Export Plug-In . SVG Version: 6.00 Build 0)  -->
<svg version="1.1" id="Layer_1" xmlns="http://www.w3.org/2000/svg" xmlns:xlink="http://www.w3.org/1999/xlink" x="0px" y="0px"
	 viewBox="0 0 90 43.1" style="enable-background:new 0 0 90 43.1;" xml:space="preserve">
<style type="text/css">
	.st0{fill:#FFFFFF;}
	.st1{fill:#F2F5F7;}
	.st2{fill:#000268;}
	.st3{fill:#FF0007;}
</style>
<g>
	<path class="st0" d="M87.7,0.5H2.3c-1,0-1.8,0.8-1.8,1.8v38.6c0,1,0.8,1.8,1.8,1.8h85.4c1,0,1.8-0.8,1.8-1.8V2.3
		C89.5,1.3,88.7,0.5,87.7,0.5z M89,40.9c0,0.7-0.6,1.3-1.3,1.3H2.3c-0.7,0-1.3-0.6-1.3-1.3V2.3C1,1.6,1.6,1,2.3,1h85.4
		C88.4,1,89,1.6,89,2.3V40.9z"/>
	<path class="st1" d="M87.7,0H2.3C1,0,0,1,0,2.3v38.6c0,1.3,1,2.3,2.3,2.3h85.4c1.3,0,2.3-1,2.3-2.3V2.3C90,1,89,0,87.7,0z M89,40.9
		c0,0.7-0.6,1.3-1.3,1.3H2.3c-0.7,0-1.3-0.6-1.3-1.3V2.3C1,1.6,1.6,1,2.3,1h85.4C88.4,1,89,1.6,89,2.3V40.9z"/>
	<path class="st2" d="M89,2.3v38.6c0,0.7-0.6,1.3-1.3,1.3H2.3c-0.7,0-1.3-0.6-1.3-1.3V2.3C1,1.6,1.6,1,2.3,1h85.4
		C88.4,1,89,1.6,89,2.3z"/>
</g>
<g id="Layer_2_00000049189943559265081150000013581997179955883679_">
	<g id="Layer_1-2">
		<g id="layer1">
			<path id="_92653320" class="st2" d="M18.3,14.2c0-2.3,1.9-4.1,4.1-4.1h45.1c2.3,0,4.1,1.8,4.1,4.1v14.7c0,2.3-1.9,4.1-4.1,4.1
				l0,0H22.5c-2.3,0-4.1-1.8-4.1-4.1c0,0,0,0,0,0V14.2z"/>
			<path id="_92186184" class="st0" d="M20,14.3v14.4c0,1.4,1.2,2.6,2.6,2.6l0,0h23.6V11.8H22.6C21.2,11.8,20,12.9,20,14.3L20,14.3z
				 M52.3,21.5c0,0.9-0.5,1.6-1.2,1.6c-0.7,0-1.2-0.6-1.2-1.5c0-0.9,0.5-1.5,1.2-1.5C51.9,20.1,52.3,20.7,52.3,21.5z M47.9,26.8h2
				v-3.1h0c0.4,0.7,1.1,0.9,1.8,0.9c1.7,0,2.6-1.4,2.6-3.1c0-1.4-0.9-2.9-2.5-2.9c-0.9,0-1.7,0.4-2.1,1.2h0v-1h-1.8L47.9,26.8
				L47.9,26.8z M57.1,22.6c0-0.6,0.5-0.8,1.2-0.8c0.3,0,0.6,0,0.8,0c0,0.7-0.5,1.4-1.2,1.4C57.5,23.2,57.1,23,57.1,22.6z M61.1,24.4
				C61.1,24,61,23.5,61,23.1v-2.1c0-1.8-1.3-2.4-2.8-2.4c-0.8,0-1.6,0.1-2.3,0.4l0,1.3c0.6-0.3,1.2-0.5,1.8-0.4c0.7,0,1.3,0.2,1.3,1
				c-0.3-0.1-0.6-0.1-0.9-0.1c-1.1,0-3,0.2-3,2c0,1.3,1,1.8,2.2,1.8c0.8,0,1.4-0.3,1.8-1h0c0,0.3,0,0.6,0,0.9L61.1,24.4L61.1,24.4z
				 M62,26.8c0.4,0.1,0.8,0.1,1.2,0.1c1.8,0,2.3-1.4,2.8-2.9l2.1-5.4h-2L65,22.4h0l-1.2-3.8h-2.1l2.3,5.9c-0.2,0.5-0.5,0.8-1,0.8
				c-0.3,0-0.5,0-0.8-0.1L62,26.8L62,26.8z"/>
			<path id="_47303032" class="st3" d="M24.9,21.5c0-0.8,0.4-1.4,1.1-1.4c0.9,0,1.3,0.7,1.3,1.4c0,0.9-0.6,1.5-1.3,1.5
				C25.4,22.9,24.9,22.4,24.9,21.5z M29.2,18.7h-1.8v1h0c-0.4-0.7-1.1-1.2-2-1.2c-1.8,0-2.6,1.3-2.6,3c0,1.7,1,2.9,2.6,2.9
				c0.8,0,1.5-0.3,1.9-1h0v0.3c0,1.1-0.6,1.7-1.8,1.7c-0.7,0-1.3-0.2-2-0.5l-0.1,1.6c0.7,0.2,1.5,0.4,2.2,0.4c2.3,0,3.5-0.8,3.5-3.1
				L29.2,18.7z M32.6,16.3h-2v1.5h2V16.3z M30.6,24.4h2v-5.8h-2V24.4z M38.1,18.6c-0.2,0-0.5-0.1-0.7-0.1c-0.9,0-1.4,0.5-1.7,1.2h0
				v-1.1h-1.8v5.8h2V22c0-1.1,0.5-1.8,1.5-1.8c0.2,0,0.5,0,0.7,0.1L38.1,18.6L38.1,18.6z M41.6,23.2c-0.9,0-1.3-0.8-1.3-1.6
				c0-0.9,0.4-1.6,1.3-1.6s1.3,0.8,1.3,1.6C42.9,22.4,42.5,23.2,41.6,23.2L41.6,23.2z M41.6,24.6c1.9,0,3.4-1.1,3.4-3
				c0-1.9-1.5-3-3.4-3c-1.9,0-3.4,1.1-3.4,3C38.2,23.5,39.7,24.6,41.6,24.6z"/>
		</g>
	</g>
</g>
</svg>
