<svg id="Layer_1" data-name="Layer 1" xmlns="http://www.w3.org/2000/svg" viewBox="0 0 90 43.14"><defs><style>.cls-1,.cls-2,.cls-3{fill:none;}  .cls-1{clip-rule:evenodd;}  .cls-3{fill-rule:evenodd;}  .cls-4{clip-path:url(#clip-path);}  .cls-5{clip-path:url(#clip-path-2);}  .cls-6{clip-path:url(#clip-path-3);}  .cls-7{clip-path:url(#clip-path-4);}  .cls-8{clip-path:url(#clip-path-5);}  .cls-9{clip-path:url(#clip-path-6);}  .cls-10{clip-path:url(#clip-path-7);}  .cls-11{clip-path:url(#clip-path-8);}  .cls-12{clip-path:url(#clip-path-9);}  .cls-13{clip-path:url(#clip-path-10);}  .cls-14{clip-path:url(#clip-path-11);}  .cls-15{clip-path:url(#clip-path-12);}  .cls-16{clip-path:url(#clip-path-13);}  .cls-17{clip-path:url(#clip-path-14);}  .cls-18{clip-path:url(#clip-path-15);}  .cls-19{clip-path:url(#clip-path-16);}  .cls-20{fill:#fff;}  .cls-21{fill:#f2f5f7;}  .cls-22{fill:#5f6368;}  .cls-23{fill:#4285f4;}  .cls-24{fill:#34a853;}  .cls-25{fill:#fbbc04;}  .cls-26{fill:#ea4335;}  .cls-27{clip-path:url(#clip-path-17);}  .cls-28{clip-path:url(#clip-path-18);}  .cls-29{clip-path:url(#clip-path-19);}  .cls-30{clip-path:url(#clip-path-20);}  .cls-31{clip-path:url(#clip-path-21);}  .cls-32{clip-path:url(#clip-path-22);}  .cls-33{clip-path:url(#clip-path-23);}  .cls-34{clip-path:url(#clip-path-24);}  .cls-35{clip-path:url(#clip-path-25);}  .cls-36{clip-path:url(#clip-path-31);}  .cls-37{clip-path:url(#clip-path-32);}  .cls-38{clip-path:url(#clip-path-33);}  .cls-39{clip-path:url(#clip-path-34);}  .cls-40{clip-path:url(#clip-path-35);}</style><clipPath id="clip-path"><path class="cls-1" d="M-98.18-112.12h-3.19v10.64h3.17a5.93,5.93,0,0,0,4-1.23,5.24,5.24,0,0,0,2-4.08c0-3.14-2.45-5.33-6-5.33m2.54,8a4.25,4.25,0,0,1-3,.85h-.59v-7h.59a4.16,4.16,0,0,1,3,.86,3.52,3.52,0,0,1,1.2,2.65,3.58,3.58,0,0,1-1.2,2.68"/></clipPath><clipPath id="clip-path-2"><rect class="cls-2" x="-91.21" y="-112.12" width="2.17" height="10.64"/></clipPath><clipPath id="clip-path-3"><path class="cls-1" d="M-83.73-108c-1.3-.46-1.69-.76-1.69-1.34s.68-1.18,1.62-1.18a2.29,2.29,0,0,1,1.75.87l1.14-1.43a5,5,0,0,0-3.27-1.18,3.21,3.21,0,0,0-3.47,3c0,1.47.7,2.22,2.73,2.92a8.57,8.57,0,0,1,1.5.61,1.24,1.24,0,0,1,.65,1.1,1.55,1.55,0,0,1-1.68,1.5,2.59,2.59,0,0,1-2.37-1.42l-1.4,1.29a4.36,4.36,0,0,0,3.85,2,3.52,3.52,0,0,0,3.84-3.5c0-1.69-.73-2.45-3.2-3.32"/></clipPath><clipPath id="clip-path-4"><path class="cls-1" d="M-79.85-106.79A5.64,5.64,0,0,0-74-101.24a6.17,6.17,0,0,0,2.72-.62v-2.44a3.54,3.54,0,0,1-2.62,1.16,3.55,3.55,0,0,1-3.74-3.67A3.61,3.61,0,0,1-74-110.46a3.74,3.74,0,0,1,2.72,1.19v-2.44a5.8,5.8,0,0,0-2.67-.65,5.73,5.73,0,0,0-5.93,5.57"/></clipPath><clipPath id="clip-path-5"><polygon class="cls-1" points="-54.05 -104.97 -57.01 -112.12 -59.38 -112.12 -54.66 -101.21 -53.49 -101.21 -48.69 -112.12 -51.04 -112.12 -54.05 -104.97"/></clipPath><clipPath id="clip-path-6"><polygon class="cls-1" points="-47.71 -101.48 -41.55 -101.48 -41.55 -103.28 -45.54 -103.28 -45.54 -106.15 -41.7 -106.15 -41.7 -107.96 -45.54 -107.96 -45.54 -110.32 -41.55 -110.32 -41.55 -112.12 -47.71 -112.12 -47.71 -101.48"/></clipPath><clipPath id="clip-path-7"><path class="cls-1" d="M-33-109c0-2-1.43-3.14-3.94-3.14h-3.21v10.64h2.16v-4.27h.29l3,4.27H-32l-3.5-4.48A2.87,2.87,0,0,0-33-109m-4.35,1.76h-.64v-3.22h.67c1.35,0,2.09.54,2.09,1.57s-.74,1.65-2.12,1.65"/></clipPath><clipPath id="clip-path-8"><path class="cls-1" d="M-58.73-106.79a5.8,5.8,0,0,1-5.92,5.66,5.79,5.79,0,0,1-5.91-5.66,5.78,5.78,0,0,1,5.91-5.66,5.79,5.79,0,0,1,5.92,5.66"/></clipPath><clipPath id="clip-path-9"><path class="cls-1" d="M13.5-112.12H10.31v10.65h3.17a6,6,0,0,0,4-1.23,5.26,5.26,0,0,0,2-4.09c0-3.14-2.45-5.33-6-5.33m2.53,8a4.22,4.22,0,0,1-3,.84h-.58v-7h.58a4.13,4.13,0,0,1,3,.86,3.52,3.52,0,0,1,1.21,2.65A3.59,3.59,0,0,1,16-104.12"/></clipPath><clipPath id="clip-path-10"><rect class="cls-2" x="20.47" y="-112.12" width="2.17" height="10.64"/></clipPath><clipPath id="clip-path-11"><path class="cls-1" d="M28-108c-1.3-.46-1.69-.77-1.69-1.34s.68-1.18,1.62-1.18a2.27,2.27,0,0,1,1.75.86l1.13-1.42a5,5,0,0,0-3.27-1.18A3.21,3.21,0,0,0,24-109.24c0,1.46.7,2.21,2.74,2.92a8.4,8.4,0,0,1,1.5.6,1.25,1.25,0,0,1,.65,1.1,1.55,1.55,0,0,1-1.68,1.5,2.57,2.57,0,0,1-2.37-1.42l-1.4,1.3a4.38,4.38,0,0,0,3.85,2,3.52,3.52,0,0,0,3.84-3.49c0-1.69-.73-2.46-3.2-3.32"/></clipPath><clipPath id="clip-path-12"><path class="cls-1" d="M31.83-106.79a5.65,5.65,0,0,0,5.87,5.56,6.2,6.2,0,0,0,2.73-.63v-2.44a3.56,3.56,0,0,1-2.62,1.17,3.56,3.56,0,0,1-3.74-3.67,3.61,3.61,0,0,1,3.63-3.66,3.71,3.71,0,0,1,2.73,1.2v-2.44a5.7,5.7,0,0,0-2.68-.66,5.74,5.74,0,0,0-5.92,5.57"/></clipPath><clipPath id="clip-path-13"><polygon class="cls-1" points="57.63 -104.97 54.67 -112.12 52.29 -112.12 57.02 -101.2 58.18 -101.2 62.99 -112.12 60.64 -112.12 57.63 -104.97"/></clipPath><clipPath id="clip-path-14"><polygon class="cls-1" points="63.97 -101.47 70.13 -101.47 70.13 -103.28 66.14 -103.28 66.14 -106.15 69.98 -106.15 69.98 -107.95 66.14 -107.95 66.14 -110.31 70.13 -110.31 70.13 -112.12 63.97 -112.12 63.97 -101.47"/></clipPath><clipPath id="clip-path-15"><path class="cls-1" d="M78.72-109c0-2-1.44-3.14-3.94-3.14H71.56v10.65h2.17v-4.28H74l3,4.28h2.67L76.19-106a2.87,2.87,0,0,0,2.53-3m-4.35,1.76h-.64v-3.22h.67c1.35,0,2.09.54,2.09,1.58s-.74,1.64-2.12,1.64"/></clipPath><clipPath id="clip-path-16"><path class="cls-1" d="M53-106.79A5.79,5.79,0,0,1,47-101.13a5.79,5.79,0,0,1-5.92-5.66A5.8,5.8,0,0,1,47-112.45,5.8,5.8,0,0,1,53-106.79"/></clipPath><clipPath id="clip-path-17"><rect class="cls-2" x="-86.93" y="-178.89" width="40.5" height="22.5" rx="3.89"/></clipPath><clipPath id="clip-path-18"><path class="cls-2" d="M-77-171.33a6,6,0,0,1-1.73,4.23l2.34,3.22h-2.09l-2.55-3.5.66-.5a4.28,4.28,0,0,0,1.71-3.45ZM-83-163.88h1.7v-7.45H-83Zm7,0h1.6v-7.45h-1.6Zm15.64-5.3a1.89,1.89,0,0,0-1.58.72V-169h-1.52v5.16h1.54v-2.71a1.08,1.08,0,0,1,1.15-1.17c.67,0,1.06.41,1.06,1.16v2.72h1.53v-3.28a2,2,0,0,0-2.18-2Zm-9.2.14H-68v5.15h-1.53v-.32a2.71,2.71,0,0,1-1.52.47,2.71,2.71,0,0,1-2.69-2.72A2.71,2.71,0,0,1-71-169.18a2.71,2.71,0,0,1,1.52.47V-169Zm0,2.58a1.36,1.36,0,0,0-1.38-1.33,1.36,1.36,0,0,0-1.39,1.33,1.35,1.35,0,0,0,1.39,1.32A1.35,1.35,0,0,0-69.5-166.46Zm3.9-1.91V-169h-1.56v5.15h1.57v-2.4c0-.81.87-1.25,1.47-1.25h0V-169a1.92,1.92,0,0,0-1.5.67Zm12.23-.67h1.53v5.15h-1.53v-.32a2.7,2.7,0,0,1-1.51.47,2.7,2.7,0,0,1-2.69-2.72,2.7,2.7,0,0,1,2.69-2.72,2.7,2.7,0,0,1,1.51.47V-169Zm0,2.58a1.36,1.36,0,0,0-1.39-1.33,1.36,1.36,0,0,0-1.38,1.33,1.35,1.35,0,0,0,1.38,1.32A1.35,1.35,0,0,0-53.37-166.46Zm3.16.75a1,1,0,0,0-1,1,1,1,0,0,0,1,1,1,1,0,0,0,1-1A1,1,0,0,0-50.21-165.71Z"/></clipPath><clipPath id="clip-path-19"><rect class="cls-2" x="24.75" y="-178.89" width="40.5" height="22.5" rx="3.89"/></clipPath><clipPath id="clip-path-20"><path class="cls-2" d="M34.65-171.33a6,6,0,0,1-1.73,4.23l2.34,3.22h-2.1l-2.54-3.5.66-.5A4.28,4.28,0,0,0,33-171.33Zm-5.93,7.45h1.7v-7.45h-1.7Zm7,0h1.6v-7.45h-1.6Zm15.64-5.3a1.89,1.89,0,0,0-1.58.72V-169H48.29v5.16h1.54v-2.71A1.08,1.08,0,0,1,51-167.76c.67,0,1.06.41,1.06,1.16v2.72h1.52v-3.28a2,2,0,0,0-2.17-2Zm-9.2.14h1.53v5.15H42.19v-.32a2.76,2.76,0,0,1-1.52.47A2.7,2.7,0,0,1,38-166.46a2.7,2.7,0,0,1,2.69-2.72,2.76,2.76,0,0,1,1.52.47V-169Zm0,2.58a1.36,1.36,0,0,0-1.38-1.33,1.36,1.36,0,0,0-1.39,1.33,1.35,1.35,0,0,0,1.39,1.32A1.35,1.35,0,0,0,42.18-166.46Zm3.9-1.91V-169H44.51v5.15h1.57v-2.4c0-.81.88-1.25,1.48-1.25h0V-169a1.92,1.92,0,0,0-1.5.67ZM58.31-169h1.53v5.15H58.31v-.32a2.7,2.7,0,0,1-1.51.47,2.71,2.71,0,0,1-2.7-2.72,2.71,2.71,0,0,1,2.7-2.72,2.7,2.7,0,0,1,1.51.47V-169Zm0,2.58a1.36,1.36,0,0,0-1.39-1.33,1.36,1.36,0,0,0-1.38,1.33,1.35,1.35,0,0,0,1.38,1.32A1.35,1.35,0,0,0,58.31-166.46Zm3.15.75a1,1,0,0,0-1,1,1,1,0,0,0,1,1,1,1,0,0,0,1-1A1,1,0,0,0,61.46-165.71Z"/></clipPath><clipPath id="clip-path-21"><path class="cls-1" d="M-56.71,529.17h2.85a1.87,1.87,0,0,0,.34,0,1.23,1.23,0,0,0,1-1.2,1.22,1.22,0,0,0-1-1.19,1.86,1.86,0,0,0-.34,0h-2.85Z"/></clipPath><clipPath id="clip-path-22"><path class="cls-1" d="M-54.19,512.16a4.8,4.8,0,0,0-4.93,4.66v4.84h7l.48,0c1.58.08,2.74.84,2.74,2.17,0,1-.79,1.94-2.24,2.15v0c1.6.11,2.82.94,2.82,2.25s-1.34,2.33-3.13,2.33h-7.65v9.51h7.23A4.81,4.81,0,0,0-47,535.47V512.16Z"/></clipPath><clipPath id="clip-path-23"><path class="cls-1" d="M-52.85,524.19a1.13,1.13,0,0,0-1-1.11l-.28,0h-2.59v2.27h2.59l.28,0a1.14,1.14,0,0,0,1-1.12"/></clipPath><clipPath id="clip-path-24"><path class="cls-1" d="M-81.47,512.16a4.8,4.8,0,0,0-4.93,4.66v11.52a10.36,10.36,0,0,0,4.27,1c1.7,0,2.64-1,2.64-2.31v-5.41h4.24v5.41c0,2.12-1.38,3.82-6.09,3.82a22.32,22.32,0,0,1-5.06-.58v9.83h7.23a4.8,4.8,0,0,0,4.93-4.67V512.16Z"/></clipPath><clipPath id="clip-path-25"><path class="cls-1" d="M-67.83,512.16a4.8,4.8,0,0,0-4.93,4.66v6.11c1.25-1,3.41-1.65,6.92-1.5A24,24,0,0,1-62,522v2a10,10,0,0,0-3.73-1c-2.67-.19-4.27,1-4.27,3.22s1.6,3.41,4.27,3.22a10.28,10.28,0,0,0,3.73-1v2a23.41,23.41,0,0,1-3.87.56c-3.51.15-5.67-.49-6.92-1.5v10.77h7.23a4.81,4.81,0,0,0,4.93-4.67V512.16Z"/></clipPath><clipPath id="clip-path-31"><path class="cls-1" d="M55,529.17h2.85a1.87,1.87,0,0,0,.34,0,1.21,1.21,0,0,0,0-2.39,1.86,1.86,0,0,0-.34,0H55Z"/></clipPath><clipPath id="clip-path-32"><path class="cls-1" d="M57.49,512.16a4.8,4.8,0,0,0-4.93,4.66v4.84h7l.49,0c1.58.08,2.74.84,2.74,2.17,0,1-.8,1.94-2.24,2.15v0c1.6.11,2.82.94,2.82,2.25s-1.34,2.33-3.14,2.33H52.56v9.51h7.23a4.81,4.81,0,0,0,4.93-4.67V512.16Z"/></clipPath><clipPath id="clip-path-33"><path class="cls-1" d="M58.83,524.19a1.13,1.13,0,0,0-1-1.11l-.29,0H55v2.27h2.58l.29,0a1.14,1.14,0,0,0,1-1.12"/></clipPath><clipPath id="clip-path-34"><path class="cls-1" d="M30.21,512.16a4.8,4.8,0,0,0-4.93,4.66v11.52a10.31,10.31,0,0,0,4.26,1c1.71,0,2.65-1,2.65-2.31v-5.41h4.24v5.41c0,2.12-1.38,3.82-6.09,3.82a22.32,22.32,0,0,1-5.06-.58v9.83h7.23a4.81,4.81,0,0,0,4.93-4.67V512.16Z"/></clipPath><clipPath id="clip-path-35"><path class="cls-1" d="M43.85,512.16a4.8,4.8,0,0,0-4.93,4.66v6.11c1.25-1,3.41-1.65,6.92-1.5a24,24,0,0,1,3.87.55v2a10,10,0,0,0-3.73-1c-2.67-.19-4.27,1-4.27,3.22s1.6,3.41,4.27,3.22a10.28,10.28,0,0,0,3.73-1v2a23.41,23.41,0,0,1-3.87.56c-3.51.15-5.67-.49-6.92-1.5v10.77h7.23a4.81,4.81,0,0,0,4.93-4.67V512.16Z"/></clipPath></defs><title>Payment-Method-Logos</title><rect class="cls-20" x="0.5" y="0.5" width="89" height="42.14" rx="1.78"/><path class="cls-21" d="M87.72,1A1.28,1.28,0,0,1,89,2.28V40.87a1.27,1.27,0,0,1-1.28,1.27H2.28A1.27,1.27,0,0,1,1,40.87V2.28A1.28,1.28,0,0,1,2.28,1H87.72m0-1H2.28A2.28,2.28,0,0,0,0,2.28V40.87a2.28,2.28,0,0,0,2.28,2.27H87.72A2.28,2.28,0,0,0,90,40.87V2.28A2.28,2.28,0,0,0,87.72,0Z"/><path class="cls-22" d="M43.16,21.26v7.92H40.64V9.62h6.67a6.08,6.08,0,0,1,4.32,1.69,5.5,5.5,0,0,1,1.8,4.13,5.48,5.48,0,0,1-1.8,4.16,6,6,0,0,1-4.32,1.66Zm0-9.23v6.83h4.21a3.41,3.41,0,0,0,2.56-5.73l-.07-.06a3.26,3.26,0,0,0-2.49-1Z"/><path class="cls-22" d="M59.22,15.36a6.25,6.25,0,0,1,4.4,1.49,5.3,5.3,0,0,1,1.61,4.08v8.25h-2.4V27.33h-.11a4.8,4.8,0,0,1-4.16,2.29,5.44,5.44,0,0,1-3.7-1.31A4.21,4.21,0,0,1,53.37,25a4,4,0,0,1,1.57-3.3,6.64,6.64,0,0,1,4.2-1.23,7.34,7.34,0,0,1,3.68.82v-.58a2.84,2.84,0,0,0-1-2.22,3.57,3.57,0,0,0-2.43-.92A3.84,3.84,0,0,0,56,19.38L53.81,18A6.18,6.18,0,0,1,59.22,15.36ZM56,25.09a2,2,0,0,0,.83,1.64,3.14,3.14,0,0,0,2,.65,4,4,0,0,0,2.83-1.17,3.7,3.7,0,0,0,1.25-2.76,5.1,5.1,0,0,0-3.28-.94,4.25,4.25,0,0,0-2.55.74,2.2,2.2,0,0,0-1,1.84Z"/><path class="cls-22" d="M79,15.8,70.64,35.08H68l3.12-6.74L65.64,15.8h2.73l4,9.61h0l3.88-9.61Z"/><path class="cls-23" d="M33,19.55a13.41,13.41,0,0,0-.19-2.28H22.21V21.6h6.07A5.2,5.2,0,0,1,26,25v2.81h3.62A11,11,0,0,0,33,19.55Z"/><path class="cls-24" d="M22.21,30.54a10.75,10.75,0,0,0,7.45-2.72L26,25A6.81,6.81,0,0,1,15.9,21.45H12.17v2.9A11.25,11.25,0,0,0,22.21,30.54Z"/><path class="cls-25" d="M15.9,21.45a6.73,6.73,0,0,1,0-4.3v-2.9H12.17a11.23,11.23,0,0,0,0,10.1Z"/><path class="cls-26" d="M22.21,12.51a6.11,6.11,0,0,1,4.31,1.68h0L29.73,11a10.81,10.81,0,0,0-7.52-2.93,11.25,11.25,0,0,0-10,6.19l3.73,2.9A6.72,6.72,0,0,1,22.21,12.51Z"/></svg>
