<?xml version="1.0" encoding="utf-8"?>
<!-- Generator: Adobe Illustrator 26.3.1, SVG Export Plug-In . SVG Version: 6.00 Build 0)  -->
<svg version="1.1" id="Layer_1" xmlns="http://www.w3.org/2000/svg" xmlns:xlink="http://www.w3.org/1999/xlink" x="0px" y="0px"
	 viewBox="0 0 90 43.1" style="enable-background:new 0 0 90 43.1;" xml:space="preserve">
<style type="text/css">
	.st0{fill:#FFFFFF;}
	.st1{fill:#F2F5F7;}
	.st2{fill:#CC0066;}
</style>
<g>
	<path class="st0" d="M2.3,0.5h85.4c1,0,1.8,0.8,1.8,1.8v38.6c0,1-0.8,1.8-1.8,1.8H2.3c-1,0-1.8-0.8-1.8-1.8V2.3
		C0.5,1.3,1.3,0.5,2.3,0.5z"/>
	<path class="st1" d="M87.7,1C88.4,1,89,1.6,89,2.3v38.6c0,0.7-0.6,1.3-1.3,1.3l0,0H2.3c-0.7,0-1.3-0.6-1.3-1.3l0,0V2.3
		C1,1.6,1.6,1,2.3,1H87.7 M87.7,0H2.3C1,0,0,1,0,2.3v38.6c0,1.3,1,2.3,2.3,2.3h85.4c1.3,0,2.3-1,2.3-2.3V2.3C90,1,89,0,87.7,0z"/>
</g>
<g id="Layer_2_00000063628582028866556510000013572405415728497292_">
	<g id="Layer_1-2">
		<path class="st0" d="M32,11.8v19.5c0,0.9,0.8,1.7,1.7,1.7h11.7C54.2,33,58,28.1,58,21.5c0-6.5-3.8-11.4-12.6-11.4H33.7
			C32.8,10.1,32,10.8,32,11.8"/>
		<path class="st2" d="M39.8,14.9v14.4h6.3c5.7,0,8.2-3.2,8.2-7.8c0-4.4-2.5-7.7-8.2-7.7h-5.2C40.3,13.8,39.8,14.3,39.8,14.9"/>
		<path d="M45.4,31.5H35.2c-0.9,0-1.6-0.7-1.6-1.6V13.3c0-0.9,0.7-1.6,1.6-1.6h10.2c9.6,0,11.1,6.2,11.1,9.9
			C56.4,27.9,52.5,31.5,45.4,31.5 M35.2,12.2c-0.6,0-1.1,0.5-1.1,1.1c0,0,0,0,0,0v16.5c0,0.6,0.5,1.1,1.1,1.1c0,0,0,0,0,0h10.2
			c6.8,0,10.5-3.3,10.5-9.4c0-8.1-6.6-9.3-10.5-9.3H35.2z"/>
		<path class="st0" d="M42,19.6c0.2,0,0.4,0,0.6,0.1c0.2,0.1,0.4,0.2,0.5,0.3c0.1,0.2,0.3,0.3,0.3,0.5c0.1,0.2,0.1,0.5,0.1,0.8
			c0,0.2,0,0.5-0.1,0.7c-0.1,0.2-0.2,0.4-0.3,0.6c-0.1,0.2-0.3,0.3-0.5,0.4C42.5,23,42.2,23,42,23h-1.5v-3.5L42,19.6L42,19.6z
			 M42,22.4c0.1,0,0.2,0,0.3,0c0.1,0,0.2-0.1,0.3-0.2c0.1-0.1,0.2-0.2,0.2-0.3c0.1-0.2,0.1-0.3,0.1-0.5c0-0.2,0-0.3,0-0.5
			c0-0.1-0.1-0.3-0.2-0.4c-0.1-0.1-0.2-0.2-0.3-0.2c-0.1-0.1-0.3-0.1-0.5-0.1h-0.5v2.2L42,22.4L42,22.4z"/>
		<polygon class="st0" points="46.7,19.6 46.7,20.2 44.8,20.2 44.8,21 46.5,21 46.5,21.6 44.8,21.6 44.8,22.4 46.7,22.4 46.7,23 
			44.1,23 44.1,19.6 46.7,19.6 		"/>
		<path class="st0" d="M49.3,19.6l1.3,3.5h-0.8l-0.3-0.8h-1.3L47.9,23h-0.8l1.3-3.5H49.3z M49.3,21.7l-0.4-1.3h0l-0.4,1.3H49.3z"/>
		<polygon class="st0" points="51.8,19.6 51.8,22.4 53.5,22.4 53.5,23 51,23 51,19.6 		"/>
		<path d="M37,19.7c0.9,0,1.6,0.7,1.6,1.6s-0.7,1.6-1.6,1.6s-1.6-0.7-1.6-1.6C35.4,20.4,36.1,19.7,37,19.7"/>
		<path d="M38.2,29.3L38.2,29.3c-1.3,0-2.4-1.1-2.4-2.4l0,0V25c0-0.7,0.5-1.2,1.2-1.2c0.7,0,1.2,0.5,1.2,1.2c0,0,0,0,0,0V29.3
			L38.2,29.3z"/>
	</g>
</g>
</svg>
