<svg id="Layer_1" data-name="Layer 1" xmlns="http://www.w3.org/2000/svg" viewBox="0 0 90 43.14"><defs><style>.cls-1,.cls-2{fill:none;}  .cls-1{clip-rule:evenodd;}  .cls-3{fill:#fff;}  .cls-4{fill:#f2f5f7;}  .cls-5{clip-path:url(#clip-path);}  .cls-6{clip-path:url(#clip-path-2);}  .cls-7{clip-path:url(#clip-path-3);}  .cls-8{clip-path:url(#clip-path-4);}  .cls-9{clip-path:url(#clip-path-5);}  .cls-10{clip-path:url(#clip-path-6);}  .cls-11{clip-path:url(#clip-path-7);}  .cls-12{clip-path:url(#clip-path-8);}  .cls-13{clip-path:url(#clip-path-9);}  .cls-14{clip-path:url(#clip-path-10);}  .cls-15{clip-path:url(#clip-path-11);}  .cls-16{clip-path:url(#clip-path-12);}  .cls-17{clip-path:url(#clip-path-13);}  .cls-18{clip-path:url(#clip-path-14);}  .cls-19{clip-path:url(#clip-path-15);}  .cls-20{clip-path:url(#clip-path-16);}  .cls-21{clip-path:url(#clip-path-17);}  .cls-22{clip-path:url(#clip-path-18);}  .cls-23{clip-path:url(#clip-path-19);}  .cls-24{clip-path:url(#clip-path-20);}  .cls-25{fill:#ffb3c7;}  .cls-26{clip-path:url(#clip-path-21);}  .cls-27{fill:#0a0b09;}</style><clipPath id="clip-path"><path class="cls-1" d="M-98.18,77.09h-3.19V87.74h3.17a5.93,5.93,0,0,0,4-1.23,5.26,5.26,0,0,0,2-4.09c0-3.14-2.45-5.33-6-5.33m2.54,8a4.25,4.25,0,0,1-3,.85h-.59v-7h.59a4.16,4.16,0,0,1,3,.86,3.52,3.52,0,0,1,1.2,2.65,3.58,3.58,0,0,1-1.2,2.68"/></clipPath><clipPath id="clip-path-2"><rect class="cls-2" x="-91.21" y="77.09" width="2.17" height="10.64"/></clipPath><clipPath id="clip-path-3"><path class="cls-1" d="M-83.73,81.18c-1.3-.46-1.69-.77-1.69-1.34s.68-1.18,1.62-1.18a2.27,2.27,0,0,1,1.75.86l1.14-1.42a5,5,0,0,0-3.27-1.18,3.21,3.21,0,0,0-3.47,3c0,1.46.7,2.22,2.73,2.92a8.06,8.06,0,0,1,1.5.6,1.25,1.25,0,0,1,.65,1.1,1.55,1.55,0,0,1-1.68,1.51,2.59,2.59,0,0,1-2.37-1.42L-88.22,86a4.38,4.38,0,0,0,3.85,2,3.52,3.52,0,0,0,3.84-3.49c0-1.69-.73-2.46-3.2-3.32"/></clipPath><clipPath id="clip-path-4"><path class="cls-1" d="M-79.85,82.42A5.65,5.65,0,0,0-74,88a6.31,6.31,0,0,0,2.72-.62V84.91a3.56,3.56,0,0,1-2.62,1.17,3.56,3.56,0,0,1-3.74-3.67A3.62,3.62,0,0,1-74,78.75,3.75,3.75,0,0,1-71.25,80V77.51a5.81,5.81,0,0,0-2.67-.66,5.74,5.74,0,0,0-5.93,5.57"/></clipPath><clipPath id="clip-path-5"><polygon class="cls-1" points="-54.05 84.24 -57.01 77.09 -59.38 77.09 -54.66 88.01 -53.49 88.01 -48.69 77.09 -51.04 77.09 -54.05 84.24"/></clipPath><clipPath id="clip-path-6"><polygon class="cls-1" points="-47.71 87.74 -41.55 87.74 -41.55 85.94 -45.54 85.94 -45.54 83.06 -41.7 83.06 -41.7 81.26 -45.54 81.26 -45.54 78.9 -41.55 78.9 -41.55 77.09 -47.71 77.09 -47.71 87.74"/></clipPath><clipPath id="clip-path-7"><path class="cls-1" d="M-33,80.24c0-2-1.43-3.14-3.94-3.14h-3.21V87.74h2.16V83.46h.29l3,4.28H-32l-3.5-4.49a2.85,2.85,0,0,0,2.53-3M-37.31,82h-.64V78.77h.67c1.35,0,2.09.54,2.09,1.58S-35.93,82-37.31,82"/></clipPath><clipPath id="clip-path-8"><path class="cls-1" d="M-58.73,82.42a5.79,5.79,0,0,1-5.92,5.66,5.78,5.78,0,0,1-5.91-5.66,5.79,5.79,0,0,1,5.91-5.66,5.8,5.8,0,0,1,5.92,5.66"/></clipPath><clipPath id="clip-path-9"><path class="cls-1" d="M13.5,77.1H10.31V87.74h3.17a6,6,0,0,0,4-1.23,5.24,5.24,0,0,0,2-4.08c0-3.14-2.45-5.33-6-5.33m2.53,8a4.22,4.22,0,0,1-3,.85h-.58v-7h.58a4.13,4.13,0,0,1,3,.86,3.52,3.52,0,0,1,1.21,2.65A3.59,3.59,0,0,1,16,85.09"/></clipPath><clipPath id="clip-path-10"><rect class="cls-2" x="20.47" y="77.1" width="2.17" height="10.64"/></clipPath><clipPath id="clip-path-11"><path class="cls-1" d="M28,81.18c-1.3-.46-1.69-.76-1.69-1.34s.68-1.18,1.62-1.18a2.31,2.31,0,0,1,1.75.86l1.13-1.42a5,5,0,0,0-3.27-1.18A3.22,3.22,0,0,0,24,80c0,1.47.7,2.22,2.74,2.92a9,9,0,0,1,1.5.61,1.24,1.24,0,0,1,.65,1.1,1.55,1.55,0,0,1-1.68,1.5,2.59,2.59,0,0,1-2.37-1.42L23.46,86a4.38,4.38,0,0,0,3.85,2,3.53,3.53,0,0,0,3.84-3.5c0-1.69-.73-2.45-3.2-3.32"/></clipPath><clipPath id="clip-path-12"><path class="cls-1" d="M31.83,82.43A5.64,5.64,0,0,0,37.7,88a6.18,6.18,0,0,0,2.73-.62V84.92a3.68,3.68,0,0,1-6.36-2.51,3.61,3.61,0,0,1,3.63-3.65A3.74,3.74,0,0,1,40.43,80V77.51a5.81,5.81,0,0,0-2.68-.65,5.73,5.73,0,0,0-5.92,5.57"/></clipPath><clipPath id="clip-path-13"><polygon class="cls-1" points="57.63 84.25 54.67 77.1 52.29 77.1 57.02 88.01 58.18 88.01 62.99 77.1 60.64 77.1 57.63 84.25"/></clipPath><clipPath id="clip-path-14"><polygon class="cls-1" points="63.97 87.74 70.13 87.74 70.13 85.94 66.14 85.94 66.14 83.07 69.98 83.07 69.98 81.26 66.14 81.26 66.14 78.9 70.13 78.9 70.13 77.1 63.97 77.1 63.97 87.74"/></clipPath><clipPath id="clip-path-15"><path class="cls-1" d="M78.72,80.24c0-2-1.44-3.14-3.94-3.14H71.56V87.74h2.17V83.47H74l3,4.27h2.67l-3.5-4.48a2.87,2.87,0,0,0,2.53-3M74.37,82h-.64V78.78h.67c1.35,0,2.09.54,2.09,1.57S75.75,82,74.37,82"/></clipPath><clipPath id="clip-path-16"><path class="cls-1" d="M53,82.43A5.93,5.93,0,1,1,47,76.77,5.8,5.8,0,0,1,53,82.43"/></clipPath><clipPath id="clip-path-17"><rect class="cls-2" x="-86.93" y="10.32" width="40.5" height="22.5" rx="3.89"/></clipPath><clipPath id="clip-path-18"><path class="cls-2" d="M-77,17.88a6,6,0,0,1-1.73,4.23l2.34,3.22h-2.09l-2.55-3.5.66-.5a4.28,4.28,0,0,0,1.71-3.45ZM-83,25.33h1.7V17.88H-83Zm7,0h1.6V17.88h-1.6ZM-60.29,20a1.86,1.86,0,0,0-1.58.72v-.58h-1.52v5.15h1.54V22.62a1.08,1.08,0,0,1,1.15-1.16c.67,0,1.06.4,1.06,1.15v2.72h1.53V22.05a2,2,0,0,0-2.18-2Zm-9.2.14H-68v5.15h-1.53V25a2.63,2.63,0,0,1-1.52.47,2.7,2.7,0,0,1-2.69-2.71A2.7,2.7,0,0,1-71,20a2.63,2.63,0,0,1,1.52.47v-.33Zm0,2.58a1.35,1.35,0,0,0-1.38-1.33,1.36,1.36,0,0,0-1.39,1.33,1.35,1.35,0,0,0,1.39,1.32A1.35,1.35,0,0,0-69.5,22.76Zm3.9-1.91v-.67h-1.56v5.15h1.57v-2.4a1.41,1.41,0,0,1,1.47-1.25h0v-1.5a1.92,1.92,0,0,0-1.5.67Zm12.23-.67h1.53v5.15h-1.53V25a2.62,2.62,0,0,1-1.51.47,2.7,2.7,0,0,1-2.69-2.72A2.7,2.7,0,0,1-54.88,20a2.62,2.62,0,0,1,1.51.47v-.33Zm0,2.58a1.36,1.36,0,0,0-1.39-1.33,1.35,1.35,0,0,0-1.38,1.33,1.35,1.35,0,0,0,1.38,1.32A1.35,1.35,0,0,0-53.37,22.76Zm3.16.74a1,1,0,0,0-1,1,1,1,0,0,0,1,1,1,1,0,0,0,1-1A1,1,0,0,0-50.21,23.5Z"/></clipPath><clipPath id="clip-path-19"><rect class="cls-2" x="24.75" y="10.32" width="40.5" height="22.5" rx="3.89"/></clipPath><clipPath id="clip-path-20"><rect class="cls-2" x="-272.25" y="-774.68" width="1131" height="1409"/></clipPath><clipPath id="clip-path-21"><path class="cls-2" d="M34.65,17.88a6,6,0,0,1-1.73,4.23l2.34,3.22h-2.1l-2.54-3.5.66-.5A4.28,4.28,0,0,0,33,17.88Zm-5.93,7.45h1.7V17.88h-1.7Zm7,0h1.6V17.88h-1.6ZM51.39,20a1.86,1.86,0,0,0-1.58.72v-.58H48.29v5.15h1.54V22.62A1.08,1.08,0,0,1,51,21.46c.67,0,1.06.4,1.06,1.15v2.72h1.52V22.05a2,2,0,0,0-2.17-2Zm-9.2.14h1.53v5.15H42.19V25a2.72,2.72,0,1,1,0-4.49v-.33Zm0,2.58a1.39,1.39,0,1,0-1.38,1.32A1.35,1.35,0,0,0,42.18,22.76Zm3.9-1.91v-.67H44.51v5.15h1.57v-2.4c0-.82.88-1.25,1.48-1.25h0v-1.5a1.92,1.92,0,0,0-1.5.67Zm12.23-.67h1.53v5.15H58.31V25a2.62,2.62,0,0,1-1.51.47,2.72,2.72,0,0,1,0-5.43,2.62,2.62,0,0,1,1.51.47v-.33Zm0,2.58a1.39,1.39,0,1,0-1.39,1.32A1.36,1.36,0,0,0,58.31,22.76Zm3.15.74a1,1,0,1,0,1,1A1,1,0,0,0,61.46,23.5Z"/></clipPath></defs><title>Payment-Method-Logos</title><rect class="cls-3" x="0.5" y="0.5" width="89" height="42.14" rx="1.78"/><path class="cls-4" d="M87.72,1A1.28,1.28,0,0,1,89,2.28V40.87a1.27,1.27,0,0,1-1.28,1.27H2.28A1.27,1.27,0,0,1,1,40.87V2.28A1.28,1.28,0,0,1,2.28,1H87.72m0-1H2.28A2.28,2.28,0,0,0,0,2.28V40.87a2.28,2.28,0,0,0,2.28,2.27H87.72A2.28,2.28,0,0,0,90,40.87V2.28A2.28,2.28,0,0,0,87.72,0Z"/><g class="cls-23"><g class="cls-24"><rect class="cls-25" x="19.75" y="5.32" width="50.5" height="32.5"/></g></g><g class="cls-26"><g class="cls-24"><rect class="cls-27" x="23.72" y="12.88" width="43.7" height="17.59"/></g></g></svg>
