<svg id="Layer_1" data-name="Layer 1" xmlns="http://www.w3.org/2000/svg" viewBox="0 0 90 43.14"><defs><style>.cls-1,.cls-2,.cls-3{fill:none;}  .cls-1{clip-rule:evenodd;}  .cls-2{fill-rule:evenodd;}  .cls-4{fill:#fff;}  .cls-5{fill:#f2f5f7;}  .cls-6{clip-path:url(#clip-path);}  .cls-7{clip-path:url(#clip-path-2);}  .cls-8{clip-path:url(#clip-path-3);}  .cls-9{clip-path:url(#clip-path-4);}  .cls-10{clip-path:url(#clip-path-5);}  .cls-11{clip-path:url(#clip-path-11);}  .cls-12{clip-path:url(#clip-path-12);}  .cls-13{clip-path:url(#clip-path-13);}  .cls-14{clip-path:url(#clip-path-14);}  .cls-15{clip-path:url(#clip-path-15);}  .cls-16{fill:#6c6bbd;}  .cls-17{fill:#d32011;}  .cls-18{fill:#0099df;}  .cls-19{fill:#110f0d;}  .cls-20{clip-path:url(#clip-path-21);}  .cls-21{clip-path:url(#clip-path-22);}  .cls-22{clip-path:url(#clip-path-23);}  .cls-23{clip-path:url(#clip-path-24);}  .cls-24{clip-path:url(#clip-path-25);}  .cls-25{clip-path:url(#clip-path-26);}  .cls-26{clip-path:url(#clip-path-27);}  .cls-27{clip-path:url(#clip-path-28);}  .cls-28{clip-path:url(#clip-path-29);}  .cls-29{clip-path:url(#clip-path-30);}  .cls-30{clip-path:url(#clip-path-31);}  .cls-31{clip-path:url(#clip-path-32);}  .cls-32{clip-path:url(#clip-path-33);}  .cls-33{clip-path:url(#clip-path-34);}  .cls-34{clip-path:url(#clip-path-35);}  .cls-35{clip-path:url(#clip-path-36);}  .cls-36{clip-path:url(#clip-path-37);}  .cls-37{clip-path:url(#clip-path-38);}  .cls-38{clip-path:url(#clip-path-39);}  .cls-39{clip-path:url(#clip-path-40);}  .cls-40{clip-path:url(#clip-path-41);}  .cls-41{clip-path:url(#clip-path-42);}  .cls-42{clip-path:url(#clip-path-43);}  .cls-43{clip-path:url(#clip-path-44);}  .cls-44{clip-path:url(#clip-path-45);}  .cls-45{clip-path:url(#clip-path-46);}  .cls-46{clip-path:url(#clip-path-47);}  .cls-47{clip-path:url(#clip-path-48);}  .cls-48{clip-path:url(#clip-path-49);}  .cls-49{clip-path:url(#clip-path-50);}  .cls-50{clip-path:url(#clip-path-51);}  .cls-51{clip-path:url(#clip-path-52);}  .cls-52{clip-path:url(#clip-path-53);}  .cls-53{clip-path:url(#clip-path-54);}  .cls-54{clip-path:url(#clip-path-55);}  .cls-55{clip-path:url(#clip-path-56);}  .cls-56{clip-path:url(#clip-path-57);}  .cls-57{clip-path:url(#clip-path-58);}  .cls-58{clip-path:url(#clip-path-59);}  .cls-59{clip-path:url(#clip-path-60);}  .cls-60{clip-path:url(#clip-path-61);}  .cls-61{clip-path:url(#clip-path-62);}  .cls-62{clip-path:url(#clip-path-63);}  .cls-63{clip-path:url(#clip-path-64);}  .cls-64{clip-path:url(#clip-path-65);}  .cls-65{clip-path:url(#clip-path-66);}  .cls-66{clip-path:url(#clip-path-67);}  .cls-67{clip-path:url(#clip-path-68);}  .cls-68{clip-path:url(#clip-path-69);}  .cls-69{clip-path:url(#clip-path-70);}  .cls-70{clip-path:url(#clip-path-71);}  .cls-71{clip-path:url(#clip-path-72);}  .cls-72{clip-path:url(#clip-path-73);}  .cls-73{clip-path:url(#clip-path-74);}  .cls-74{clip-path:url(#clip-path-75);}  .cls-75{clip-path:url(#clip-path-76);}  .cls-76{clip-path:url(#clip-path-77);}  .cls-77{clip-path:url(#clip-path-78);}  .cls-78{clip-path:url(#clip-path-79);}  .cls-79{clip-path:url(#clip-path-80);}  .cls-80{clip-path:url(#clip-path-81);}  .cls-81{clip-path:url(#clip-path-82);}  .cls-82{clip-path:url(#clip-path-83);}  .cls-83{clip-path:url(#clip-path-84);}  .cls-84{clip-path:url(#clip-path-85);}  .cls-85{clip-path:url(#clip-path-86);}  .cls-86{clip-path:url(#clip-path-87);}  .cls-87{clip-path:url(#clip-path-88);}  .cls-88{clip-path:url(#clip-path-89);}  .cls-89{clip-path:url(#clip-path-90);}  .cls-90{clip-path:url(#clip-path-91);}  .cls-91{clip-path:url(#clip-path-92);}  .cls-92{clip-path:url(#clip-path-93);}  .cls-93{clip-path:url(#clip-path-94);}  .cls-94{clip-path:url(#clip-path-95);}  .cls-95{clip-path:url(#clip-path-96);}  .cls-96{clip-path:url(#clip-path-97);}  .cls-97{clip-path:url(#clip-path-98);}</style><clipPath id="clip-path"><path class="cls-1" d="M-56.71-36.09h2.85a1.87,1.87,0,0,0,.34,0,1.23,1.23,0,0,0,1-1.2,1.23,1.23,0,0,0-1-1.2,1.87,1.87,0,0,0-.34,0h-2.85Z"/></clipPath><clipPath id="clip-path-2"><path class="cls-1" d="M-54.19-53.11a4.81,4.81,0,0,0-4.93,4.67v4.84h7l.48,0c1.58.07,2.74.84,2.74,2.17,0,1-.79,1.94-2.24,2.14v.06c1.6.1,2.82.93,2.82,2.25s-1.34,2.33-3.13,2.33h-7.65v9.5h7.23A4.8,4.8,0,0,0-47-29.79V-53.11Z"/></clipPath><clipPath id="clip-path-3"><path class="cls-1" d="M-52.85-41.07a1.14,1.14,0,0,0-1-1.12l-.28,0h-2.59v2.27h2.59l.28,0a1.13,1.13,0,0,0,1-1.11"/></clipPath><clipPath id="clip-path-4"><path class="cls-1" d="M-81.47-53.11a4.81,4.81,0,0,0-4.93,4.67v11.51a10.22,10.22,0,0,0,4.27,1c1.7,0,2.64-1,2.64-2.31V-43.6h4.24v5.41c0,2.12-1.38,3.81-6.09,3.81a22.69,22.69,0,0,1-5.06-.57v9.82h7.23a4.79,4.79,0,0,0,4.93-4.66V-53.11Z"/></clipPath><clipPath id="clip-path-5"><path class="cls-1" d="M-67.83-53.11a4.81,4.81,0,0,0-4.93,4.67v6.1c1.25-1,3.41-1.65,6.92-1.5a23.41,23.41,0,0,1,3.87.56v2a10.2,10.2,0,0,0-3.73-1c-2.67-.19-4.27,1-4.27,3.22s1.6,3.41,4.27,3.22a10.08,10.08,0,0,0,3.73-1v2a24,24,0,0,1-3.87.55c-3.51.15-5.67-.48-6.92-1.49v10.76h7.23a4.8,4.8,0,0,0,4.93-4.66V-53.11Z"/></clipPath><clipPath id="clip-path-11"><path class="cls-1" d="M55-36.09h2.85a1.87,1.87,0,0,0,.34,0,1.23,1.23,0,0,0,1-1.2,1.23,1.23,0,0,0-1-1.2,1.87,1.87,0,0,0-.34,0H55Z"/></clipPath><clipPath id="clip-path-12"><path class="cls-1" d="M57.49-53.11a4.81,4.81,0,0,0-4.93,4.67v4.84h7l.49,0c1.58.07,2.74.84,2.74,2.17a2.27,2.27,0,0,1-2.24,2.14v.06c1.6.1,2.82.93,2.82,2.25S62-34.63,60.2-34.63H52.56v9.5h7.23a4.8,4.8,0,0,0,4.93-4.66V-53.11Z"/></clipPath><clipPath id="clip-path-13"><path class="cls-1" d="M58.83-41.07a1.14,1.14,0,0,0-1-1.12l-.29,0H55v2.27h2.58l.29,0a1.13,1.13,0,0,0,1-1.11"/></clipPath><clipPath id="clip-path-14"><path class="cls-1" d="M30.21-53.11a4.81,4.81,0,0,0-4.93,4.67v11.51a10.17,10.17,0,0,0,4.26,1c1.71,0,2.65-1,2.65-2.31V-43.6h4.24v5.41c0,2.12-1.38,3.81-6.09,3.81a22.69,22.69,0,0,1-5.06-.57v9.82h7.23a4.8,4.8,0,0,0,4.93-4.66V-53.11Z"/></clipPath><clipPath id="clip-path-15"><path class="cls-1" d="M43.85-53.11a4.81,4.81,0,0,0-4.93,4.67v6.1c1.25-1,3.41-1.65,6.92-1.5a23.41,23.41,0,0,1,3.87.56v2a10.2,10.2,0,0,0-3.73-1c-2.67-.19-4.27,1-4.27,3.22s1.6,3.41,4.27,3.22a10.08,10.08,0,0,0,3.73-1v2a24,24,0,0,1-3.87.55c-3.51.15-5.67-.48-6.92-1.49v10.76h7.23a4.8,4.8,0,0,0,4.93-4.66V-53.11Z"/></clipPath><clipPath id="clip-path-21"><path class="cls-3" d="M-87.54,160.05c0,.74.53.81,1,.81,2.07,0,2.76-1.56,2.76-3a2.89,2.89,0,0,0-2.68-3.08h-.33a6.28,6.28,0,0,0-.75,0Zm-.94-4.51c0-.87-.46-.82-.89-.82v-.21h2.77c2.48,0,3.84,1.63,3.84,3.36,0,1-.56,3.35-3.95,3.35H-89.4V161c.58-.06.86-.08.89-.73Z"/></clipPath><clipPath id="clip-path-22"><path class="cls-3" d="M-81.33,155.32a.47.47,0,0,1-.47-.47.47.47,0,0,1,.47-.47h0a.47.47,0,0,1,.46.46A.47.47,0,0,1-81.33,155.32Zm-1,5.62h.19c.27,0,.46,0,.46-.32V158c0-.42-.14-.48-.5-.67v-.15l1-.34a.26.26,0,0,1,.17-.05s.07.05.07.13v3.68c0,.32.21.32.48.32h.16v.25h-2.06Z"/></clipPath><clipPath id="clip-path-23"><path class="cls-3" d="M-79.42,158.07c0-.36-.1-.46-.55-.64v-.18a12.33,12.33,0,0,0,1.26-.46s.06,0,.06.09v.63a2.81,2.81,0,0,1,1.67-.72c.81,0,1.09.59,1.09,1.34v2.45c0,.31.22.31.48.31h.18v.26h-2.06v-.26h.17c.27,0,.47,0,.47-.31v-2.45c0-.56-.33-.82-.89-.82a2.67,2.67,0,0,0-1.11.47v2.84c0,.31.21.31.48.31H-78v.26H-80v-.26h.17c.27,0,.46,0,.46-.31v-2.55"/></clipPath><clipPath id="clip-path-24"><path class="cls-3" d="M-72.8,158.22c.24,0,.27-.13.27-.24a.82.82,0,0,0-.74-.89h-.08c-.57,0-1,.43-1.09,1.13Zm-1.7.3a2.71,2.71,0,0,0,0,.57,1.61,1.61,0,0,0,1.41,1.62,1.85,1.85,0,0,0,1.3-.64l.14.13a2.27,2.27,0,0,1-1.79,1.09,1.93,1.93,0,0,1-1.83-2v-.08a2.14,2.14,0,0,1,1.94-2.44,1.52,1.52,0,0,1,1.63,1.41v.27l-.09,0Z"/></clipPath><clipPath id="clip-path-25"><path class="cls-3" d="M-71.48,160.93h.26c.27,0,.45,0,.45-.32v-2.7c0-.3-.35-.35-.49-.43v-.14c.7-.31,1.08-.55,1.17-.55s.09,0,.09.12v.86h0c.24-.38.64-1,1.23-1a.52.52,0,0,1,.54.5h0a.45.45,0,0,1-.43.48h0c-.3,0-.3-.23-.64-.23a.81.81,0,0,0-.7.81v2.26c0,.31.19.31.46.31H-69v.26H-71.5v-.26"/></clipPath><clipPath id="clip-path-26"><path class="cls-3" d="M-67.79,159.84A1.27,1.27,0,0,0-66.57,161a.66.66,0,0,0,.76-.57.37.37,0,0,0,0-.11c0-1.13-2.09-.77-2.09-2.31a1.32,1.32,0,0,1,1.39-1.24h.1a2.36,2.36,0,0,1,1.1.28l.06,1h-.22a1,1,0,0,0-1-1h0a.68.68,0,0,0-.74.61v0c0,1.13,2.23.82,2.23,2.29,0,.64-.51,1.31-1.62,1.31a2.54,2.54,0,0,1-1.18-.32l-.1-1.11.17-.05"/></clipPath><clipPath id="clip-path-27"><path class="cls-3" d="M-56.35,156.21h-.24a1.83,1.83,0,0,0-2-1.58h0a2.74,2.74,0,0,0-2.71,3.05A3.12,3.12,0,0,0-58.5,161a2,2,0,0,0,1.94-1.62l.22,0-.22,1.4a5.38,5.38,0,0,1-2.12.52,3.42,3.42,0,0,1-3.67-3.16c0-.15,0-.3,0-.46a3.54,3.54,0,0,1,3.64-3.39,7.08,7.08,0,0,1,2.27.52l.1,1.37"/></clipPath><clipPath id="clip-path-28"><path class="cls-3" d="M-56,160.93h.19c.27,0,.46,0,.46-.32v-5.35c0-.63-.14-.64-.51-.75v-.15a6.13,6.13,0,0,0,1-.42.81.81,0,0,1,.21-.1c.06,0,.08,0,.08.13v6.64c0,.32.21.32.48.32h.16v.25H-56v-.25"/></clipPath><clipPath id="clip-path-29"><path class="cls-3" d="M-49.83,160.65c0,.17.1.18.26.18h.39V161a11.1,11.1,0,0,0-1.39.3h0v-.77a2.57,2.57,0,0,1-1.7.82,1,1,0,0,1-1-1v-2.57c0-.26,0-.49-.58-.54v-.18l1.24-.1c.11,0,.11.08.11.29v2.44c0,.29,0,1.12.81,1.12a2.18,2.18,0,0,0,1.18-.59v-2.58c0-.19-.45-.29-.81-.39v-.17c.87-.06,1.41-.14,1.5-.14s.08.07.08.18v3.54"/></clipPath><clipPath id="clip-path-30"><path class="cls-3" d="M-47.95,160.1a1,1,0,0,0,1,1c1,0,1.47-1,1.47-1.86A1.85,1.85,0,0,0-47,157.3a1.52,1.52,0,0,0-.91.47Zm0-2.62a2.42,2.42,0,0,1,1.43-.69,1.87,1.87,0,0,1,1.83,1.9.49.49,0,0,1,0,.12A2.43,2.43,0,0,1-47,161.32a2.75,2.75,0,0,1-1.35-.3l-.28.23-.21-.1a9.38,9.38,0,0,0,.13-1.75v-4.14c0-.63-.13-.64-.5-.75v-.15a6.13,6.13,0,0,0,1-.42.68.68,0,0,1,.21-.1s.08,0,.08.13Z"/></clipPath><clipPath id="clip-path-31"><path class="cls-3" d="M-89.38,166.76h.08c.19,0,.39,0,.39-.29v-2.74c0-.27-.2-.3-.39-.3h-.08v-.16h1.59v.2h0c-.19,0-.4,0-.4.29v2.74c0,.27.21.3.4.3h.07V167h-1.59v-.16"/></clipPath><clipPath id="clip-path-32"><path class="cls-3" d="M-87.8,166.9v-.11h0c-.19,0-.41,0-.41-.32v-2.74c0-.29.22-.32.41-.32h0v-.12h-1.56v.12h0c.19,0,.41,0,.41.32v2.74c0,.28-.22.32-.41.32h0v.11h1.56Zm0,0h-1.59v-.22h.1c.18,0,.36,0,.36-.27v-2.72c0-.26-.18-.27-.36-.28h-.1v-.2h1.59v.22h0c-.19,0-.37,0-.37.27v2.75c0,.25.18.26.37.26h.09V167Z"/></clipPath><clipPath id="clip-path-33"><path class="cls-3" d="M-84.19,165.91h0v-2c0-.43-.29-.49-.45-.49h-.11v-.16h1.37v.2h-.07c-.22,0-.46,0-.46.66v2.37a2.35,2.35,0,0,0,0,.53h-.2l-2.69-3v2.11c0,.46.09.61.49.61h.09v.17H-87.6v-.17h.07c.37,0,.47-.24.47-.66v-2.2a.46.46,0,0,0-.46-.47h-.08v-.16h1.07l2.34,2.64"/></clipPath><clipPath id="clip-path-34"><path class="cls-3" d="M-84.2,165.91m0,0,.11,1.08h.17a4.17,4.17,0,0,1,0-.5v-2.4c0-.62.26-.68.49-.68h.05v-.12h-1.33v.12h.12a.46.46,0,0,1,.48.43.19.19,0,0,1,0,.08v2h0l-2.32-2.63h-1v.11h0a.5.5,0,0,1,.5.48h0v2.21c0,.41-.12.68-.5.68h0v.11h1.35v-.11h-.07c-.41,0-.52-.18-.52-.63v-2.2Zm.19,0h-.2l-2.65-3v2.07c0,.46.07.59.47.59h.1v.2h-1.38v-.22h.1c.35,0,.45-.22.45-.63V163.9a.45.45,0,0,0-.45-.45h-.1v-.2h1.08l2.31,2.58v-1.91a.42.42,0,0,0-.38-.45h-.18v-.21h1.38v.21h-.1c-.22,0-.44,0-.45.64v2.38a4.68,4.68,0,0,0,0,.53h0Z"/></clipPath><clipPath id="clip-path-35"><path class="cls-3" d="M-82.59,163.53c-.39,0-.41.1-.48.48h-.16a1.19,1.19,0,0,1,.06-.45,3.23,3.23,0,0,0,0-.44H-83c0,.16.18.15.32.15H-80c.15,0,.28,0,.29-.16h.12c0,.14,0,.28-.05.42a2.94,2.94,0,0,0,0,.42l-.15.06c0-.19,0-.5-.39-.5h-.84v2.81c0,.4.18.44.43.44h.11v.17h-1.74v-.17h.11c.29,0,.44,0,.44-.44v-2.79h-.88"/></clipPath><clipPath id="clip-path-36"><path class="cls-3" d="M-80.52,166.94h-1.74v-.22h.11c.29,0,.4,0,.41-.41v-2.77h.07v2.81c0,.42-.17.46-.46.46h-.08v.12h1.68v-.12h-.09c-.25,0-.45-.06-.45-.47v-2.83h.88c.35,0,.4.3.41.49h.11v-.4l0-.41h-.08c0,.15-.18.15-.31.15h-2.71c-.13,0-.26,0-.31-.15h-.08a3.09,3.09,0,0,1,0,.43c0,.14,0,.28-.06.42h.11c.07-.37.12-.48.51-.48h0c-.39,0-.39.08-.47.46h-.2c0-.15,0-.29.06-.44a3.23,3.23,0,0,0,0-.44h.2c0,.13.13.13.27.13H-80c.14,0,.25,0,.26-.14h.14a1.24,1.24,0,0,1-.05.43c-.06.13,0,.28,0,.42h0l-.19.06h0c0-.19,0-.48-.37-.48H-81v2.76c0,.39.16.42.41.42h.06v.2h0"/></clipPath><clipPath id="clip-path-37"><path class="cls-3" d="M-79.43,166.76h.08c.18,0,.39,0,.39-.29v-2.74c0-.27-.21-.3-.39-.3h-.08v-.16h2.64v.81h-.16c0-.34-.09-.61-.64-.61h-.72v1.37h.62c.31,0,.38-.18.41-.46h.16v1.21h-.16c0-.31,0-.51-.4-.51h-.63v1.22c0,.33.3.33.63.33.63,0,.91,0,1.06-.63h.15c-.07.28-.13.55-.17.81h-2.8v-.16"/></clipPath><clipPath id="clip-path-38"><path class="cls-3" d="M-76.65,166.9c.05-.27.1-.53.17-.81h-.11c-.15.58-.45.64-1.07.63-.33,0-.66,0-.66-.36v-1.27h.65c.37,0,.4.22.42.52h.12v-1.17h-.13c0,.28-.12.47-.43.47h-.63v-1.44h.75c.54,0,.63.27.66.6h.11a4.34,4.34,0,0,1,0-.51v-.25h-2.59v.12h0c.19,0,.41,0,.41.31v2.75c0,.28-.22.31-.41.31h0v.12H-78Zm0,0h-2.8v-.22h.1c.18,0,.35,0,.36-.27v-2.72c0-.26-.18-.27-.36-.28h-.1v-.2h2.64V164h0l-.18.05h0c0-.34-.08-.58-.62-.59h-.71v1.35h.6c.3,0,.36-.15.39-.44h.21v1.21h-.19c0-.31,0-.49-.38-.49h-.61v1.19c0,.32.27.31.62.32.62,0,.87,0,1-.63h0l.17,0h0c-.07.28-.13.56-.18.82h0Z"/></clipPath><clipPath id="clip-path-39"><path class="cls-3" d="M-75.08,165h.26c.52,0,.81-.2.81-.82a.71.71,0,0,0-.66-.76h-.1a1.5,1.5,0,0,0-.3,0Zm-.67-1.22c0-.38-.21-.39-.37-.39h-.09v-.16h1.63c.66,0,1.24.18,1.24.92a1,1,0,0,1-.67.9l.9,1.35a.58.58,0,0,0,.51.31v.16h-1a14.35,14.35,0,0,1-1.08-1.7H-75v1.12c0,.4.19.42.43.42h.09v.16h-1.65v-.16h.09c.19,0,.37-.09.37-.28Z"/></clipPath><clipPath id="clip-path-40"><path class="cls-3" d="M-74.82,165c.51,0,.81-.19.81-.81a.68.68,0,0,0-.63-.74H-75V165Zm-.26,0h0v-1.59h.3a.73.73,0,0,1,.82.64v.17c0,.63-.31.81-.82.81Zm0,.15h.37a16.35,16.35,0,0,0,1.06,1.68h1v-.11a.61.61,0,0,1-.51-.33l-.91-1.36h0a1,1,0,0,0,.72-.9c0-.72-.56-.9-1.22-.9h-1.63v.12h.06c.17,0,.4,0,.4.41v2.67c0,.2-.19.3-.4.3h-.06v.11h1.61v-.11h-.07c-.24,0-.46,0-.46-.44v-1.14Zm2.44,1.73h-1a13,13,0,0,1-1.09-1.68h-.31v1.1c0,.39.17.39.41.39h.12v.2h-1.66v-.23h.12c.19,0,.35-.08.35-.25v-2.65c0-.36-.19-.36-.35-.37h-.12v-.2h1.63c.66,0,1.26.18,1.26.94a1,1,0,0,1-.71.9l.88,1.31a.54.54,0,0,0,.49.31h0v.23Z"/></clipPath><clipPath id="clip-path-41"><path class="cls-3" d="M-69.12,165.91h0v-2a.43.43,0,0,0-.37-.48h-.2v-.16h1.38v.2h-.09c-.22,0-.46,0-.46.66v2.37a4.68,4.68,0,0,0,0,.53h-.2l-2.69-3v2.11c0,.46.09.61.49.61h.09v.17h-1.39v-.17h.18c.36,0,.48-.24.48-.66v-2.2a.46.46,0,0,0-.48-.43h-.06v-.17h1.06l2.26,2.61"/></clipPath><clipPath id="clip-path-42"><path class="cls-3" d="M-69.12,165.91-69,167h.17a4.17,4.17,0,0,1,0-.5v-2.4c0-.62.26-.68.48-.68h0v-.12h-1.32v.12h.09a.45.45,0,0,1,.48.43v2.07h0l-2.32-2.63h-1.05v.11h.05a.49.49,0,0,1,.5.48h0v2.21c0,.41-.11.68-.49.68h-.06v.11h1.35v-.11h-.07c-.41,0-.51-.18-.51-.63v-2.2Zm.2,0H-69l-2.66-3v2.07c0,.46.09.59.48.59h.11v.2h-1.38v-.22h.1c.34,0,.44-.22.45-.63V163.9a.45.45,0,0,0-.45-.43h-.09v-.21h1.09l2.26,2.58v-1.92a.42.42,0,0,0-.35-.47h-.22v-.2h1.38v.22h-.1c-.21,0-.44,0-.44.64v2.38a4.68,4.68,0,0,0,0,.53h0Z"/></clipPath><clipPath id="clip-path-43"><path class="cls-3" d="M-66.68,163.86h0l-.49,1.48h1Zm-.76,2.32a2.64,2.64,0,0,0-.12.4c0,.16.22.18.39.18h.06v.17h-1.2v-.17h0a.47.47,0,0,0,.46-.33L-67,164a3.75,3.75,0,0,0,.2-.65l.48-.22h0l0,.13,1,2.73c.06.19.13.38.19.54a.33.33,0,0,0,.35.2h0v.16h-1.53v-.16h0c.12,0,.33,0,.33-.14a3.57,3.57,0,0,0,.1-.35l-.21-.6h-1.2Z"/></clipPath><clipPath id="clip-path-44"><path class="cls-3" d="M-66.68,163.86m-.45,1.45h.92l-.47-1.4Zm-.05.05.5-1.53h0l.5,1.53Zm1.06,1.54h1.46v-.11h0a.35.35,0,0,1-.37-.22c-.06-.17-.13-.36-.18-.54l-1-2.74v-.12h0a1.73,1.73,0,0,1-.46.21,5,5,0,0,1-.2.66l-.81,2.39a.51.51,0,0,1-.48.36h0v.11H-67v-.11h0c-.17,0-.41,0-.41-.21a1.91,1.91,0,0,1,.11-.41h0l.17-.56h1.22l.21.62a1.34,1.34,0,0,1,.11.39c0,.15-.23.17-.35.17h0Zm1.48,0h-1.53v-.22h.09c.12,0,.3,0,.3-.12a1.56,1.56,0,0,0-.1-.37l-.2-.59h-1.17l-.16.53a1.42,1.42,0,0,0-.12.4c0,.13.2.15.37.15h.08v.21h-1.19v-.21h0a.42.42,0,0,0,.43-.32L-67,164a5.16,5.16,0,0,0,.2-.67,2.06,2.06,0,0,0,.48-.21,0,0,0,0,1,.05,0,.06.06,0,0,1,.06,0l.05.13,1,2.73a4.76,4.76,0,0,0,.19.53.32.32,0,0,0,.32.2h.06v.2Z"/></clipPath><clipPath id="clip-path-45"><path class="cls-3" d="M-64.42,163.53c-.39,0-.41.1-.48.48H-65c0-.15,0-.29.06-.45a1.62,1.62,0,0,0,0-.44h.14c0,.16.17.15.3.15h2.76c.14,0,.27,0,.28-.16h.12c0,.14,0,.28,0,.42a2.94,2.94,0,0,0,0,.42l-.16.06c0-.19,0-.5-.39-.5h-.9v2.81c0,.4.18.44.43.44h.1v.17H-64.1v-.17h.1c.29,0,.44,0,.44-.44v-2.79h-.81"/></clipPath><clipPath id="clip-path-46"><path class="cls-3" d="M-62.36,166.94H-64.1v-.22H-64c.3,0,.41,0,.42-.41v-2.77h.06v2.81c0,.42-.17.46-.46.46h-.11v.12h1.67v-.12h-.08c-.25,0-.45-.06-.45-.47v-2.83H-62c.35,0,.4.3.41.49h.11a2.67,2.67,0,0,1,0-.4,1.15,1.15,0,0,1,.05-.41h-.08c0,.15-.17.15-.3.15h-2.7c-.13,0-.26,0-.31-.15h-.08v.43c0,.14,0,.28-.06.42h.1c.08-.37.12-.48.52-.48h0c-.39,0-.39.08-.47.46H-65a1.14,1.14,0,0,1,.06-.45,3.23,3.23,0,0,0,0-.44h.17c0,.13.13.13.27.13h2.76c.14,0,.25,0,.26-.14h.15a1,1,0,0,1-.06.43,1.19,1.19,0,0,0,0,.42h0l-.18.07h0c0-.2,0-.48-.37-.48h-.81v2.76c0,.39.16.42.4.42h.13v.2h0"/></clipPath><clipPath id="clip-path-47"><path class="cls-3" d="M-61.23,166.76h.07c.19,0,.39,0,.39-.29v-2.74c0-.27-.2-.3-.39-.3h-.07v-.16h1.63v.2h-.08c-.18,0-.39,0-.39.29v2.74c0,.27.21.3.39.3h.08V167h-1.63v-.16"/></clipPath><clipPath id="clip-path-48"><path class="cls-3" d="M-59.66,166.9v-.11h-.05c-.19,0-.41,0-.41-.32v-2.74c0-.29.22-.32.41-.32h.05v-.12h-1.56v.12h0c.19,0,.41,0,.41.32v2.74c0,.28-.22.32-.41.32h0v.11h1.56Zm0,0h-1.63v-.22h.1c.19,0,.36,0,.36-.27v-2.72c0-.26-.17-.27-.36-.28h-.1v-.2h1.63v.22h-.1c-.19,0-.36,0-.36.27v2.75c0,.25.17.26.36.26h.1v.19Z"/></clipPath><clipPath id="clip-path-49"><path class="cls-3" d="M-57.47,166.77c1,0,1.19-.89,1.19-1.63s-.41-1.67-1.28-1.67-1.19.81-1.19,1.51c0,.94.43,1.83,1.28,1.83m-.08-3.57a1.82,1.82,0,0,1,2,1.65.76.76,0,0,1,0,.15,1.92,1.92,0,0,1-1.84,2h-.14a1.84,1.84,0,0,1-1.95-1.72v-.15a1.9,1.9,0,0,1,1.88-1.93h.05"/></clipPath><clipPath id="clip-path-50"><path class="cls-3" d="M-58.77,164.94c0-.7.27-1.54,1.21-1.54s1.3.94,1.3,1.71-.18,1.69-1.21,1.69v-.08c1,0,1.16-.87,1.16-1.63s-.4-1.62-1.25-1.62-1.16.81-1.16,1.49c0,.93.42,1.8,1.25,1.8v.05c-.87,0-1.3-.91-1.3-1.85m-.74.18a1.93,1.93,0,0,1,1.92-1.95h0A1.89,1.89,0,0,0-59.46,165v.05a1.82,1.82,0,0,0,1.8,1.85h.13a1.9,1.9,0,0,0,2-1.82V165a1.82,1.82,0,0,0-1.84-1.79h-.14a1.87,1.87,0,0,1,2,1.68V165a1.93,1.93,0,0,1-1.86,2h-.14a1.87,1.87,0,0,1-2-1.78.81.81,0,0,1,0-.16"/></clipPath><clipPath id="clip-path-51"><path class="cls-3" d="M-52,165.91h0v-2a.43.43,0,0,0-.37-.48h-.2v-.16h1.37v.2h-.08c-.21,0-.46,0-.46.66v2.37a2.35,2.35,0,0,0,0,.53H-52l-2.69-3v2.11c0,.46.09.61.48.61h.09v.17h-1.38v-.17h.07c.36,0,.48-.24.48-.66v-2.2a.47.47,0,0,0-.47-.47h-.08v-.16h1.07l2.37,2.64"/></clipPath><clipPath id="clip-path-52"><path class="cls-3" d="M-52,165.91m.1,1.08h.17a4.17,4.17,0,0,1,0-.5v-2.4c0-.62.27-.68.49-.68h0v-.12h-1.33v.12h.09a.46.46,0,0,1,.49.43.25.25,0,0,1,0,.08v2h0l-2.33-2.63h-1v.11h0a.51.51,0,0,1,.51.49h0v2.21c0,.41-.13.68-.5.68h-.05v.11H-54v-.11h-.07c-.41,0-.51-.18-.51-.63v-2.2Zm.2,0h-.22l-2.65-3v2.07c0,.46.07.59.46.59H-54v.2H-55.4v-.22h.1c.34,0,.45-.22.45-.63V163.9a.45.45,0,0,0-.45-.45h-.14v-.2h1.08l2.34,2.59v-1.92a.42.42,0,0,0-.36-.47h-.21v-.2h1.37v.22h-.07c-.21,0-.43,0-.44.64v2.38a4.68,4.68,0,0,0,0,.53h0Z"/></clipPath><clipPath id="clip-path-53"><path class="cls-3" d="M-49.58,163.86h0l-.49,1.48h1Zm-.82,2.32a1.82,1.82,0,0,0-.11.4c0,.16.22.18.39.18H-50v.17h-1.2v-.17h0a.46.46,0,0,0,.45-.33L-50,164a5.31,5.31,0,0,0,.19-.65l.48-.22h0v.13l1,2.73c.06.19.13.38.19.54a.33.33,0,0,0,.35.2h0v.16h-1.54v-.16h.06c.11,0,.33,0,.33-.14a2.37,2.37,0,0,0,.19-.35l-.2-.6H-50.2Z"/></clipPath><clipPath id="clip-path-54"><path class="cls-3" d="M-49.58,163.86m-.45,1.45h.91l-.46-1.4Zm-.07.05.51-1.53h0l.5,1.53ZM-49,166.9h1.47v-.11h0a.35.35,0,0,1-.37-.22c-.07-.17-.13-.36-.2-.54l-1-2.74a.2.2,0,0,0,0-.12h0a2.06,2.06,0,0,1-.48.21,3.82,3.82,0,0,1-.19.66l-.82,2.39a.5.5,0,0,1-.48.36h0v.11h1.16v-.11h0c-.17,0-.41,0-.42-.21a2,2,0,0,1,.13-.41h0l.17-.56h1.22l.2.62a1.74,1.74,0,0,1,.11.39c0,.15-.23.17-.34.17h0Zm1.48,0h-1.53v-.22H-49c.13,0,.3,0,.3-.12a1.56,1.56,0,0,0-.1-.37l-.2-.59h-1.18l-.17.53a2.62,2.62,0,0,0-.11.4c0,.13.19.15.36.15H-50v.21H-51.2v-.21h0a.45.45,0,0,0,.44-.32L-50,164a4.62,4.62,0,0,0,.21-.66,2.62,2.62,0,0,0,.48-.22h.05a0,0,0,0,1,0,0l.05.13,1,2.73c.07.19.13.38.2.54a.3.3,0,0,0,.32.19h0v.2Z"/></clipPath><clipPath id="clip-path-55"><path class="cls-3" d="M-46.26,166.41c0,.21.14.27.31.3a4,4,0,0,0,.69,0,.71.71,0,0,0,.5-.28,1.4,1.4,0,0,0,.16-.38h.15c0,.3-.13.59-.19.89H-47.4v-.16h.07c.19,0,.39,0,.39-.35v-2.69c0-.27-.2-.29-.39-.29h-.07v-.16h1.63v.18h-.13c-.2,0-.35,0-.35.27v2.71"/></clipPath><clipPath id="clip-path-56"><path class="cls-3" d="M-44.66,166.9c.06-.28.13-.56.19-.81h-.11a1.17,1.17,0,0,1-.16.36.75.75,0,0,1-.52.3h-.69a.31.31,0,0,1-.34-.31v-2.73c0-.28.18-.3.38-.3h.1v-.12h-1.62v.12h0c.18,0,.41,0,.41.32v2.68c0,.34-.23.38-.41.38h0v.11h2.77Zm0,0h-2.76v-.22h.1c.19,0,.37,0,.38-.32v-2.69c0-.25-.19-.27-.38-.28h-.1v-.2h1.63v.24h-.15c-.21,0-.33,0-.34.26v2.7c0,.19.13.24.3.27h.68a.82.82,0,0,0,.49-.28,1.22,1.22,0,0,0,.16-.37h.2l-.2.89h0Z"/></clipPath><clipPath id="clip-path-57"><path class="cls-3" d="M-44.6,163.68h.06c.08,0,.11-.06.11-.14a.11.11,0,0,0-.11-.12h-.06Zm-.19.29h0c.08,0,.08,0,.08-.05v-.45c0-.06,0-.08-.07-.08h.28c.1,0,.18,0,.18.15a.15.15,0,0,1-.13.16l.09.12a.53.53,0,0,0,.13.13h-.11s-.1-.11-.2-.26h-.06v.19h.08Zm.28.16a.46.46,0,0,0,.44-.45.45.45,0,0,0-.44-.45.45.45,0,0,0-.45.45A.46.46,0,0,0-44.51,164.13Zm0-1a.55.55,0,0,1,.55.54v0a.55.55,0,0,1-.55.55.55.55,0,0,1-.55-.55.55.55,0,0,1,.53-.56Z"/></clipPath><clipPath id="clip-path-58"><path class="cls-3" d="M-77.16,144.81A8.86,8.86,0,0,1-68.28,136a8.86,8.86,0,0,1,8.83,8.88,8.85,8.85,0,0,1-8.86,8.84,8.86,8.86,0,0,1-8.85-8.86v0"/></clipPath><clipPath id="clip-path-59"><path class="cls-3" d="M-68.31,153.83a9.2,9.2,0,0,1-9.24-9.09,9,9,0,0,1,8.85-9.25,2.54,2.54,0,0,1,.39,0h2.38a9.36,9.36,0,0,1,9.6,9.12v.13c0,5-4.58,9.1-9.59,9.1Zm0-17.59a8.4,8.4,0,0,0-8.37,8.43,8.4,8.4,0,0,0,8.42,8.38,8.42,8.42,0,0,0,8.38-8.41,8.42,8.42,0,0,0-8.42-8.4Zm-1.88,13.39v-9.95a5.32,5.32,0,0,0-3,6.88,5.31,5.31,0,0,0,3,3.05Zm7.23-5a5.33,5.33,0,0,0-3.42-5v9.94a5.32,5.32,0,0,0,3.42-5Z"/></clipPath><clipPath id="clip-path-60"><path class="cls-3" d="M24.14,160.05c0,.74.53.81,1,.81,2.07,0,2.76-1.56,2.76-3a2.89,2.89,0,0,0-2.68-3.08h-.33a6.28,6.28,0,0,0-.75,0Zm-.94-4.51c0-.87-.46-.82-.89-.82v-.21h2.77c2.48,0,3.84,1.63,3.84,3.36,0,1-.56,3.35-4,3.35H22.28V161c.58-.06.85-.08.89-.73Z"/></clipPath><clipPath id="clip-path-61"><path class="cls-3" d="M30.35,155.32a.47.47,0,1,1,0-.94h0a.47.47,0,0,1,0,.94Zm-1,5.62h.19c.27,0,.46,0,.46-.32V158c0-.42-.14-.48-.5-.67v-.15l1-.34a.31.31,0,0,1,.18-.05s.07.05.07.13v3.68c0,.32.21.32.48.32h.16v.25H29.31Z"/></clipPath><clipPath id="clip-path-62"><path class="cls-3" d="M32.26,158.07c0-.36-.11-.46-.55-.64v-.18a12.33,12.33,0,0,0,1.26-.46s.05,0,.05.09v.63a2.84,2.84,0,0,1,1.67-.72c.82,0,1.1.59,1.1,1.34v2.45c0,.31.21.31.48.31h.18v.26H34.39v-.26h.17c.27,0,.47,0,.47-.31v-2.45c0-.56-.34-.82-.89-.82a2.71,2.71,0,0,0-1.12.47v2.84c0,.31.22.31.49.31h.17v.26H31.62v-.26h.18c.26,0,.46,0,.46-.31v-2.55"/></clipPath><clipPath id="clip-path-63"><path class="cls-3" d="M38.88,158.22c.24,0,.27-.13.27-.24a.82.82,0,0,0-.74-.89h-.08c-.58,0-1,.43-1.1,1.13Zm-1.7.3a2.72,2.72,0,0,0,0,.57,1.61,1.61,0,0,0,1.41,1.62,1.87,1.87,0,0,0,1.3-.64l.14.13a2.29,2.29,0,0,1-1.79,1.09,1.93,1.93,0,0,1-1.83-2v-.08a2.14,2.14,0,0,1,1.94-2.44A1.51,1.51,0,0,1,40,158.16a.31.31,0,0,1,0,.1v.17l-.09,0Z"/></clipPath><clipPath id="clip-path-64"><path class="cls-3" d="M40.2,160.93h.26c.27,0,.45,0,.45-.32v-2.7c0-.3-.35-.35-.49-.43v-.14c.7-.31,1.08-.55,1.17-.55s.09,0,.09.12v.86h0c.23-.38.64-1,1.23-1a.52.52,0,0,1,.54.5h0a.45.45,0,0,1-.44.48h0c-.31,0-.31-.23-.64-.23a.81.81,0,0,0-.7.81v2.26c0,.31.19.31.46.31h.53v.26H40.18v-.26"/></clipPath><clipPath id="clip-path-65"><path class="cls-3" d="M43.89,159.84A1.27,1.27,0,0,0,45.11,161a.66.66,0,0,0,.76-.57.37.37,0,0,0,0-.11c0-1.13-2.09-.77-2.09-2.31a1.31,1.31,0,0,1,1.39-1.24h.1a2.36,2.36,0,0,1,1.1.28l.06,1h-.22a1,1,0,0,0-1-1h0a.69.69,0,0,0-.75.61v0c0,1.13,2.23.82,2.23,2.29,0,.64-.51,1.31-1.63,1.31a2.53,2.53,0,0,1-1.17-.32l-.1-1.11.17-.05"/></clipPath><clipPath id="clip-path-66"><path class="cls-3" d="M55.33,156.21h-.24a1.83,1.83,0,0,0-2-1.58h0a2.74,2.74,0,0,0-2.72,3.05A3.13,3.13,0,0,0,53.18,161a2,2,0,0,0,1.94-1.62l.22,0-.22,1.4a5.43,5.43,0,0,1-2.13.52,3.42,3.42,0,0,1-3.66-3.16,2.34,2.34,0,0,1,0-.46A3.54,3.54,0,0,1,53,154.36a7.08,7.08,0,0,1,2.27.52l.1,1.37"/></clipPath><clipPath id="clip-path-67"><path class="cls-3" d="M55.67,160.93h.19c.27,0,.46,0,.46-.32v-5.35c0-.63-.14-.64-.51-.75v-.15a6.13,6.13,0,0,0,1-.42.68.68,0,0,1,.21-.1c.05,0,.08,0,.08.13v6.64c0,.32.21.32.48.32h.16v.25H55.67v-.25"/></clipPath><clipPath id="clip-path-68"><path class="cls-3" d="M61.84,160.65c0,.17.11.18.27.18h.38V161a11,11,0,0,0-1.38.3h0v-.77a2.57,2.57,0,0,1-1.7.82,1.06,1.06,0,0,1-1.06-1c0-.05,0-.09,0-.13v-2.44c0-.26,0-.49-.58-.54v-.18L59,157c.11,0,.11.08.11.29v2.44c0,.29,0,1.12.81,1.12a2.18,2.18,0,0,0,1.18-.59v-2.58c0-.19-.46-.29-.81-.39v-.17c.87-.06,1.4-.14,1.49-.14s.09.07.09.18v3.54"/></clipPath><clipPath id="clip-path-69"><path class="cls-3" d="M63.72,160.1a1,1,0,0,0,1,1c1,0,1.46-1,1.46-1.86a1.84,1.84,0,0,0-1.53-1.91,1.55,1.55,0,0,0-.92.47Zm0-2.62a2.47,2.47,0,0,1,1.44-.69,1.87,1.87,0,0,1,1.83,1.9s0,.08,0,.12a2.44,2.44,0,0,1-2.3,2.51,2.74,2.74,0,0,1-1.34-.3l-.28.23-.21-.1A10.31,10.31,0,0,0,63,159.4v-4.14c0-.63-.14-.64-.5-.75v-.15a5.67,5.67,0,0,0,1-.42.88.88,0,0,1,.22-.1s.08,0,.08.13Z"/></clipPath><clipPath id="clip-path-70"><path class="cls-3" d="M22.3,166.76h.08c.18,0,.39,0,.39-.29v-2.74c0-.27-.21-.3-.39-.3H22.3v-.16h1.59v.2h-.06c-.18,0-.39,0-.39.29v2.74c0,.27.21.3.39.3h.08V167H22.32v-.16"/></clipPath><clipPath id="clip-path-71"><path class="cls-3" d="M23.87,166.9v-.11h0c-.18,0-.4,0-.4-.32v-2.74c0-.29.22-.32.4-.32h.05v-.12H22.32v.12h.05c.19,0,.41,0,.41.32v2.74c0,.28-.22.32-.41.32h-.05v.11h1.55Zm0,0H22.29v-.22h.09c.19,0,.37,0,.37-.27v-2.72c0-.26-.18-.27-.37-.28h-.09v-.2h1.58v.22h0c-.18,0-.36,0-.36.27v2.75c0,.25.18.26.36.26h.1V167Z"/></clipPath><clipPath id="clip-path-72"><path class="cls-3" d="M27.49,165.91h0v-2c0-.43-.29-.49-.45-.49h-.11v-.16H28.3v.2h-.07c-.22,0-.46,0-.46.66v2.37a2.35,2.35,0,0,0,0,.53h-.2l-2.69-3v2.11c0,.46.09.61.49.61h.09v.17H24.08v-.17h.07c.37,0,.47-.24.47-.66v-2.2a.46.46,0,0,0-.46-.47h-.08v-.16h1.06l2.35,2.64"/></clipPath><clipPath id="clip-path-73"><path class="cls-3" d="M27.48,165.91m0,0,.11,1.08h.17a2.09,2.09,0,0,1,0-.5v-2.4c0-.62.26-.68.49-.68h.05v-.12H27v.12h.12a.46.46,0,0,1,.48.43.19.19,0,0,1,0,.08v2h0l-2.33-2.63h-1v.11h0a.5.5,0,0,1,.5.48h0v2.21c0,.41-.12.68-.5.68h0v.11h1.35v-.11h-.07c-.42,0-.52-.18-.52-.63v-2.2Zm.19,0h-.2l-2.66-3v2.07c0,.46.08.59.48.59h.1v.2H24.12v-.22h.1c.35,0,.44-.22.44-.63V163.9a.45.45,0,0,0-.44-.45h-.1v-.2H25.2l2.31,2.58v-1.91a.42.42,0,0,0-.38-.45H27v-.21h1.38v.21h-.1c-.22,0-.44,0-.45.64v2.38a4.68,4.68,0,0,0,0,.53h0Z"/></clipPath><clipPath id="clip-path-74"><path class="cls-3" d="M29.09,163.53c-.4,0-.41.1-.49.48h-.15a1.19,1.19,0,0,1,.06-.45,3.23,3.23,0,0,0,0-.44h.12c.05.16.18.15.32.15h2.69c.15,0,.28,0,.29-.16h.12c0,.14,0,.28,0,.42a2.94,2.94,0,0,0,0,.42l-.16.06c0-.19,0-.5-.39-.5h-.84v2.81c0,.4.19.44.44.44h.11v.17H29.42v-.17h.11c.29,0,.43,0,.43-.44v-2.79h-.87"/></clipPath><clipPath id="clip-path-75"><path class="cls-3" d="M31.16,166.94H29.42v-.22h.11c.29,0,.4,0,.41-.41v-2.77H30v2.81c0,.42-.17.46-.45.46h-.08v.12h1.67v-.12h-.08c-.25,0-.45-.06-.45-.47v-2.83h.88c.35,0,.39.3.41.49H32v-.4l.05-.41H32c0,.15-.17.15-.3.15H29c-.12,0-.26,0-.31-.15h-.08a1.55,1.55,0,0,1,0,.43c0,.14,0,.28,0,.42h.11c.07-.37.11-.48.51-.48h0c-.4,0-.39.08-.47.46h-.2c0-.15.05-.29.05-.44a1.62,1.62,0,0,0,0-.44h.21c0,.13.13.13.27.13h2.72c.14,0,.25,0,.26-.14h.14a1.24,1.24,0,0,1,0,.43c-.06.13,0,.28,0,.42h0l-.19.06h0c0-.19,0-.48-.37-.48h-.81v2.76c0,.39.16.42.41.42h.06v.2h0"/></clipPath><clipPath id="clip-path-76"><path class="cls-3" d="M32.25,166.76h.07c.19,0,.4,0,.4-.29v-2.74c0-.27-.21-.3-.4-.3h-.07v-.16h2.64v.81h-.16c0-.34-.09-.61-.64-.61h-.72v1.37H34c.31,0,.38-.18.41-.46h.16v1.21H34.4c0-.31,0-.51-.41-.51h-.62v1.22c0,.33.3.33.63.33.63,0,.91,0,1.06-.63h.15c-.07.28-.13.55-.17.81h-2.8v-.16"/></clipPath><clipPath id="clip-path-77"><path class="cls-3" d="M35,166.9c0-.27.1-.53.17-.81h-.11c-.15.58-.45.64-1.07.63-.33,0-.66,0-.66-.36v-1.27H34c.37,0,.4.22.42.52h.12v-1.17h-.13c0,.28-.12.47-.43.47h-.63v-1.44h.75c.54,0,.63.27.66.6h.11a4.34,4.34,0,0,1,0-.51v-.25H32.29v.12h.05c.19,0,.41,0,.41.31v2.75c0,.28-.22.31-.41.31h-.05v.12h1.37Zm0,0h-2.8v-.22h.09c.19,0,.36,0,.37-.27v-2.72c0-.26-.18-.27-.37-.28h-.09v-.2h2.63V164h0l-.17.05h0c0-.34-.09-.58-.62-.59h-.71v1.35H34c.3,0,.36-.15.39-.44h.21v1.21h-.19c0-.31,0-.49-.38-.49h-.62v1.19c0,.32.28.31.62.32.63,0,.88,0,1-.63h0l.17,0h0c-.07.28-.13.56-.18.82h0Z"/></clipPath><clipPath id="clip-path-78"><path class="cls-3" d="M36.6,165h.26c.52,0,.81-.2.81-.82a.71.71,0,0,0-.66-.76h-.1a1.5,1.5,0,0,0-.3,0Zm-.67-1.22c0-.38-.21-.39-.37-.39h-.09v-.16H37.1c.65,0,1.24.18,1.24.92a1,1,0,0,1-.67.9l.9,1.35a.58.58,0,0,0,.51.31v.16h-1a14.35,14.35,0,0,1-1.08-1.7h-.35v1.12c0,.4.19.42.43.42h.09v.16H35.51v-.16h.09c.19,0,.37-.09.37-.28Z"/></clipPath><clipPath id="clip-path-79"><path class="cls-3" d="M36.86,165c.51,0,.81-.19.81-.81a.69.69,0,0,0-.64-.74h-.37V165Zm-.26,0h0v-1.59h.3a.72.72,0,0,1,.81.64.48.48,0,0,1,0,.17c0,.63-.3.81-.81.81Zm0,.15H37A18.36,18.36,0,0,0,38,166.89h1v-.11a.61.61,0,0,1-.51-.33l-.91-1.36h0a1,1,0,0,0,.72-.9c0-.72-.57-.9-1.22-.9H35.47v.12h.06c.16,0,.4,0,.4.41v2.67c0,.2-.19.3-.4.3h-.06v.11h1.61v-.11H37c-.24,0-.46,0-.46-.44v-1.14ZM39,166.94H38a13,13,0,0,1-1.09-1.68h-.31v1.1c0,.39.17.39.41.39h.11v.2H35.49v-.23h.12c.19,0,.35-.08.35-.25v-2.65c0-.36-.19-.36-.35-.37h-.12v-.2h1.63c.66,0,1.26.18,1.26.94a1,1,0,0,1-.71.9l.87,1.31a.57.57,0,0,0,.5.31h0v.23Z"/></clipPath><clipPath id="clip-path-80"><path class="cls-3" d="M42.56,165.91h0v-2a.43.43,0,0,0-.37-.48H42v-.16h1.37v.2h-.08c-.22,0-.46,0-.46.66v2.37a4.68,4.68,0,0,0,0,.53h-.21l-2.68-3v2.11c0,.46.09.61.49.61h.09v.17H39.12v-.17h.18c.36,0,.47-.24.47-.66v-2.2a.45.45,0,0,0-.47-.43h-.06v-.17H40.3l2.26,2.61"/></clipPath><clipPath id="clip-path-81"><path class="cls-3" d="M42.56,165.91m.1,1.08h.17v-2.9c0-.62.27-.68.49-.68h0v-.12H42v.12h.09a.45.45,0,0,1,.49.43.25.25,0,0,1,0,.08v2h0l-2.32-2.63h-1v.11h.06a.5.5,0,0,1,.5.48h0v2.21c0,.41-.12.68-.49.68h-.06v.11H40.6v-.11h-.07c-.41,0-.51-.18-.51-.63v-2.2Zm.21,0h-.22l-2.66-3v2.07c0,.46.08.59.48.59h.11v.2H39.2v-.22h.1c.34,0,.44-.22.45-.63V163.9a.45.45,0,0,0-.45-.43h-.09v-.21h1.08l2.27,2.58v-1.92a.42.42,0,0,0-.36-.47H42v-.2h1.37v.22h-.09c-.22,0-.44,0-.44.64v2.38a2.35,2.35,0,0,0,0,.53h0Z"/></clipPath><clipPath id="clip-path-82"><path class="cls-3" d="M45,163.86h0l-.49,1.48h1Zm-.77,2.32a2.62,2.62,0,0,0-.11.4c0,.16.22.18.39.18h.06v.17h-1.2v-.17h0a.48.48,0,0,0,.46-.33l.81-2.44a3.75,3.75,0,0,0,.2-.65l.48-.22h0l0,.13,1,2.73c.06.19.13.38.19.54a.32.32,0,0,0,.34.2h0v.16H45.33v-.16h.06c.12,0,.33,0,.33-.14a2,2,0,0,0,.09-.35l-.2-.6h-1.2Z"/></clipPath><clipPath id="clip-path-83"><path class="cls-3" d="M45,163.86m-.45,1.45h.92l-.47-1.4Zm0,.05.5-1.53h0l.5,1.53Zm1.06,1.54H47v-.11h0a.35.35,0,0,1-.37-.22c-.06-.17-.13-.36-.18-.54l-1-2.74v-.12h0a1.65,1.65,0,0,1-.47.21,5,5,0,0,1-.19.66L44,166.43a.49.49,0,0,1-.47.36h0v.11h1.15v-.11h0c-.17,0-.41,0-.42-.21a2.77,2.77,0,0,1,.12-.41h0l.17-.56h1.22l.21.62a1.74,1.74,0,0,1,.11.39c0,.15-.23.17-.35.17h0Zm1.48,0H45.51v-.22h.08c.13,0,.31,0,.31-.12a2.24,2.24,0,0,0-.1-.37l-.21-.59H44.43l-.16.53a1.42,1.42,0,0,0-.12.4c0,.13.2.15.37.15h.08v.21H43.4v-.21h.06a.42.42,0,0,0,.43-.32l.82-2.44a5.16,5.16,0,0,0,.2-.67,2.06,2.06,0,0,0,.48-.21,0,0,0,0,1,0,0,.06.06,0,0,1,.06,0l0,.13,1,2.73a3.35,3.35,0,0,0,.19.53.32.32,0,0,0,.32.2h.06v.2Z"/></clipPath><clipPath id="clip-path-84"><path class="cls-3" d="M47.26,163.53c-.4,0-.41.1-.49.48h-.14c0-.15,0-.29.06-.45a1.62,1.62,0,0,0,0-.44h.13c0,.16.17.15.31.15h2.75c.15,0,.28,0,.29-.16h.12a3,3,0,0,1-.06.42c0,.14,0,.29,0,.42l-.15.06c0-.19,0-.5-.39-.5h-.9v2.81c0,.4.17.44.43.44h.1v.17H47.58v-.17h.1c.29,0,.44,0,.44-.44v-2.79H47.3"/></clipPath><clipPath id="clip-path-85"><path class="cls-3" d="M49.32,166.94H47.58v-.22h.12c.3,0,.41,0,.42-.41v-2.77h.06v2.81c0,.42-.17.46-.46.46h-.11v.12h1.67v-.12H49.2c-.25,0-.46-.06-.46-.47v-2.83h.9c.35,0,.4.3.41.49h.11a2.67,2.67,0,0,1,0-.4,1.15,1.15,0,0,1,.05-.41h-.08c0,.15-.17.15-.3.15H47.12c-.12,0-.26,0-.3-.15h-.09a3.09,3.09,0,0,1,0,.43c0,.14,0,.28,0,.42h.1c.08-.37.12-.48.52-.48h0c-.4,0-.39.08-.48.46h-.19a1.14,1.14,0,0,1,.06-.45,3.23,3.23,0,0,0,0-.44h.17c0,.13.13.13.26.13h2.76c.15,0,.26,0,.27-.14h.15a1,1,0,0,1-.06.43,1.19,1.19,0,0,0,0,.42h0l-.18.07h0c0-.2,0-.48-.37-.48h-.81v2.76c0,.39.16.42.4.42h.12v.2h0"/></clipPath><clipPath id="clip-path-86"><path class="cls-3" d="M50.45,166.76h.07c.19,0,.39,0,.39-.29v-2.74c0-.27-.2-.3-.39-.3h-.07v-.16h1.62v.2H52c-.19,0-.39,0-.39.29v2.74c0,.27.2.3.39.3h.07V167H50.45v-.16"/></clipPath><clipPath id="clip-path-87"><path class="cls-3" d="M52,166.9v-.11H52c-.19,0-.41,0-.41-.32v-2.74c0-.29.22-.32.41-.32H52v-.12H50.45v.12h0c.19,0,.41,0,.41.32v2.74c0,.28-.22.32-.41.32h0v.11H52Zm0,0H50.39v-.22h.1c.18,0,.36,0,.36-.27v-2.72c0-.26-.18-.27-.36-.28h-.1v-.2H52v.22h-.1c-.19,0-.37,0-.37.27v2.75c0,.25.18.26.37.26H52v.19Z"/></clipPath><clipPath id="clip-path-88"><path class="cls-3" d="M54.21,166.77c1,0,1.19-.89,1.19-1.63s-.41-1.67-1.28-1.67-1.19.81-1.19,1.51c0,.94.43,1.83,1.28,1.83m-.08-3.57a1.82,1.82,0,0,1,2,1.65.76.76,0,0,1,0,.15,1.93,1.93,0,0,1-1.84,2h-.14a1.84,1.84,0,0,1-1.95-1.72v-.15a1.9,1.9,0,0,1,1.88-1.93h.05"/></clipPath><clipPath id="clip-path-89"><path class="cls-3" d="M52.9,164.94c0-.7.28-1.54,1.22-1.54s1.3.94,1.3,1.71-.18,1.69-1.21,1.69v-.08c1,0,1.16-.87,1.16-1.63s-.41-1.62-1.25-1.62S53,164.28,53,165c0,.93.43,1.8,1.26,1.8v.05c-.87,0-1.31-.91-1.31-1.85m-.73.18a1.93,1.93,0,0,1,1.92-1.95h0A1.88,1.88,0,0,0,52.22,165v.05a1.82,1.82,0,0,0,1.8,1.85h.13a1.9,1.9,0,0,0,2-1.82.92.92,0,0,0,0-.16,1.81,1.81,0,0,0-1.84-1.79h-.13a1.87,1.87,0,0,1,2,1.68V165a1.94,1.94,0,0,1-1.86,2h-.14a1.88,1.88,0,0,1-2-1.78v-.16"/></clipPath><clipPath id="clip-path-90"><path class="cls-3" d="M59.65,165.91h0v-2a.42.42,0,0,0-.37-.48h-.2v-.16h1.38v.2h-.08c-.21,0-.47,0-.47.66v2.37a4.68,4.68,0,0,0,0,.53h-.19L57,164v2.11c0,.46.09.61.49.61h.09v.17H56.22v-.17h.07c.36,0,.47-.24.47-.66v-2.2a.46.46,0,0,0-.46-.47h-.08v-.16h1.06l2.37,2.64"/></clipPath><clipPath id="clip-path-91"><path class="cls-3" d="M59.65,165.91m.11,1.08h.17a4.17,4.17,0,0,1,0-.5v-2.4c0-.62.27-.68.49-.68h0v-.12H59.14v.12h.09a.44.44,0,0,1,.48.43s0,0,0,.08v2h0l-2.33-2.63h-1v.11h0a.5.5,0,0,1,.5.49h0v2.21c0,.41-.12.68-.49.68H56.3v.11h1.33v-.11h-.06c-.41,0-.51-.18-.51-.63v-2.2Zm.19,0h-.21l-2.65-3v2.07c0,.46.07.59.46.59h.12v.2H56.28v-.22h.1c.34,0,.45-.22.45-.63V163.9a.45.45,0,0,0-.45-.45h-.15v-.2h1.09l2.33,2.59v-1.92a.4.4,0,0,0-.35-.47h-.22v-.2h1.38v.22h-.07c-.22,0-.44,0-.44.64v2.38a2.35,2.35,0,0,0,0,.53h0Z"/></clipPath><clipPath id="clip-path-92"><path class="cls-3" d="M62.1,163.86h0l-.49,1.48h1Zm-.82,2.32a1.82,1.82,0,0,0-.11.4c0,.16.22.18.39.18h.06v.17H60.43v-.17h0a.46.46,0,0,0,.45-.33L61.7,164a5.31,5.31,0,0,0,.19-.65l.47-.22h0a.28.28,0,0,1,0,.13l1,2.73c.06.19.13.38.19.54a.33.33,0,0,0,.35.2h0v.16H62.33v-.16h.06c.11,0,.32,0,.32-.14a1.75,1.75,0,0,0,.2-.35l-.2-.6H61.48Z"/></clipPath><clipPath id="clip-path-93"><path class="cls-3" d="M62.1,163.86m-.45,1.45h.91l-.46-1.4Zm-.07.05.51-1.53h0l.49,1.53Zm1.07,1.54h1.46v-.11h0a.34.34,0,0,1-.36-.22c-.07-.17-.13-.36-.2-.54l-1-2.74a.17.17,0,0,0-.05-.12h0a1.82,1.82,0,0,1-.47.21,3.82,3.82,0,0,1-.19.66l-.82,2.39a.5.5,0,0,1-.48.36h0v.11h1.16v-.11h0c-.17,0-.41,0-.42-.21a2.77,2.77,0,0,1,.12-.41h0l.18-.56h1.22l.2.62a1.74,1.74,0,0,1,.11.39c0,.15-.23.17-.35.17h0Zm1.48,0H62.6v-.22h.08c.12,0,.3,0,.3-.12a1.56,1.56,0,0,0-.1-.37l-.2-.59H61.49l-.16.53a1.82,1.82,0,0,0-.11.4c0,.13.19.15.36.15h.08v.21H60.48v-.21h0a.45.45,0,0,0,.44-.32l.81-2.44a6.37,6.37,0,0,0,.21-.66,2.62,2.62,0,0,0,.48-.22h0a.06.06,0,0,1,.06,0l.05.13,1,2.73c.07.19.13.38.2.54a.3.3,0,0,0,.32.19h0v.2Z"/></clipPath><clipPath id="clip-path-94"><path class="cls-3" d="M65.42,166.41c0,.21.14.27.31.3a4,4,0,0,0,.69,0,.71.71,0,0,0,.5-.28,1.4,1.4,0,0,0,.16-.38h.15c0,.3-.13.59-.19.89H64.28v-.16h.07c.19,0,.39,0,.39-.35v-2.69c0-.27-.2-.29-.39-.29h-.07v-.16h1.63v.18h-.13c-.2,0-.35,0-.35.27v2.71"/></clipPath><clipPath id="clip-path-95"><path class="cls-3" d="M67,166.9c.06-.28.13-.56.19-.81h-.12a1.14,1.14,0,0,1-.15.36.78.78,0,0,1-.52.3h-.69a.3.3,0,0,1-.34-.31v-2.73c0-.28.18-.3.38-.3h.1v-.12H64.25v.12h0c.19,0,.42,0,.42.32v2.68c0,.34-.23.38-.42.38h0v.11H67Zm0,0H64.26v-.22h.1c.19,0,.37,0,.37-.32v-2.69c0-.25-.18-.27-.37-.28h-.1v-.2h1.63v.24h-.16c-.2,0-.32,0-.33.26v2.7c0,.19.13.24.29.27h.69a.82.82,0,0,0,.49-.28,1.22,1.22,0,0,0,.16-.37h.19l-.19.89h0Z"/></clipPath><clipPath id="clip-path-96"><path class="cls-3" d="M67.08,163.68h.06c.08,0,.11-.06.11-.14a.11.11,0,0,0-.11-.12h-.06Zm-.19.29h0c.07,0,.08,0,.08-.05v-.45c0-.06,0-.08-.07-.08h.28c.09,0,.18,0,.18.15a.15.15,0,0,1-.13.16l.09.12a.5.5,0,0,0,.12.13h-.1s-.1-.11-.2-.26h-.06v.19h.08Zm.28.16a.46.46,0,0,0,.44-.45.45.45,0,1,0-.89,0A.46.46,0,0,0,67.17,164.13Zm0-1a.55.55,0,0,1,.55.54v0a.56.56,0,0,1-1.11,0,.56.56,0,0,1,.54-.56Z"/></clipPath><clipPath id="clip-path-97"><path class="cls-3" d="M34.51,144.81a8.86,8.86,0,1,1,8.86,8.89,8.86,8.86,0,0,1-8.86-8.89v0"/></clipPath><clipPath id="clip-path-98"><path class="cls-3" d="M43.37,153.83a9.2,9.2,0,0,1-9.24-9.09A9,9,0,0,1,43,135.49a2.54,2.54,0,0,1,.39,0h2.38a9.35,9.35,0,0,1,9.59,9.12.57.57,0,0,1,0,.13c0,5-4.58,9.1-9.59,9.1Zm0-17.59a8.41,8.41,0,1,0,8.43,8.4,8.41,8.41,0,0,0-8.43-8.4Zm-1.88,13.39v-9.95a5.33,5.33,0,0,0,0,9.93Zm7.23-5a5.33,5.33,0,0,0-3.42-5v9.94a5.32,5.32,0,0,0,3.42-5Z"/></clipPath></defs><title>Payment-Method-Logos</title><rect class="cls-4" x="0.5" y="0.5" width="89" height="42.14" rx="1.78"/><path class="cls-5" d="M87.72,1A1.28,1.28,0,0,1,89,2.28V40.87a1.27,1.27,0,0,1-1.28,1.27H2.28A1.27,1.27,0,0,1,1,40.87V2.28A1.28,1.28,0,0,1,2.28,1H87.72m0-1H2.28A2.28,2.28,0,0,0,0,2.28V40.87a2.27,2.27,0,0,0,2.28,2.27H87.72A2.27,2.27,0,0,0,90,40.87V2.28A2.28,2.28,0,0,0,87.72,0Z"/><path class="cls-16" d="M50.34,28H39.66V9H50.34Z"/><path class="cls-17" d="M40.34,18.47A12,12,0,0,1,45,9a12.22,12.22,0,0,0-19.72,9.48A12.22,12.22,0,0,0,45,28a12,12,0,0,1-4.66-9.51"/><path class="cls-18" d="M64.72,18.47A12.22,12.22,0,0,1,45,28a12,12,0,0,0,2.14-16.82A11.77,11.77,0,0,0,45,9a12.22,12.22,0,0,1,19.72,9.46"/><path class="cls-19" d="M53.94,33.34a1.69,1.69,0,0,1,.5.08l-.21.66a1.12,1.12,0,0,0-.45-.07c-.45,0-.69.28-.69.82v1.79h-.7v-3.2h.7v.39A.94.94,0,0,1,53.94,33.34Zm-2.6.71H50.19V35.5c0,.32.11.54.46.54a1.39,1.39,0,0,0,.63-.18l.2.59a1.63,1.63,0,0,1-.88.25c-.83,0-1.13-.44-1.13-1.19V34.05h-.65v-.63h.65v-1h.72v1h1.15Zm-9,.69a.83.83,0,0,1,.86-.78.78.78,0,0,1,.78.78Zm2.41.28a1.56,1.56,0,0,0-1.42-1.68h-.14a1.67,1.67,0,0,0-1.54,1.81,1.69,1.69,0,0,0,1.59,1.55,2,2,0,0,0,1.33-.45l-.34-.51a1.49,1.49,0,0,1-.94.33.9.9,0,0,1-1-.78h2.4A1.18,1.18,0,0,0,44.74,35Zm3.1-.77a2,2,0,0,0-1-.28c-.39,0-.62.14-.62.38s.25.27.55.31l.34,0c.7.11,1.12.4,1.12,1s-.54,1-1.47,1a2.39,2.39,0,0,1-1.4-.41l.33-.55a1.74,1.74,0,0,0,1.08.34c.48,0,.77-.14.77-.39s-.18-.28-.57-.34l-.41,0c-.72-.1-1.12-.43-1.12-1s.53-1,1.36-1a2.45,2.45,0,0,1,1.32.33ZM56.52,34a1.14,1.14,0,0,0-.41.07,1,1,0,0,0-.32.21.89.89,0,0,0-.21.33,1,1,0,0,0-.08.42,1,1,0,0,0,.08.42.92.92,0,0,0,.53.53,1,1,0,0,0,.41.08.92.92,0,0,0,.4-.08.75.75,0,0,0,.32-.21,1,1,0,0,0,.3-.77,1.16,1.16,0,0,0-.08-.42,1.19,1.19,0,0,0-.22-.33,1,1,0,0,0-.32-.21A1.09,1.09,0,0,0,56.52,34Zm0-.67a1.85,1.85,0,0,1,.69.14,1.71,1.71,0,0,1,.56.35,1.6,1.6,0,0,1,.36.54,1.67,1.67,0,0,1,0,1.34,1.65,1.65,0,0,1-.36.54,1.71,1.71,0,0,1-.56.35,1.86,1.86,0,0,1-1.39,0,1.61,1.61,0,0,1-.92-.89,1.7,1.7,0,0,1-.13-.67,1.54,1.54,0,0,1,.13-.67,1.79,1.79,0,0,1,.37-.54,1.57,1.57,0,0,1,.55-.35,1.86,1.86,0,0,1,.7-.14ZM38.21,35a1,1,0,1,1,1,1,1,1,0,0,1-1-.94Zm2.63,0v-1.6h-.71v.39a1.2,1.2,0,0,0-1-.47,1.68,1.68,0,0,0,0,3.36,1.21,1.21,0,0,0,1-.47v.39h.71Zm-4,1.6v-2a1.21,1.21,0,0,0-1.13-1.27.38.38,0,0,0-.15,0,1.27,1.27,0,0,0-1.14.57,1.17,1.17,0,0,0-1.06-.57,1.08,1.08,0,0,0-1,.47v-.39h-.71v3.2h.71V34.84a.78.78,0,0,1,.71-.84h.07c.47,0,.7.29.7.84v1.78h.72V34.84a.78.78,0,0,1,.7-.84h.08c.48,0,.7.29.7.84v1.78Z"/></svg>
