<svg id="Layer_1" data-name="Layer 1" xmlns="http://www.w3.org/2000/svg" viewBox="0 0 90 43.14"><defs><style>.cls-1,.cls-2,.cls-3{fill:none;}  .cls-2{clip-rule:evenodd;}  .cls-3,.cls-6,.cls-7,.cls-8{fill-rule:evenodd;}  .cls-4{fill:#fff;}  .cls-5{fill:#f2f5f7;}  .cls-6{fill:#ff5f00;}  .cls-7{fill:#eb001b;}  .cls-8{fill:#f79e1b;}  .cls-9{clip-path:url(#clip-path);}  .cls-10{clip-path:url(#clip-path-2);}  .cls-11{clip-path:url(#clip-path-3);}  .cls-12{clip-path:url(#clip-path-4);}  .cls-13{clip-path:url(#clip-path-5);}  .cls-14{clip-path:url(#clip-path-6);}  .cls-15{clip-path:url(#clip-path-7);}  .cls-16{clip-path:url(#clip-path-8);}  .cls-17{clip-path:url(#clip-path-9);}  .cls-18{clip-path:url(#clip-path-15);}  .cls-19{clip-path:url(#clip-path-16);}  .cls-20{clip-path:url(#clip-path-17);}  .cls-21{clip-path:url(#clip-path-18);}  .cls-22{clip-path:url(#clip-path-19);}</style><clipPath id="clip-path"><rect class="cls-1" x="-86.93" y="-375.87" width="40.5" height="22.5" rx="3.89"/></clipPath><clipPath id="clip-path-2"><path class="cls-1" d="M-77-368.31a6,6,0,0,1-1.73,4.23l2.34,3.22h-2.09l-2.55-3.5.66-.5a4.28,4.28,0,0,0,1.71-3.45ZM-83-360.86h1.7v-7.45H-83Zm7,0h1.6v-7.45h-1.6Zm15.64-5.29a1.86,1.86,0,0,0-1.58.72V-366h-1.52v5.15h1.54v-2.71a1.08,1.08,0,0,1,1.15-1.16c.67,0,1.06.4,1.06,1.15v2.72h1.53v-3.28a2,2,0,0,0-2.18-2Zm-9.2.14H-68v5.15h-1.53v-.33a2.63,2.63,0,0,1-1.52.47,2.7,2.7,0,0,1-2.69-2.72A2.7,2.7,0,0,1-71-366.15a2.63,2.63,0,0,1,1.52.47V-366Zm0,2.57a1.35,1.35,0,0,0-1.38-1.32,1.35,1.35,0,0,0-1.39,1.32,1.36,1.36,0,0,0,1.39,1.33A1.35,1.35,0,0,0-69.5-363.44Zm3.9-1.9V-366h-1.56v5.15h1.57v-2.41c0-.81.87-1.24,1.47-1.24h0V-366a1.92,1.92,0,0,0-1.5.67Zm12.23-.67h1.53v5.15h-1.53v-.33a2.62,2.62,0,0,1-1.51.47,2.7,2.7,0,0,1-2.69-2.72,2.7,2.7,0,0,1,2.69-2.71,2.62,2.62,0,0,1,1.51.47V-366Zm0,2.57a1.35,1.35,0,0,0-1.39-1.32,1.35,1.35,0,0,0-1.38,1.32,1.35,1.35,0,0,0,1.38,1.33A1.36,1.36,0,0,0-53.37-363.44Zm3.16.75a1,1,0,0,0-1,1,1,1,0,0,0,1,1,1,1,0,0,0,1-1A1,1,0,0,0-50.21-362.69Z"/></clipPath><clipPath id="clip-path-3"><rect class="cls-1" x="24.75" y="-375.87" width="40.5" height="22.5" rx="3.89"/></clipPath><clipPath id="clip-path-4"><path class="cls-1" d="M34.65-368.31a6,6,0,0,1-1.73,4.23l2.34,3.22h-2.1l-2.54-3.5.66-.5A4.28,4.28,0,0,0,33-368.31Zm-5.93,7.45h1.7v-7.45h-1.7Zm7,0h1.6v-7.45h-1.6Zm15.64-5.29a1.86,1.86,0,0,0-1.58.72V-366H48.29v5.15h1.54v-2.71A1.08,1.08,0,0,1,51-364.73c.67,0,1.06.4,1.06,1.15v2.72h1.52v-3.28a2,2,0,0,0-2.17-2Zm-9.2.14h1.53v5.15H42.19v-.33a2.68,2.68,0,0,1-1.52.47A2.7,2.7,0,0,1,38-363.44a2.7,2.7,0,0,1,2.69-2.71,2.68,2.68,0,0,1,1.52.47V-366Zm0,2.57a1.35,1.35,0,0,0-1.38-1.32,1.35,1.35,0,0,0-1.39,1.32,1.36,1.36,0,0,0,1.39,1.33A1.35,1.35,0,0,0,42.18-363.44Zm3.9-1.9V-366H44.51v5.15h1.57v-2.41c0-.81.88-1.24,1.48-1.24h0V-366a1.92,1.92,0,0,0-1.5.67ZM58.31-366h1.53v5.15H58.31v-.33a2.62,2.62,0,0,1-1.51.47,2.71,2.71,0,0,1-2.7-2.72,2.7,2.7,0,0,1,2.7-2.71,2.62,2.62,0,0,1,1.51.47V-366Zm0,2.57a1.35,1.35,0,0,0-1.39-1.32,1.35,1.35,0,0,0-1.38,1.32,1.35,1.35,0,0,0,1.38,1.33A1.36,1.36,0,0,0,58.31-363.44Zm3.15.75a1,1,0,0,0-1,1,1,1,0,0,0,1,1,1,1,0,0,0,1-1A1,1,0,0,0,61.46-362.69Z"/></clipPath><clipPath id="clip-path-5"><path class="cls-2" d="M-56.71,332.2h2.85a1.87,1.87,0,0,0,.34,0,1.23,1.23,0,0,0,1-1.2,1.23,1.23,0,0,0-1-1.2,1.87,1.87,0,0,0-.34,0h-2.85Z"/></clipPath><clipPath id="clip-path-6"><path class="cls-2" d="M-54.19,315.18a4.81,4.81,0,0,0-4.93,4.67v4.84h7l.48,0c1.58.07,2.74.84,2.74,2.17,0,1.05-.79,1.94-2.24,2.14v.05c1.6.11,2.82.94,2.82,2.26s-1.34,2.33-3.13,2.33h-7.65v9.5h7.23A4.8,4.8,0,0,0-47,338.5V315.18Z"/></clipPath><clipPath id="clip-path-7"><path class="cls-2" d="M-52.85,327.22a1.14,1.14,0,0,0-1-1.12l-.28,0h-2.59v2.27h2.59l.28,0a1.13,1.13,0,0,0,1-1.11"/></clipPath><clipPath id="clip-path-8"><path class="cls-2" d="M-81.47,315.18a4.81,4.81,0,0,0-4.93,4.67v11.51a10.22,10.22,0,0,0,4.27,1.05c1.7,0,2.64-1,2.64-2.31v-5.41h4.24v5.41c0,2.12-1.38,3.81-6.09,3.81a22.32,22.32,0,0,1-5.06-.58v9.83h7.23a4.8,4.8,0,0,0,4.93-4.66V315.18Z"/></clipPath><clipPath id="clip-path-9"><path class="cls-2" d="M-67.83,315.18a4.81,4.81,0,0,0-4.93,4.67V326c1.25-1,3.41-1.65,6.92-1.5A23.41,23.41,0,0,1-62,325v2a10.2,10.2,0,0,0-3.73-1c-2.67-.19-4.27,1-4.27,3.22s1.6,3.41,4.27,3.22a10.08,10.08,0,0,0,3.73-1v2a24,24,0,0,1-3.87.55c-3.51.15-5.67-.48-6.92-1.49v10.76h7.23a4.8,4.8,0,0,0,4.93-4.66V315.18Z"/></clipPath><clipPath id="clip-path-15"><path class="cls-2" d="M55,332.2h2.85a1.87,1.87,0,0,0,.34,0,1.22,1.22,0,0,0,0-2.4,1.87,1.87,0,0,0-.34,0H55Z"/></clipPath><clipPath id="clip-path-16"><path class="cls-2" d="M57.49,315.18a4.81,4.81,0,0,0-4.93,4.67v4.84h7l.49,0c1.58.07,2.74.84,2.74,2.17A2.27,2.27,0,0,1,60.52,329v.05c1.6.11,2.82.94,2.82,2.26s-1.34,2.33-3.14,2.33H52.56v9.5h7.23a4.8,4.8,0,0,0,4.93-4.66V315.18Z"/></clipPath><clipPath id="clip-path-17"><path class="cls-2" d="M58.83,327.22a1.14,1.14,0,0,0-1-1.12l-.29,0H55v2.27h2.58l.29,0a1.13,1.13,0,0,0,1-1.11"/></clipPath><clipPath id="clip-path-18"><path class="cls-2" d="M30.21,315.18a4.81,4.81,0,0,0-4.93,4.67v11.51a10.17,10.17,0,0,0,4.26,1.05c1.71,0,2.65-1,2.65-2.31v-5.41h4.24v5.41c0,2.12-1.38,3.81-6.09,3.81a22.32,22.32,0,0,1-5.06-.58v9.83h7.23a4.8,4.8,0,0,0,4.93-4.66V315.18Z"/></clipPath><clipPath id="clip-path-19"><path class="cls-2" d="M43.85,315.18a4.81,4.81,0,0,0-4.93,4.67V326c1.25-1,3.41-1.65,6.92-1.5a23.41,23.41,0,0,1,3.87.56v2A10.2,10.2,0,0,0,46,326c-2.67-.19-4.27,1-4.27,3.22s1.6,3.41,4.27,3.22a10.08,10.08,0,0,0,3.73-1v2a24,24,0,0,1-3.87.55c-3.51.15-5.67-.48-6.92-1.49v10.76h7.23a4.8,4.8,0,0,0,4.93-4.66V315.18Z"/></clipPath></defs><title>Payment-Method-Logos</title><rect class="cls-4" x="0.5" y="0.5" width="89" height="42.14" rx="1.78"/><path class="cls-5" d="M87.72,1A1.28,1.28,0,0,1,89,2.28V40.87a1.27,1.27,0,0,1-1.28,1.27H2.28A1.27,1.27,0,0,1,1,40.87V2.28A1.28,1.28,0,0,1,2.28,1H87.72m0-1H2.28A2.28,2.28,0,0,0,0,2.28V40.87a2.28,2.28,0,0,0,2.28,2.27H87.72A2.28,2.28,0,0,0,90,40.87V2.28A2.28,2.28,0,0,0,87.72,0Z"/><path class="cls-6" d="M38.51,33.12h13V10h-13Z"/><path class="cls-7" d="M39.33,21.57A14.63,14.63,0,0,1,45,10,14.86,14.86,0,0,0,21,21.57,14.86,14.86,0,0,0,45,33.12a14.61,14.61,0,0,1-5.67-11.55"/><path class="cls-8" d="M69,21.57A14.86,14.86,0,0,1,45,33.12,14.6,14.6,0,0,0,45,10,14.86,14.86,0,0,1,69,21.57"/><path class="cls-8" d="M68.54,30.86V30.1h-.16l-.17.52L68,30.1h-.15v.76H68v-.57l.17.49h.11l.16-.49v.57Zm-1,0v-.63h.2V30.1h-.49v.13h.19v.63Z"/></svg>
