<?xml version="1.0" encoding="utf-8"?>
<!-- Generator: Adobe Illustrator 27.7.0, SVG Export Plug-In . SVG Version: 6.00 Build 0)  -->
<svg version="1.1" id="Layer_1" xmlns="http://www.w3.org/2000/svg" xmlns:xlink="http://www.w3.org/1999/xlink" x="0px" y="0px"
	 viewBox="0 0 90 43.0999985" style="enable-background:new 0 0 90 43.0999985;" xml:space="preserve">
<style type="text/css">
	.st0{fill:#FFFFFF;}
	.st1{fill:#F2F5F7;}
	.st2{fill:#FF0000;}
</style>
<path class="st0" d="M2.3,0.5h85.4000015c1,0,1.8000031,0.8,1.8000031,1.8v38.5999985c0,1-0.8000031,1.7999992-1.8000031,1.7999992
	H2.3c-1,0-1.8-0.7999992-1.8-1.7999992V2.3C0.5,1.3,1.3,0.5,2.3,0.5z"/>
<path class="st1" d="M87.6999969,1C88.4000015,1,89,1.6,89,2.3v38.5999985c0,0.7000008-0.5999985,1.2999992-1.3000031,1.2999992l0,0
	H2.3c-0.7,0-1.3-0.5999985-1.3-1.2999992l0,0V2.3C1,1.6,1.6,1,2.3,1H87.6999969 M87.6999969,0H2.3C1,0,0,1,0,2.3v38.5999985
	c0,1.2999992,1,2.2999992,2.3,2.2999992h85.4000015c1.3000031,0,2.3000031-1,2.3000031-2.2999992V2.3C90,1,89,0,87.6999969,0z"/>
<g>
	<path d="M25.5350304,18.713028c-0.1190186,0.1262398-0.0856171,0.2823582-0.1011333,0.418005
		c-0.0742092,0.6487255-0.1822815,1.2929249-0.2339745,1.9450779c-0.0394897,0.4981861-0.1369209,0.9915543-0.1999016,1.4881668
		c-0.1001205,0.7894745-0.1946507,1.5796719-0.288269,2.3699512c-0.0469666,0.3964787-0.0694199,0.7966442-0.133913,1.190073
		c-0.0883083,0.5387115-0.5895424,0.8169785-1.2043629,0.6634884c-0.3126011-0.0780392-0.5741959-0.544775-0.4797382-0.9895077
		c0.1732197-0.8155537,0.2260895-1.6563396,0.3363171-2.4856529c0.091404-0.6877003,0.1988792-1.3732796,0.2887154-2.0611706
		c0.09515-0.7285938,0.1739769-1.4593067,0.2671795-2.1881676c0.0853844-0.6677246,0.1803112-1.3342342,0.2713852-2.0012302
		c0.0110321-0.0808048,0.0306129-0.1609383,0.0353622-0.2420216c0.0209312-0.357275,0.2905464-0.6588554,0.6408195-0.7114887
		c0.7066002-0.1061745,1.2876873,0.1564236,1.626255,0.7668247c0.7032089,1.2678127,1.2284355,2.6154728,1.749958,3.9640179
		c0.3454285,0.8932056,0.6853466,1.788538,1.0307407,2.681757c0.0210361,0.0544052,0.0685883,0.0985661,0.1277943,0.1808281
		c0.1791573-0.4676476,0.3491039-0.9040337,0.5137806-1.3423996c0.5820904-1.5495148,1.189991-3.0889664,1.8707981-4.5977707
		c0.1807098-0.4004936,0.3927536-0.7900028,0.6592178-1.149765c0.3743935-0.505476,1.3266449-0.7026634,1.8221664-0.3310986
		c0.3015251,0.2260971,0.3033409,0.594429,0.3335724,0.9202938c0.0499992,0.5389824,0.1482162,1.0701199,0.2115822,1.6064014
		c0.0765457,0.6478405,0.1500015,1.2960701,0.2310753,1.9433441c0.0596313,0.4760742,0.1306419,0.950716,0.194252,1.4263039
		c0.0796547,0.59552,0.1567383,1.1913834,0.2352791,1.7870502c0.0746727,0.566349,0.1603508,1.1314926,0.221817,1.6992626
		c0.0647736,0.5983353,0.0839996,0.808239-0.2938881,1.0375538c-0.2841377,0.1724262-0.6022568,0.1390076-0.8823891,0.0354805
		c-0.2948837-0.1089764-0.4262009-0.3525887-0.4806061-0.6998463c-0.1173096-0.7487507-0.1366844-1.5062523-0.263607-2.2539139
		c-0.1280441-0.7542629-0.1843452-1.520546-0.2779503-2.2808399c-0.0860863-0.6992588-0.1633072-1.4003448-0.2796097-2.0947418
		c-0.0399399-0.2384434,0.0462189-0.4967899-0.1254234-0.7582645c-0.2050629,0.4559383-0.4119186,0.8790703-0.5876732,1.3147354
		c-0.3102646,0.7690773-0.6122684,1.5418777-0.897831,2.3204079c-0.2889233,0.787693-0.5517235,1.5849285-0.8299274,2.3765907
		c-0.1380615,0.392868-0.2693348,0.7892704-0.432024,1.1720409c-0.1900806,0.4472141-0.5432301,0.6673851-1.0370464,0.6526279
		c-0.3662167-0.0109425-0.793541-0.3153419-0.9286346-0.6939869c-0.336729-0.9438019-0.6615677-1.8918304-0.9958076-2.8365269
		c-0.4590816-1.297554-0.9020386-2.6016216-1.5237827-3.8348312C25.6594219,18.9888172,25.6653004,18.8221664,25.5350304,18.713028z
		"/>
	<path d="M36.3949623,21.4191818c0-1.4404869,0.0135651-2.8811665-0.0069122-4.3213634
		c-0.0078049-0.5488396,0.3213539-1.0190163,0.9877129-1.0003567c1.2652702,0.0354347,2.5326767-0.0100136,3.7983627,0.0170517
		c0.9440804,0.0201893,1.7652016,0.3709679,2.3880653,1.1045399c0.7315102,0.8615303,1.07798,2.3979511,0.1016312,3.5513897
		c-0.2027206,0.2394905-0.0866814,0.327774,0.0885124,0.4388962c0.6235504,0.3955059,1.0466995,0.9427357,1.2652359,1.6478653
		c0.2375259,0.7663918,0.1765671,1.5063419-0.2000351,2.2169533c-0.4941788,0.9324684-1.2892456,1.4651031-2.2980461,1.6957321
		c-0.2067604,0.0472698-0.4298134,0.030695-0.6453743,0.0309753c-1.523632,0.0019798-3.0472755,0.0037575-4.5708961-0.0010967
		c-0.6014175-0.001915-0.9061203-0.3183117-0.9075317-0.9356556C36.392292,24.3824768,36.3945847,22.9008255,36.3949623,21.4191818z
		 M37.9996834,21.4202385c0,1.1530704,0.0087547,2.3062572-0.0065918,3.4591236
		c-0.0035248,0.2646141,0.0787964,0.321413,0.3278313,0.3158894c0.7412987-0.0164356,1.4833221,0.0023727,2.2248268-0.0084343
		c0.6158295-0.0089722,1.235878,0.0633736,1.8467827-0.0590611c0.8570404-0.1717606,1.3019333-0.9107647,1.2109909-1.6504803
		c-0.1087952-0.8848896-0.8340302-1.3403053-1.6555557-1.3738155c-0.6890221-0.0281029-1.380188,0.0008583-2.0702095-0.0089703
		c-0.4107323-0.0058479-0.7666626-0.3938637-0.7621727-0.8026733c0.0041084-0.3741856,0.3489037-0.7142982,0.7437935-0.740221
		c0.6128082-0.0402317,1.2324142,0.0552006,1.8391838-0.1162758c0.8161812-0.2306576,1.2573547-1.0472851,0.9124641-1.8765469
		c-0.2722855-0.6546803-0.8412323-0.8906555-1.5042038-0.9037704c-0.9267235-0.0183334-1.8543472,0.0079117-2.7809944-0.0121956
		c-0.2862434-0.0062103-0.3355103,0.0890198-0.332325,0.3491802C38.0074959,19.1345921,37.9995384,20.2774639,37.9996834,21.4202385
		z"/>
	<path class="st2" d="M34.1444168,32.5397301c-3.3676701,0-6.7354393-0.0139885-10.1029339,0.0102348
		c-0.8010349,0.005764-1.493576-0.7461033-1.6893291-1.388979c-0.1802464-0.5919533-0.0635376-1.1555862,0.0269794-1.7249317
		c0.0640335-0.4027748,0.5510349-0.7145405,0.9061451-0.6323509c0.5048237,0.1168385,0.821558,0.5306664,0.7299328,1.0141621
		c-0.0290165,0.1531296-0.0460758,0.3029442-0.0457687,0.4571018c0.0008621,0.4344807,0.1564274,0.6039639,0.5911179,0.6384697
		c0.0614338,0.0048771,0.1235123,0.0021,0.1852913,0.0021076c6.2410469,0.0008297,12.4820919,0.0017929,18.7231388,0.0010281
		c0.143261-0.0000172,0.2891769-0.0059109,0.4292183-0.032999c0.270977-0.0524235,0.4107513-0.2040749,0.419548-0.5044823
		c0.0095215-0.3253803-0.1163979-0.6458263-0.0135765-0.9736443c0.1008224-0.3214493,0.4062843-0.5847607,0.7467308-0.6191196
		c0.3039589-0.0306778,0.6882095,0.1866436,0.7899971,0.511446c0.2885017,0.9206123,0.3296738,1.8286438-0.3232498,2.6316833
		c-0.3043365,0.3743076-0.6970062,0.6108227-1.2085114,0.6103191c-3.3882408-0.0033493-6.7764854-0.0017319-10.1647301-0.0017319
		C34.1444168,32.5386047,34.1444168,32.5391693,34.1444168,32.5397301z"/>
	<path class="st2" d="M34.2016716,10.5538321c2.3576241,0,4.7153053,0.0102329,7.0728455-0.003768
		c1.4567795-0.0086498,2.1919823,0.8429308,2.4086685,2.1530819c0.0572472,0.3461428,0.1816597,0.6899862,0.0676575,1.0520964
		c-0.1151505,0.3657351-0.4900551,0.6507158-0.8415871,0.620554c-0.3736343-0.0320597-0.7355614-0.4079866-0.7694702-0.7867393
		c-0.030056-0.335701-0.0917206-0.665123-0.2481689-0.9695816c-0.1184311-0.2304716-0.3002357-0.3432932-0.5653687-0.3431673
		c-4.7564163,0.0022516-9.5128365,0.0013981-14.2692547,0.0019951c-0.3429527,0.0000429-0.5617561,0.2207937-0.6887836,0.5410213
		c-0.1412487,0.3560772-0.0457172,0.7536716-0.2538357,1.0945663c-0.1908741,0.3126497-0.5729904,0.5338516-0.8648262,0.4508753
		c-0.4166317-0.1184578-0.7886906-0.5538836-0.7121143-0.9234076c0.1123161-0.5419979,0.1462574-1.0971851,0.3954964-1.6181374
		c0.413208-0.8636713,1.0919571-1.2611771,2.0105953-1.2658796C29.3628502,10.5449572,31.7822838,10.553154,34.2016716,10.5538321z"
		/>
	<path d="M53.1622086,20.4270248c-0.1365166,0.5350399-0.2650986,1.0354137-0.3917923,1.5362682
		c-0.2067528,0.8173866-0.4252357,1.6322937-0.7078056,2.4264202c-0.130127,0.3656864-0.4429054,0.4485035-0.8204842,0.4354382
		c-0.3245239-0.0112305-0.4553642-0.2185612-0.5537872-0.445219c-0.2148209-0.4947224-0.312294-1.028429-0.445076-1.5490398
		c-0.1832542-0.7185383-0.3500786-1.4414997-0.5106316-2.1655178c-0.1629066-0.7346554-0.3165092-1.471571-0.4592438-2.2103806
		c-0.0429077-0.2220917,0.1713333-0.4296608,0.4341278-0.4645576c0.2242317-0.0297794,0.4844704,0.1519032,0.5275688,0.3710556
		c0.2096481,1.0659962,0.4061852,2.1347656,0.6322517,3.1972637c0.1349411,0.6342125,0.3157501,1.2586765,0.5332642,1.8939629
		c0.1488953-0.5655098,0.3021927-1.1299057,0.4456596-1.6967869c0.2167168-0.8563328,0.4243317-1.7149677,0.6412201-2.5712566
		c0.0446548-0.1762924,0.0738106-0.3542843,0.1469231-0.5274525c0.1427116-0.3380413,0.343811-0.5307083,0.6041222-0.5089989
		c0.2750092,0.0229359,0.5211067,0.303751,0.5858307,0.6148739c0.1654091,0.7951527,0.341362,1.5882397,0.5237389,2.3797035
		c0.1456985,0.6322899,0.3108368,1.2600937,0.4582062,1.8920212c0.0286369,0.1228065,0.0766716,0.228508,0.1708755,0.380003
		c0.0956383-0.3875904,0.186264-0.7318268,0.2650337-1.0787525c0.1800156-0.7928085,0.3548508-1.5867958,0.5305672-2.3805733
		c0.1140175-0.5150414,0.2291107-1.0298805,0.3373451-1.5461445c0.0554047-0.2643032,0.3027153-0.4596004,0.5426712-0.413702
		c0.3429527,0.0655994,0.4576263,0.2342415,0.3954659,0.5805569c-0.1866951,1.0402222-0.4387321,2.0661011-0.6725693,3.0961628
		c-0.2043533,0.900177-0.4051895,1.8003006-0.7036667,2.6753597c-0.121666,0.3566856-0.319725,0.474556-0.7906609,0.4682827
		c-0.3608932-0.0048103-0.5293198-0.1405525-0.6445541-0.4921761c-0.4049683-1.2357388-0.7083702-2.4976292-0.9839211-3.7670116
		C53.2452278,20.521534,53.2090225,20.4924278,53.1622086,20.4270248z"/>
	<path d="M62.5193291,24.8160839c-0.2608833,0.0571766-0.3813362-0.1467514-0.4564247-0.3428116
		c-0.1696854-0.4430771-0.3113823-0.8973389-0.4511909-1.3511353c-0.0592232-0.1922283-0.1439743-0.2821865-0.3668747-0.2766151
		c-0.6785927,0.0169621-1.3597755,0.0367527-2.0361214-0.0056171c-0.3655319-0.0228977-0.4794922,0.1504688-0.5583992,0.4336262
		c-0.1059799,0.3802586-0.2092514,0.7613697-0.3224792,1.1394844c-0.0978088,0.3266048-0.3798485,0.4796009-0.7127304,0.3996258
		c-0.2214737-0.0532093-0.3357048-0.3566418-0.2432098-0.6355152c0.3848648-1.1603985,0.746376-2.3291512,1.160038-3.4791794
		c0.287056-0.7980652,0.5764465-1.5992012,0.9793091-2.351429c0.1439095-0.2687149,0.3953819-0.369772,0.6603355-0.3613663
		c0.2699966,0.008564,0.5541916,0.087019,0.6762123,0.383482c0.5234375,1.2717724,0.9879951,2.5657196,1.4427986,3.8631763
		c0.2372818,0.6769123,0.4684868,1.3559532,0.7062874,2.0326805C63.0950241,24.5437832,62.8736229,24.8152905,62.5193291,24.8160839
		z M60.1622429,19.1259651c-0.4077263,0.9708691-0.7239227,1.893137-1.0273323,2.8522644
		c0.6266365,0,1.2227554-0.0089455,1.8183937,0.0039806c0.2752914,0.0059738,0.2499275-0.1209316,0.1829605-0.3048115
		c-0.1762238-0.4838543-0.340435-0.9721622-0.5220642-1.4539356C60.4826508,19.8745308,60.3308907,19.5332088,60.1622429,19.1259651
		z"/>
	<path d="M64.8766251,23.1849804c0.1653442-0.6286602-0.1776352-1.2449265-0.5825043-1.8863506
		c-0.524662-0.8312092-0.9584122-1.7213955-1.2895699-2.6540432c-0.1073341-0.3023014-0.0391083-0.4865112,0.2221222-0.5948906
		c0.2584801-0.1072388,0.5210152-0.0160904,0.645607,0.2450333c0.1965752,0.4119759,0.3721504,0.8339901,0.570118,1.2452679
		c0.2443008,0.5075741,0.5009384,1.0092583,0.7554626,1.5118637c0.0801926,0.1583614,0.1454163,0.2407894,0.272728,0.0097237
		c0.3459854-0.6279964,0.637146-1.2824631,0.9626236-1.9200802c0.1504822-0.2948074,0.2386017-0.6177998,0.4192047-0.8991699
		c0.1585464-0.2470226,0.4033508-0.3079357,0.6859741-0.15341c0.2418976,0.1322517,0.2353821,0.3493252,0.1506882,0.5589485
		c-0.3980331,0.9851875-0.8549194,1.942667-1.3891525,2.862215c-0.0154419,0.0265808-0.0290985,0.0560608-0.0505981,0.076992
		c-0.4581757,0.4459305-0.4605865,1.0108414-0.4323883,1.5916176c0.0184326,0.3797169,0.0097427,0.7612514,0.0004654,1.1416588
		c-0.0081711,0.3352413-0.1763992,0.4973602-0.48629,0.4941254c-0.2983017-0.0031128-0.442337-0.1490097-0.4523697-0.4862785
		C64.8689728,23.9993668,64.8766251,23.6700134,64.8766251,23.1849804z"/>
</g>
</svg>
