<svg id="Layer_1" data-name="Layer 1" xmlns="http://www.w3.org/2000/svg" xmlns:xlink="http://www.w3.org/1999/xlink" viewBox="0 0 90 43.14"><defs><style>.cls-1,.cls-2{fill:none;}.cls-1{clip-rule:evenodd;}.cls-3{fill:#fff;}.cls-4{fill:#f2f5f7;}.cls-5{fill:#5a78ff;}.cls-6,.cls-7,.cls-9{opacity:0.7;}.cls-6,.cls-7,.cls-8,.cls-9{isolation:isolate;}.cls-6{fill:url(#linear-gradient);}.cls-7{fill:url(#linear-gradient-2);}.cls-8{opacity:0.9;fill:url(#linear-gradient-3);}.cls-9{fill:url(#linear-gradient-4);}.cls-10{clip-path:url(#clip-path);}.cls-11{clip-path:url(#clip-path-2);}.cls-12{clip-path:url(#clip-path-3);}.cls-13{clip-path:url(#clip-path-4);}.cls-14{clip-path:url(#clip-path-5);}.cls-15{clip-path:url(#clip-path-6);}.cls-16{clip-path:url(#clip-path-7);}.cls-17{clip-path:url(#clip-path-8);}.cls-18{clip-path:url(#clip-path-9);}.cls-19{clip-path:url(#clip-path-10);}.cls-20{clip-path:url(#clip-path-11);}.cls-21{clip-path:url(#clip-path-12);}.cls-22{clip-path:url(#clip-path-13);}.cls-23{clip-path:url(#clip-path-14);}.cls-24{clip-path:url(#clip-path-15);}.cls-25{clip-path:url(#clip-path-16);}.cls-26{clip-path:url(#clip-path-17);}.cls-27{clip-path:url(#clip-path-18);}.cls-28{clip-path:url(#clip-path-19);}.cls-29{clip-path:url(#clip-path-20);}</style><linearGradient id="linear-gradient" x1="-89.86" y1="-56.12" x2="-89.86" y2="-56.11" gradientTransform="matrix(1.54, -0.64, -4.25, -10.27, -78.14, -617.84)" gradientUnits="userSpaceOnUse"><stop offset="0" stop-color="#504678"/><stop offset="0.3" stop-color="#504678" stop-opacity="0.62"/><stop offset="0.61" stop-color="#504678" stop-opacity="0.28"/><stop offset="0.85" stop-color="#504678" stop-opacity="0.08"/><stop offset="1" stop-color="#504678" stop-opacity="0"/></linearGradient><linearGradient id="linear-gradient-2" x1="-190.44" y1="-27.48" x2="-190.44" y2="-27.47" gradientTransform="matrix(-1.55, 0.64, 4.81, 11.62, -137.49, 464.27)" xlink:href="#linear-gradient"/><linearGradient id="linear-gradient-3" x1="-133.63" y1="-47.63" x2="-133.44" y2="-47.52" gradientTransform="matrix(21.18, 0, 0, -18.04, 2851.07, -838.17)" gradientUnits="userSpaceOnUse"><stop offset="0" stop-color="#504678"/><stop offset="0.18" stop-color="#504678" stop-opacity="0.87"/><stop offset="0.53" stop-color="#504678" stop-opacity="0.54"/><stop offset="1" stop-color="#504678" stop-opacity="0"/></linearGradient><linearGradient id="linear-gradient-4" x1="-133.48" y1="-47.49" x2="-133.49" y2="-47.42" gradientTransform="matrix(21.18, 0, 0, -18.04, 2851.07, -838.17)" gradientUnits="userSpaceOnUse"><stop offset="0" stop-color="#504678"/><stop offset="0.64" stop-color="#504678" stop-opacity="0.33"/><stop offset="1" stop-color="#504678" stop-opacity="0"/></linearGradient><clipPath id="clip-path"><path class="cls-1" d="M-98.18,263.14h-3.19v10.64h3.17a5.93,5.93,0,0,0,4-1.23,5.24,5.24,0,0,0,2-4.08c0-3.14-2.45-5.33-6-5.33m2.54,8a4.25,4.25,0,0,1-3,.85h-.59v-7h.59a4.16,4.16,0,0,1,3,.86,3.52,3.52,0,0,1,1.2,2.65,3.56,3.56,0,0,1-1.2,2.68"/></clipPath><clipPath id="clip-path-2"><rect class="cls-2" x="-91.21" y="263.14" width="2.17" height="10.64"/></clipPath><clipPath id="clip-path-3"><path class="cls-1" d="M-83.73,267.22c-1.3-.46-1.69-.76-1.69-1.34s.68-1.18,1.62-1.18a2.29,2.29,0,0,1,1.75.87l1.14-1.43A5,5,0,0,0-84.18,263,3.21,3.21,0,0,0-87.65,266c0,1.47.7,2.22,2.73,2.92a8.57,8.57,0,0,1,1.5.61,1.24,1.24,0,0,1,.65,1.1,1.55,1.55,0,0,1-1.68,1.5,2.57,2.57,0,0,1-2.37-1.42l-1.4,1.29a4.36,4.36,0,0,0,3.85,2,3.52,3.52,0,0,0,3.84-3.5c0-1.69-.73-2.45-3.2-3.32"/></clipPath><clipPath id="clip-path-4"><path class="cls-1" d="M-79.85,268.47A5.64,5.64,0,0,0-74,274a6.17,6.17,0,0,0,2.72-.62V271a3.54,3.54,0,0,1-2.62,1.16,3.55,3.55,0,0,1-3.74-3.67A3.61,3.61,0,0,1-74,264.8,3.74,3.74,0,0,1-71.25,266v-2.44a5.8,5.8,0,0,0-2.67-.65,5.73,5.73,0,0,0-5.93,5.57"/></clipPath><clipPath id="clip-path-5"><polygon class="cls-1" points="-54.05 270.29 -57.01 263.14 -59.38 263.14 -54.66 274.06 -53.49 274.06 -48.69 263.14 -51.04 263.14 -54.05 270.29"/></clipPath><clipPath id="clip-path-6"><polygon class="cls-1" points="-47.71 273.78 -41.55 273.78 -41.55 271.98 -45.54 271.98 -45.54 269.11 -41.7 269.11 -41.7 267.3 -45.54 267.3 -45.54 264.94 -41.55 264.94 -41.55 263.14 -47.71 263.14 -47.71 273.78"/></clipPath><clipPath id="clip-path-7"><path class="cls-1" d="M-33,266.28c0-2-1.43-3.14-3.94-3.14h-3.21v10.64h2.16v-4.27h.29l3,4.27H-32l-3.5-4.48a2.87,2.87,0,0,0,2.53-3M-37.31,268h-.64v-3.22h.67c1.35,0,2.09.54,2.09,1.57s-.74,1.65-2.12,1.65"/></clipPath><clipPath id="clip-path-8"><path class="cls-1" d="M-58.73,268.47a5.8,5.8,0,0,1-5.92,5.66,5.79,5.79,0,0,1-5.91-5.66,5.78,5.78,0,0,1,5.91-5.66,5.79,5.79,0,0,1,5.92,5.66"/></clipPath><clipPath id="clip-path-9"><path class="cls-1" d="M13.5,263.14H10.31v10.65h3.17a6,6,0,0,0,4-1.23,5.26,5.26,0,0,0,2-4.09c0-3.14-2.45-5.33-6-5.33m2.53,8a4.22,4.22,0,0,1-3,.84h-.58v-7h.58a4.13,4.13,0,0,1,3,.86,3.52,3.52,0,0,1,1.21,2.65A3.59,3.59,0,0,1,16,271.14"/></clipPath><clipPath id="clip-path-10"><rect class="cls-2" x="20.47" y="263.14" width="2.17" height="10.64"/></clipPath><clipPath id="clip-path-11"><path class="cls-1" d="M28,267.23c-1.3-.46-1.69-.77-1.69-1.34s.68-1.18,1.62-1.18a2.27,2.27,0,0,1,1.75.86l1.13-1.42A5,5,0,0,0,27.49,263,3.21,3.21,0,0,0,24,266c0,1.46.7,2.21,2.74,2.92a8.4,8.4,0,0,1,1.5.6,1.25,1.25,0,0,1,.65,1.1,1.55,1.55,0,0,1-1.68,1.5,2.57,2.57,0,0,1-2.37-1.42l-1.4,1.3a4.38,4.38,0,0,0,3.85,2,3.52,3.52,0,0,0,3.84-3.49c0-1.69-.73-2.46-3.2-3.32"/></clipPath><clipPath id="clip-path-12"><path class="cls-1" d="M31.83,268.47A5.65,5.65,0,0,0,37.7,274a6.32,6.32,0,0,0,2.73-.62V271a3.67,3.67,0,0,1-6.36-2.5,3.61,3.61,0,0,1,3.63-3.66,3.71,3.71,0,0,1,2.73,1.2v-2.44a5.9,5.9,0,0,0-8.6,4.91"/></clipPath><clipPath id="clip-path-13"><polygon class="cls-1" points="57.63 270.29 54.67 263.14 52.29 263.14 57.02 274.06 58.18 274.06 62.99 263.14 60.64 263.14 57.63 270.29"/></clipPath><clipPath id="clip-path-14"><polygon class="cls-1" points="63.97 273.79 70.13 273.79 70.13 271.98 66.14 271.98 66.14 269.11 69.98 269.11 69.98 267.31 66.14 267.31 66.14 264.95 70.13 264.95 70.13 263.14 63.97 263.14 63.97 273.79"/></clipPath><clipPath id="clip-path-15"><path class="cls-1" d="M78.72,266.28c0-2-1.44-3.14-3.94-3.14H71.56v10.65h2.17v-4.28H74l3,4.28h2.67l-3.5-4.49a2.87,2.87,0,0,0,2.53-3M74.37,268h-.64v-3.22h.67c1.35,0,2.09.54,2.09,1.58S75.75,268,74.37,268"/></clipPath><clipPath id="clip-path-16"><path class="cls-1" d="M53,268.47A5.93,5.93,0,1,1,47,262.81,5.79,5.79,0,0,1,53,268.47"/></clipPath><clipPath id="clip-path-17"><rect class="cls-2" x="-86.93" y="196.37" width="40.5" height="22.5" rx="3.89"/></clipPath><clipPath id="clip-path-18"><path class="cls-2" d="M-77,203.93a6,6,0,0,1-1.73,4.23l2.34,3.22h-2.09l-2.55-3.5.66-.5a4.28,4.28,0,0,0,1.71-3.45ZM-83,211.38h1.7v-7.45H-83Zm7,0h1.6v-7.45h-1.6Zm15.64-5.3a1.89,1.89,0,0,0-1.58.72v-.58h-1.52v5.16h1.54v-2.71a1.08,1.08,0,0,1,1.15-1.17c.67,0,1.06.41,1.06,1.16v2.72h1.53V208.1a2,2,0,0,0-2.18-2Zm-9.2.14H-68v5.16h-1.53v-.33a2.71,2.71,0,0,1-1.52.47,2.71,2.71,0,0,1-2.69-2.72A2.71,2.71,0,0,1-71,206.08a2.71,2.71,0,0,1,1.52.47v-.33Zm0,2.58a1.36,1.36,0,0,0-1.38-1.33,1.36,1.36,0,0,0-1.39,1.33,1.35,1.35,0,0,0,1.39,1.32A1.35,1.35,0,0,0-69.5,208.8Zm3.9-1.91v-.67h-1.56v5.16h1.57V209c0-.81.87-1.25,1.47-1.25h0v-1.5a1.92,1.92,0,0,0-1.5.67Zm12.23-.67h1.53v5.16h-1.53v-.33a2.7,2.7,0,0,1-1.51.47,2.7,2.7,0,0,1-2.69-2.72,2.7,2.7,0,0,1,2.69-2.72,2.7,2.7,0,0,1,1.51.47v-.33Zm0,2.58a1.36,1.36,0,0,0-1.39-1.33,1.36,1.36,0,0,0-1.38,1.33,1.35,1.35,0,0,0,1.38,1.32A1.35,1.35,0,0,0-53.37,208.8Zm3.16.75a1,1,0,0,0-1,1,1,1,0,0,0,1,1,1,1,0,0,0,1-1A1,1,0,0,0-50.21,209.55Z"/></clipPath><clipPath id="clip-path-19"><rect class="cls-2" x="24.75" y="196.37" width="40.5" height="22.5" rx="3.89"/></clipPath><clipPath id="clip-path-20"><path class="cls-2" d="M34.65,203.93a6,6,0,0,1-1.73,4.23l2.34,3.22h-2.1l-2.54-3.5.66-.5A4.28,4.28,0,0,0,33,203.93Zm-5.93,7.45h1.7v-7.45h-1.7Zm7,0h1.6v-7.45h-1.6Zm15.64-5.3a1.89,1.89,0,0,0-1.58.72v-.58H48.29v5.16h1.54v-2.71A1.08,1.08,0,0,1,51,207.5c.67,0,1.06.41,1.06,1.16v2.72h1.52V208.1a2,2,0,0,0-2.17-2Zm-9.2.14h1.53v5.16H42.19v-.33a2.76,2.76,0,0,1-1.52.47,2.72,2.72,0,0,1,0-5.44,2.76,2.76,0,0,1,1.52.47v-.33Zm0,2.58a1.39,1.39,0,1,0-1.38,1.32A1.36,1.36,0,0,0,42.18,208.8Zm3.9-1.91v-.67H44.51v5.16h1.57V209c0-.81.88-1.25,1.48-1.25h0v-1.5a1.92,1.92,0,0,0-1.5.67Zm12.23-.67h1.53v5.16H58.31v-.33a2.72,2.72,0,1,1,0-4.5v-.33Zm0,2.58a1.39,1.39,0,1,0-1.39,1.32A1.36,1.36,0,0,0,58.31,208.8Zm3.15.75a1,1,0,1,0,1,1A1,1,0,0,0,61.46,209.55Z"/></clipPath></defs><title>Payment-Method-Logos</title><rect class="cls-3" x="0.5" y="0.5" width="89" height="42.14" rx="1.78"/><path class="cls-4" d="M87.72,1A1.28,1.28,0,0,1,89,2.28V40.87a1.27,1.27,0,0,1-1.28,1.27H2.28A1.27,1.27,0,0,1,1,40.87V2.28A1.28,1.28,0,0,1,2.28,1H87.72m0-1H2.28A2.28,2.28,0,0,0,0,2.28V40.87a2.28,2.28,0,0,0,2.28,2.27H87.72A2.28,2.28,0,0,0,90,40.87V2.28A2.28,2.28,0,0,0,87.72,0Z"/><path class="cls-5" d="M18.42,33a1.91,1.91,0,0,1-1.77-1.19l-6.6-16.1a2,2,0,0,1,1-2.53L18,10.29a1.85,1.85,0,0,1,1.46,0,1.91,1.91,0,0,1,1,1l6.6,16.11a1.93,1.93,0,0,1-1,2.52l-6.91,2.89A1.83,1.83,0,0,1,18.42,33Zm.31-21.82a.8.8,0,0,0-.34.07l-6.91,2.89A.9.9,0,0,0,11,15.31l6.6,16.1a.87.87,0,0,0,1.15.48L25.67,29a.9.9,0,0,0,.47-1.17l-6.6-16.1A.88.88,0,0,0,18.73,11.18Z"/><path class="cls-6" d="M20,12.79l.95-.39,2.65,6.38-.95.39Z"/><path class="cls-7" d="M26.68,26.37l-.95.39-3-7.22,1-.39Z"/><path class="cls-5" d="M24.5,22a11.77,11.77,0,0,0-4.71,3.35L17,18.53a11.65,11.65,0,0,1,4.71-3.35,11.23,11.23,0,0,1,5.67-1L30.17,21A11.77,11.77,0,0,0,24.5,22Z"/><path class="cls-8" d="M24.5,22a11.77,11.77,0,0,0-4.71,3.35L17,18.53a11.65,11.65,0,0,1,4.71-3.35,11.23,11.23,0,0,1,5.67-1L30.17,21A11.77,11.77,0,0,0,24.5,22Z"/><path class="cls-9" d="M24.5,22a11.77,11.77,0,0,0-4.71,3.35L17,18.53a11.65,11.65,0,0,1,4.71-3.35,11.23,11.23,0,0,1,5.67-1L30.17,21A11.77,11.77,0,0,0,24.5,22Z"/><path class="cls-5" d="M25.41,24.05a11.61,11.61,0,0,0-5.62,1.27V18.45a11.56,11.56,0,0,1,5.62-1.27A11.28,11.28,0,0,1,31,18.45v6.88A11.68,11.68,0,0,0,25.41,24.05Zm10.93,0,1.73-5.53a.19.19,0,0,1,.16-.14h.87a.19.19,0,0,1,.17.14L40.62,22c0,.07.1.08.12,0l1.34-3.49a.19.19,0,0,1,.17-.14h.87a.19.19,0,0,1,.16.14L45,24.06a.12.12,0,0,1,0,.13.14.14,0,0,1-.12.06h-1a.17.17,0,0,1-.16-.12l-1.09-3.59a.06.06,0,0,0-.12,0L41.15,24.1a.2.2,0,0,1-.19.15h-.61c-.09,0-.14-.05-.18-.15l-1.34-3.56c0-.07-.09-.07-.11,0L37.6,24.13a.17.17,0,0,1-.16.12h-1a.13.13,0,0,1-.1-.06A.12.12,0,0,1,36.34,24.06Zm9-2A2.31,2.31,0,0,1,46.7,19.9a2.27,2.27,0,0,1,2.52.47,2.35,2.35,0,0,1,.52,2.53,2.32,2.32,0,0,1-2.13,1.45,2.22,2.22,0,0,1-2.29-2.28Zm3.41,0a1.13,1.13,0,0,0-2.26.11,1.15,1.15,0,0,0,1.14,1.11,1.16,1.16,0,0,0,1.11-1.22Zm3.2,1.82c-.09-.07-.16,0-.16.08v.11a.16.16,0,0,1-.16.16h-.8a.17.17,0,0,1-.16-.16V18.55a.17.17,0,0,1,.16-.16h.85a.16.16,0,0,1,.15.16v1.58c0,.11.08.14.2.06a1.8,1.8,0,0,1,1.11-.38,2.14,2.14,0,0,1,2.07,2.27,2.19,2.19,0,0,1-2.1,2.28A1.72,1.72,0,0,1,51.93,23.89ZM54,22.08A1.16,1.16,0,0,0,53.49,21a1.12,1.12,0,0,0-1.71,1.06,1.19,1.19,0,0,0,.31.84,1.08,1.08,0,0,0,1.62,0,1.18,1.18,0,0,0,.32-.84Zm1.86-3.29a.66.66,0,0,1,.66-.66.66.66,0,0,1,0,1.32A.66.66,0,0,1,55.89,18.79Zm.06,5.3v-4a.16.16,0,0,1,.16-.16H57a.18.18,0,0,1,.12,0,.16.16,0,0,1,0,.11v4a.16.16,0,0,1-.16.16h-.85a.16.16,0,0,1-.16-.16Zm2.11-1.31V18.55a.16.16,0,0,1,.15-.16h.85a.17.17,0,0,1,.16.16v4.26c0,.27.11.45.41.45a.17.17,0,0,1,.12,0,.16.16,0,0,1,0,.12v.7a.16.16,0,0,1-.16.16C58.51,24.29,58.06,23.92,58.06,22.78Zm2-.68a2.26,2.26,0,0,1,1.11-1.94,2.2,2.2,0,0,1,2.22,0,2.23,2.23,0,0,1,1.1,1.94c0,.16,0,.29-.19.29H61.41c-.07,0-.1,0-.09.11a1,1,0,0,0,1,.85,1,1,0,0,0,.81-.37.32.32,0,0,1,.27-.14h.78c.14,0,.2.1.15.24a2.24,2.24,0,0,1-4.26-1Zm3.11-.4c.06,0,.09,0,.08-.1a1,1,0,0,0-1-.8,1,1,0,0,0-1,.78c0,.06,0,.12.07.12Zm2,2.38V18.55a.16.16,0,0,1,.15-.16h2.69a1.87,1.87,0,0,1,2.06,1.94,2,2,0,0,1-2.12,2H66.61a.16.16,0,0,0-.12,0,.19.19,0,0,0,0,.12v1.63a.16.16,0,0,1-.16.16h-.88A.16.16,0,0,1,65.25,24.08ZM68,21.29a.94.94,0,0,0,.9-1,.92.92,0,0,0-.26-.65.86.86,0,0,0-.64-.26H66.59c-.1,0-.14,0-.14.16v1.56c0,.11,0,.16.14.16Zm2.54.78a2.17,2.17,0,0,1,2.11-2.27,1.73,1.73,0,0,1,1.14.44c.07.07.16.06.16,0v-.12a.15.15,0,0,1,.15-.15h.8a.16.16,0,0,1,.16.16v2.84c0,.22.08.32.22.33a.17.17,0,0,1,.15.14v.75a.15.15,0,0,1-.15.15,1.1,1.1,0,0,1-1.08-.49c0-.09-.11-.1-.2,0a1.83,1.83,0,0,1-1.37.58,2.19,2.19,0,0,1-1.53-.7A2.23,2.23,0,0,1,70.57,22.07Zm3.41,0A1.14,1.14,0,0,0,73.44,21a1.08,1.08,0,0,0-1.17,0,1.3,1.3,0,0,0,0,2.11,1.12,1.12,0,0,0,1.17,0A1.15,1.15,0,0,0,74,22.07Zm1.87,3.69v-.71A.17.17,0,0,1,76,24.9a1.2,1.2,0,0,0,1.22-.83.47.47,0,0,0,0-.33l-1.57-3.59a.16.16,0,0,1,.14-.23h.84c.09,0,.14.07.17.16l1,2.29c.07.18.18.17.25,0l.94-2.3c0-.09.08-.14.16-.14h.81a.14.14,0,0,1,.14.21L78.47,24c-.59,1.41-1.21,1.93-2.45,1.93a.17.17,0,0,1-.17-.16Z"/></svg>