<?xml version="1.0" encoding="utf-8"?>
<!-- Generator: Adobe Illustrator 27.7.0, SVG Export Plug-In . SVG Version: 6.00 Build 0)  -->
<svg version="1.1" id="Layer_1" xmlns="http://www.w3.org/2000/svg" xmlns:xlink="http://www.w3.org/1999/xlink" x="0px" y="0px"
	 viewBox="0 0 90 43.0999985" style="enable-background:new 0 0 90 43.0999985;" xml:space="preserve">
<style type="text/css">
	.st0{fill:#FFFFFF;}
	.st1{fill:#F2F5F7;}
	.st2{fill-rule:evenodd;clip-rule:evenodd;fill:#246BB5;}
	.st3{fill-rule:evenodd;clip-rule:evenodd;}
</style>
<path class="st0" d="M2.3,0.5h85.4000015c1,0,1.8000031,0.8,1.8000031,1.8v38.5999985c0,1-0.8000031,1.7999992-1.8000031,1.7999992
	H2.3c-1,0-1.8-0.7999992-1.8-1.7999992V2.3C0.5,1.3,1.3,0.5,2.3,0.5z"/>
<path class="st1" d="M87.6999969,1C88.4000015,1,89,1.6,89,2.3v38.5999985c0,0.7000008-0.5999985,1.2999992-1.3000031,1.2999992l0,0
	H2.3c-0.7,0-1.3-0.5999985-1.3-1.2999992l0,0V2.3C1,1.6,1.6,1,2.3,1H87.6999969 M87.6999969,0H2.3C1,0,0,1,0,2.3v38.5999985
	c0,1.2999992,1,2.2999992,2.3,2.2999992h85.4000015c1.3000031,0,2.3000031-1,2.3000031-2.2999992V2.3C90,1,89,0,87.6999969,0z"/>
<g>
	<g>
		<path class="st2" d="M14.0735674,14.3630066h9.0560427h0.4783688c0.66992,0,1.2179642,0.5800037,1.2179642,1.2888823v0.616044
			c0,0.8707905-1.1797676,0.8675652-1.1797676,0.0058098v-0.3364496c0-0.2140474-0.1751385-0.3891363-0.389185-0.3891363H13.703002
			c-0.2140474,0-0.3891373,0.1750889-0.3891373,0.3891363v0.3296213c0,0.8661327-1.1243954,0.8599663-1.1243954,0.0187435v-0.633769
			c0-0.7088785,0.5481062-1.2888823,1.2178917-1.2888823H14.0735674L14.0735674,14.3630066z M18.4451809,28.7369919h6.1834736
			c1.4120178,0,1.4260197-1.5007229,1.2822495-2.241621c-0.0785294-0.4978828-0.9247894-0.4938126-1.0179176,0v0.5780907
			c0,0.2640877-0.2162056,0.4802933-0.4804153,0.4802933h-5.9673901h-0.4771786h-5.4106035
			c-0.2641973,0-0.4802799-0.2162056-0.4802799-0.4802933v-0.5780907c-0.0932636-0.4938126-0.9394493-0.4978828-1.0180407,0
			c-0.1436577,0.7408981-0.1297693,2.241621,1.282299,2.241621h5.6266251H18.4451809z"/>
		<path class="st3" d="M22.2677937,20.9624748h0.9858379v-0.0108852c0.4489212-0.0689545,0.79562-0.4592819,0.79562-0.9267025
			V20.02495c0-0.5156708-0.4219913-0.9375992-0.9375992-0.9375992h-1.985672v4.9021893h2.5181618
			c0.5324764,0,0.9681091-0.4356327,0.9681091-0.9681854l0,0c0-0.5324745-0.4356327-0.9681702-0.9681091-0.9681702h-0.3905106
			v-0.0022812h-0.9858379c-0.2992802,0-0.5442066-0.2448654-0.5442066-0.5442085l0,0
			C21.723587,21.2073536,21.9685135,20.9624748,22.2677937,20.9624748L22.2677937,20.9624748z M24.5853195,21.4436016
			c0.6603336,0.3106575,1.1163177,0.9518433,1.1163177,1.6880703l0,0c0,1.0381565-0.9063396,1.8873959-2.0142841,1.8873959
			h-3.1049938c-0.2904186,0-0.5280533-0.2226677-0.5280533-0.4947701v-5.9074688
			c0-0.2849274,0.2334423-0.5181847,0.5187111-0.5181847h2.5862827c1.0886745,0,1.9793358,0.8897667,1.9793358,1.9773006l0,0
			C25.1386356,20.60532,24.9274578,21.0877571,24.5853195,21.4436016z"/>
		<path d="M19.5609722,24.4289989c0.036396,0.3421497-0.2115345,0.6490936-0.5536728,0.6853676
			c-0.3421383,0.0363827-0.6490803-0.2114124-0.6854153-0.5536728l-0.5105839-4.6979618l-1.8084373,4.5935669l-0.0017414,0.0043163
			l-0.0001717,0.0004768v0.0001106l-0.0049763,0.0122108l-0.0040703,0.0095844l-0.0010166,0.0022678l-0.004303,0.0095863
			l-0.002636,0.0057373l-0.0043755,0.0089855l-0.0020361,0.0041924l-0.0047808,0.0093288l-0.0017405,0.0033588
			c-0.0333433,0.062851-0.0762606,0.1181488-0.1264095,0.1645966l-0.0018034,0.0016804l-0.0093403,0.0083847
			c-0.0325594,0.028965-0.0686483,0.0544624-0.1076803,0.0763702l-0.0026846,0.0015564l-0.0117922,0.0063515l-0.0004787,0.0002327
			l-0.0109587,0.0056248l-0.0049648,0.0025139l-0.0070124,0.0033588l-0.0074778,0.0034695l-0.0065212,0.0029907
			l-0.0077839,0.0033588l-0.0067062,0.0028687l-0.0063972,0.002636l-0.0056896,0.0022678L15.6440172,24.81604l-0.0052595,0.0019131
			l-0.0083237,0.0031128l-0.0047312,0.0015583c-0.060276,0.0210724-0.1216917,0.0323257-0.1826172,0.0345936l-0.0074272,0.0002441
			l-0.0087414,0.0001087h-0.0064592h-0.0064001l-0.0086298-0.0001087l-0.0078335-0.0002441
			c-0.0680599-0.0025139-0.1369534-0.0162792-0.2039957-0.0425014l-0.0083723-0.0033455l-0.0020952-0.0009575l-0.0082636-0.0033588
			L15.166728,24.803463l-0.0064726-0.0029907l-0.007-0.0032234l-0.0074778-0.0035934l-0.0042534-0.0021572l-0.0113754-0.0057487
			l-0.0011282-0.0007229l-0.009757-0.0052586l-0.005456-0.0029926c-0.0341768-0.0192814-0.0659513-0.0414219-0.0952244-0.0660858
			l-0.0023422-0.0020351c-0.006999-0.0059814-0.0138149-0.0119762-0.0205822-0.0181904l-0.0004168-0.0004787
			c-0.005271-0.0049152-0.0104809-0.0099411-0.0155678-0.014967c-0.0050259-0.0051498-0.0101137-0.0102978-0.015029-0.0155697
			l-0.0004168-0.0004768c-0.0062275-0.0067062-0.0122709-0.0135212-0.0182533-0.0205841l-0.0020351-0.0022793
			c-0.0246639-0.029335-0.0467415-0.0610466-0.0660248-0.0952854l-0.0030527-0.005394l-0.0053196-0.0098209l-0.0005999-0.0011883
			l-0.0058117-0.0112534l-0.0020962-0.0043144l-0.0035915-0.0074158l-0.0032854-0.0070744l-0.0029297-0.0064602
			l-0.0035925-0.0081406l-0.0034809-0.0082607l-0.0008326-0.002037l-0.0034094-0.0083714l-1.8103008-4.5983601l-0.5105715,4.6979618
			c-0.0363951,0.3422604-0.343277,0.5900555-0.6854267,0.5536728c-0.3421993-0.036274-0.5900564-0.3432178-0.5536728-0.6853676
			l0.601922-5.5387554l0.0001841-0.0014954l0.0002937-0.0023899l-0.0002937-0.000061
			c0.0072327-0.0645294,0.0208883-0.1286907,0.040453-0.1917248c0.0189772-0.0611706,0.0444136-0.1215076,0.0757227-0.1802883
			c0.1537094-0.2887993,0.4365406-0.4912987,0.7740688-0.537981l0.0011892-0.0001831
			c0.0113144-0.0015564,0.0227518-0.002758,0.0340052-0.0037155c0.0528469-0.0055027,0.1053514-0.0070591,0.1571188-0.0047302
			l0.0024509,0.0001831v-0.0001831c0.0673494,0.0032349,0.1303701,0.0116825,0.1883793,0.0252018
			c0.3219585,0.0751228,0.5953875,0.2990494,0.7241392,0.6260967l1.5408831,3.9137802l1.5408192-3.9137802
			c0.1287518-0.3269863,0.4021797-0.5509739,0.7241535-0.6260967c0.0579948-0.0135193,0.1209679-0.0219669,0.1883659-0.0252018
			v0.0001831l0.002512-0.0001831c0.0517807-0.0023289,0.1045055-0.0008335,0.1574249,0.0047302
			c0.0112534,0.0009575,0.0223846,0.0021591,0.033638,0.0037155l0.0012016,0.0001831
			c0.3374672,0.0466824,0.6204071,0.2491817,0.7741184,0.537981c0.0312462,0.0587807,0.0567455,0.1191177,0.0756588,0.1802883
			c0.0196266,0.062973,0.0332832,0.1271343,0.0404663,0.1917248l-0.0002441,0.000061l0.0002441,0.0023899l0.0002327,0.0014954
			L19.5609722,24.4289989z"/>
	</g>
	<g>
		<path d="M40.4839935,19.0806599c0-0.3051319,0.2475281-0.5526581,0.5526581-0.5526581s0.5526505,0.2475262,0.5526505,0.5526581
			v2.9885311v0.0008144h-0.0021935c-0.0002098,0.6833706-0.2795029,1.3039646-0.7292671,1.7536869
			c-0.4477692,0.4477692-1.0675507,0.7258854-1.7501068,0.7262936v0.0023994H39.106308h-0.0005684v-0.0023994
			c-0.6831665,0-1.3039665-0.2792969-1.7535248-0.7290592c-0.4479713-0.4481773-0.7260895-1.0675507-0.7264557-1.7501087h-0.0021973
			v-0.001627v-2.9885311c0-0.3051319,0.2475243-0.5526581,0.5526543-0.5526581s0.5526505,0.2475262,0.5526505,0.5526581v2.9885311
			v0.001627h-0.0021973c0.000206,0.3774261,0.1561508,0.721899,0.4070473,0.9730015
			c0.2497177,0.2494755,0.5939865,0.4052143,0.972023,0.4052143v-0.0019531h0.0005684h0.0014267v0.0019531
			c0.3774261,0,0.7222633-0.1561089,0.9729996-0.4068413c0.2498817-0.2498817,0.4052544-0.5939484,0.4052544-0.972187h-0.0019951
			V22.069191V19.0806599z"/>
		<path d="M45.7063713,23.4470806c0.30513,0,0.5526505,0.2475224,0.5526505,0.5526524s-0.2475204,0.5526524-0.5526505,0.5526524
			h-1.5254517h-0.0006065v-0.0023994c-0.5721054,0-1.0915985-0.2340145-1.4678459-0.6098557
			c-0.3744583-0.3750668-0.60709-0.893137-0.6074944-1.4644642h-0.0021553v-0.0015869v-3.3934193
			c0-0.3051319,0.2475243-0.5526581,0.5526543-0.5526581s0.5526505,0.2475262,0.5526505,0.5526581v3.3934193v0.0015869h-0.0021935
			c0.0001984,0.265789,0.1104546,0.5093231,0.2880402,0.6869106c0.1764069,0.176405,0.4195747,0.2864571,0.6863441,0.2864571
			v-0.0019531h0.0006065H45.7063713z"/>
		<path d="M36.4185562,23.9349632c0.035759,0.3027306-0.1809654,0.5772629-0.483532,0.6130295
			c-0.3029327,0.0353527-0.5774689-0.1807594-0.6132317-0.483532l-0.4736023-3.979393l-1.6883507,3.9150314
			c-0.1203842,0.2801094-0.4451637,0.4096489-0.7252731,0.2892647c-0.1352768-0.0580158-0.2351952-0.1640797-0.2890205-0.2892647
			H32.14534l-1.6883488-3.9150314l-0.4738045,3.979393c-0.0357628,0.3027725-0.3102989,0.5188847-0.6130295,0.483532
			c-0.3027687-0.0357666-0.5192928-0.3102989-0.483532-0.6130295l0.5498867-4.6206551
			c0.0357628-0.3015518,0.219492-0.5494804,0.4829216-0.6853657c0.0345402-0.0182667,0.0707073-0.034174,0.1072865-0.0480881
			c0.0140743-0.0055332,0.0279865-0.010334,0.042675-0.0150928c0.0469074-0.0146885,0.1013451-0.0266075,0.1626949-0.0349483
			v0.0004063l0.0043945-0.0004063l0.0049629-0.0008144c0.2884502-0.0365334,0.572916,0.0568371,0.7719803,0.2439423
			c0.0399113,0.037756,0.0776672,0.0810833,0.1124115,0.1295395c0.02384,0.0333595,0.0456867,0.0679417,0.0645657,0.1037025
			c0.0115128,0.0198536,0.0216427,0.0401154,0.0307999,0.0615559l1.431303,3.3187237l1.4312668-3.3187237
			c0.1182289-0.2737236,0.361763-0.4608707,0.6464348-0.5236492c0.0546341-0.0119171,0.1090698-0.0198498,0.1622849-0.0222092
			c0.0411339-0.0019951,0.0816536-0.0019951,0.1203842,0.0003662l0.003582,0.0004063h0.0002022
			c0.0135078,0.0008144,0.0268135,0.0019932,0.0405197,0.0035801l0.0043564,0.0007687l-0.0001602,0.0016289l0.0023537,0.0003681
			c0.2952042,0.0373497,0.5467148,0.2034206,0.6881332,0.4414234H35.751297
			c0.0295753,0.0496712,0.0538216,0.1024837,0.0730667,0.157732c0.0121231,0.0345402,0.0224571,0.070303,0.0302277,0.108057
			c0.0059395,0.0234337,0.010334,0.0476818,0.0133057,0.0722961l0.0005684,0.0048008L36.4185562,23.9349632z"/>
		<path d="M48.1206055,23.999733c0,0.30513-0.2475243,0.5526524-0.5526543,0.5526524
			c-0.3049278,0-0.5524483-0.2475224-0.5524483-0.5526524v-4.3664207h-1.572155
			c-0.3053322,0-0.5526543-0.2475224-0.5526543-0.5526524c0-0.3051319,0.2473221-0.5526581,0.5526543-0.5526581h2.1246033h2.1249733
			c0.30513,0,0.5524483,0.2475262,0.5524483,0.5526581c0,0.30513-0.2473183,0.5526524-0.5524483,0.5526524h-1.572319V23.999733z"/>
		<path d="M51.5674019,23.999733c0,0.30513-0.2473183,0.5526524-0.5526543,0.5526524
			c-0.30513,0-0.5524483-0.2475224-0.5524483-0.5526524v-4.9190731c0-0.3051319,0.2473183-0.5526581,0.5524483-0.5526581
			c0.305336,0,0.5526543,0.2475262,0.5526543,0.5526581V23.999733z"/>
		<path d="M62.9035416,23.9325638c0.0369377,0.3027706-0.1787682,0.5784874-0.4815407,0.6154289
			c-0.3027306,0.0369396-0.5780792-0.1787663-0.6150208-0.4815388l-0.1942673-1.5606003h-1.9150391
			c-0.3051338,0-0.5526543-0.2475262-0.5526543-0.5526562c0-0.3051319,0.2475204-0.5526505,0.5526543-0.5526505h1.7775688
			l-0.0504494-0.4052544l-0.0008125-0.0047588c-0.0015869-0.0127354-0.0027657-0.025835-0.0031738-0.0385284
			c-0.0143204-0.0925961-0.0353546-0.1871471-0.0639572-0.2821026c-0.0321808-0.1068821-0.0703392-0.2050076-0.1136246-0.2916241
			c-0.2193336-0.4378433-0.6158409-0.7449665-1.1176376-0.7449665l0,0h-0.0051651v-0.0019569
			c-0.0957718,0-0.1891022,0.0119247-0.2781181,0.0333614c-0.0830345,0.0198574-0.1656647,0.0512619-0.2467079,0.0925598
			c-0.4239273,0.2157478-0.7080269,0.6877613-0.7692146,1.2312641l-0.3456535,3.0715675
			c-0.0333595,0.3027306-0.3063049,0.5212822-0.6090393,0.4878845c-0.3023643-0.0333614-0.5208778-0.3063145-0.4875183-0.6090412
			l0.3456535-3.071207c0.1021156-0.906641,0.6054993-1.7088089,1.3651543-2.0949821
			c0.1493912-0.0758762,0.3126564-0.1366577,0.4882889-0.1787663c0.1700592-0.0413361,0.3496399-0.0631828,0.5371552-0.0635891
			v-0.0024052h0.0051651l0,0c0.958313,0,1.7024689,0.5598145,2.1017418,1.3579998
			c0.077095,0.1537857,0.1398697,0.3107033,0.1871452,0.4688435c0.0425148,0.1410465,0.0746956,0.2916222,0.0969086,0.4497204
			c0.0039902,0.0170879,0.007164,0.0345821,0.0091553,0.0520763l0.0008125,0.0043526L62.9035416,23.9325638z"/>
		<path d="M64.5952682,23.999733c0,0.30513-0.2475281,0.5526524-0.5526581,0.5526524s-0.5526505-0.2475224-0.5526505-0.5526524
			v-4.5694351v-0.0019932c0-0.0317745,0.0023994-0.0631409,0.0075722-0.0933704
			c0.0075226-0.0623684,0.0226135-0.1219711,0.0436897-0.1791763l0.0008125-0.0015831l-0.0008125-0.0004063
			c0.0115128-0.0305939,0.0270157-0.063549,0.0456886-0.0989075l0.0011787-0.0015831l-0.0011787-0.0004063
			c0.0921898-0.1676636,0.2423553-0.2976036,0.4314919-0.3627396c0.0250244-0.0083447,0.0504532-0.015501,0.075882-0.0202599
			c0.0198517-0.0047646,0.0393372-0.0087471,0.0587845-0.0115147l0.0043564-0.0008125v-0.0015869
			c0.0369797-0.0055752,0.0814438-0.0079384,0.1323013-0.0067539h0.0039902h0.0099258h0.0004044
			c0.2264557,0.0091534,0.4382095,0.1140366,0.5840225,0.299963l2.9412537,3.7505836v-3.619091
			c0-0.3051319,0.2475281-0.5526581,0.5526581-0.5526581s0.5526505,0.2475262,0.5526505,0.5526581v4.5491734
			c0,0.2403622-0.1080551,0.4576969-0.2884064,0.6050949c-0.0341797,0.0277863-0.0719299,0.0536213-0.1128616,0.0762825
			c-0.021843,0.0123272-0.0448761,0.0234337-0.0687103,0.0337677l-0.0059814,0.0027657l-0.0011826,0.0004082
			c-0.0146866,0.0067539-0.0298233,0.0130997-0.0456924,0.0186729l-0.0015869,0.0008144v-0.0008144h-0.0004044l-0.0004044-0.0004063
			l-0.0035782,0.0012207c-0.2006149,0.0691223-0.4111938,0.0544357-0.5923615-0.0334015
			c-0.0242538-0.010334-0.0476837-0.0226212-0.0711212-0.0369415c-0.0377502-0.0230274-0.0746918-0.0508556-0.1096802-0.0818558
			c-0.0218506-0.0194473-0.0456924-0.0441017-0.0703049-0.0738831l-0.0182648-0.0210743l-0.0012207-0.0011806l0.0004044-0.0004063
			l-0.006752-0.0083408l-2.9412537-3.7501411V23.999733z"/>
		<path d="M73.2263565,23.4470806c0.30513,0,0.5526505,0.2475224,0.5526505,0.5526524s-0.2475204,0.5526524-0.5526505,0.5526524
			H71.598175h-0.0007706v-0.0023994c-0.599968,0-1.145462-0.2455292-1.5399704-0.6404495
			c-0.3929291-0.3929272-0.6372757-0.9372406-0.638092-1.5368004h-0.0019531v-0.0011806v-1.6627178v-0.0008144h0.0019531
			c0.0004044-0.5999279,0.2455673-1.1454239,0.6404877-1.5399342c0.3933334-0.3929272,0.9372406-0.6372757,1.5367661-0.637682
			v-0.0024052h0.0015793h1.6281815c0.30513,0,0.5526505,0.2475262,0.5526505,0.5526581
			c0,0.30513-0.2475204,0.5526524-0.5526505,0.5526524H71.598175h-0.0015793v-0.0019569
			c-0.2940292,0-0.5634003,0.1219749-0.7596512,0.3182354c-0.1950836,0.1950798-0.316246,0.4636345-0.316246,0.7584324h0.0019989
			v0.0008144v1.6627178v0.0011806h-0.0019989c0,0.2944298,0.1219711,0.5637951,0.3182373,0.7596531
			c0.195076,0.1950798,0.4636307,0.3166447,0.7584686,0.3166447v-0.0019531h0.0007706H73.2263565z"/>
		<path d="M76.4230728,18.5280018h0.0007706v0.0024052c0.7048492,0,1.346077,0.27771,1.8113327,0.7242985
			c0.4703903,0.4521217,0.7624207,1.0782909,0.7628326,1.7695961H79v0.0011787v1.0294266v0.0004063h-0.0019913
			c-0.000412,0.6917152-0.2924423,1.3182507-0.763237,1.7703724c-0.4648514,0.4465904-1.1057129,0.7238922-1.8101196,0.7243004
			v0.0023994h-0.0015793h-0.000412v-0.0023994c-0.7048111,0-1.3460693-0.27771-1.8112946-0.7246666
			c-0.4700241-0.4517555-0.7624588-1.0779247-0.762825-1.769228h-0.0019989v-0.0011845v-1.0294266v-0.0007725h0.0019989
			c0.0003662-0.6913452,0.2928009-1.3182869,0.7635956-1.7700024c0.464859-0.4465885,1.1057129-0.7238922,1.8097534-0.7242985
			v-0.0024052H76.4230728L76.4230728,18.5280018z M76.4238434,19.6313553v0.0019569h-0.0007706h-0.0011826v-0.0019569
			c-0.4072495,0-0.7779617,0.1600952-1.0457458,0.4175453c-0.2629776,0.2526875-0.4262848,0.5983372-0.4266968,0.9758072h0.0024033
			v0.0007725v1.0294266v0.0011845h-0.0024033c0.000412,0.3770599,0.1637192,0.7223053,0.4259262,0.9749947
			c0.2685547,0.2574482,0.639267,0.4179478,1.047287,0.4179478v-0.0019531h0.000412h0.0015793v0.0019531
			c0.4076157,0,0.7779236-0.1600933,1.0461121-0.4179478c0.262619-0.2522831,0.4262924-0.5979347,0.4262924-0.9757729h-0.0019989
			v-0.0004063v-1.0294266v-0.0011787h0.0019989c-0.0003662-0.3774261-0.1636734-0.7227135-0.4258804-0.9749947
			C77.2025757,19.7914505,76.8319016,19.6313553,76.4238434,19.6313553z"/>
		<path d="M52.0312805,21.5054321v-2.4005299V19.104496c0-0.0782318,0.0162773-0.152565,0.0452843-0.2196941
			c0.0296173-0.0719261,0.0735168-0.1366539,0.1281548-0.189909l0.006752-0.0063477l-0.0002022-0.0004063
			c0.0935326-0.0893841,0.2179031-0.1493931,0.3629417-0.157732c0.0109024-0.0007763,0.0218468-0.0015907,0.0323448-0.0011845
			v-0.0012207h0.0016289h2.1295242h0.0008163v0.0024052c0.4858932,0,0.9273148,0.1986599,1.246357,0.5180702
			c0.3178253,0.3178654,0.5153046,0.7576599,0.5156708,1.2431812h0.0023994v0.0011826v0.0004082v0.0004063h-0.0023994
			c0,0.3440647-0.1001244,0.6654701-0.2713623,0.9372406c0.1136322,0.071928,0.2189217,0.1557369,0.3135109,0.250288
			c0.011879,0.0119209,0.0230255,0.0242481,0.0337677,0.0369816c0.3039093,0.3209972,0.4914627,0.7556667,0.4918289,1.2328091
			h0.0024033v0.0015869l0,0v0.0008144h-0.0024033c0,0.4950428-0.202198,0.9451694-0.5284042,1.2709713
			c-0.3238029,0.3238049-0.7723427,0.5252304-1.2673912,0.5256386v0.0023994H55.270916h-2.6869812
			c-0.3053322,0-0.5526543-0.2475224-0.5526543-0.5526524V21.5054321L52.0312805,21.5054321z M53.1363831,19.6333122v1.8721199
			v1.9416485h2.1345329h0.0015869v0.0019531c0.1895103,0,0.3631477-0.0790501,0.490284-0.2061882
			c0.1263237-0.1259575,0.2046013-0.2995567,0.2046013-0.4894695h-0.0019951v-0.0008144l0,0v-0.0015869h0.0019951
			c0-0.1783581-0.070343-0.3432522-0.1847458-0.468029L55.7612,22.2626839
			c-0.1271362-0.1275024-0.3007774-0.2065926-0.4895096-0.2065926v0.0019932H55.270916h-0.53162H54.737709h-0.2018318
			c-0.3047256,0-0.5526543-0.2482948-0.5526543-0.5526524l0,0c0-0.3043175,0.2479286-0.5526581,0.5526543-0.5526581h0.2018318
			h0.0015869h0.0480919c0.1597252-0.0123234,0.3059425-0.0842152,0.4159927-0.1938953l0.0007744,0.0008125l0.0011787-0.0008125
			c0.1196098-0.119978,0.1943092-0.2844639,0.1943092-0.4652233h-0.0019951v-0.0004063V20.292841v-0.0011826h0.0019951
			c0-0.1799831-0.0751038-0.3452415-0.1962624-0.466032c-0.1196098-0.1195717-0.2845001-0.1942711-0.4648552-0.1942711v0.0019569
			H54.737709H53.1363831z"/>
	</g>
</g>
</svg>
