<?xml version="1.0" encoding="utf-8"?>
<!-- Generator: Adobe Illustrator 27.7.0, SVG Export Plug-In . SVG Version: 6.00 Build 0)  -->
<svg version="1.1" id="Layer_1" xmlns="http://www.w3.org/2000/svg" xmlns:xlink="http://www.w3.org/1999/xlink" x="0px" y="0px"
	 viewBox="0 0 90 43.0999985" style="enable-background:new 0 0 90 43.0999985;" xml:space="preserve">
<style type="text/css">
	.st0{fill:#FFFFFF;}
	.st1{fill:#F2F5F7;}
	.st2{fill:#204866;}
	.st3{fill:#27BCED;}
</style>
<path class="st0" d="M2.3,0.5h85.4000015c1,0,1.8000031,0.8,1.8000031,1.8v38.5999985c0,1-0.8000031,1.7999992-1.8000031,1.7999992
	H2.3c-1,0-1.8-0.7999992-1.8-1.7999992V2.3C0.5,1.3,1.3,0.5,2.3,0.5z"/>
<path class="st1" d="M87.6999969,1C88.4000015,1,89,1.6,89,2.3v38.5999985c0,0.7000008-0.5999985,1.2999992-1.3000031,1.2999992l0,0
	H2.3c-0.7,0-1.3-0.5999985-1.3-1.2999992l0,0V2.3C1,1.6,1.6,1,2.3,1H87.6999969 M87.6999969,0H2.3C1,0,0,1,0,2.3v38.5999985
	c0,1.2999992,1,2.2999992,2.3,2.2999992h85.4000015c1.3000031,0,2.3000031-1,2.3000031-2.2999992V2.3C90,1,89,0,87.6999969,0z"/>
<g>
	<g>
		<path class="st2" d="M52.3474045,19.4461021c-1.5000038-0.0129871-2.2013016,0.8506489-2.2013016,0.8506489
			c-0.4545441,0.4870129-0.1623383,1.136364,0.285717,1.1883106c0.6428566,0.0714302,0.6363602-0.4675331,1.6233749-0.7077923
			c0.863636-0.2077923,0.9025955,0.59091,0.9025955,0.59091c-3.6883087-0.0909081-3.5129852,3.0064926-2.2597389,3.6623383
			c1.2012978,0.6298714,2.3311691-0.1623383,2.3311691-0.1623383s0.0389633,0.4285717,0.636364,0.4285717
			c0.6818161,0,0.6818161-0.681818,0.6818161-0.681818v-3.0129871
			C54.2954559,19.3941536,52.3474045,19.4461021,52.3474045,19.4461021 M52.0551949,23.8097382
			c0,0-0.9675331,0.1948051-0.9545479-0.4935074c0.0064964-0.6883106,1.7597427-0.6493492,1.9350662-0.5909081
			C53.0357132,22.7188301,53.0941544,23.5045433,52.0551949,23.8097382"/>
		<path class="st2" d="M64.2629852,24.0759735l-1.5064926-2.2662334l1.1038971-1.0454559
			c0,0,0.5129852-0.4740257,0.0909081-0.9415588c-0.4610405-0.5194798-1.0194817-0.0064926-1.0194817-0.0064926
			l-1.3896103,1.2922058v-2.5909081c0-0.3701305-0.2987022-0.6753235-0.6753235-0.6753235
			c-0.3701324,0-0.6753235,0.2987003-0.6753235,0.6753235v6.0974026c0,0.3701305,0.2987022,0.6753235,0.6753235,0.6753235
			c0.3701324,0,0.6753235-0.2987003,0.6753235-0.6753235v-1.6233768l0.2532463-0.2532463l1.363636,2.136364
			c0,0,0.4415588,0.7402592,1.0974045,0.2662334C64.75,24.7837639,64.2629852,24.0759735,64.2629852,24.0759735"/>
	</g>
	<g>
		<path class="st2" d="M59.4642868,21.5954533c0-2.2012997-1.8376617-2.5129871-3.0844154-1.8116894v0.0064945
			c-0.0909081-0.2662334-0.3441544-0.4610405-0.6428566-0.4610405c-0.3766251,0-0.6883125,0.3051949-0.6883125,0.6883125v4.5909081
			c0,0.3766232,0.3051949,0.6883125,0.6883125,0.6883125c0.3766212,0,0.6883125-0.3051949,0.6883125-0.6883125l-0.0064964-3.0974026
			c0,0,0.1688347-0.1948051,0.4350662-0.3896103c0.6428566-0.454546,1.2532463-0.2987022,1.2532463,0.4805183l0.0194817,3.0194817
			c0,0.3766212,0.3051949,0.6753235,0.6753235,0.6753235s0.6753235-0.3051949,0.6753235-0.6753235L59.4642868,21.5954533z"/>
		<path class="st3" d="M39.7045441,25.3811684c0.1558456-0.2597408,0.1818199-0.4480515,0.1818199-0.4480515l-1.5519485-4.0584431
			c0,0-0.2792206-0.7857132,0.3376617-1.0194798c0.6558456-0.2467537,0.8961029,0.3831158,0.9415588,0.5129871
			c0.0519485,0.1298714,0.9805183,2.6103916,0.9805183,2.6103916l0.8961067-2.6038971c0,0,0.2597389-0.8116875,0.9740257-0.5194798
			C43.0551949,20.0954552,42.75,20.8876629,42.75,20.8876629s-0.9155846,2.7142849-1.6883125,4.681818
			c-0.4610405,1.1753254-0.8506508,1.2922077-1.2987022,1.4025974c-0.5974007,0.1493511-1.7337646,0.0714302-1.7337646-0.668829
			c0-0.59091,0.6038971-0.6233768,0.8766212-0.6168842C38.9318161,25.6863613,39.4902573,25.7383118,39.7045441,25.3811684"/>
	</g>
	<g>
		<path class="st3" d="M36.100647,18.5629845l-1.4155846,3.9155846l-1.5454521-3.8961029
			c0,0-0.227272-0.7337666-0.8766251-0.7337666c-0.7467518,0-0.7207794,0.59091-0.7402592,0.7337666s0,6.0844154,0,6.0844154
			s-0.0064926,0.6233768,0.6753254,0.6233768c0.7012978,0,0.6688309-0.6298695,0.6753235-0.6298695s0-3.136364,0-3.136364
			l1.136364,3.136364c0,0,0.1688309,0.6168823,0.6948051,0.6038952c0.5259743-0.012989,0.6753235-0.6038952,0.6753235-0.6038952
			l0.9545479-3.1298714v3.1298714c0,0,0,0.6298695,0.6883125,0.6298695c0.6688309,0,0.6688309-0.6298695,0.6688309-0.6298695
			v-6.0714302c0,0,0-0.7402592-0.7272758-0.7402592C36.3668823,17.8551922,36.1396103,18.433115,36.100647,18.5629845
			c-0.0064926,0.0129871-0.0064926,0.0259743-0.0064926,0.0259743"/>
		<path class="st3" d="M64.4837646,27.6863632H52.5097389h-8.7922058l0.0064926,0.0064945
			c-1.7402611,2.0324669-4.3181801,3.3311672-7.2077904,3.3311672c-5.2337685,0-9.4740276-4.2402611-9.4740276-9.4740257
			s4.2402592-9.4740267,9.4740276-9.4740267c2.8961029,0,5.4935036,1.3051958,7.227272,3.3506498h1.9025955
			c-1.9740257-2.9415588-5.3246727-4.8766232-9.1298676-4.8766232c-6.0779247,0-11.0000019,4.9285717-11.0000019,11
			s4.9220791,11,11.0000019,11c3.1883087,0,6.0519447-1.363636,8.0584412-3.5259743l19-0.0194798L64.4837646,27.6863632z"/>
	</g>
	<g>
		<path class="st2" d="M48.5551949,21.3032436c0.0389633-0.0519466,0.4935074-0.4220772,0.4545441-1.40909
			c-0.0714264-1.9935055-1.8051949-1.9740257-2.1883087-1.9805202c-0.6168861-0.0194798-0.9870148-0.0129852-2.1233788,0
			C43.7370148,17.9201279,43.75,18.7902584,43.75,18.7902584v6.4999981h3.227272
			c1.727272,0,2.3701324-0.9480515,2.3701324-2.2792206C49.3474045,21.6733761,48.5551949,21.3032436,48.5551949,21.3032436
			 M45.1396103,19.2902565h1.7857132c0.3571434,0.0064945,0.7337685,0.2012997,0.7337685,0.7337666
			c0,0.5584412-0.3246765,0.7337666-0.7337685,0.7337666h-1.7857132V19.2902565z M47.0487022,23.9655819h-1.9090919v-1.8246746
			h1.9090919c0.4610367,0.0259724,0.9090881,0.2597389,0.9090881,0.90909
			C47.9577904,23.7188301,47.5487022,23.9655819,47.0487022,23.9655819"/>
	</g>
</g>
</svg>
