<?xml version="1.0" encoding="utf-8"?>
<!-- Generator: Adobe Illustrator 26.3.1, SVG Export Plug-In . SVG Version: 6.00 Build 0)  -->
<svg version="1.1" id="Layer_1" xmlns="http://www.w3.org/2000/svg" xmlns:xlink="http://www.w3.org/1999/xlink" x="0px" y="0px"
	 viewBox="0 0 90 43.1" style="enable-background:new 0 0 90 43.1;" xml:space="preserve">
<style type="text/css">
	.st0{fill:#FFFFFF;}
	.st1{fill:#F2F5F7;}
	.st2{fill:#D13239;}
	.st3{fill:#B3B2B1;}
</style>
<g>
	<path class="st0" d="M2.3,0.5h85.4c1,0,1.8,0.8,1.8,1.8v38.6c0,1-0.8,1.8-1.8,1.8H2.3c-1,0-1.8-0.8-1.8-1.8V2.3
		C0.5,1.3,1.3,0.5,2.3,0.5z"/>
	<path class="st1" d="M87.7,1C88.4,1,89,1.6,89,2.3v38.6c0,0.7-0.6,1.3-1.3,1.3l0,0H2.3c-0.7,0-1.3-0.6-1.3-1.3l0,0V2.3
		C1,1.6,1.6,1,2.3,1H87.7 M87.7,0H2.3C1,0,0,1,0,2.3v38.6c0,1.3,1,2.3,2.3,2.3h85.4c1.3,0,2.3-1,2.3-2.3V2.3C90,1,89,0,87.7,0z"/>
</g>
<g id="Layer_2_00000093144612735889614870000018421941789243276991_">
	<g id="Layer_1-2">
		<polygon class="st2" points="25.2,23.3 30.9,23.3 30.6,24.6 25.9,29 29.9,29 29.7,30.4 23.9,30.4 24.1,29 28.6,24.7 25,24.7 		"/>
		<path class="st2" d="M19.1,21.1c-0.1-0.1-0.3-0.2-0.5-0.3c-0.2-0.1-0.4-0.1-0.7-0.2c-0.3,0-0.6-0.1-0.8-0.1c-0.2,0-0.3,0-0.3,0
			h-4.3L11,30.4h1.5l0.6-3.7l3,0c0,0,1.2,0,2-0.4c0.8-0.4,1-1.4,1-1.4s0.1-0.4,0.2-0.8c0.1-0.5,0.2-1.1,0.2-1.4c0-0.1,0-0.2,0-0.2
			c0-0.1,0-0.2,0-0.3c0-0.3-0.1-0.6-0.2-0.9C19.3,21.3,19.2,21.2,19.1,21.1z M17.9,22.9c0,0-0.1,0.8-0.3,1.8
			c-0.1,0.4-0.3,0.6-0.7,0.6c-0.4,0.1-0.7,0.1-1.1,0.1l-2.5,0l0.5-3.3h2.3h0.4c0.3,0,0.5,0,0.8,0c0.2,0,0.4,0.1,0.5,0.2
			c0.1,0.1,0.1,0.2,0.1,0.3C17.9,22.7,17.9,22.8,17.9,22.9z"/>
		<polygon class="st2" points="38.5,20.5 39.9,20.5 38.3,30.4 36.8,30.4 		"/>
		<polygon class="st2" points="46.3,23.3 47.7,23.3 48.2,28.3 50.4,23.3 52.1,23.3 52.7,28.3 54.8,23.3 56.3,23.3 53.2,30.4 
			51.4,30.4 50.9,25.4 48.7,30.4 47,30.4 		"/>
		<path class="st2" d="M35.7,23.4c-0.4-0.1-1.1-0.2-1.7-0.2c-0.4,0-0.7,0-1.1,0.1c0,0-1,0.2-1.6,0.9s-0.8,2.3-0.8,2.3
			s-0.4,1.8-0.2,2.4c0.1,0.6,0.3,1.1,1,1.4c0.4,0.2,0.8,0.2,1.2,0.2c0,0,1.2,0.1,2.1-0.1c0.5-0.1,1-0.4,1.4-0.8
			c0.1-0.2,0.3-0.4,0.4-0.6c0.1-0.2,0.2-0.4,0.2-0.6l0.1-0.4h-1.5c0,0-0.1,1-0.9,1.1c-0.5,0.1-1,0.1-1.4,0c-0.2,0-1,0-1-0.7v0
			c0-0.8,0.1-1.1,0.1-1.1l4.8,0l0.2-1.2C37.1,24.8,37,23.8,35.7,23.4z M35.4,26h-3.3l0.1-0.5c0,0,0.1-0.4,0.3-0.6s0.5-0.2,0.8-0.2
			s1-0.1,1.6,0c0.2,0,0.4,0.2,0.4,0.3C35.5,25.4,35.4,26,35.4,26z"/>
		<path class="st2" d="M31.8,28.4L31.8,28.4C31.8,28.5,31.8,28.4,31.8,28.4z"/>
		<path class="st2" d="M40.8,28.4L40.8,28.4z"/>
		<path class="st2" d="M44.8,23.4c-0.4-0.1-1.1-0.2-1.7-0.2c-0.4,0-0.7,0-1.1,0.1c0,0-1,0.2-1.6,0.9s-0.8,2.3-0.8,2.3
			s-0.4,1.8-0.2,2.4c0.1,0.6,0.3,1.1,1,1.4c0.4,0.2,0.8,0.2,1.2,0.2c0,0,1.2,0.1,2.1-0.1c0.5-0.1,1-0.4,1.4-0.8
			c0.1-0.2,0.3-0.4,0.4-0.6c0.1-0.2,0.2-0.4,0.2-0.6l0.1-0.4h-1.5c0,0-0.1,1-0.9,1.1c-0.5,0.1-1,0.1-1.4,0.1c-0.2,0-1,0-1-0.7v0
			c0-0.8,0.1-1.1,0.1-1.1l4.8,0l0.2-1.2C46.2,24.8,46,23.8,44.8,23.4z M44.5,26h-3.3l0.1-0.5c0,0,0.1-0.4,0.3-0.6s0.5-0.2,0.8-0.2
			s1-0.1,1.6,0c0.2,0,0.4,0.2,0.4,0.3C44.6,25.4,44.5,26,44.5,26z"/>
		<path class="st2" d="M58,23.3l0.9,5.2l2.7-5.2l1.5,0l-3.8,7.4c0,0-0.7,1.4-1.1,1.7c-0.4,0.3-0.7,0.5-1,0.5c-0.3,0-0.5,0-0.8,0
			l-0.4-0.1l0.2-1.3c0,0,0.6,0.1,1,0s0.6-0.8,0.6-0.8l0.2-0.3l-1.4-7.2L58,23.3L58,23.3z"/>
		<path class="st3" d="M63.6,24h1.5l0.1-0.6c0,0,0.2-1.1,0.5-1.3c0.2-0.1,0.3-0.1,0.5-0.2c0.4-0.1,0.9-0.1,1.3-0.1
			c0.6,0,0.9,0,1.5,0.1c0.7,0.1,0.5,0.7,0.5,0.7l-0.1,0.9c0,0.2-0.1,0.5-0.2,0.7c-0.1,0.2-0.5,0.4-0.7,0.5c-0.5,0.2-2.3,0.6-2.3,0.6
			l-1.4,0.4c0,0-0.8,0.2-1.3,0.8c-0.4,0.4-0.6,0.9-0.7,1.4c-0.1,0.3-0.4,2.4-0.4,2.4H70l0.2-1.5l-5.9,0l0.1-0.6c0,0,0.1-0.6,0.3-0.8
			c0.1-0.1,0.1-0.2,0.6-0.3c0.3-0.1,1.2-0.4,1.2-0.4l2.2-0.6c0,0,1.2-0.3,1.7-1c0.5-0.7,0.7-1.9,0.7-1.9s0.1-1.2,0-1.6
			c-0.2-0.5-0.5-0.8-0.9-1c-0.4-0.2-0.9-0.3-2.2-0.3c-1.3,0-2,0.1-2.7,0.3c-0.7,0.2-1.1,0.7-1.3,1.3C63.8,22.7,63.6,24,63.6,24
			L63.6,24z"/>
		<path class="st3" d="M77.6,26.8l1-6.2h-1.8L71,26.7l-0.3,1.6h5l-0.4,2.2H77l0.4-2.2h1.4l0.2-1.5H77.6z M76,26.8h-3.2l3.9-4.2
			L76,26.8z"/>
		<path class="st3" d="M22.3,21.4H27c0,0,1.1-0.8,1.8-1.4c0.8-0.5,2.1-1.4,2.1-1.4l-2.7-1.2c0,0-2.3,1.4-3.2,2.1
			C24.2,19.9,22.3,21.4,22.3,21.4L22.3,21.4z"/>
		<path class="st3" d="M32.5,17.7l-2.2-1.5c1.5-0.8,3-1.5,4.6-2.2c2.6-1,4-1.5,4-1.5l0.4,2.1c0,0-2.5,0.8-4,1.5
			C34.4,16.6,33.4,17.1,32.5,17.7z"/>
		<path class="st3" d="M41,14.2L40.6,12c0,0,2.7-0.7,5.2-1.2s5.7-0.7,5.7-0.7l-1.1,3.3c0,0-2.9-0.4-5.6,0
			C43.5,13.6,42.3,13.8,41,14.2z"/>
		<path class="st3" d="M52.1,13.8l1.8-3.7c0,0,4-0.1,7.4,0.5c3.4,0.5,6.6,1.4,6.5,1.4l-8.7,4.6c-1.4-0.9-3-1.6-4.6-2.1
			C53.2,14,52.1,13.8,52.1,13.8L52.1,13.8z"/>
		<path class="st3" d="M60.8,17.5l1.9,1.5h15.8c0,0,0-0.5-0.5-1.2c-0.3-0.5-0.7-0.9-1.2-1.4c-0.5-0.4-0.9-0.8-1.4-1.1
			c-1.4-0.9-2.2-1.3-3.6-1.9L60.8,17.5z"/>
		<path class="st2" d="M23.4,23.3c-0.6,0-1.2,0.2-1.6,0.5l0.1-0.5h-1.6L19,30.4h1.6l0.7-3.9c0.2-0.8,0.7-1.8,1.9-1.8H24l0.2-1.4
			H23.4z"/>
	</g>
</g>
</svg>
