<?xml version="1.0" encoding="utf-8"?>
<!-- Generator: Adobe Illustrator 27.7.0, SVG Export Plug-In . SVG Version: 6.00 Build 0)  -->
<svg version="1.1" id="Layer_1" xmlns="http://www.w3.org/2000/svg" xmlns:xlink="http://www.w3.org/1999/xlink" x="0px" y="0px"
	 viewBox="0 0 90 43.0999985" style="enable-background:new 0 0 90 43.0999985;" xml:space="preserve">
<style type="text/css">
	.st0{fill:#FF4785;}
	.st1{fill:#F2F5F7;}
	.st2{fill:#FFFFFF;}
</style>
<path class="st0" d="M2.3,0.5h85.4000015c1,0,1.8000031,0.8,1.8000031,1.8v38.5999985c0,1-0.8000031,1.7999992-1.8000031,1.7999992
	H2.3c-1,0-1.8-0.7999992-1.8-1.7999992V2.3C0.5,1.3,1.3,0.5,2.3,0.5z"/>
<path class="st1" d="M87.6999969,1C88.4000015,1,89,1.6,89,2.3v38.5999985c0,0.7000008-0.5999985,1.2999992-1.3000031,1.2999992l0,0
	H2.3c-0.7,0-1.3-0.5999985-1.3-1.2999992l0,0V2.3C1,1.6,1.6,1,2.3,1H87.6999969 M87.6999969,0H2.3C1,0,0,1,0,2.3v38.5999985
	c0,1.2999992,1,2.2999992,2.3,2.2999992h85.4000015c1.3000031,0,2.3000031-1,2.3000031-2.2999992V2.3C90,1,89,0,87.6999969,0z"/>
<g>
	<g transform="matrix(4.16667,0,0,4.16667,638.169,148.314)">
		<path class="st2" d="M-140.5583038-30.9425583c-0.3627625,0-0.6567993-0.2940445-0.6567993-0.6568031
			c0-0.3627033,0.2940369-0.6567497,0.6567993-0.6567497s0.6567993,0.2940464,0.6567993,0.6567497
			C-139.9015045-31.2366028-140.1955414-30.9425583-140.5583038-30.9425583 M-144.1626129-30.9425583
			c-0.3627625,0-0.6568146-0.2940445-0.6568146-0.6568031c0-0.3627033,0.2940521-0.6567497,0.6568146-0.6567497
			c0.3627472,0,0.6567993,0.2940464,0.6567993,0.6567497C-143.5058136-31.2366028-143.7998657-30.9425583-144.1626129-30.9425583
			 M-140.5583038-33.0633316c-0.3179169,0-0.6118927,0.1016006-0.8519592,0.2737656l-1.3079529,0.9517727
			c-0.1138916-0.6950741-0.7170868-1.2255383-1.444397-1.2255383c-0.8085938,0-1.463974,0.6554413-1.463974,1.4639702
			c0,0.8085823,0.6553802,1.4640255,1.463974,1.4640255c0.3196411,0,0.6151581-0.1027451,0.8558655-0.2765408l1.3041534-0.9486713
			c0.1139984,0.69491,0.7170868,1.2252121,1.4442902,1.2252121c0.8085327,0,1.4640198-0.6554432,1.4640198-1.4640255
			C-139.0942841-32.4078903-139.7497711-33.0633316-140.5583038-33.0633316"/>
	</g>
	<g transform="matrix(4.16667,0,0,4.16667,590.618,405.241)">
		<path class="st2" d="M-129.7664642-90.3167572c0-0.1409607-0.1133423-0.2556686-0.2526093-0.2556686
			c-0.1393433,0-0.2527313,0.1147079-0.2527313,0.2556686s0.1133881,0.255722,0.2527313,0.255722
			C-129.8798065-90.0610352-129.7664642-90.1757965-129.7664642-90.3167572 M-129.4272461-90.3167572
			c0,0.330246-0.2655487,0.5989609-0.5918274,0.5989609c-0.3264008,0-0.5919037-0.2687149-0.5919037-0.5989609
			s0.2655029-0.5989609,0.5919037-0.5989609C-129.6927948-90.9157181-129.4272461-90.6470032-129.4272461-90.3167572
			 M-131.7948151-90.9047394h-0.3442841l-0.2445679,0.6266327l-0.2632294-0.6266327h-0.367157l0.4670258,1.0454407
			l-0.1614075,0.4135284h0.344223L-131.7948151-90.9047394z M-128.7242279-90.9057693
			c-0.0727386,0-0.1465149,0.0148392-0.2157593,0.0429993v-0.0445786h-0.3392181v1.1855316h0.3392181v-0.6235886
			c0-0.2110367,0.1936798-0.2171249,0.2157593-0.2171249c0.0567474,0,0.1081238,0.0186996,0.1446075,0.052681
			c0.041687,0.0386505,0.0626678,0.0965424,0.0626678,0.1718903v0.6083679h0.3392792v-0.6083679
			C-128.1776733-90.7107162-128.4526367-90.9057693-128.7242279-90.9057693 M-133.4763489-90.3463821
			c-0.0146179-0.1270447-0.1214905-0.2260437-0.250824-0.2260437c-0.139328,0-0.2526703,0.1147079-0.2526703,0.2556686
			s0.1133423,0.255722,0.2526703,0.255722c0.1293335,0,0.2362061-0.0990524,0.250824-0.2260437V-90.3463821z
			 M-133.1371765-89.721817h-0.3391724v-0.0532227c-0.0762634,0.0363159-0.1611328,0.0572433-0.250824,0.0572433
			c-0.3263855,0-0.5918884-0.2687149-0.5918884-0.5989609s0.2655029-0.5989609,0.5918884-0.5989609
			c0.0896912,0,0.1745605,0.0209274,0.250824,0.0572433v-0.0488739h0.3391724V-89.721817z M-134.7619629-90.3167572
			c0-0.1409607-0.1133423-0.2556686-0.2526093-0.2556686c-0.139328,0-0.2526855,0.1147079-0.2526855,0.2556686
			s0.1133575,0.255722,0.2526855,0.255722C-134.8753052-90.0610352-134.7619629-90.1757965-134.7619629-90.3167572
			 M-134.4226837-90.3167572c0,0.330246-0.265564,0.5989609-0.5918884,0.5989609
			c-0.0925293,0-0.1798401-0.0222321-0.2579041-0.0606689v0.3288956h-0.3391571v-1.4577789h0.3391571v0.0523529
			c0.078064-0.0384903,0.1653748-0.0607224,0.2579041-0.0607224
			C-134.6882477-90.9157181-134.4226837-90.6470032-134.4226837-90.3167572 M-131.2022705-90.5724258
			c0.085083,0,0.1639557,0.0431671,0.2110291,0.1154175l0.2833405-0.188858
			c-0.1100311-0.1689529-0.2948151-0.2698517-0.4943695-0.2698517c-0.3263855,0-0.5918884,0.2687149-0.5918884,0.5989609
			s0.2655029,0.5989609,0.5918884,0.5989609c0.1977081,0,0.3815155-0.0993195,0.491806-0.2656708l-0.2817993-0.1912384
			c-0.0470886,0.0712128-0.1255798,0.1136703-0.2100067,0.1136703c-0.139328,0-0.2526703-0.1147614-0.2526703-0.255722
			S-131.3415985-90.5724258-131.2022705-90.5724258 M-126.626564-90.3167572c0-0.1409607-0.1133423-0.2556686-0.2526703-0.2556686
			c-0.1392746,0-0.2526779,0.1147079-0.2526779,0.2556686s0.1134033,0.255722,0.2526779,0.255722
			C-126.7399063-90.0610352-126.626564-90.1757965-126.626564-90.3167572 M-126.2847824-90.9073486v1.4577789h-0.3391724v-0.3276443
			c-0.0774612,0.037674-0.1637878,0.0594177-0.2552795,0.0594177c-0.3263931,0-0.5918427-0.2687149-0.5918427-0.5989609
			s0.2654495-0.5989609,0.5918427-0.5989609c0.0914917,0,0.1778183,0.0217438,0.2552795,0.0594177v-0.0510483H-126.2847824z
			 M-127.7907257-91.4373245c-0.1092148-0.0001068-0.1978226,0.0893707-0.1979294,0.1998901s0.0883331,0.2002182,0.1975479,0.200325
			c0.1092148,0.0000534,0.1978226-0.0894241,0.197937-0.1999435
			C-127.5931168-91.3475189-127.6815109-91.4372177-127.7907257-91.4373245 M-127.9600601-90.9096298h0.3391647v1.1878128
			h-0.3391647V-90.9096298z"/>
	</g>
</g>
</svg>
