<svg id="Layer_1" data-name="Layer 1" xmlns="http://www.w3.org/2000/svg" viewBox="0 0 90 43.14"><defs><style>.cls-1{fill:none;}  .cls-2{fill:#fff;}  .cls-3{fill:#f2f5f7;}  .cls-4{fill:#253b80;}  .cls-5{fill:#179bd7;}  .cls-6{clip-path:url(#clip-path);}  .cls-7{clip-path:url(#clip-path-2);}  .cls-8{clip-path:url(#clip-path-3);}  .cls-9{clip-path:url(#clip-path-4);}</style><clipPath id="clip-path"><rect class="cls-1" x="-86.93" y="317.58" width="40.5" height="22.5" rx="3.89"/></clipPath><clipPath id="clip-path-2"><path class="cls-1" d="M-77,325.14a6,6,0,0,1-1.73,4.23l2.34,3.22h-2.09l-2.55-3.5.66-.5a4.28,4.28,0,0,0,1.71-3.45ZM-83,332.59h1.7v-7.45H-83Zm7,0h1.6v-7.45h-1.6Zm15.64-5.29a1.86,1.86,0,0,0-1.58.72v-.59h-1.52v5.16h1.54v-2.71a1.09,1.09,0,0,1,1.15-1.17c.67,0,1.06.41,1.06,1.16v2.72h1.53v-3.28a2,2,0,0,0-2.18-2Zm-9.2.13H-68v5.16h-1.53v-.33a2.71,2.71,0,0,1-1.52.47A2.71,2.71,0,0,1-73.7,330,2.71,2.71,0,0,1-71,327.29a2.71,2.71,0,0,1,1.52.47v-.33Zm0,2.58a1.35,1.35,0,0,0-1.38-1.32A1.35,1.35,0,0,0-72.27,330a1.36,1.36,0,0,0,1.39,1.33A1.36,1.36,0,0,0-69.5,330Zm3.9-1.9v-.68h-1.56v5.16h1.57v-2.41c0-.81.87-1.25,1.47-1.25h0v-1.49a1.89,1.89,0,0,0-1.5.67Zm12.23-.68h1.53v5.16h-1.53v-.33a2.7,2.7,0,0,1-1.51.47A2.7,2.7,0,0,1-57.57,330a2.7,2.7,0,0,1,2.69-2.72,2.7,2.7,0,0,1,1.51.47v-.33Zm0,2.58a1.35,1.35,0,0,0-1.39-1.32A1.35,1.35,0,0,0-56.14,330a1.36,1.36,0,0,0,1.38,1.33A1.36,1.36,0,0,0-53.37,330Zm3.16.75a1,1,0,0,0-1,1,1,1,0,0,0,1,1,1,1,0,0,0,1-1A1,1,0,0,0-50.21,330.76Z"/></clipPath><clipPath id="clip-path-3"><rect class="cls-1" x="24.75" y="317.58" width="40.5" height="22.5" rx="3.89"/></clipPath><clipPath id="clip-path-4"><path class="cls-1" d="M34.65,325.14a6,6,0,0,1-1.73,4.23l2.34,3.22h-2.1l-2.54-3.5.66-.5A4.28,4.28,0,0,0,33,325.14Zm-5.93,7.45h1.7v-7.45h-1.7Zm7,0h1.6v-7.45h-1.6Zm15.64-5.29a1.86,1.86,0,0,0-1.58.72v-.59H48.29v5.16h1.54v-2.71A1.09,1.09,0,0,1,51,328.71c.67,0,1.06.41,1.06,1.16v2.72h1.52v-3.28a2,2,0,0,0-2.17-2Zm-9.2.13h1.53v5.16H42.19v-.33a2.76,2.76,0,0,1-1.52.47,2.72,2.72,0,0,1,0-5.44,2.76,2.76,0,0,1,1.52.47v-.33Zm0,2.58a1.39,1.39,0,1,0-1.38,1.33A1.35,1.35,0,0,0,42.18,330Zm3.9-1.9v-.68H44.51v5.16h1.57v-2.41c0-.81.88-1.25,1.48-1.25h0v-1.49a1.89,1.89,0,0,0-1.5.67Zm12.23-.68h1.53v5.16H58.31v-.33a2.72,2.72,0,1,1,0-4.5v-.33Zm0,2.58a1.39,1.39,0,1,0-1.39,1.33A1.35,1.35,0,0,0,58.31,330Zm3.15.75a1,1,0,1,0,1,1A1,1,0,0,0,61.46,330.76Z"/></clipPath></defs><title>Payment-Method-Logos</title><rect class="cls-2" x="0.5" y="0.5" width="89" height="42.14" rx="1.78"/><path class="cls-3" d="M87.72,1A1.28,1.28,0,0,1,89,2.28V40.87a1.27,1.27,0,0,1-1.28,1.27H2.28A1.27,1.27,0,0,1,1,40.87V2.28A1.28,1.28,0,0,1,2.28,1H87.72m0-1H2.28A2.28,2.28,0,0,0,0,2.28V40.87a2.28,2.28,0,0,0,2.28,2.27H87.72A2.28,2.28,0,0,0,90,40.87V2.28A2.28,2.28,0,0,0,87.72,0Z"/><path class="cls-4" d="M18.46,17.25c-.3,2-1.83,2-3.3,2h-.85l.59-3.73a.46.46,0,0,1,.46-.39h.38c1,0,2,0,2.44.57A1.86,1.86,0,0,1,18.46,17.25ZM17.82,12H12.25a.78.78,0,0,0-.76.63L9.24,27a.44.44,0,0,0,.1.37.46.46,0,0,0,.35.17h2.67a.78.78,0,0,0,.76-.64L13.76,23a.77.77,0,0,1,.77-.63h1.75c3.67,0,5.78-1.77,6.34-5.29a4.31,4.31,0,0,0-.71-3.59A5.43,5.43,0,0,0,17.82,12Z"/><path class="cls-4" d="M30.74,22.37a3,3,0,0,1-3,2.54,2.25,2.25,0,0,1-1.79-.72,2.28,2.28,0,0,1-.42-1.9,3,3,0,0,1,3-2.54,2.12,2.12,0,0,1,2.23,2.62Zm3.71-5.18H31.79a.46.46,0,0,0-.46.39l-.12.75L31,18.05c-.58-.83-1.87-1.11-3.17-1.11a6.13,6.13,0,0,0-5.94,5.36,5,5,0,0,0,1,4.09,4.12,4.12,0,0,0,3.35,1.35A5.06,5.06,0,0,0,30,26.22l-.12.74a.49.49,0,0,0,.1.37.46.46,0,0,0,.36.17h2.4a.78.78,0,0,0,.77-.64l1.44-9.11a.46.46,0,0,0-.1-.39A.45.45,0,0,0,34.45,17.19Z"/><path class="cls-4" d="M48.64,17.19H46a.77.77,0,0,0-.63.34L41.64,23l-1.57-5.22a.76.76,0,0,0-.75-.55H36.69a.45.45,0,0,0-.39.2.47.47,0,0,0,0,.43l3,8.66-2.77,3.88a.46.46,0,0,0,0,.48.46.46,0,0,0,.42.25h2.67a.77.77,0,0,0,.64-.33L49,17.91a.45.45,0,0,0,0-.46A.44.44,0,0,0,48.64,17.19Z"/><path class="cls-5" d="M58.15,17.25c-.3,2-1.83,2-3.31,2H54l.59-3.73a.45.45,0,0,1,.45-.39h.39c1,0,2,0,2.44.57A1.85,1.85,0,0,1,58.15,17.25ZM57.51,12H51.94a.78.78,0,0,0-.76.63L48.93,26.94a.48.48,0,0,0,.11.38.46.46,0,0,0,.35.16h2.85a.55.55,0,0,0,.54-.46L53.41,23a.78.78,0,0,1,.76-.63h1.76c3.67,0,5.78-1.76,6.35-5.29a4.32,4.32,0,0,0-.71-3.59A5.34,5.34,0,0,0,57.51,12Z"/><path class="cls-5" d="M70.43,22.37a3,3,0,0,1-3,2.54,2.25,2.25,0,0,1-1.79-.72,2.28,2.28,0,0,1-.42-1.9,3,3,0,0,1,3-2.54,2.27,2.27,0,0,1,1.78.73A2.32,2.32,0,0,1,70.43,22.37Zm3.71-5.18H71.48a.46.46,0,0,0-.46.39l-.12.75-.19-.28a3.81,3.81,0,0,0-3.13-1.11,6.12,6.12,0,0,0-5.94,5.36,5,5,0,0,0,1,4.09A4.14,4.14,0,0,0,66,27.74a5.05,5.05,0,0,0,3.68-1.52l-.11.74a.42.42,0,0,0,.1.37.46.46,0,0,0,.35.17h2.4a.78.78,0,0,0,.77-.64l1.42-9.11a.47.47,0,0,0-.46-.56Z"/><path class="cls-5" d="M77.28,12.43,75,27a.48.48,0,0,0,.1.37.46.46,0,0,0,.35.17h2.28a.76.76,0,0,0,.76-.64l2.27-14.28a.45.45,0,0,0-.1-.38.48.48,0,0,0-.35-.16H77.77A.45.45,0,0,0,77.28,12.43Z"/></svg>
