<?xml version="1.0" encoding="utf-8"?>
<!-- Generator: Adobe Illustrator 27.7.0, SVG Export Plug-In . SVG Version: 6.00 Build 0)  -->
<svg version="1.1" id="Layer_1" xmlns="http://www.w3.org/2000/svg" xmlns:xlink="http://www.w3.org/1999/xlink" x="0px" y="0px"
	 viewBox="0 0 90 43.0999985" style="enable-background:new 0 0 90 43.0999985;" xml:space="preserve">
<style type="text/css">
	.st0{fill:#FFFFFF;}
	.st1{fill:#F2F5F7;}
	.st2{fill:none;}
	.st3{fill:#000098;}
	.st4{fill:#34CC67;}
	.st5{fill:#3399FE;}
</style>
<path class="st0" d="M2.3,0.5h85.4000015c1,0,1.8000031,0.8,1.8000031,1.8v38.5999985c0,1-0.8000031,1.7999992-1.8000031,1.7999992
	H2.3c-1,0-1.8-0.7999992-1.8-1.7999992V2.3C0.5,1.3,1.3,0.5,2.3,0.5z"/>
<path class="st1" d="M87.6999969,1C88.4000015,1,89,1.6,89,2.3v38.5999985c0,0.7000008-0.5999985,1.2999992-1.3000031,1.2999992l0,0
	H2.3c-0.7,0-1.3-0.5999985-1.3-1.2999992l0,0V2.3C1,1.6,1.6,1,2.3,1H87.6999969 M87.6999969,0H2.3C1,0,0,1,0,2.3v38.5999985
	c0,1.2999992,1,2.2999992,2.3,2.2999992h85.4000015c1.3000031,0,2.3000031-1,2.3000031-2.2999992V2.3C90,1,89,0,87.6999969,0z"/>
<g>
	<path class="st2" d="M40.2570305,19.8515549c-2.4771919,0-2.4736404,3.9413719,0,3.9413719
		C42.6787872,23.7929268,42.670105,19.8515549,40.2570305,19.8515549z"/>
	<path class="st2" d="M31.6709976,23.8031845c2.4718704,0,2.4754105-3.9409733,0-3.9409733v-0.0002041v-0.0051308
		C29.2563457,19.8568764,29.2474728,23.7980556,31.6709976,23.8031845z"/>
	<path class="st2" d="M62.5472031,19.6027927c-0.7969894,0-1.4416847,0.5288906-1.6940002,1.3586311h3.2359009
		C64.0285416,20.1316833,63.3718147,19.6027927,62.5472031,19.6027927z"/>
	<path class="st2" d="M75.2592545,19.8150597c-2.4754105,0-2.4736404,3.9413719,0,3.9413719
		C77.6827927,23.7564316,77.6723251,19.8150597,75.2592545,19.8150597z"/>
	<path class="st3" d="M45.8645859,25.9864388v1.6977444c1.6576996,0.114027,2.8969955-0.7364235,3.4813194-2.0743561
		l3.2722206-7.4226894l-2.0536461,0.0035515v-0.0001926l-1.8772736,4.7138939l-1.7543755-4.7138939h-2.0743561l2.7553558,6.7586555
		C47.5274162,25.4314919,47.1419411,25.9690762,45.8645859,25.9864388z"/>
	<path class="st3" d="M79,25.3744793v-7.1701832h-1.7908707v0.7760868c-0.994072-1.2377052-3.4675217-1.3552837-4.8125458,0.1088963
		c-1.2842636,1.3984852-1.3448181,3.9257908,0,5.3915482c1.3450241,1.4657555,3.8184738,1.3466015,4.8125458,0.1088963v0.7847557H79
		z M75.2592545,23.7564316c-2.4736404,0-2.4754105-3.9413719,0-3.9413719
		C77.6723251,19.8150597,77.6827927,23.7564316,75.2592545,23.7564316z"/>
	<path class="st3" d="M70.2273483,18.0539799c-0.8755798-0.0276699-1.7248001,0.3017406-2.3527145,0.9125919
		c-0.6239777,0.6239872-0.9437637,1.4209766-0.9437637,2.4199867v4.0173111h1.9636917v-4.1106281
		c-0.0344162-0.7286205,0.5283585-1.3471794,1.2569809-1.3815918c0.0275497-0.0012989,0.05513-0.0017338,0.0827026-0.0013123
		c0.2005539,0.0022278,0.4005737,0.0206985,0.5981369,0.0552425v-1.8666286
		C70.6320419,18.0695839,70.4298401,18.0545578,70.2273483,18.0539799z"/>
	<path class="st3" d="M27.9286842,18.2473049v9.3934841h1.7977695v-3.0080566
		c0.9922905,1.2377052,3.4657383,1.3552837,4.8123379-0.1088963c1.3466034-1.46418,1.2842674-3.9928703,0-5.3915482
		c-1.3448296-1.4657555-3.81847-1.3481789-4.8123379-0.1088963v-0.7760868H27.9286842z M31.6709976,19.8568764v0.0051308v0.0002041
		c2.4754105,0,2.4718704,3.9409733,0,3.9409733C29.2474728,23.7980556,29.2563457,19.8568764,31.6709976,19.8568764z"/>
	<path class="st3" d="M43.9959946,25.403883l0.00177-7.1615028h-1.7995491v0.7760754
		c-0.9938698-1.2392826-3.4675064-1.3568611-4.8123398,0.1088963c-1.2844582,1.3984852-1.3465996,3.9238167,0,5.3915482
		c1.3464088,1.4675388,3.8200493,1.3466015,4.8123398,0.1088963v0.7760868H43.9959946z M40.2570305,23.7929268
		c-2.4736404,0-2.4771919-3.9413719,0-3.9413719C42.670105,19.8515549,42.6787872,23.7929268,40.2570305,23.7929268z"/>
	<polygon class="st3" points="70.8323975,19.96558 70.8323822,19.96558 70.8323822,19.9657726 	"/>
	<path class="st3" d="M65.584259,19.6840687c-0.9057007-1.6525822-2.5894394-1.6630325-2.9644623-1.6630325
		c-2.0790138,0.0045624-3.7606964,1.6936512-3.7561226,3.7726803c0.0005417,0.2496166,0.0259247,0.498558,0.0757484,0.7431545
		c0.1487503,0.7305126,0.5109482,1.4006519,1.0408249,1.9250145c1.5661774,1.50383,4.2558289,1.3310223,5.6300507,0.1901722
		l-0.7520142-1.3933563c-1.0284004,0.7898979-3.5245209,1.0682449-4.0362549-0.8279686h5.1287689
		C65.9991302,21.7081184,66.1236115,20.6657143,65.584259,19.6840687z M60.8532028,20.9614239
		c0.2523155-0.8297405,0.8970108-1.3586311,1.6940002-1.3586311c0.8246117,0,1.4813385,0.5288906,1.5419006,1.3586311H60.8532028z"
		/>
	<path class="st3" d="M55.4598732,25.5439396c0.8125839,0,1.4797745-0.2028008,2.0017624-0.6085873
		c0.5281563-0.3938522,0.8271637-1.0235596,0.7985687-1.6817799c0-1.0597668-0.6239891-1.6249599-2.0171394-2.1901512
		l-0.691452-0.2903881c-0.5653992-0.2177925-0.7553749-0.3629913-0.7553749-0.637991
		c0-0.3351784,0.260994-0.5081806,0.7691841-0.5081806c0.6052055,0.0063705,1.1834869,0.2511349,1.6093674,0.6811829
		l0.9869804-1.210083c-0.6587143-0.7259731-1.5091629-1.0871849-2.5843163-1.080286
		c-1.5677567,0-2.6413193,0.8106079-2.6413193,2.1605701c0,1.0579834,0.6395531,1.6525803,1.9585457,2.1901512l0.7691765,0.3182011
		c0.5360069,0.233181,0.7399902,0.3491821,0.7399902,0.6533794c0,0.3906021-0.3959389,0.5945969-0.9145813,0.5945969
		c-0.7103806,0-1.3913803-0.3197899-2.0155602-0.9713879l-0.986969,1.1891689
		C53.1971283,25.0807457,54.184288,25.5439396,55.4598732,25.5439396z"/>
	<g>
		<rect x="11" y="19.772234" class="st4" width="2.7189615" height="9.6627712"/>
		<path class="st5" d="M11,19.7722359c0.0393038-3.3568573,2.8037195-6.0958815,6.1490364-6.1072073
			c3.3610363-0.0113802,6.1513386,2.7345476,6.1908646,6.1072073h-2.6771317
			c-0.0910988-1.8163662-1.4903927-3.2623882-3.1581764-3.4091606c-1.8756886-0.1650696-3.6657963,1.3506451-3.7856321,3.4091606
			C12.8126392,19.7722359,11.9063225,19.7722359,11,19.7722359z"/>
		<path class="st3" d="M20.6627693,19.7722359c-0.0068779,0.5235767-0.0951653,1.366293-0.627449,2.1124229
			c-1.3818016,1.9369411-4.2035646,1.0472069-6.4418478,2.6143856C12.6503687,25.1593761,11.4919081,26.4792213,11,29.4350052
			c0.9063225,0,1.8126392,0,2.7189608,0c0.033597-0.4087772,0.1617432-1.2707748,0.773859-2.1124229
			c0.1173134-0.1613064,0.4394045-0.5965443,0.9620962-0.9411793c1.1398125-0.7515354,2.010025-0.2655163,3.3673248-0.5647087
			c1.8321018-0.4038506,2.9444942-1.8840752,3.2418404-2.2797432c1.1275368-1.5003777,1.2601471-3.0995407,1.2758198-3.7647152
			C22.4475231,19.7722359,21.5551472,19.7722359,20.6627693,19.7722359z"/>
	</g>
</g>
</svg>
