<?xml version="1.0" encoding="utf-8"?>
<!-- Generator: Adobe Illustrator 27.7.0, SVG Export Plug-In . SVG Version: 6.00 Build 0)  -->
<svg version="1.1" id="Layer_1" xmlns="http://www.w3.org/2000/svg" xmlns:xlink="http://www.w3.org/1999/xlink" x="0px" y="0px"
	 viewBox="0 0 90 43.0999985" style="enable-background:new 0 0 90 43.0999985;" xml:space="preserve">
<style type="text/css">
	.st0{fill:#FFFFFF;}
	.st1{fill:#F2F5F7;}
	.st2{fill:#3200FF;}
</style>
<path class="st0" d="M2.3,0.5h85.4000015c1,0,1.8000031,0.8,1.8000031,1.8v38.5999985c0,1-0.8000031,1.7999992-1.8000031,1.7999992
	H2.3c-1,0-1.8-0.7999992-1.8-1.7999992V2.3C0.5,1.3,1.3,0.5,2.3,0.5z"/>
<path class="st1" d="M87.6999969,1C88.4000015,1,89,1.6,89,2.3v38.5999985c0,0.7000008-0.5999985,1.2999992-1.3000031,1.2999992l0,0
	H2.3c-0.7,0-1.3-0.5999985-1.3-1.2999992l0,0V2.3C1,1.6,1.6,1,2.3,1H87.6999969 M87.6999969,0H2.3C1,0,0,1,0,2.3v38.5999985
	c0,1.2999992,1,2.2999992,2.3,2.2999992h85.4000015c1.3000031,0,2.3000031-1,2.3000031-2.2999992V2.3C90,1,89,0,87.6999969,0z"/>
<g>
	<path class="st2" d="M23.2459049,20.9360256c-0.0067101-0.2348518-0.1207829-0.3556347-0.3355045-0.3623447h-1.1541348
		c-0.2751141,0.0134201-0.4160252,0.1677532-0.4227352,0.4495754v2.0734177
		c0.0067101,0.2885342,0.1610413,0.4361553,0.4629955,0.4495754h1.053484c0.1073608,0,0.2013016-0.0402603,0.2751122-0.1207829
		c0.0738125-0.0603905,0.1140728-0.1409111,0.1140728-0.2415619L23.2459049,20.9360256L23.2459049,20.9360256z
		 M19.8573112,20.6407833c0.006712-0.5166759,0.1207829-0.912571,0.3489246-1.180975
		c0.1140709-0.1140709,0.261694-0.2080135,0.4428654-0.2885342c0.1878834-0.0805206,0.3623447-0.1207809,0.536808-0.1207809
		h2.1136761c0.9327011,0.0067101,1.4091187,0.5166759,1.4225388,1.5298996v3.1201897
		c-0.006712,0.3623447-0.1476231,0.6710072-0.4227371,0.9327011c-0.2684021,0.2751141-0.5904865,0.4160252-0.9662514,0.4227352
		h-1.9996052v2.247879h-1.4762192V20.6407833 M27.3994465,23.2375851c0,0.0872326,0.0402603,0.1543331,0.1207809,0.2080135
		c0.0671024,0.0603905,0.1610432,0.0939407,0.268404,0.0939407h1.1340046c0.2549839,0,0.389185-0.1006508,0.395895-0.3019543
		v-0.4227352c0-0.2348518-0.134201-0.3489246-0.4093151-0.3489246h-1.1272945c-0.1476212,0-0.2482738,0.0268402-0.3086643,0.0738106
		c-0.0536804,0.0536823-0.0805206,0.1610432-0.0805206,0.3220844L27.3994465,23.2375851z M29.3252411,20.8957653
		c0.006712-0.2281418-0.127491-0.3355026-0.3958931-0.3287945h-2.9792786v-1.5164776h3.3550434
		c0.9796715,0.0134201,1.4762173,0.4898357,1.4896393,1.4225368v3.180582
		c-0.0067101,0.4026051-0.134201,0.7313976-0.3690548,0.9998016c-0.2482738,0.2751141-0.5703564,0.4093151-0.9662514,0.4093151
		h-2.0264454c-0.9863834-0.0067101-1.4896393-0.4562855-1.5030594-1.3554363v-1.2279472
		c0.0067101-0.9394112,0.4831257-1.4158268,1.4359589-1.4292469h1.9660549l-0.006712-0.1543331 M34.9482956,25.7874184
		c0.1140709-0.006712,0.2214317-0.0469704,0.3019524-0.127491c0.0805206-0.0738125,0.1207809-0.1543331,0.1207809-0.2415638
		v-0.3623447h-1.8922462c-0.2482719,0-0.4428635-0.0335503-0.5904846-0.0939407
		c-0.1543312-0.0536804-0.3086662-0.1610413-0.4697075-0.3153744c-0.1476212-0.1610413-0.254982-0.3287926-0.3220825-0.5032558
		c-0.0671005-0.1610413-0.1006508-0.3623447-0.1006508-0.6106167v-4.482338h1.4829254v4.0059204
		c0,0.3220844,0.134201,0.4831257,0.3958969,0.4831257h1.046772c0.127491,0,0.2348518-0.0402603,0.3220825-0.1207809
		c0.0872307-0.0738106,0.127491-0.1543331,0.127491-0.2549839v-4.1132812h1.4695091v6.6228523
		c-0.0067101,0.4898357-0.134201,0.8857307-0.3757629,1.180975c-0.2482758,0.2952442-0.5837784,0.4495754-1.0132256,0.4562855
		h-3.4556923v-1.5231876h2.9524345 M38.0013771,23.5395393h2.6370621c0.2415657-0.0067101,0.3690567-0.1073608,0.3757668-0.2885342
		v-0.134201c0-0.0402603-0.0134201-0.0805206-0.0335503-0.127491c-0.0603905-0.1140728-0.134201-0.1744633-0.2147255-0.1744633
		h-1.3151703c-0.389183-0.0067101-0.7179794-0.1409111-0.9998016-0.4026051
		c-0.281826-0.2415619-0.4227371-0.5300961-0.4361572-0.8790207v-1.1340046
		c0.0134201-0.8857307,0.4965477-1.3353062,1.4426689-1.3487263h3.0597992v1.5231895h-2.5900917
		c-0.3019562,0-0.4562874,0.0939407-0.4562874,0.2818222v0.1476231c0,0.1945915,0.1543312,0.2885323,0.4697075,0.2885323h1.301754
		c0.3489265,0.0067101,0.6441689,0.140913,0.8924408,0.4026051c0.2482758,0.261694,0.3757668,0.5703583,0.389183,0.932703v1.1071644
		c-0.0067101,0.3086624-0.1543312,0.6240368-0.4294434,0.9327011c-0.134201,0.1543331-0.2751122,0.2549839-0.409317,0.3153744
		c-0.1409111,0.0536804-0.3355026,0.0805206-0.5837784,0.0805206h-3.0933495L38.0013771,23.5395393 M45.0536766,23.2375851
		c0,0.0872326,0.0402603,0.1543331,0.1207809,0.2080135c0.0671005,0.0603905,0.1543312,0.0939407,0.2684021,0.0939407h1.1407127
		c0.2549858,0,0.3891869-0.1006508,0.3958969-0.3019543v-0.4227352c0-0.2348518-0.134201-0.3489246-0.4093132-0.3489246h-1.1272926
		c-0.1476212,0-0.2482719,0.0268402-0.3086624,0.0738106c-0.0536804,0.0536823-0.0805244,0.1610432-0.0805244,0.3220844V23.2375851z
		 M46.9794693,20.8957653c0.0067101-0.2281418-0.127491-0.3355026-0.4026031-0.3287945h-2.9792786v-1.5164776h3.3550415
		c0.9796715,0.0134201,1.4762192,0.4898357,1.4896393,1.4225368v3.180582
		c-0.0067101,0.4026051-0.134201,0.7313976-0.3690529,0.9998016c-0.2482758,0.2751141-0.5703583,0.4093151-0.9662552,0.4093151
		h-2.0331535c-0.9863853-0.0067101-1.4896393-0.4562855-1.5030594-1.3554363v-1.2279472
		c0.0067101-0.9394112,0.4831276-1.4158268,1.4359589-1.4292469h1.9727631V20.8957653 M49.6500893,18.1848927
		c0.0067062-0.4093151,0.1610413-0.7381096,0.4562836-0.9863834c0.2885323-0.2482738,0.664299-0.3824749,1.1340065-0.389185
		h0.9394112v1.4695091h-0.5703583c-0.3153725,0.0067101-0.4697037,0.1543312-0.4764137,0.4495754v0.3220844h1.046772v1.5231895
		h-1.046772v4.4890461h-1.4829292V18.1848927 M56.3870163,20.8689251v-0.0335503
		c0-0.0805206-0.0335503-0.1476212-0.0939445-0.1945915c-0.0671005-0.0469704-0.1543312-0.0738125-0.254982-0.0738125H55.004734
		c-0.134201,0-0.2415619,0.0402622-0.3220825,0.1140728c-0.1006508,0.0671005-0.1543312,0.1610413-0.1543312,0.2751122v0.6106186
		L56.3870163,20.8689251L56.3870163,20.8689251z M54.5551605,23.0228634v0.0939407
		c0,0.1207809,0.0335503,0.2214336,0.0939445,0.2885342c0.0469704,0.0872307,0.1073608,0.134201,0.1945953,0.134201h3.0396652
		v1.5231895h-3.2342606c-0.2952461,0-0.5233841-0.0268402-0.6844292-0.0805206
		c-0.1744614-0.0603905-0.3355026-0.1543331-0.4764137-0.2885342c-0.1610451-0.1610413-0.2751122-0.3220844-0.3287964-0.4965458
		c-0.0603943-0.1744633-0.0939445-0.4093151-0.0939445-0.6978493l-0.0134201-3.0463791
		c0.0134201-0.919281,0.4965477-1.3889866,1.4426689-1.4024086h1.9996033
		c0.9192848,0.013422,1.3889885,0.5032578,1.4024086,1.456089v1.2011051l-3.3416214,1.315176 M61.0303955,25.062727
		c-0.2214317,0-0.4294472-0.0201302-0.6173286-0.0603905c-0.1945953-0.0335503-0.3891869-0.1207809-0.5837784-0.2751141
		c-0.2013054-0.1744614-0.3422127-0.3757629-0.4227371-0.5971966c-0.0805206-0.2147236-0.1207809-0.4629955-0.1207809-0.7313995
		v-2.8383636c-0.0067062-0.2281437,0.0134239-0.4361572,0.0671005-0.6106186
		c0.0469742-0.1744614,0.1543312-0.3489246,0.3153763-0.5166759c0.1811752-0.1744633,0.3623466-0.2952442,0.5569382-0.3556347
		c0.1878815-0.0469704,0.3958969-0.0738106,0.6307487-0.0738106h2.2680054v0.3556347h-2.214325
		c-0.3891869,0-0.6978531,0.0805206-0.9259911,0.2415619c-0.2281456,0.1744633-0.3489265,0.4764156-0.3489265,0.9058628v2.8383656
		c0,0.2013016,0.0335503,0.395895,0.0939445,0.5837765c0.0603905,0.1811714,0.1677513,0.3489246,0.3153725,0.4898357
		c0.1610451,0.1207829,0.3220825,0.2013035,0.4764137,0.2281437c0.1610451,0.0335503,0.3355064,0.0536804,0.5233879,0.0536804
		h2.1136742v0.3556347h-2.1270943 M68.9617157,21.3788929H65.989151c-0.3556366,0.0067101-0.6374588,0.1207809-0.8387604,0.3287945
		c-0.2080154,0.2147217-0.3086624,0.5099659-0.3086624,0.8857307v0.9058609c0,0.1744614,0.0201263,0.3355045,0.0536804,0.4831257
		c0.0402527,0.1543331,0.1274872,0.2885342,0.2751083,0.4026051c0.254982,0.2147236,0.5435181,0.3153744,0.8521805,0.3153744
		h1.8117218c0.7515335-0.0067101,1.1340103-0.4026051,1.1340103-1.1943951L68.9617157,21.3788929L68.9617157,21.3788929z
		 M69.3173523,23.4254684c0,0.2281437-0.020134,0.4294453-0.0469742,0.6039066
		c-0.0469742,0.1945934-0.1476212,0.3757668-0.2952499,0.5502281c-0.3086624,0.3287926-0.6978455,0.4898357-1.154129,0.4764156
		H66.04953c-0.4629974,0-0.8320465-0.134201-1.1205826-0.4093151c-0.2952423-0.268404-0.4428635-0.6441689-0.4428635-1.1272945
		v-0.912571c0.0134201-1.0333538,0.530098-1.5634499,1.5433197-1.58358h2.9457245v-0.4026051
		c0-0.3287945-0.0939407-0.6173286-0.2885284-0.8656025c-0.1207809-0.1610413-0.2616959-0.2684021-0.4227371-0.3220825
		c-0.1610413-0.0402603-0.3489227-0.0671005-0.5502243-0.0671005h-3.2141342v-0.3556347h3.0463791
		c0.2818222,0,0.530098,0.0201302,0.7582397,0.0603905c0.1140747,0.0201302,0.2214355,0.0671005,0.3220825,0.134201
		c0.1073608,0.0603905,0.2013016,0.1543331,0.2885361,0.2751141c0.2751083,0.3556347,0.4093094,0.7582397,0.4026031,1.2145252
		v2.7310047 M72.645546,19.3658676c-0.8253403,0.0134201-1.2346573,0.4629955-1.2145233,1.3487263v4.3414249H71.075386v-4.3347149
		c-0.0201263-1.1407146,0.5233841-1.711071,1.6305542-1.711071h0.3958969v0.3556347H72.645546 M78.6376572,19.3658676H75.83284
		c-0.2013016,0-0.3824768,0.0201302-0.5435181,0.0671005c-0.1677475,0.0402603-0.3355026,0.1409111-0.48983,0.3086624
		c-0.1476288,0.1543331-0.2415619,0.3086643-0.2818298,0.4562874c-0.0536804,0.1543312-0.0738068,0.3355026-0.0671005,0.5502262
		v2.771265c0,0.4629955,0.134201,0.7716599,0.4026031,0.9394112c0.1342087,0.0805206,0.2818298,0.134203,0.4428711,0.1744633
		s0.3489227,0.0671005,0.5435104,0.0671005h1.2279434c0.4562912,0,0.8320541-0.1073608,1.1205902-0.3153744
		c0.2885284-0.2013016,0.4361496-0.5435162,0.4495773-1.0333519V19.3658676z M78.9932861,23.3784981
		c-0.0335464,1.1474228-0.6374588,1.711071-1.818428,1.6842308h-1.3151779c-0.2751083,0-0.5233841-0.0268402-0.7448196-0.0671005
		c-0.2281418-0.0603905-0.4428635-0.1945934-0.6508789-0.409317c-0.1543274-0.1945915-0.254982-0.389185-0.2952423-0.5904865
		c-0.0536804-0.2013035-0.0805206-0.4227352-0.0671005-0.664299v-2.5833817
		c0.0134201-1.1608448,0.6039047-1.7446213,1.7580414-1.7312012h2.7846832v-1.9660549H79v6.32761"/>
	<path class="st2" d="M11.6374578,18.8223495c0.1140718-0.0536804,0.2348528-0.0939407,0.3489246-0.1140709
		c0.2147226-1.0199337,1.1205845-1.7848835,2.2009077-1.7848835c1.0870342,0,1.9861851,0.7649498,2.2009087,1.7848835
		c0.3355045,0.0603905,0.6106167,0.1945915,0.8186302,0.395895c0.0067101-0.1945934,0-0.3824749-0.0201321-0.5636482
		c-0.134201-1.5433178-1.4292469-2.7511339-3.0061169-2.7511339c-1.6238403,0-2.9457273,1.2883368-3.0128279,2.8920469
		c-0.0067101,0.1409111-0.0134201,0.2818241-0.0067101,0.4361553
		C11.2952442,19.0035229,11.4495754,18.9028702,11.6374578,18.8223495"/>
	<path class="st2" d="M15.9453325,19.0504932h-3.6167355c-0.1744623,0-0.3556347,0.0402603-0.5368071,0.1207809
		s-0.3287945,0.1744614-0.4428654,0.2885342C11.127492,19.7282104,11.0067101,20.1241055,11,20.6407833v2.8249454
		c0.0067101,0.5166759,0.1207819,0.912571,0.3489246,1.180975c0.1207809,0.1140709,0.261693,0.2080135,0.4428654,0.2885342
		c0.1878824,0.0805206,0.3690548,0.1207809,0.5368071,0.1207809h3.6167355
		c0.9327021-0.0067101,1.4091177-0.523386,1.4225378-1.5366096v-2.9390163
		C17.3544502,19.5671692,16.8780327,19.0572033,15.9453325,19.0504932"/>
</g>
</svg>
