<?xml version="1.0" encoding="utf-8"?>
<!-- Generator: Adobe Illustrator 27.7.0, SVG Export Plug-In . SVG Version: 6.00 Build 0)  -->
<svg version="1.1" id="Layer_1" xmlns="http://www.w3.org/2000/svg" xmlns:xlink="http://www.w3.org/1999/xlink" x="0px" y="0px"
	 viewBox="0 0 90 43.0999985" style="enable-background:new 0 0 90 43.0999985;" xml:space="preserve">
<style type="text/css">
	.st0{fill:#FFCB28;}
	.st1{fill:#F2F5F7;}
	.st2{fill:#FFFFFF;}
	.st3{fill:#E2000E;}
	.st4{fill:#171715;}
</style>
<path class="st0" d="M2.3,0.5h85.4000015c1,0,1.8000031,0.8,1.8000031,1.8v38.5999985c0,1-0.8000031,1.7999992-1.8000031,1.7999992
	H2.3c-1,0-1.8-0.7999992-1.8-1.7999992V2.3C0.5,1.3,1.3,0.5,2.3,0.5z"/>
<path class="st1" d="M87.6999969,1C88.4000015,1,89,1.6,89,2.3v38.5999985c0,0.7000008-0.5999985,1.2999992-1.3000031,1.2999992l0,0
	H2.3c-0.7,0-1.3-0.5999985-1.3-1.2999992l0,0V2.3C1,1.6,1.6,1,2.3,1H87.6999969 M87.6999969,0H2.3C1,0,0,1,0,2.3v38.5999985
	c0,1.2999992,1,2.2999992,2.3,2.2999992h85.4000015c1.3000031,0,2.3000031-1,2.3000031-2.2999992V2.3C90,1,89,0,87.6999969,0z"/>
<g>
	<path class="st2" d="M11.7074261,23.9288273L11,27.2603779h57.4576111l0.707428-3.3315506H11.7074261z M11.7074261,23.9288273"/>
	<path class="st3" d="M75.3718033,19.3880005c0,0,0.7757416-3.5369158,0.7872009-3.5598402h-4.8946533
		c0,0.0229244-1.015419,4.6893358-1.015419,4.7120962h1.255043c0.011467,0,0.7644424-3.5254154,0.7644424-3.5254154h2.3731613
		c0,0-0.7531052,3.5368767-0.7644501,3.5596771h3.6167374l-0.4677887,2.1791306h-3.5939407
		c0,0.0229225-0.7301788,3.3202114-0.7301788,3.3202114h-2.7154541c0,0.0112972-0.2396317,1.1865177-0.251091,1.197979h4.004715
		c0-0.0114613,0.7188873-3.3315086,0.7188873-3.3315086h3.5939331C78.052948,23.9288273,79,19.4221001,79,19.3992996h-3.6281967
		V19.3880005z M75.3718033,19.3880005"/>
	<path class="st4" d="M15.153017,21.2704391l0.5133553-2.4302197h0.6618633c0.7301865,0,1.0724373,0.2966919,1.0724373,0.9926128
		c0,0.8900318-0.5590801,1.4376068-1.5972939,1.4376068H15.153017z M14.8791285,22.616766h0.69596
		c2.2135162,0,3.4457569-1.0838966,3.4457569-2.9093151c0-1.3577862-0.9585133-2.2363167-2.601326-2.2363167h-2.0424099
		l-1.5630322,7.3932838h1.5859537L14.8791285,22.616766z M21.5194263,23.7691841
		c-0.6274395,0-1.1181583-0.4905548-0.8898258-1.6315136c0.2281265-1.1296196,0.7757397-1.6316757,1.4033432-1.6316757
		c0.6274414,0,1.1179943,0.5020561,0.8785286,1.6316757C22.6831436,23.267168,22.147028,23.7691841,21.5194263,23.7691841
		 M21.3710804,25.0355244c1.7228374,0,2.898016-1.2550011,3.1604462-2.8978539
		c0.2738895-1.6429729-0.6389027-2.898016-2.3617382-2.898016c-1.7227974,0-2.8979778,1.255043-3.1604042,2.898016
		C18.7354946,23.7805233,19.648283,25.0355244,21.3710804,25.0355244 M27.2926579,23.267168
		c0,0.444994-0.5362797,0.5133553-0.9926128,0.5133553c-0.5705395,0-1.2094421-0.1483459-1.5516911-0.2624283l-0.2623863,1.2322407
		c0.4905529,0.1255455,1.1179924,0.2168274,1.7113323,0.2168274c1.403347,0,2.5557671-0.5248165,2.5557671-1.848341
		c0-1.7000351-2.0422878-1.4033451-2.0422878-2.1678314c0-0.3422108,0.3307896-0.4677563,0.8443069-0.4677563
		c0.4905567,0,1.1864777,0.1940689,1.4146461,0.2623901l0.2624283-1.2435417
		c-0.4677963-0.1370068-1.0381699-0.2053661-1.5402298-0.2053661c-1.5288925,0-2.4530201,0.6844616-2.4530201,1.8140793
		C25.250248,22.7879105,27.2926579,22.514183,27.2926579,23.267168 M33.2596321,20.6200771l0.2510872-1.1979771h-1.6885319
		l0.3307476-1.5174313l-1.6428089,0.3651733l-1.0268764,4.6663723c-0.2853508,1.3235664,0.4448338,2.0422878,1.7570591,2.0422878
		c0.2737236,0,0.7415257-0.0570621,1.0724316-0.1596432l0.2624321-1.1980209
		c-0.2624321,0.0683613-0.593338,0.1368847-0.8785267,0.1368847c-0.456337,0-0.7759533-0.1483459-0.6617031-0.7074242
		l0.5133553-2.4187584h1.7113342V20.6200771z M34.8113251,24.8758812l0.6161003-2.852457h2.3731956l0.2851906-1.3918839h-2.3616982
		l0.3651733-1.7455578h2.4985809l0.3081131-1.392046h-4.1302185L33.20261,24.8871784h1.6087151V24.8758812z M39.249691,19.4221001
		l-1.1751747,5.4537811h1.5629883l1.1752167-5.4537811H39.249691z M39.4778595,17.9046688
		c-0.0342636,0.4907188,0.3307457,0.8785286,0.8100052,0.8785286c0.5363197,0,0.9241333-0.3878098,0.9583893-0.8785286
		c0.0342216-0.4905548-0.3307838-0.8785286-0.8100433-0.8785286C39.8885918,17.0261402,39.5006599,17.414114,39.4778595,17.9046688
		 M42.2845917,24.8758812l0.604641-2.7839336c0.2396278-1.1181583,0.7872429-1.5059681,1.3690796-1.5059681
		c0.7416916,0,0.8215141,0.5476189,0.6846275,1.1750565l-0.6618233,3.1148453h1.5746117l0.6959686-3.1946659
		c0.342205-1.5972538-0.3994408-2.4302216-1.551693-2.4302216c-0.6389008,0-1.2550468,0.2510891-1.7798615,0.8101673
		l0.1483459-0.6503601h-1.4604111l-1.1751785,5.4536171h1.551693V24.8758812z M49.9174614,19.2852554
		c-0.7301788,0-1.4605293,0.1598072-1.6999931,0.2396297l-0.2738876,1.2664604
		c0.3537102-0.1027451,1.0496368-0.2853508,1.6657715-0.2853508c0.8214645,0,1.1181602,0.2511311,1.1181602,0.6846237
		c0,0.0798206,0,0.1596851-0.0228043,0.250967l-0.0229225,0.1140823c-0.3992729-0.045599-0.7643242-0.0798206-0.946888-0.0798206
		c-1.5631523,0-2.8181953,0.6048012-2.8181953,2.0309486c0,0.9355507,0.7301865,1.4946289,1.6772346,1.4946289
		c0.6731682,0,1.2435417-0.2623882,1.6200562-0.7074242l-0.1253853,0.5704174h1.3918839l0.6846275-3.1261826
		c0.0570183-0.2281666,0.0798225-0.4677963,0.0798225-0.7074242C52.2449417,20.1067219,51.7314186,19.2852554,49.9174614,19.2852554
		 M48.3998718,23.3013878c0-0.547739,0.4792557-0.8557281,1.2893028-0.8557281c0.1598053,0,0.4907188,0.0114613,0.7987137,0.0570221
		l-0.068531,0.3081512c-0.1824417,0.6502399-0.7187157,1.0837326-1.3463211,1.0837326
		C48.6282043,23.8945656,48.3998718,23.6779003,48.3998718,23.3013878 M54.0475578,24.8758812l0.6048012-2.7839336
		c0.2394638-1.1181583,0.7872467-1.5059681,1.3691292-1.5059681c0.7414818,0,0.8214645,0.5476189,0.6844635,1.1750565
		l-0.6617088,3.1148453h1.5744934l0.695919-3.1946659c0.3424187-1.5972538-0.3992691-2.4302216-1.5516853-2.4302216
		c-0.6389046,0-1.2550011,0.2510891-1.7798233,0.8101673l0.148304-0.6503601h-1.4603653l-1.1752129,5.4536171h1.5516853V24.8758812z
		 M61.6576691,23.7006607c-0.7188873,0-1.197979-0.3079491-1.197979-1.197979c0-1.0496349,0.6617012-1.9167023,1.7000389-1.9167023
		c0.3307457,0,0.7072601,0.1026211,1.083889,0.2394657l0.2624321-1.2550011
		c-0.4336967-0.148344-0.935585-0.2624302-1.4376068-0.2624302c-1.7228355,0-3.2061691,1.2893028-3.2061691,3.2631912
		c0,1.6315136,1.0040741,2.3959579,2.4416809,2.3959579c0.4792633,0,0.8900337-0.0912819,1.1865196-0.2053661l0.2853508-1.2892628
		C62.4449158,23.5980797,62.0797424,23.7006607,61.6576691,23.7006607 M67.6248093,24.8073578l0.2851868-1.3120651
		c-0.4792633,0.1598091-0.9583511,0.2966919-1.5631561,0.2966919c-0.7072601,0-1.3233566-0.2396278-1.3576202-1.0838947h3.6282043
		c0.136879-0.4335346,0.2053604-0.8557701,0.2053604-1.255043c0-1.2094402-0.707428-2.2020531-2.2135086-2.2020531
		c-1.9623108,0-3.1489449,1.6087132-3.1489449,3.3772736c0,1.5174294,1.0153694,2.4072571,2.590023,2.4072571
		C66.7005539,25.0355244,67.2140732,24.9444027,67.6248093,24.8073578 M66.5181122,20.4261723
		c0.5133514,0,0.8670731,0.353714,0.8670731,0.9355907c0,0.102747-0.011467,0.1825676-0.0227661,0.2851906h-2.2363586
		C65.3656998,20.916769,65.8562851,20.4261723,66.5181122,20.4261723"/>
</g>
</svg>
