<svg id="Layer_1" data-name="Layer 1" xmlns="http://www.w3.org/2000/svg" viewBox="0 0 90 43.14"><defs><style>.cls-1{fill:none;}  .cls-2{fill:#fff;}  .cls-3{fill:#f2f5f7;}  .cls-4{fill:#01bae8;}  .cls-5{clip-path:url(#clip-path);}  .cls-6{clip-path:url(#clip-path-2);}  .cls-7{clip-path:url(#clip-path-3);}  .cls-8{clip-path:url(#clip-path-4);}</style><clipPath id="clip-path"><rect class="cls-1" x="-86.93" y="257.05" width="40.5" height="22.5" rx="3.89"/></clipPath><clipPath id="clip-path-2"><path class="cls-1" d="M-77,264.61a5.93,5.93,0,0,1-1.73,4.23l2.34,3.23h-2.09l-2.55-3.51.66-.49a4.3,4.3,0,0,0,1.71-3.46ZM-83,272.07h1.7v-7.46H-83Zm7,0h1.6v-7.44h-1.6Zm15.64-5.29a1.86,1.86,0,0,0-1.58.72v-.58h-1.52v5.15h1.54v-2.7a1.08,1.08,0,0,1,1.15-1.17c.67,0,1.06.4,1.06,1.16v2.71h1.53v-3.27a2,2,0,0,0-2.18-2Zm-9.2.14H-68v5.15h-1.53v-.33a2.64,2.64,0,0,1-1.52.48,2.71,2.71,0,0,1-2.69-2.72A2.71,2.71,0,0,1-71,266.77a2.63,2.63,0,0,1,1.52.47v-.33Zm0,2.58a1.36,1.36,0,0,0-1.38-1.33,1.36,1.36,0,0,0-1.39,1.33,1.35,1.35,0,0,0,1.39,1.32A1.35,1.35,0,0,0-69.5,269.49Zm3.9-1.91v-.67h-1.56v5.15h1.57v-2.4c0-.81.87-1.25,1.47-1.25h0v-1.5a1.92,1.92,0,0,0-1.5.67Zm12.23-.67h1.53v5.15h-1.53v-.33a2.63,2.63,0,0,1-1.51.48,2.7,2.7,0,0,1-2.69-2.72,2.7,2.7,0,0,1,2.69-2.72,2.62,2.62,0,0,1,1.51.47v-.33Zm0,2.58a1.36,1.36,0,0,0-1.39-1.33,1.36,1.36,0,0,0-1.38,1.33,1.35,1.35,0,0,0,1.38,1.32A1.35,1.35,0,0,0-53.37,269.49Zm3.16.75a1,1,0,0,0-1,1,1,1,0,0,0,1,1,1,1,0,0,0,1-1A1,1,0,0,0-50.21,270.24Z"/></clipPath><clipPath id="clip-path-3"><rect class="cls-1" x="24.75" y="257.05" width="40.5" height="22.5" rx="3.89"/></clipPath><clipPath id="clip-path-4"><path class="cls-1" d="M34.65,264.61a5.93,5.93,0,0,1-1.73,4.23l2.34,3.23h-2.1l-2.54-3.51.66-.49A4.3,4.3,0,0,0,33,264.61Zm-5.93,7.46h1.7v-7.46h-1.7Zm7,0h1.6v-7.44h-1.6Zm15.64-5.29a1.86,1.86,0,0,0-1.58.72v-.58H48.29v5.15h1.54v-2.7A1.08,1.08,0,0,1,51,268.19c.67,0,1.06.4,1.06,1.16v2.71h1.52v-3.27a2,2,0,0,0-2.17-2Zm-9.2.14h1.53v5.15H42.19v-.33a2.72,2.72,0,1,1,0-4.49v-.33Zm0,2.58a1.39,1.39,0,1,0-1.38,1.32A1.36,1.36,0,0,0,42.18,269.49Zm3.9-1.91v-.67H44.51v5.15h1.57v-2.4c0-.81.88-1.25,1.48-1.25h0v-1.5a1.92,1.92,0,0,0-1.5.67Zm12.23-.67h1.53v5.15H58.31v-.33a2.63,2.63,0,0,1-1.51.48,2.72,2.72,0,0,1,0-5.44,2.62,2.62,0,0,1,1.51.47v-.33Zm0,2.58a1.39,1.39,0,1,0-1.39,1.32A1.36,1.36,0,0,0,58.31,269.49Zm3.15.75a1,1,0,1,0,1,1A1,1,0,0,0,61.46,270.24Z"/></clipPath></defs><title>Payment-Method-Logos</title><rect class="cls-2" x="0.5" y="0.5" width="89" height="42.14" rx="1.78"/><path class="cls-3" d="M87.72,1A1.28,1.28,0,0,1,89,2.28V40.87a1.27,1.27,0,0,1-1.28,1.27H2.28A1.27,1.27,0,0,1,1,40.87V2.28A1.28,1.28,0,0,1,2.28,1H87.72m0-1H2.28A2.28,2.28,0,0,0,0,2.28V40.87a2.28,2.28,0,0,0,2.28,2.27H87.72A2.28,2.28,0,0,0,90,40.87V2.28A2.28,2.28,0,0,0,87.72,0Z"/><path class="cls-4" d="M21.8,34.14A12.57,12.57,0,1,0,9.23,21.57,12.56,12.56,0,0,0,21.8,34.14"/><path d="M79.05,15.09a1.36,1.36,0,0,0-1.23-1h-.48c-.63,0-.94.22-.94.63,0,.63.94.6,1.82.81,1.21.25,2.47.68,2.47,2.19a2.64,2.64,0,0,1-2.87,2.68h-.48a2.85,2.85,0,0,1-2.6-1.32,1.88,1.88,0,0,1-.3-.63l1.69-.7a1.36,1.36,0,0,0,1.21,1h.48c.63,0,1-.36,1-.74,0-.63-.93-.58-1.84-.78-1.21-.23-2.42-.65-2.42-2.22a2.62,2.62,0,0,1,2.82-2.6h.48a2.85,2.85,0,0,1,2.58,1.24,2.72,2.72,0,0,1,.35.7Zm-20.79,0a1.36,1.36,0,0,0-1.24-1h-.48c-.63,0-.93.22-.93.63,0,.63.93.6,1.82.81,1.21.25,2.47.68,2.47,2.19A2.64,2.64,0,0,1,57,20.44h-.48A2.83,2.83,0,0,1,54,19.12a2,2,0,0,1-.31-.63l1.69-.7a1.38,1.38,0,0,0,1.21,1H57c.63,0,1-.36,1-.74,0-.63-.94-.58-1.84-.78C55,17,53.74,16.58,53.74,15a2.63,2.63,0,0,1,2.83-2.6h.48a2.83,2.83,0,0,1,2.57,1.24,2.53,2.53,0,0,1,.36.7ZM71.43,13v-.41H69.67v7.72h1.91V15.69a1.17,1.17,0,0,1,1.22-1.18,2.77,2.77,0,0,1,.78.07V12.64a1.77,1.77,0,0,0-.61-.08,2.06,2.06,0,0,0-1.51.73v-.58M38.12,20.26H40v-4h.48l2.55,4h2.25l-2.63-4a2.59,2.59,0,0,0,2.5-2.77v-.21a2.92,2.92,0,0,0-3.13-3.12H38.12ZM40,12h2a1.22,1.22,0,0,1,1.21,1.21v.12a1.23,1.23,0,0,1-1.21,1.22H40Zm8.23,4.94h4.34V15.39a3.12,3.12,0,0,0-3.13-3,3.08,3.08,0,0,0-3.13,3v2.07A3.18,3.18,0,0,0,52.2,19c.13-.22.26-.5.26-.5l-1.77-.78c-.3.73-.76,1-1.19,1a1.21,1.21,0,0,1-1.21-1.21V16.9Zm2.4-1.61H48.32v-.15a1.2,1.2,0,0,1,2.37,0v.15Zm17.1,5V12.59H65.86v5.1c-.31.73-.76,1-1.19,1a1.21,1.21,0,0,1-1.21-1.21V12.59H61.54v4.89a2.9,2.9,0,0,0,3.13,3A2.06,2.06,0,0,0,66,20v.32h1.76ZM43.2,27.73a2.9,2.9,0,0,0,1.36-2.1v0c0-1.79-1.16-2.78-3-2.78H38.1V33h3.48a2.76,2.76,0,0,0,3-3v-.1a2.61,2.61,0,0,0-1.36-2.17m0,2.4a1.65,1.65,0,0,1-1.67,1.64H39.41V28.28h2.17a1.65,1.65,0,0,1,1.67,1.64Zm0-4.67a1.66,1.66,0,0,1-1.67,1.66H39.41V24h2.17A1.53,1.53,0,0,1,43.25,25.46Zm7.31,3.33H48.32a2,2,0,0,0-2.2,2v.1a2.06,2.06,0,0,0,2.2,2H49a2.37,2.37,0,0,0,1.47-.78.42.42,0,0,1,.12-.08V33h1.32V28.06a2.71,2.71,0,0,0-3-2.75,3,3,0,0,0-1.94.63,2.89,2.89,0,0,0-.68.8l1.16.64a1.73,1.73,0,0,1,1.49-.94,1.62,1.62,0,0,1,1.66,1.62Zm-1.59,3h-.65a.89.89,0,0,1-.88-.88v-.28a.87.87,0,0,1,.88-.88h2.07c.12,0,.17.05.17.17v.53A1.81,1.81,0,0,1,49,31.79Zm6.31-5.55v-.81H54V33h1.33V28.23a1.64,1.64,0,0,1,1.64-1.64,1.68,1.68,0,0,1,1.67,1.64V33h1.34V28.23a2.76,2.76,0,0,0-3-2.8A2.26,2.26,0,0,0,55.28,26.24Z"/><path d="M67.6,25.48,65.15,28l3.08,5H66.56L64.17,29l-.94.95v3H61.89V22.83h1.34v5.63l2.7-3Z"/></svg>
