<?xml version="1.0" encoding="utf-8"?>
<!-- Generator: Adobe Illustrator 27.7.0, SVG Export Plug-In . SVG Version: 6.00 Build 0)  -->
<svg version="1.1" id="Layer_1" xmlns="http://www.w3.org/2000/svg" xmlns:xlink="http://www.w3.org/1999/xlink" x="0px" y="0px"
	 viewBox="0 0 90 43.0999985" style="enable-background:new 0 0 90 43.0999985;" xml:space="preserve">
<style type="text/css">
	.st0{fill:#FFFFFF;}
	.st1{fill:#F2F5F7;}
	.st2{fill:#F94C43;}
</style>
<path class="st0" d="M2.3,0.5h85.4000015c1,0,1.8000031,0.8,1.8000031,1.8v38.5999985c0,1-0.8000031,1.7999992-1.8000031,1.7999992
	H2.3c-1,0-1.8-0.7999992-1.8-1.7999992V2.3C0.5,1.3,1.3,0.5,2.3,0.5z"/>
<path class="st1" d="M87.6999969,1C88.4000015,1,89,1.6,89,2.3v38.5999985c0,0.7000008-0.5999985,1.2999992-1.3000031,1.2999992l0,0
	H2.3c-0.7,0-1.3-0.5999985-1.3-1.2999992l0,0V2.3C1,1.6,1.6,1,2.3,1H87.6999969 M87.6999969,0H2.3C1,0,0,1,0,2.3v38.5999985
	c0,1.2999992,1,2.2999992,2.3,2.2999992h85.4000015c1.3000031,0,2.3000031-1,2.3000031-2.2999992V2.3C90,1,89,0,87.6999969,0z"/>
<g>
	<path class="st2" d="M31.0604858,24.6522884h0.1187458c0.6317577,0.1508331,1.2775402,0.2352715,1.9268398,0.2519455
		c0.919281,0,1.5861702-0.2223701,1.5861702-1.0080051c0-1.4527454-3.6024036-0.8745823-3.6024036-3.2757397
		c0-1.3046474,1.2154789-2.0013332,2.741827-2.0013332c0.6031075-0.0019855,1.2029877,0.0879955,1.778965,0.2668438v1.0967312
		h-0.1185226c-0.5391808-0.1864433-1.1044693-0.2864113-1.6748924-0.2961979c-0.7262611,0-1.4823227,0.1629982-1.4823227,0.9339561
		c0,1.3786983,3.6024017,0.8298874,3.6024017,3.1576614c0,1.6900158-1.3637962,2.1941299-2.875473,2.1941299
		c-0.6731262-0.0026245-1.3440456-0.0771713-2.0013332-0.2223701L31.0604858,24.6522884z M48.0615997,25.704546
		c-0.4743958,0.1760597-0.9763107,0.2664127-1.4823227,0.2668457c-0.7264824,0-1.8679085-0.1629982-1.8679085-1.8378925V19.863987
		h-0.919281v-1.0373592h0.919281v-1.6602173l1.0524788-0.2223701H45.88237v1.8825874h2.2830772v1.0375805h-2.282856v4.2394943
		c0,0.7560596,0.6373138,0.8152103,0.9339561,0.8152103c0.3887024-0.0233536,0.7725945-0.0981293,1.1416512-0.2223701
		L48.0615997,25.704546z M52.4036064,24.6522884h0.1187439c0.6317596,0.1508312,1.2775421,0.2352715,1.9268379,0.2519455
		c0.919281,0,1.5861664-0.2223701,1.5861664-1.0080051c0-1.4527454-3.6023979-0.8745823-3.6023979-3.2757397
		c0-1.3046474,1.215477-2.0013332,2.7420464-2.0013332c0.6030998-0.0019512,1.20298,0.0880299,1.778965,0.2668438v1.0967312
		h-0.1187439c-0.5391159-0.1864243-1.1043243-0.2863922-1.674675-0.2961979c-0.7264824,0-1.4827652,0.1629982-1.4827652,0.9339561
		c0,1.3786983,3.6024017,0.8298874,3.6024017,3.1576614c0,1.6900158-1.3635788,2.1941299-2.875473,2.1941299
		c-0.67313-0.0026245-1.3440514-0.0771713-2.0013351-0.2223701L52.4036064,24.6522884z M58.8507919,18.841526l1.0375786-0.2223701
		h0.1483231v0.904604c0.6979904-0.5746231,1.5711861-0.8938236,2.4752045-0.9048271
		c1.5270195,0,2.7129173,1.0822773,2.7129173,3.3947086c0,2.2681789-1.1854553,3.9581928-3.6611061,3.9581928
		c-0.5139313-0.002821-1.0259781-0.0624828-1.5267944-0.1778946v3.4531918l-1.0375786,0.2223701h-0.1483231L58.8507919,18.841526z
		 M60.0366936,24.7565804c0.5186806,0.0939045,1.0444069,0.1435242,1.5714951,0.1483212
		c1.4525223,0,2.3718033-0.9192791,2.3718033-2.7129192c0-1.6602173-0.5488129-2.5047817-1.7344933-2.5047817
		c-0.696907,0-1.4676437,0.2961979-2.2088051,0.9486332V24.7565804z M75.0513687,25.6894245l-2.3902588-6.8627968h1.3635712
		l1.6786804,5.3955975h0.1038513l1.8436661-5.3955975H79l-2.6144104,7.2048035
		c-0.6226349,1.778965-1.3938141,2.6386471-2.6684418,3.438736l-0.6671143-0.859684
		c1.2897491-0.9188347,1.6155243-1.4378471,2.1047363-2.6384239 M71.627533,25.7490215l-0.9635315,0.1927948h-0.163002v-0.9784298
		H70.471199c-0.6226349,0.4743156-1.3787003,0.9635315-2.4015961,0.9635315
		c-1.0118942,0.012661-1.842453-0.7973728-1.8551178-1.8092632c-0.0004883-0.0393543,0.0002823-0.0787163,0.002327-0.1180229
		c0-1.7189236,1.5414734-1.9568596,2.371582-2.075161l1.8527908-0.2517242V21.198431
		c0-1.1859016-0.5632629-1.5121193-1.5859451-1.5121193c-0.7346115,0.0263481-1.4581604,0.1871872-2.134758,0.4745388
		l-0.1334229-1.0969524c0.8002243-0.2836609,1.6416168-0.4339104,2.4905548-0.4447422
		c1.4676437,0,2.5494766,0.6077385,2.5494766,2.5794983L71.627533,25.7490215z M70.4416275,22.5468864l-1.912384,0.281744
		c-0.5041199,0.074049-1.0673828,0.2815208-1.0673828,1.081831c-0.0214539,0.5197887,0.3825302,0.9585514,0.9023209,0.9800034
		c0.0352249,0.0014553,0.0705109,0.0009289,0.10569-0.0015736c0.6524277,0,1.3938141-0.4153881,1.9715347-0.8301086
		L70.4416275,22.5468864z M42.4291801,21.198431c0-1.9715366-1.0822792-2.5794964-2.5494766-2.5794964
		c-0.8489304,0.0109234-1.6903076,0.1611691-2.490551,0.4447403l0.1334229,1.0969543
		c0.6765594-0.2874584,1.4001312-0.4483032,2.1347542-0.4745388c1.0229073,0,1.5859489,0.3262177,1.5859489,1.5121193v0.4743156
		l-1.8527908,0.2517223c-0.8301086,0.118969-2.371582,0.355793-2.371582,2.0751629
		c-0.0525208,1.0106049,0.7241631,1.8724384,1.7347679,1.9249592c0.0393066,0.0020409,0.0786667,0.0028172,0.1180229,0.0023251
		c1.0229034,0,1.778965-0.4892159,2.4015999-0.9635315h0.0298004v0.9784298h0.1629982l0.9635315-0.1927948L42.4291801,21.198431z
		 M41.2432747,24.059227c-0.5781631,0.4147205-1.3193245,0.8301086-1.9715347,0.8301086
		c-0.5187874,0.0370464-0.9693794-0.3534813-1.006424-0.8722687c-0.0025215-0.0353298-0.0030518-0.0707722-0.0015831-0.1061611
		c0-0.8005333,0.563488-1.0080051,1.067379-1.0820541l1.9123878-0.281744L41.2432747,24.059227z M49.5136795,25.9418163h0.0046654
		l-0.0046654-0.0051136V25.9418163z M50.5512581,18.6189346l-1.0375786,0.2223701v7.0951748l0.0046654,0.0048904h0.1483231
		l1.0331345-0.221035v-7.1014004H50.5512581z M50.5512581,16.2144413l-1.0375786,0.2223721v1.2557259l0.0046654,0.0048904h0.1483231
		l1.0331345-0.2223701v-1.2606182H50.5512581z"/>
	<path class="st2" d="M60.0366936,21.7714806c0.0006142,0.3275375-0.2644119,0.5935593-0.5919456,0.5941734
		c-0.3275414,0.0006142-0.5935593-0.2644119-0.5941734-0.5919495c-0.0006142-0.3275394,0.2644081-0.5935593,0.5919456-0.5941734
		c0.0002213,0,0.0004463,0,0.0006676,0c0.3272896-0.000124,0.5927162,0.2651005,0.5928383,0.5923939
		c0,0.0001488,0,0.0002956,0,0.0004444 M23.7865257,13.9747267c0.0977612-0.0976324,0.0978622-0.2560291,0.0002308-0.3537893
		c-0.0471992-0.0472593-0.1113358-0.0736828-0.1781273-0.0733843h-3.7135868l2.1589947,2.1585503L23.7865257,13.9747267z
		 M18.59729,19.1650753l-2.655549-2.6553249l-2.3898153,2.3898144l-2.4785414,2.4783192
		c-0.0977583,0.0976353-0.0978584,0.256031-0.0002241,0.3537884c0.0000744,0.0000763,0.0001497,0.0001507,0.0002241,0.0002251
		l2.4785414,2.4787636l2.3898153,2.3898163l2.655549-2.6557713l-2.2130318-2.2128086l-0.1778965-0.1778965l0.1778965-0.1778946
		L18.59729,19.1650753z M22.055151,27.4025669l-2.1494331,2.1498795h3.6949062
		c0.1381626,0.0006142,0.2506657-0.1108875,0.2512817-0.2490501c0.0002975-0.0667896-0.026125-0.1309261-0.0733852-0.1781235
		L22.055151,27.4025669z"/>
	<path class="st2" d="M26.9235077,21.3778839l-2.4785423-2.4785404l-2.7911949-2.7898598l-2.4865456-2.4876595
		c-0.0450859-0.0445223-0.1054363-0.0702047-0.1687794-0.071825c-0.0028896,0-0.0053368-0.0015564-0.0082264-0.0015564h-4.6030693
		c-0.1381617-0.000617-0.2506647,0.1108856-0.2512808,0.2490473c-0.0002985,0.0667906,0.026125,0.130928,0.0733843,0.1781263
		l2.1336441,2.1338673l2.6555481,2.6544361l2.613966,2.6139641l0.1778965,0.1778965l-0.1778965,0.1778965l-2.613966,2.6124077
		l-2.6555481,2.6553268l-2.1236382,2.1238613c-0.0977592,0.0976334-0.0978613,0.2560291-0.0002279,0.3537884
		c0.0471973,0.0472584,0.1113338,0.0736828,0.1781244,0.0733852h4.6030693
		c0.066679,0.0002956,0.1307182-0.026041,0.1778965-0.0731621l2.4756489-2.4778728l2.7911949-2.7907486l2.4785423-2.4787636
		c0.0977573-0.0976353,0.0978584-0.256031,0.0002232-0.3537903c-0.0000744-0.0000744-0.0001488-0.0001488-0.0002232-0.0002232"/>
</g>
</svg>
