<?xml version="1.0" encoding="utf-8"?>
<!-- Generator: Adobe Illustrator 26.3.1, SVG Export Plug-In . SVG Version: 6.00 Build 0)  -->
<svg version="1.1" id="Layer_1" xmlns="http://www.w3.org/2000/svg" xmlns:xlink="http://www.w3.org/1999/xlink" x="0px" y="0px"
	 viewBox="0 0 90 43.1" style="enable-background:new 0 0 90 43.1;" xml:space="preserve">
<style type="text/css">
	.st0{fill:#FFFFFF;}
	.st1{fill:#F2F5F7;}
	.st2{fill:none;}
	.st3{fill:#FEC100;}
	.st4{fill:#152784;}
</style>
<g>
	<path class="st0" d="M2.3,0.5h85.4c1,0,1.8,0.8,1.8,1.8v38.6c0,1-0.8,1.8-1.8,1.8H2.3c-1,0-1.8-0.8-1.8-1.8V2.3
		C0.5,1.3,1.3,0.5,2.3,0.5z"/>
	<path class="st1" d="M87.7,1C88.4,1,89,1.6,89,2.3v38.6c0,0.7-0.6,1.3-1.3,1.3l0,0H2.3c-0.7,0-1.3-0.6-1.3-1.3l0,0V2.3
		C1,1.6,1.6,1,2.3,1H87.7 M87.7,0H2.3C1,0,0,1,0,2.3v38.6c0,1.3,1,2.3,2.3,2.3h85.4c1.3,0,2.3-1,2.3-2.3V2.3C90,1,89,0,87.7,0z"/>
</g>
<g id="Layer_2_00000028321815534496272930000000604365670003951010_">
	<g id="Layer_1-2">
		<path class="st2" d="M55.7,16c-0.1,0-0.5,0-1,0h-3.2l0,5.5h3.1c1,0,1.6-0.1,1.8-0.2c0.3-0.2,0.5-0.5,0.6-1c0.1-0.5,0.1-1,0.1-1.5
			c0-0.8-0.1-1.4-0.2-1.8C56.9,16.5,56.4,16.1,55.7,16z"/>
		<polygon class="st2" points="67.4,23.9 72,23.9 69.6,15.6 		"/>
		<path class="st3" d="M30.1,17.8H28l-1.3,2.8h2.8c0,0.3,0,0.5,0,0.8c0,0.3,0,0.6,0.1,0.9h-1.4L26.8,25h3.4c1.5,3.5,5,5.8,8.8,5.8
			c1.9,0,3.8-0.6,5.4-1.6v-3.4c-2.4,2.8-6.6,3.1-9.4,0.7c-0.5-0.4-0.9-0.9-1.3-1.5h7.1l1.3-2.8h-9.4c-0.1-0.6-0.1-1.1,0-1.7h10.2
			l1.3-2.8H33.5c1.2-2.1,3.4-3.4,5.9-3.4c2,0,4,0.9,5.2,2.5l1.1-2.4c-3.9-3.7-10-3.5-13.6,0.3C31.3,15.7,30.6,16.7,30.1,17.8
			L30.1,17.8z"/>
		<path class="st4" d="M25.2,21c-0.7-0.7-1.8-1.2-3.4-1.3c-0.5-0.1-1.7-0.2-3.7-0.3l-0.9-0.1c-0.4,0-0.7-0.1-1-0.3
			c-0.3-0.2-0.5-0.7-0.5-1.4c0-0.8,0.2-1.3,0.6-1.5c0.4-0.2,1.2-0.3,2.3-0.3c1.2,0,2,0.2,2.2,0.6c0.2,0.3,0.3,0.8,0.3,1.6h4.5
			c0-0.4,0-0.8,0.1-1c0-2.6-1-4.2-3-4.8c-0.8-0.2-2.2-0.3-4.1-0.3c-1.1,0-2.2,0-3.3,0.1c-1.2,0.1-2.2,0.4-2.9,1
			c-0.5,0.4-0.9,0.9-1.1,1.7c-0.2,0.7-0.3,1.7-0.3,2.9c0,1.6,0.2,2.8,0.7,3.6c0.5,0.9,1.5,1.5,3,1.8c0.6,0.1,1.6,0.2,3,0.3
			c1.8,0.1,2.8,0.3,3,0.3c0.6,0.2,0.9,0.7,0.9,1.6c0,0.3,0,0.6-0.1,0.9c-0.1,0.4-0.4,0.7-0.8,0.8c-0.2,0.1-0.8,0.2-1.6,0.2h-1.7
			c-0.4,0-0.8-0.1-1.1-0.3c-0.4-0.2-0.7-0.8-0.7-1.6v-0.4H11c0,1.6,0.1,2.7,0.3,3.4c0.4,1.2,1.2,2,2.4,2.4c1,0.3,2.8,0.5,5.3,0.5
			c1.5,0,2.6-0.1,3.4-0.2c1.8-0.4,2.9-1.2,3.4-2.5c0.3-0.7,0.4-1.9,0.4-3.5c0-0.6,0-1.2-0.1-1.8C26.1,22.3,25.8,21.6,25.2,21z"/>
		<path class="st4" d="M61.9,22.9c0.3-0.8,0.4-2.2,0.4-4.2c0-1.6-0.1-2.8-0.4-3.6c-0.5-1.5-1.6-2.5-3.1-3c-0.7-0.2-1.6-0.3-2.9-0.3
			h-9.3v19h5v-4.9h3l0.8,0c1.6,0,2.6-0.1,2.8-0.1C60.1,25.6,61.3,24.6,61.9,22.9z M57.1,20.3c-0.1,0.5-0.3,0.8-0.6,1
			c-0.2,0.1-0.8,0.2-1.8,0.2h-3.1l0-5.5h3.2c0.5,0,0.8,0,1,0c0.7,0.1,1.1,0.4,1.3,1c0.1,0.4,0.2,1,0.2,1.8
			C57.2,19.3,57.2,19.8,57.1,20.3z"/>
		<path class="st4" d="M73.3,11.9h-7.5l-5.6,19h5.2l0.9-3.3H73l1,3.3H79L73.3,11.9z M67.4,23.9l2.3-8.2l2.3,8.2H67.4z"/>
	</g>
</g>
</svg>
