<?xml version="1.0" encoding="utf-8"?>
<!-- Generator: Adobe Illustrator 27.7.0, SVG Export Plug-In . SVG Version: 6.00 Build 0)  -->
<svg version="1.1" id="Layer_1" xmlns="http://www.w3.org/2000/svg" xmlns:xlink="http://www.w3.org/1999/xlink" x="0px" y="0px"
	 viewBox="0 0 90 43.0999985" style="enable-background:new 0 0 90 43.0999985;" xml:space="preserve">
<style type="text/css">
	.st0{fill:#FFFFFF;}
	.st1{fill:#F2F5F7;}
	.st2{fill:#0EE06E;}
</style>
<path class="st0" d="M2.3,0.5h85.4000015c1,0,1.8000031,0.8,1.8000031,1.8v38.5999985c0,1-0.8000031,1.7999992-1.8000031,1.7999992
	H2.3c-1,0-1.8-0.7999992-1.8-1.7999992V2.3C0.5,1.3,1.3,0.5,2.3,0.5z"/>
<path class="st1" d="M87.6999969,1C88.4000015,1,89,1.6,89,2.3v38.5999985c0,0.7000008-0.5999985,1.2999992-1.3000031,1.2999992l0,0
	H2.3c-0.7,0-1.3-0.5999985-1.3-1.2999992l0,0V2.3C1,1.6,1.6,1,2.3,1H87.6999969 M87.6999969,0H2.3C1,0,0,1,0,2.3v38.5999985
	c0,1.2999992,1,2.2999992,2.3,2.2999992h85.4000015c1.3000031,0,2.3000031-1,2.3000031-2.2999992V2.3C90,1,89,0,87.6999969,0z"/>
<g>
	<path class="st2" d="M33.6711807,25.7519436v-9.1863499h-3.2975292v-2.183115h8.9763393v2.183115h-3.3060074v9.1863499H33.6711807z
		"/>
	<path class="st2" d="M38.9689178,25.7519436v-8.2480717h2.1831169v1.3058014
		c0.5165596-1.1076469,1.1855545-1.3058014,1.8968887-1.3058014h0.8468246v2.2017441h-0.7147217
		c-1.0263481,0-1.9443092,0.5910816-1.9443092,2.3999023v3.6447296h-2.2677994l0,0V25.7519436z"/>
	<path class="st2" d="M44.9187012,22.7355556v-5.2316837h2.2576332v4.7235889c0,0.9653816,0.4691391,1.6801033,1.4345207,1.6801033
		c0.9315071,0,1.5242844-0.7147217,1.5242844-1.6665516v-4.7371407h2.2576332v8.2548428h-2.1424599v-1.0399017
		c-0.543663,0.8231106-1.3549194,1.2312794-2.3795776,1.2312794C46.0534515,25.943327,44.9187012,24.698494,44.9187012,22.7355556z"
		/>
	<path class="st2" d="M53.3564644,23.4333382l1.9646301-0.4488163c0.0948448,0.638504,0.6046371,1.1211948,1.5920296,1.1211948
		c0.7621422,0,1.1855545-0.3133259,1.1855545-0.7011719c0-0.3133259-0.1693649-0.5436611-0.951828-0.7147198l-1.2922554-0.2794514
		c-1.6530037-0.3607483-2.3524818-1.1211948-2.3524818-2.5099888c0-1.4141979,1.170311-2.5574112,3.3652802-2.5574112
		c2.3321533,0,3.2704353,1.4006462,3.3652802,2.3186054l-1.9781799,0.4352684
		c-0.0948448-0.4826908-0.4488182-1.0161877-1.4345207-1.0161877c-0.624958,0-1.087326,0.2794495-1.087326,0.6876202
		c0,0.3387299,0.232029,0.5301132,0.638504,0.6249561l1.8833351,0.4352703
		c1.4345207,0.3268719,2.1018181,1.1855526,2.1018181,2.3999023c0,1.3058014-1.0399017,2.6793537-3.4279404,2.6793537
		C54.3032112,25.9094524,53.4462242,24.3377457,53.3564644,23.4333382z"/>
	<path class="st2" d="M64.6920547,25.7519436c-1.4616203,0-2.4405518-0.8095627-2.4405518-2.4134483v-3.8632126h-1.3870964
		v-1.9781818h1.3870964v-1.8359137l2.2576294-0.6520567v2.4879704h1.6614761v1.9781818h-1.6665497v3.4550419
		c0,0.6046333,0.313324,0.8468246,0.9179611,0.8468246h0.8705368v1.9781799L64.6920547,25.7519436z"/>
	<path class="st2" d="M67.525528,25.7519436v-11.362689h2.257637v11.3694658h-2.257637V25.7519436z"/>
	<path class="st2" d="M76.5865479,17.5038719H79l-3.4414978,11.2136478h-2.4134445l0.951828-2.9588051h-1.2448273
		l-2.2779617-8.2548428h2.4219131l1.6936493,6.3850594L76.5865479,17.5038719z"/>
	<polygon class="st2" points="11,19.366888 16.2977333,19.366888 16.2977333,15.137846 20.5267754,19.366888 16.2977333,23.5891533 
		16.2977333,25.7519436 21.4311829,25.7519436 21.4311829,19.366888 26.1429138,19.366888 26.1429138,14.3892536 11,14.3892536 	"/>
</g>
</svg>
