<?xml version="1.0" encoding="utf-8"?>
<!-- Generator: Adobe Illustrator 26.3.1, SVG Export Plug-In . SVG Version: 6.00 Build 0)  -->
<svg version="1.1" id="Layer_1" xmlns="http://www.w3.org/2000/svg" xmlns:xlink="http://www.w3.org/1999/xlink" x="0px" y="0px"
	 viewBox="0 0 90 43.1" style="enable-background:new 0 0 90 43.1;" xml:space="preserve">
<style type="text/css">
	.st0{fill:#FFFFFF;}
	.st1{fill:#F2F5F7;}
	.st2{fill:url(#SVGID_1_);stroke:#DEDEDC;stroke-width:0.4575;stroke-miterlimit:10;}
	.st3{fill:#1E3D76;}
	.st4{fill:#4C4C4C;}
	.st5{fill:#184281;}
</style>
<g>
	<path class="st0" d="M2.3,0.5h85.4c1,0,1.8,0.8,1.8,1.8v38.6c0,1-0.8,1.8-1.8,1.8H2.3c-1,0-1.8-0.8-1.8-1.8V2.3
		C0.5,1.3,1.3,0.5,2.3,0.5z"/>
	<path class="st1" d="M87.7,1C88.4,1,89,1.6,89,2.3v38.6c0,0.7-0.6,1.3-1.3,1.3l0,0H2.3c-0.7,0-1.3-0.6-1.3-1.3l0,0V2.3
		C1,1.6,1.6,1,2.3,1H87.7 M87.7,0H2.3C1,0,0,1,0,2.3v38.6c0,1.3,1,2.3,2.3,2.3h85.4c1.3,0,2.3-1,2.3-2.3V2.3C90,1,89,0,87.7,0z"/>
</g>
<g>
	<g>
		
			<linearGradient id="SVGID_1_" gradientUnits="userSpaceOnUse" x1="12.2087" y1="11.7767" x2="37.5554" y2="37.1233" gradientTransform="matrix(1 0 0 -1 0 46)">
			<stop  offset="0" style="stop-color:#FEFEFE"/>
			<stop  offset="0.26" style="stop-color:#F9F9F8"/>
			<stop  offset="0.58" style="stop-color:#EAEBEA"/>
			<stop  offset="0.93" style="stop-color:#D2D4D1"/>
			<stop  offset="1" style="stop-color:#CDCFCC"/>
		</linearGradient>
		<path class="st2" d="M15.1,7.7h19.5c2.3,0,4.1,1.8,4.1,4.1v19.5c0,2.3-1.8,4.1-4.1,4.1H15.1c-2.3,0-4.1-1.8-4.1-4.1V11.8
			C11,9.5,12.8,7.7,15.1,7.7z"/>
		<polygon class="st3" points="38.6,17.7 24.3,17.7 24.3,8 16.9,8 16.9,17.7 11.3,17.7 11.3,25.1 16.9,25.1 16.9,35.1 24.3,35.1 
			24.3,25.1 38.6,25.1 		"/>
	</g>
	<g>
		<path class="st4" d="M45.4,10.7C45.4,10.7,45.4,10.8,45.4,10.7l-1.1,3.7c0,0.1-0.1,0.2-0.1,0.2s-0.1,0.1-0.1,0.1
			c-0.1,0-0.1,0.1-0.2,0.1c-0.1,0-0.1,0-0.2,0s-0.1,0-0.2,0s-0.1,0-0.2-0.1c-0.1,0-0.1-0.1-0.1-0.1c0-0.1-0.1-0.1-0.1-0.2l-1.1-3.7
			c0,0,0,0,0,0c0,0,0-0.1,0-0.1c0,0,0,0,0.1,0h0.3c0,0,0,0,0.1,0c0,0,0,0,0,0.1l1,3.6c0,0.1,0.1,0.1,0.1,0.1c0,0,0.1,0,0.1-0.1
			l1-3.6c0,0,0,0,0-0.1c0,0,0,0,0.1,0L45.4,10.7C45.4,10.6,45.4,10.7,45.4,10.7L45.4,10.7z"/>
		<path class="st4" d="M48.6,13.5h-1.9v0.1c0,0.3,0.1,0.6,0.2,0.7c0.1,0.1,0.3,0.2,0.6,0.2c0.2,0,0.3,0,0.5,0c0.2,0,0.4,0,0.5,0h0
			c0,0,0,0,0.1,0c0,0,0,0,0,0.1v0.2c0,0,0,0.1,0,0.1c0,0,0,0-0.1,0c-0.2,0-0.3,0.1-0.5,0.1c-0.2,0-0.3,0-0.5,0c-0.2,0-0.3,0-0.5-0.1
			c-0.2,0-0.3-0.1-0.4-0.2c-0.1-0.1-0.2-0.2-0.3-0.4c-0.1-0.2-0.1-0.4-0.1-0.7V13c0-0.4,0.1-0.7,0.3-1c0.2-0.2,0.5-0.4,0.9-0.4
			c0.2,0,0.4,0,0.5,0.1c0.2,0.1,0.3,0.2,0.4,0.3c0.1,0.1,0.2,0.3,0.2,0.4c0.1,0.2,0.1,0.4,0.1,0.5v0.3
			C48.7,13.4,48.7,13.5,48.6,13.5L48.6,13.5z M48.2,13c0-0.3-0.1-0.6-0.2-0.7c-0.1-0.1-0.3-0.2-0.6-0.2c-0.3,0-0.4,0.1-0.6,0.2
			c-0.1,0.1-0.2,0.4-0.2,0.7v0L48.2,13L48.2,13L48.2,13z"/>
		<path class="st4" d="M51.1,12.1c-0.1,0-0.3,0-0.4,0.1c-0.1,0-0.3,0.1-0.4,0.2v2.4c0,0,0,0.1,0,0.1c0,0,0,0-0.1,0h-0.3
			c0,0-0.1,0-0.1,0c0,0,0,0,0-0.1v-2.9c0,0,0-0.1,0-0.1c0,0,0,0,0.1,0h0.3c0,0,0.1,0,0.1,0c0,0,0,0,0,0.1V12
			c0.1-0.1,0.3-0.2,0.4-0.2c0.1,0,0.3-0.1,0.4-0.1c0.1,0,0.1,0,0.1,0.1V12C51.2,12.1,51.2,12.1,51.1,12.1L51.1,12.1z"/>
		<path class="st4" d="M54.3,14.8C54.3,14.9,54.3,14.9,54.3,14.8l-0.5,0.1c0,0-0.1,0-0.1,0c0,0,0,0-0.1-0.1l-1.1-1.4v1.4
			c0,0,0,0.1,0,0.1c0,0,0,0-0.1,0h-0.3c0,0-0.1,0-0.1,0c0,0,0,0,0-0.1v-4.1c0,0,0-0.1,0-0.1c0,0,0,0,0.1,0h0.3c0,0,0.1,0,0.1,0
			c0,0,0,0,0,0.1v2.4l1.1-1.3c0,0,0,0,0,0c0,0,0,0,0.1,0h0.4c0.1,0,0.1,0,0.1,0.1c0,0,0,0,0,0.1L53,13.2L54.3,14.8
			C54.3,14.7,54.3,14.8,54.3,14.8L54.3,14.8z"/>
		<path class="st4" d="M57.5,14.8C57.5,14.9,57.5,14.9,57.5,14.8L57,14.9c0,0-0.1,0-0.1,0c0,0,0,0-0.1-0.1l-1.1-1.4v1.4
			c0,0,0,0.1,0,0.1c0,0,0,0-0.1,0h-0.3c0,0-0.1,0-0.1,0c0,0,0,0,0-0.1v-4.1c0,0,0-0.1,0-0.1s0,0,0.1,0h0.3c0,0,0.1,0,0.1,0
			c0,0,0,0,0,0.1v2.4l1.1-1.3c0,0,0,0,0,0c0,0,0,0,0.1,0h0.4c0.1,0,0.1,0,0.1,0.1c0,0,0,0,0,0.1l-1.3,1.4L57.5,14.8
			C57.5,14.7,57.5,14.8,57.5,14.8L57.5,14.8z"/>
		<path class="st4" d="M60.8,14.1c-0.1,0.2-0.1,0.3-0.2,0.4c-0.1,0.1-0.2,0.2-0.4,0.3c-0.2,0.1-0.3,0.1-0.6,0.1s-0.4,0-0.5-0.1
			c-0.2-0.1-0.3-0.2-0.4-0.3c-0.1-0.1-0.2-0.3-0.2-0.4c-0.1-0.2-0.1-0.4-0.1-0.6v-0.4c0-0.2,0-0.4,0.1-0.6c0.1-0.2,0.1-0.3,0.2-0.4
			s0.2-0.2,0.4-0.3c0.2-0.1,0.3-0.1,0.5-0.1c0.2,0,0.4,0,0.6,0.1c0.2,0.1,0.3,0.2,0.4,0.3c0.1,0.1,0.2,0.3,0.2,0.4
			c0.1,0.2,0.1,0.4,0.1,0.6v0.4C60.8,13.7,60.8,13.9,60.8,14.1z M60.3,13.1c0-0.3-0.1-0.5-0.2-0.7c-0.1-0.2-0.3-0.3-0.6-0.3
			c-0.3,0-0.5,0.1-0.6,0.3c-0.1,0.2-0.2,0.4-0.2,0.7v0.4c0,0.3,0.1,0.5,0.2,0.7c0.1,0.2,0.3,0.3,0.6,0.3c0.3,0,0.5-0.1,0.6-0.3
			c0.1-0.2,0.2-0.4,0.2-0.7L60.3,13.1L60.3,13.1z"/>
		<path class="st4" d="M64,14.6c-0.2,0.2-0.5,0.4-0.9,0.4c-0.1,0-0.2,0-0.3,0c-0.1,0-0.2,0-0.4,0v1c0,0,0,0.1,0,0.1c0,0,0,0-0.1,0
			h-0.3c0,0-0.1,0-0.1,0c0,0,0,0,0-0.1V12c0,0,0-0.1,0-0.1c0,0,0,0,0.1,0c0.2,0,0.3-0.1,0.5-0.1c0.2,0,0.4,0,0.5,0
			c0.2,0,0.4,0,0.6,0.1c0.2,0.1,0.3,0.2,0.4,0.3c0.1,0.1,0.2,0.3,0.2,0.4c0,0.2,0.1,0.4,0.1,0.6v0.4C64.2,14,64.1,14.3,64,14.6
			L64,14.6z M63.8,13.1c0-0.1,0-0.3,0-0.4c0-0.1-0.1-0.2-0.1-0.3c-0.1-0.1-0.1-0.2-0.2-0.2c-0.1,0-0.2-0.1-0.4-0.1
			c-0.1,0-0.2,0-0.4,0c-0.1,0-0.2,0-0.3,0v2.3c0.1,0,0.2,0,0.3,0c0.1,0,0.2,0,0.3,0c0.1,0,0.3,0,0.4-0.1c0.1,0,0.2-0.1,0.2-0.2
			s0.1-0.2,0.1-0.3c0-0.1,0-0.3,0-0.4L63.8,13.1L63.8,13.1z"/>
		<path class="st4" d="M67.4,14.8C67.4,14.9,67.4,14.9,67.4,14.8l-0.3,0c0,0-0.1,0-0.1,0c0,0,0,0,0-0.1v-0.1
			c-0.1,0.1-0.3,0.1-0.4,0.2c-0.1,0.1-0.3,0.1-0.5,0.1c-0.1,0-0.2,0-0.4,0c-0.1,0-0.2-0.1-0.3-0.2c-0.1-0.1-0.2-0.2-0.2-0.3
			c0-0.1-0.1-0.3-0.1-0.4v-0.1c0-0.2,0-0.3,0.1-0.4c0-0.1,0.1-0.2,0.2-0.3c0.1-0.1,0.3-0.1,0.4-0.2c0.2,0,0.4-0.1,0.6-0.1H67v-0.2
			c0-0.2,0-0.4-0.1-0.5s-0.2-0.1-0.5-0.1c-0.2,0-0.4,0-0.5,0c-0.1,0-0.3,0-0.4,0h0c0,0,0,0-0.1,0c0,0,0,0,0-0.1v-0.2
			c0-0.1,0-0.1,0.1-0.1c0.1,0,0.2,0,0.4,0c0.1,0,0.3,0,0.5,0c0.4,0,0.7,0.1,0.9,0.3c0.2,0.2,0.3,0.4,0.3,0.8L67.4,14.8
			C67.5,14.8,67.4,14.8,67.4,14.8L67.4,14.8z M67,13.4h-0.4c-0.2,0-0.3,0-0.4,0s-0.2,0.1-0.3,0.1c-0.1,0-0.1,0.1-0.1,0.2
			c0,0.1,0,0.2,0,0.3V14c0,0.2,0,0.3,0.1,0.4s0.2,0.1,0.4,0.1c0.1,0,0.3,0,0.4-0.1c0.1,0,0.3-0.1,0.4-0.2V13.4L67,13.4z"/>
		<path class="st4" d="M70.9,14.8C70.9,14.9,70.9,14.9,70.9,14.8l-0.4,0c0,0-0.1,0-0.1,0c0,0,0,0,0-0.1v-1.9c0-0.1,0-0.3,0-0.4
			c0-0.1-0.1-0.2-0.1-0.2c-0.1-0.1-0.1-0.1-0.2-0.1c-0.1,0-0.2,0-0.3,0c-0.1,0-0.2,0-0.4,0.1c-0.1,0-0.3,0.1-0.4,0.2v2.4
			c0,0,0,0.1,0,0.1c0,0,0,0-0.1,0h-0.3c0,0-0.1,0-0.1,0c0,0,0,0,0-0.1v-2.9c0,0,0-0.1,0-0.1c0,0,0,0,0.1,0H69c0,0,0.1,0,0.1,0
			c0,0,0,0,0,0.1V12c0.2-0.1,0.3-0.2,0.4-0.2c0.1,0,0.3-0.1,0.5-0.1c0.3,0,0.6,0.1,0.8,0.3s0.2,0.5,0.2,0.9L70.9,14.8
			C71,14.8,71,14.8,70.9,14.8L70.9,14.8z"/>
		<path class="st4" d="M74.3,14.8C74.3,14.9,74.3,14.9,74.3,14.8l-0.5,0.1c0,0-0.1,0-0.1,0c0,0,0,0-0.1-0.1l-1.1-1.4v1.4
			c0,0,0,0.1,0,0.1c0,0,0,0-0.1,0h-0.3c0,0-0.1,0-0.1,0c0,0,0,0,0-0.1v-4.1c0,0,0-0.1,0-0.1s0,0,0.1,0h0.3c0,0,0.1,0,0.1,0
			c0,0,0,0,0,0.1v2.4l1.1-1.3c0,0,0,0,0,0c0,0,0,0,0.1,0h0.4c0.1,0,0.1,0,0.1,0.1c0,0,0,0,0,0.1l-1.3,1.4L74.3,14.8
			C74.3,14.7,74.3,14.8,74.3,14.8L74.3,14.8z"/>
		<path class="st4" d="M77.5,14.8C77.5,14.9,77.5,14.9,77.5,14.8L77,14.9c0,0-0.1,0-0.1,0c0,0,0,0-0.1-0.1l-1.1-1.4v1.4
			c0,0,0,0.1,0,0.1c0,0,0,0-0.1,0h-0.3c0,0-0.1,0-0.1,0c0,0,0,0,0-0.1v-4.1c0,0,0-0.1,0-0.1c0,0,0,0,0.1,0h0.3c0,0,0.1,0,0.1,0
			c0,0,0,0,0,0.1v2.4l1.1-1.3c0,0,0,0,0,0c0,0,0,0,0.1,0h0.4c0.1,0,0.1,0,0.1,0.1c0,0,0,0,0,0.1l-1.3,1.4L77.5,14.8
			C77.5,14.7,77.5,14.8,77.5,14.8L77.5,14.8z"/>
		<path class="st4" d="M79,11.2C78.9,11.2,78.9,11.2,79,11.2l-0.4,0c0,0-0.1,0-0.1,0c0,0,0,0,0-0.1v-0.5c0,0,0-0.1,0-0.1
			c0,0,0,0,0.1,0h0.3c0,0,0.1,0,0.1,0c0,0,0,0,0,0.1L79,11.2C79,11.2,79,11.2,79,11.2z M79,14.8C78.9,14.9,78.9,14.9,79,14.8l-0.4,0
			c0,0-0.1,0-0.1,0c0,0,0,0,0-0.1v-2.9c0,0,0-0.1,0-0.1c0,0,0,0,0.1,0h0.3c0,0,0.1,0,0.1,0c0,0,0,0,0,0.1L79,14.8
			C79,14.8,79,14.8,79,14.8z"/>
		<path class="st5" d="M44.7,19.2C44.7,19.2,44.7,19.2,44.7,19.2l-1.8,0v1.9c0,0,0,0.1,0,0.1c0,0,0,0-0.1,0h-0.3c0,0-0.1,0-0.1,0
			c0,0,0,0,0-0.1V18c0-0.4,0.1-0.7,0.3-0.8c0.2-0.2,0.5-0.2,0.9-0.2c0.1,0,0.2,0,0.3,0s0.2,0,0.3,0c0.1,0,0.2,0,0.3,0
			c0.1,0,0.2,0,0.2,0c0,0,0,0,0,0c0,0,0,0,0,0v0.3c0,0,0,0.1-0.1,0.1h-1.1c-0.2,0-0.3,0-0.4,0c-0.1,0-0.2,0.1-0.2,0.1
			c0,0-0.1,0.1-0.1,0.2c0,0.1,0,0.2,0,0.3v0.8h1.7c0,0,0.1,0,0.1,0c0,0,0,0,0,0.1L44.7,19.2C44.8,19.1,44.8,19.1,44.7,19.2
			L44.7,19.2z"/>
		<path class="st5" d="M46.4,17.5C46.3,17.5,46.3,17.5,46.4,17.5l-0.4,0c0,0-0.1,0-0.1,0c0,0,0,0,0-0.1V17c0,0,0-0.1,0-0.1
			c0,0,0,0,0.1,0h0.3c0,0,0.1,0,0.1,0c0,0,0,0,0,0.1L46.4,17.5C46.4,17.5,46.4,17.5,46.4,17.5z M46.3,21.1
			C46.3,21.2,46.3,21.2,46.3,21.1l-0.4,0c0,0-0.1,0-0.1,0c0,0,0,0,0-0.1v-2.9c0,0,0-0.1,0-0.1c0,0,0,0,0.1,0h0.3c0,0,0.1,0,0.1,0
			s0,0,0,0.1L46.3,21.1C46.4,21.1,46.4,21.1,46.3,21.1z"/>
		<path class="st5" d="M49.9,21.1C49.9,21.2,49.9,21.2,49.9,21.1l-0.4,0c0,0-0.1,0-0.1,0c0,0,0,0,0-0.1v-1.9c0-0.1,0-0.3,0-0.4
			c0-0.1-0.1-0.2-0.1-0.2c-0.1-0.1-0.1-0.1-0.2-0.1c-0.1,0-0.2,0-0.3,0c-0.1,0-0.2,0-0.4,0.1c-0.1,0-0.3,0.1-0.4,0.2v2.4
			c0,0,0,0.1,0,0.1c0,0,0,0-0.1,0h-0.3c0,0-0.1,0-0.1,0c0,0,0,0,0-0.1v-2.9c0,0,0-0.1,0-0.1c0,0,0,0,0.1,0H48c0,0,0.1,0,0.1,0
			c0,0,0,0,0,0.1v0.1c0.2-0.1,0.3-0.2,0.4-0.2c0.1,0,0.3-0.1,0.5-0.1c0.3,0,0.6,0.1,0.8,0.3c0.2,0.2,0.2,0.5,0.2,0.9L49.9,21.1
			C50,21.1,50,21.1,49.9,21.1L49.9,21.1z"/>
		<path class="st5" d="M53.4,21.1C53.4,21.2,53.4,21.2,53.4,21.1l-0.4,0c0,0-0.1,0-0.1,0c0,0,0,0,0-0.1v-1.9c0-0.1,0-0.3,0-0.4
			c0-0.1-0.1-0.2-0.1-0.2c-0.1-0.1-0.1-0.1-0.2-0.1c-0.1,0-0.2,0-0.3,0c-0.1,0-0.2,0-0.4,0.1c-0.1,0-0.3,0.1-0.4,0.2v2.4
			c0,0,0,0.1,0,0.1c0,0,0,0-0.1,0h-0.3c0,0-0.1,0-0.1,0c0,0,0,0,0-0.1v-2.9c0,0,0-0.1,0-0.1c0,0,0,0,0.1,0h0.3c0,0,0.1,0,0.1,0
			c0,0,0,0,0,0.1v0.1c0.2-0.1,0.3-0.2,0.4-0.2c0.1,0,0.3-0.1,0.5-0.1c0.3,0,0.6,0.1,0.8,0.3c0.2,0.2,0.2,0.5,0.2,0.9L53.4,21.1
			C53.5,21.1,53.5,21.1,53.4,21.1L53.4,21.1z"/>
		<path class="st5" d="M55.1,17.5C55.1,17.5,55.1,17.5,55.1,17.5l-0.4,0c0,0-0.1,0-0.1,0c0,0,0,0,0-0.1V17c0,0,0-0.1,0-0.1
			c0,0,0,0,0.1,0h0.3c0,0,0.1,0,0.1,0c0,0,0,0,0,0.1L55.1,17.5C55.2,17.5,55.2,17.5,55.1,17.5z M55.1,21.1
			C55.1,21.2,55.1,21.2,55.1,21.1l-0.4,0c0,0-0.1,0-0.1,0c0,0,0,0,0-0.1v-2.9c0,0,0-0.1,0-0.1c0,0,0,0,0.1,0H55c0,0,0.1,0,0.1,0
			s0,0,0,0.1L55.1,21.1C55.2,21.1,55.1,21.1,55.1,21.1z"/>
		<path class="st5" d="M58.3,20.4c0,0.3-0.1,0.5-0.3,0.6c-0.2,0.1-0.5,0.2-0.8,0.2c-0.1,0-0.1,0-0.2,0c-0.1,0-0.2,0-0.2,0
			c-0.1,0-0.2,0-0.2,0s-0.2,0-0.2,0c-0.1,0-0.1-0.1-0.1-0.1v-0.2c0,0,0,0,0-0.1s0,0,0.1,0h0c0.1,0,0.1,0,0.2,0c0.1,0,0.2,0,0.2,0
			c0.1,0,0.2,0,0.2,0c0.1,0,0.1,0,0.2,0c0.2,0,0.3,0,0.4-0.1c0.1-0.1,0.1-0.2,0.1-0.3c0-0.1,0-0.2-0.1-0.2c-0.1-0.1-0.2-0.1-0.3-0.2
			l-0.6-0.3c-0.2-0.1-0.3-0.2-0.4-0.4c-0.1-0.1-0.2-0.3-0.2-0.5c0-0.1,0-0.3,0.1-0.4c0.1-0.1,0.1-0.2,0.2-0.2
			c0.1-0.1,0.2-0.1,0.3-0.1c0.1,0,0.3,0,0.4,0c0.2,0,0.3,0,0.5,0c0.1,0,0.3,0,0.4,0.1c0.1,0,0.1,0,0.1,0.1v0.2c0,0.1,0,0.1-0.1,0.1
			h0c-0.1,0-0.2,0-0.4,0s-0.3,0-0.5,0c-0.2,0-0.3,0-0.4,0.1c-0.1,0-0.1,0.1-0.1,0.3c0,0.1,0,0.2,0.1,0.2c0.1,0.1,0.2,0.1,0.3,0.2
			l0.6,0.3c0.2,0.1,0.4,0.3,0.5,0.4C58.3,20.1,58.3,20.2,58.3,20.4L58.3,20.4z"/>
		<path class="st5" d="M61.7,21.1C61.7,21.2,61.7,21.2,61.7,21.1l-0.4,0c0,0-0.1,0-0.1,0c0,0,0,0,0-0.1v-1.9c0-0.3-0.1-0.5-0.2-0.6
			c-0.1-0.1-0.3-0.2-0.4-0.2c0,0-0.1,0-0.2,0c-0.1,0-0.1,0-0.2,0s-0.1,0-0.2,0c-0.1,0-0.1,0-0.2,0.1v2.5c0,0,0,0.1,0,0.1
			c0,0,0,0-0.1,0h-0.3c0,0-0.1,0-0.1,0c0,0,0,0,0-0.1V17c0,0,0-0.1,0-0.1c0,0,0,0,0.1,0h0.3c0,0,0.1,0,0.1,0c0,0,0,0,0,0.1v1.2
			c0.1-0.1,0.3-0.1,0.4-0.1c0.2,0,0.3,0,0.4,0c0.2,0,0.3,0,0.4,0.1c0.1,0,0.2,0.1,0.3,0.2c0.1,0.1,0.2,0.2,0.2,0.4
			c0,0.1,0.1,0.3,0.1,0.5L61.7,21.1C61.7,21.1,61.7,21.1,61.7,21.1L61.7,21.1z"/>
		<path class="st5" d="M45.3,26.5c-0.1,0.2-0.2,0.4-0.3,0.6c-0.1,0.1-0.3,0.3-0.5,0.3c-0.2,0.1-0.4,0.1-0.6,0.1
			c-0.2,0-0.4,0-0.6-0.1c-0.2-0.1-0.4-0.2-0.5-0.3c-0.1-0.1-0.2-0.3-0.3-0.6c-0.1-0.2-0.1-0.5-0.1-0.8V25c0-0.3,0-0.6,0.1-0.8
			s0.2-0.4,0.3-0.6c0.1-0.1,0.3-0.3,0.5-0.3c0.2-0.1,0.4-0.1,0.6-0.1c0.2,0,0.4,0,0.6,0.1c0.2,0.1,0.4,0.2,0.5,0.3
			c0.1,0.1,0.2,0.3,0.3,0.6c0.1,0.2,0.1,0.5,0.1,0.8v0.7C45.4,26,45.3,26.3,45.3,26.5z M44.8,25c0-0.2,0-0.4-0.1-0.6
			s-0.1-0.3-0.2-0.4c-0.1-0.1-0.2-0.2-0.3-0.2c-0.1,0-0.3-0.1-0.4-0.1c-0.2,0-0.3,0-0.4,0.1c-0.1,0-0.2,0.1-0.3,0.2
			c-0.1,0.1-0.2,0.2-0.2,0.4s-0.1,0.4-0.1,0.6v0.7c0,0.2,0,0.4,0.1,0.6s0.1,0.3,0.2,0.4c0.1,0.1,0.2,0.2,0.3,0.2
			c0.1,0,0.3,0.1,0.4,0.1c0.2,0,0.3,0,0.4-0.1c0.1,0,0.2-0.1,0.3-0.2c0.1-0.1,0.2-0.2,0.2-0.4c0-0.2,0.1-0.4,0.1-0.6V25z"/>
		<path class="st5" d="M48.8,27.4C48.8,27.5,48.8,27.5,48.8,27.4l-0.4,0c0,0-0.1,0-0.1,0c0,0,0,0,0-0.1v-1.9c0-0.1,0-0.3,0-0.4
			c0-0.1-0.1-0.2-0.1-0.2c0-0.1-0.1-0.1-0.2-0.1c-0.1,0-0.2,0-0.3,0c-0.1,0-0.2,0-0.4,0.1c-0.1,0-0.3,0.1-0.4,0.2v2.4
			c0,0,0,0.1,0,0.1c0,0,0,0-0.1,0h-0.3c0,0-0.1,0-0.1,0c0,0,0,0,0-0.1v-2.9c0,0,0-0.1,0-0.1c0,0,0,0,0.1,0h0.3c0,0,0.1,0,0.1,0
			c0,0,0,0,0,0.1v0.1c0.2-0.1,0.3-0.2,0.4-0.2c0.1,0,0.3-0.1,0.5-0.1c0.3,0,0.6,0.1,0.8,0.3c0.2,0.2,0.2,0.5,0.2,0.9L48.8,27.4
			C48.8,27.4,48.8,27.4,48.8,27.4L48.8,27.4z"/>
		<path class="st5" d="M50.5,27.4C50.5,27.5,50.4,27.5,50.5,27.4l-0.4,0c0,0-0.1,0-0.1,0c0,0,0,0,0-0.1v-4.1c0,0,0-0.1,0-0.1
			s0,0,0.1,0h0.3c0,0,0.1,0,0.1,0s0,0,0,0.1L50.5,27.4C50.5,27.4,50.5,27.4,50.5,27.4z"/>
		<path class="st5" d="M52.2,23.8C52.2,23.8,52.2,23.8,52.2,23.8l-0.4,0c0,0-0.1,0-0.1,0c0,0,0,0,0-0.1v-0.5c0,0,0-0.1,0-0.1
			c0,0,0,0,0.1,0h0.3c0,0,0.1,0,0.1,0c0,0,0,0,0,0.1L52.2,23.8C52.3,23.7,52.2,23.8,52.2,23.8z M52.2,27.4
			C52.2,27.5,52.2,27.5,52.2,27.4l-0.4,0c0,0-0.1,0-0.1,0c0,0,0,0,0-0.1v-2.9c0,0,0-0.1,0-0.1c0,0,0,0,0.1,0h0.3c0,0,0.1,0,0.1,0
			c0,0,0,0,0,0.1L52.2,27.4C52.2,27.4,52.2,27.4,52.2,27.4z"/>
		<path class="st5" d="M55.8,27.4C55.8,27.5,55.8,27.5,55.8,27.4l-0.4,0c0,0-0.1,0-0.1,0c0,0,0,0,0-0.1v-1.9c0-0.1,0-0.3,0-0.4
			c0-0.1-0.1-0.2-0.1-0.2c0-0.1-0.1-0.1-0.2-0.1c-0.1,0-0.2,0-0.3,0c-0.1,0-0.2,0-0.4,0.1c-0.1,0-0.3,0.1-0.4,0.2v2.4
			c0,0,0,0.1,0,0.1c0,0,0,0-0.1,0h-0.3c0,0-0.1,0-0.1,0c0,0,0,0,0-0.1v-2.9c0,0,0-0.1,0-0.1c0,0,0,0,0.1,0h0.3c0,0,0.1,0,0.1,0
			c0,0,0,0,0,0.1v0.1c0.2-0.1,0.3-0.2,0.4-0.2c0.1,0,0.3-0.1,0.5-0.1c0.3,0,0.6,0.1,0.8,0.3c0.2,0.2,0.2,0.5,0.2,0.9L55.8,27.4
			C55.8,27.4,55.8,27.4,55.8,27.4L55.8,27.4z"/>
		<path class="st5" d="M59.3,26.1h-1.9v0.1c0,0.3,0.1,0.6,0.2,0.7c0.1,0.1,0.3,0.2,0.6,0.2c0.2,0,0.3,0,0.5,0c0.2,0,0.4,0,0.5,0h0
			c0,0,0,0,0.1,0c0,0,0,0,0,0.1v0.2c0,0,0,0.1,0,0.1c0,0,0,0-0.1,0c-0.2,0-0.3,0.1-0.5,0.1s-0.3,0-0.5,0c-0.2,0-0.3,0-0.5-0.1
			c-0.2,0-0.3-0.1-0.4-0.2C57.1,27.1,57,27,57,26.8c-0.1-0.2-0.1-0.4-0.1-0.7v-0.5c0-0.4,0.1-0.7,0.3-1s0.5-0.4,0.9-0.4
			c0.2,0,0.4,0,0.5,0.1c0.2,0.1,0.3,0.2,0.4,0.3c0.1,0.1,0.2,0.3,0.2,0.4c0.1,0.2,0.1,0.4,0.1,0.5v0.3C59.4,26,59.3,26.1,59.3,26.1
			L59.3,26.1z M58.9,25.6c0-0.3-0.1-0.6-0.2-0.7c-0.1-0.1-0.3-0.2-0.6-0.2c-0.3,0-0.4,0.1-0.6,0.2c-0.1,0.1-0.2,0.4-0.2,0.7v0
			L58.9,25.6L58.9,25.6L58.9,25.6z"/>
		<path class="st5" d="M45,33.2c-0.1,0.2-0.2,0.3-0.4,0.4c-0.2,0.1-0.3,0.2-0.5,0.2c-0.2,0-0.4,0.1-0.6,0.1c-0.2,0-0.4,0-0.5,0
			c-0.2,0-0.3,0-0.4,0c-0.1,0-0.1,0-0.1-0.1c0,0,0-0.1,0-0.2v-3.8c0-0.1,0.1-0.2,0.2-0.2c0.1,0,0.2,0,0.4,0c0.2,0,0.3,0,0.5,0
			c0.2,0,0.4,0,0.6,0c0.2,0,0.4,0.1,0.5,0.2c0.2,0.1,0.3,0.2,0.4,0.3c0.1,0.1,0.1,0.3,0.1,0.5v0.1c0,0.2-0.1,0.4-0.2,0.5
			c-0.1,0.2-0.3,0.3-0.4,0.3c0.2,0.1,0.4,0.2,0.5,0.3c0.1,0.2,0.2,0.4,0.2,0.6v0.1C45.2,32.8,45.1,33,45,33.2L45,33.2z M44.6,30.6
			c0-0.1,0-0.2-0.1-0.3c-0.1-0.1-0.1-0.2-0.2-0.2S44.1,30,43.9,30s-0.3,0-0.5,0c-0.1,0-0.2,0-0.3,0c-0.1,0-0.2,0-0.3,0v1.4h0.9
			c0.2,0,0.3,0,0.4-0.1c0.1,0,0.2-0.1,0.3-0.1c0.1-0.1,0.1-0.1,0.1-0.2S44.6,30.8,44.6,30.6L44.6,30.6L44.6,30.6z M44.6,32.5
			c0-0.1,0-0.2,0-0.3c0-0.1-0.1-0.2-0.1-0.2c-0.1-0.1-0.2-0.1-0.3-0.2c-0.1,0-0.3-0.1-0.4-0.1h-0.9v1.6c0.1,0,0.2,0,0.3,0
			c0.1,0,0.2,0,0.3,0c0.2,0,0.3,0,0.5,0c0.1,0,0.3-0.1,0.4-0.1c0.1-0.1,0.2-0.1,0.2-0.2C44.6,32.9,44.6,32.7,44.6,32.5L44.6,32.5
			L44.6,32.5z"/>
		<path class="st5" d="M48.3,33.7C48.3,33.8,48.3,33.8,48.3,33.7l-0.3,0c0,0-0.1,0-0.1,0c0,0,0,0,0-0.1v-0.1
			c-0.1,0.1-0.3,0.1-0.4,0.2c-0.1,0.1-0.3,0.1-0.5,0.1c-0.1,0-0.2,0-0.4,0c-0.1,0-0.2-0.1-0.3-0.2c-0.1-0.1-0.2-0.2-0.2-0.3
			c0-0.1-0.1-0.3-0.1-0.4v-0.1c0-0.2,0-0.3,0.1-0.4c0-0.1,0.1-0.2,0.2-0.3c0.1-0.1,0.3-0.1,0.4-0.2s0.4-0.1,0.6-0.1h0.4v-0.2
			c0-0.2,0-0.4-0.1-0.5c-0.1-0.1-0.2-0.1-0.5-0.1c-0.2,0-0.4,0-0.5,0s-0.3,0-0.4,0h0c0,0,0,0-0.1,0c0,0,0,0,0-0.1v-0.2
			c0-0.1,0-0.1,0.1-0.1c0.1,0,0.2,0,0.4,0c0.1,0,0.3,0,0.5,0c0.4,0,0.7,0.1,0.9,0.3c0.2,0.2,0.3,0.4,0.3,0.8L48.3,33.7
			C48.4,33.7,48.3,33.7,48.3,33.7L48.3,33.7z M47.9,32.2h-0.4c-0.2,0-0.3,0-0.4,0s-0.2,0.1-0.3,0.1c-0.1,0-0.1,0.1-0.1,0.2
			c0,0.1,0,0.2,0,0.3v0.1c0,0.2,0,0.3,0.1,0.4c0.1,0.1,0.2,0.1,0.4,0.1c0.1,0,0.3,0,0.4-0.1c0.1,0,0.3-0.1,0.4-0.2
			C47.9,33.2,47.9,32.2,47.9,32.2z"/>
		<path class="st5" d="M51.8,33.7C51.8,33.8,51.8,33.8,51.8,33.7l-0.4,0c0,0-0.1,0-0.1,0c0,0,0,0,0-0.1v-1.9c0-0.1,0-0.3,0-0.4
			c0-0.1-0.1-0.2-0.1-0.2c0-0.1-0.1-0.1-0.2-0.1c-0.1,0-0.2,0-0.3,0c-0.1,0-0.2,0-0.4,0.1c-0.1,0-0.3,0.1-0.4,0.2v2.4
			c0,0,0,0.1,0,0.1c0,0,0,0-0.1,0h-0.3c0,0-0.1,0-0.1,0c0,0,0,0,0-0.1v-2.9c0,0,0-0.1,0-0.1c0,0,0,0,0.1,0h0.3c0,0,0.1,0,0.1,0
			c0,0,0,0,0,0.1v0.1c0.2-0.1,0.3-0.2,0.4-0.2c0.1,0,0.3-0.1,0.5-0.1c0.3,0,0.6,0.1,0.8,0.3s0.2,0.5,0.2,0.9L51.8,33.7
			C51.9,33.7,51.9,33.7,51.8,33.7L51.8,33.7z"/>
		<path class="st5" d="M55.2,33.7C55.2,33.7,55.2,33.8,55.2,33.7l-0.5,0.1c0,0-0.1,0-0.1,0c0,0,0,0-0.1-0.1l-1.1-1.4v1.4
			c0,0,0,0.1,0,0.1c0,0,0,0-0.1,0h-0.3c0,0-0.1,0-0.1,0c0,0,0,0,0-0.1v-4.1c0,0,0-0.1,0-0.1c0,0,0,0,0.1,0h0.3c0,0,0.1,0,0.1,0
			c0,0,0,0,0,0.1V32l1.1-1.3c0,0,0,0,0,0c0,0,0,0,0.1,0h0.4c0.1,0,0.1,0,0.1,0.1c0,0,0,0,0,0.1L54,32.1L55.2,33.7
			C55.2,33.6,55.2,33.7,55.2,33.7L55.2,33.7z"/>
		<path class="st5" d="M56.7,30.1C56.7,30.1,56.7,30.1,56.7,30.1l-0.4,0c0,0-0.1,0-0.1,0c0,0,0,0,0-0.1v-0.5c0,0,0-0.1,0-0.1
			c0,0,0,0,0.1,0h0.3c0,0,0.1,0,0.1,0c0,0,0,0,0,0.1L56.7,30.1C56.7,30,56.7,30.1,56.7,30.1z M56.7,33.7
			C56.7,33.7,56.6,33.8,56.7,33.7l-0.4,0c0,0-0.1,0-0.1,0c0,0,0,0,0-0.1v-2.9c0,0,0-0.1,0-0.1c0,0,0,0,0.1,0h0.3c0,0,0.1,0,0.1,0
			c0,0,0,0,0,0.1L56.7,33.7C56.7,33.7,56.7,33.7,56.7,33.7z"/>
		<path class="st5" d="M60.3,33.7C60.3,33.8,60.2,33.8,60.3,33.7l-0.4,0c0,0-0.1,0-0.1,0c0,0,0,0,0-0.1v-1.9c0-0.1,0-0.3,0-0.4
			c0-0.1-0.1-0.2-0.1-0.2c0-0.1-0.1-0.1-0.2-0.1c-0.1,0-0.2,0-0.3,0c-0.1,0-0.2,0-0.4,0.1s-0.3,0.1-0.4,0.2v2.4c0,0,0,0.1,0,0.1
			c0,0,0,0-0.1,0H58c0,0-0.1,0-0.1,0c0,0,0,0,0-0.1v-2.9c0,0,0-0.1,0-0.1c0,0,0,0,0.1,0h0.3c0,0,0.1,0,0.1,0c0,0,0,0,0,0.1v0.1
			c0.2-0.1,0.3-0.2,0.4-0.2c0.1,0,0.3-0.1,0.5-0.1c0.3,0,0.6,0.1,0.8,0.3s0.2,0.5,0.2,0.9L60.3,33.7C60.3,33.7,60.3,33.7,60.3,33.7
			L60.3,33.7z"/>
		<path class="st5" d="M64,31C64,31,63.9,31,64,31L63.7,31c0.1,0.1,0.1,0.1,0.1,0.2c0,0.1,0.1,0.2,0.1,0.4v0c0,0.3-0.1,0.6-0.3,0.7
			c-0.2,0.2-0.5,0.3-1,0.3c-0.2,0-0.3,0-0.4,0c-0.1,0-0.2,0-0.3-0.1c-0.1,0-0.1,0.1-0.1,0.2c0,0,0,0.1,0,0.1c0,0,0.1,0,0.1,0.1
			l0.8,0.2c0.1,0,0.3,0.1,0.4,0.1c0.1,0,0.2,0.1,0.4,0.2c0.1,0.1,0.2,0.1,0.2,0.2c0.1,0.1,0.1,0.2,0.1,0.3v0c0,0.3-0.1,0.5-0.3,0.6
			c-0.2,0.2-0.5,0.2-1,0.2c-0.5,0-0.8-0.1-1-0.2c-0.2-0.2-0.3-0.4-0.3-0.7v0c0-0.2,0-0.3,0.1-0.4c0.1-0.1,0.2-0.2,0.3-0.3l0,0
			c-0.1,0-0.2-0.1-0.2-0.2c0-0.1-0.1-0.2-0.1-0.3l0,0c0-0.1,0-0.2,0.1-0.2c0-0.1,0.1-0.1,0.2-0.2c-0.1-0.1-0.2-0.2-0.2-0.3
			c0-0.1-0.1-0.2-0.1-0.4v0c0-0.1,0-0.2,0.1-0.4c0-0.1,0.1-0.2,0.2-0.3c0.1-0.1,0.2-0.2,0.4-0.2s0.4-0.1,0.6-0.1h1.2
			c0,0,0.1,0,0.1,0c0,0,0,0.1,0,0.1L64,31C64,30.9,64,31,64,31L64,31z M63.5,34c0-0.1,0-0.1,0-0.1c0,0-0.1-0.1-0.1-0.1
			c-0.1,0-0.1-0.1-0.2-0.1c-0.1,0-0.2-0.1-0.3-0.1l-0.6-0.2c-0.1,0.1-0.2,0.1-0.2,0.2c0,0.1-0.1,0.2-0.1,0.3v0c0,0.1,0,0.2,0,0.2
			c0,0.1,0.1,0.1,0.1,0.2c0.1,0,0.1,0.1,0.3,0.1c0.1,0,0.2,0,0.4,0s0.3,0,0.4,0c0.1,0,0.2-0.1,0.2-0.1c0.1,0,0.1-0.1,0.1-0.2
			C63.5,34.2,63.5,34.1,63.5,34L63.5,34L63.5,34z M63.4,31.6c0-0.1,0-0.2,0-0.2c0-0.1-0.1-0.1-0.1-0.2s-0.1-0.1-0.2-0.1
			c-0.1,0-0.2,0-0.4,0s-0.3,0-0.4,0s-0.2,0.1-0.2,0.1c-0.1,0.1-0.1,0.1-0.1,0.2c0,0.1,0,0.2,0,0.2v0c0,0.1,0,0.1,0,0.2
			S62,32,62,32.1c0.1,0.1,0.1,0.1,0.2,0.1c0.1,0,0.2,0.1,0.4,0.1c0.2,0,0.3,0,0.4,0c0.1,0,0.2-0.1,0.2-0.1c0.1,0,0.1-0.1,0.1-0.2
			S63.4,31.8,63.4,31.6L63.4,31.6L63.4,31.6z"/>
	</g>
</g>
</svg>
