<?xml version="1.0" encoding="UTF-8"?>
<svg width="90px" height="44px" viewBox="0 0 90 44" version="1.1" xmlns="http://www.w3.org/2000/svg" xmlns:xlink="http://www.w3.org/1999/xlink">
    <title>Group</title>
    <g id="Page-1" stroke="none" stroke-width="1" fill="none" fill-rule="evenodd">
        <g id="Group" fill-rule="nonzero">
            <g id="viabill.logo">
                <rect id="Rectangle" fill="#FFFFFF" x="0.5" y="0.5" width="89" height="42.14" rx="1.78"></rect>
                <path d="M87.72,1 C88.4269245,1 89,1.57307552 89,2.28 L89,40.87 C89,41.2085647 88.8648355,41.533119 88.6244971,41.7715797 C88.3841587,42.0100405 88.0585542,42.1426659 87.72,42.1400394 L2.28,42.1400394 C1.94144576,42.1426659 1.61584133,42.0100405 1.37550293,41.7715797 C1.13516453,41.533119 1,41.2085647 1,40.87 L1,2.28 C1,1.57307552 1.57307552,1 2.28,1 L87.72,1 M87.72,0 L2.28,0 C1.02079077,0 0,1.02079077 0,2.28 L0,40.87 C0.00550576442,42.1253022 1.0246857,43.14 2.28,43.14 L87.72,43.14 C88.9753143,43.14 89.9944942,42.1253022 90,40.87 L90,2.28 C90,1.02079077 88.9792092,0 87.72,0 Z" id="Shape" fill="#F2F5F7"></path>
            </g>
            <g id="viabill" transform="translate(12.000000, 15.000000)" fill="#5A00FF">
                <path d="M45.5,0 C44.6713809,0 44,0.680151707 44,1.51959545 L44,12.4804046 C44,13.3198483 44.6713809,14 45.5,14 C46.3286184,14 47,13.3198483 47,12.4804046 L47,1.52043826 C47.0008312,0.680994522 46.3286184,0 45.5,0 Z" id="Path"></path>
                <path d="M40.9932933,9.51050231 C40.9338186,8.01880864 40.0760433,6.62899501 38.6913728,6.07035275 C39.3916659,5.45482747 39.6798248,4.6346931 39.6798248,3.76956171 C39.6798248,1.19029854 37.5261721,0 34.9226899,0 L31.322379,0 C30.3808366,0 29.7416934,0.96955844 30.1018921,1.85166984 C30.3062838,2.35258007 30.7879448,2.67859621 31.322379,2.67859621 L34.9226899,2.67859621 C36.0778386,2.67859621 36.6650461,3.27374548 36.6650461,4.08708785 C36.6650461,4.90043022 36.0778386,5.39624645 34.8841571,5.39624645 L33.4249338,5.39624645 C32.5185735,5.39624645 31.9028852,6.33014687 32.2488434,7.17914726 C32.4515598,7.67751048 32.9415975,7.99333862 33.4718434,7.97550962 C33.7859701,7.97550962 35.5769112,7.97550962 36.2386714,7.97550962 C36.96577,7.97550962 38.0513919,8.3711438 38.0513919,9.7083194 C38.0513919,11.001347 36.5142653,11.3154771 35.7335557,11.3358531 C35.1069776,11.3163261 34.5356858,11.7713903 34.4326523,12.4225736 C34.318729,13.128093 34.7911756,13.7928603 35.4872803,13.9083243 C35.7746016,13.9575663 36.0686242,13.9983183 36.3626468,13.9983183 C37.2254481,14.0212414 38.1326461,13.8098403 38.8899008,13.3624171 C40.2201227,12.6119007 41.0854371,11.067569 40.9932933,9.51050231 Z" id="Path"></path>
                <path d="M17.5937687,0 L17.5937687,0 C18.594696,0 19.2739245,1.09987358 18.892248,2.10029499 L14.7047106,13.0611041 C14.4873887,13.6300042 13.9748516,14 13.4062313,14 L13.4062313,14 C12.405304,14 11.7260755,12.9001264 12.107752,11.899705 L16.2952894,0.938895912 C16.5126113,0.370838601 17.0251484,0 17.5937687,0 Z" id="Path"></path>
                <path d="M30.5036842,14 L30.5036842,14 C29.8982853,14 29.352597,13.6291614 29.1212185,13.0611041 L25.5004357,3.69405815 L21.8796528,13.0611041 C21.6482743,13.6300042 21.102586,14 20.4971872,14 L20.4971872,14 C19.4315193,14 18.7083579,12.9001264 19.1147215,11.899705 L23.3649533,1.45048462 C23.7223875,0.572271386 24.56497,0 25.4996064,0 L25.4996064,0 C26.4342427,0 27.2768252,0.572271386 27.6342594,1.45048462 L31.8844912,11.899705 C32.2925135,12.8992836 31.5693521,14 30.5036842,14 Z" id="Path"></path>
                <path d="M1.49663492,0 L1.49663492,0 C2.10201701,0 2.64769017,0.370838601 2.87906223,0.938895912 L6.49974465,10.3059418 L10.1204271,0.938895912 C10.3517991,0.370838601 10.8974723,0 11.5028544,0 L11.5028544,0 C12.5684927,0 13.291634,1.09987358 12.8852817,2.10029499 L8.63516775,12.5495154 C8.27774353,13.4277286 7.43518436,14 6.50057394,14 L6.50057394,14 C5.56596352,14 4.72340435,13.4277286 4.36598013,12.5495154 L0.115036912,2.10029499 C-0.292144735,1.09987358 0.431825892,0 1.49663492,0 Z" id="Path"></path>
                <path d="M65.8473507,11.3214437 L62.6548947,11.3214437 L62.6548947,1.54140127 C62.6548947,0.69044586 62.0602861,0 61.3274474,0 C60.5946086,0 60,0.69044586 60,1.54140127 L60,12.6607219 L60,12.6607219 C60,13.4004246 60.5163514,14 61.1533799,14 L65.8466193,14 C66.4836478,14 67,13.4004246 67,12.6607219 L67,12.6607219 C67.0007306,11.9210191 66.4843792,11.3214437 65.8473507,11.3214437 Z" id="Path"></path>
                <path d="M55.8473507,11.3214437 L52.6548947,11.3214437 L52.6548947,1.54140127 C52.6548947,0.69044586 52.0602861,0 51.3274474,0 C50.5946086,0 50,0.69044586 50,1.54140127 L50,12.6607219 L50,12.6607219 C50,13.4004246 50.5163514,14 51.1533799,14 L55.8466193,14 C56.4836478,14 57,13.4004246 57,12.6607219 L57,12.6607219 C57.0007306,11.9210191 56.4843792,11.3214437 55.8473507,11.3214437 Z" id="Path"></path>
            </g>
        </g>
    </g>
</svg>