<?xml version="1.0" encoding="UTF-8"?>
<svg width="90px" height="43px" viewBox="0 0 90 43" version="1.1" xmlns="http://www.w3.org/2000/svg" xmlns:xlink="http://www.w3.org/1999/xlink">
    <title>Artboard</title>
    <g id="Artboard" stroke="none" stroke-width="1" fill="none" fill-rule="evenodd">
        <g id="swish.logo" transform="translate(0.000000, -1.000000)">
            <rect id="Rectangle" fill="#FFFFFF" fill-rule="nonzero" x="0.5" y="0.5" width="89" height="42.14" rx="1.78"></rect>
            <path d="M87.72,1 C88.4269245,1 89,1.57307552 89,2.28 L89,40.87 C89,41.2085647 88.8648355,41.533119 88.6244971,41.7715797 C88.3841587,42.0100405 88.0585542,42.1426659 87.72,42.1400394 L2.28,42.1400394 C1.94144576,42.1426659 1.61584133,42.0100405 1.37550293,41.7715797 C1.13516453,41.533119 1,41.2085647 1,40.87 L1,2.28 C1,1.57307552 1.57307552,1 2.28,1 L87.72,1 M87.72,0 L2.28,0 C1.02079077,0 0,1.02079077 0,2.28 L0,40.87 C0.00550576442,42.1253022 1.0246857,43.14 2.28,43.14 L87.72,43.14 C88.9753143,43.14 89.9944942,42.1253022 90,40.87 L90,2.28 C90,1.02079077 88.9792092,0 87.72,0 Z" id="Shape" fill="#F2F5F7" fill-rule="nonzero"></path>
            <g id="vipps.logo" transform="translate(2.000000, 5.000000)">
                <polygon id="Path" fill="#FF5B24" fill-rule="nonzero" points="14 12 16.55 19.4162896 19.05 12 22 12 17.6 23 15.4 23 11 12"></polygon>
                <polygon id="Path" points="73 20.05 80.4162896 17.5 73 15 73 12 84 16.4 84 18.6 73 23"></polygon>
                <polygon id="Path" points="14 23 16.55 30.4162896 19.05 23 22 23 17.6 34 15.4 34 11 23"></polygon>
                <polygon id="Path" points="20.0135747 11 17.4751131 3.58371041 14.9864253 11 12 11 16.4298643 0 18.6199095 0 23 11"></polygon>
                <polygon id="Path" points="11 14.9864253 3.58371041 17.5248869 11 20.0633484 11 23 0 18.6199095 0 16.4298643 11 12"></polygon>
                <path d="M29.8041568,20.7272727 C31.7006427,20.7272727 32.7770267,19.8181818 33.8021542,18.5050505 C34.3659744,17.7979798 35.0835637,17.6464646 35.5961275,18.0505051 C36.1086912,18.4545455 36.1599476,19.2121212 35.5961275,19.9191919 C34.1096925,21.8383838 32.2132065,23 29.8041568,23 C27.1900815,23 24.8835445,21.5858586 23.2945968,19.1111111 C22.8332894,18.4545455 22.9358021,17.7474747 23.4483659,17.3939394 C23.9609297,17.040404 24.7297753,17.1919192 25.1910827,17.8989899 C26.3187231,19.5656566 27.8564144,20.7272727 29.8041568,20.7272727 Z M33.3408468,14.5151515 C33.3408468,15.4242424 32.6232575,16.030303 31.8031555,16.030303 C30.9830534,16.030303 30.2654642,15.4242424 30.2654642,14.5151515 C30.2654642,13.6060606 30.9830534,13 31.8031555,13 C32.6232575,13 33.3408468,13.6565657 33.3408468,14.5151515 Z" id="Shape" fill="#FF5B24" fill-rule="nonzero"></path>
                <path d="M40.75,11.3157895 L40.75,12.8947368 C41.5,11.7894737 42.65,11 44.35,11 C46.5,11 49,12.8947368 49,16.9473684 C49,21.2105263 46.6,23.2631579 44.1,23.2631579 C42.8,23.2631579 41.6,22.7368421 40.7,21.4210526 L40.7,27 L38,27 L38,11.3157895 L40.75,11.3157895 Z M40.75,17.1052632 C40.75,19.4736842 42.05,20.7368421 43.5,20.7368421 C44.9,20.7368421 46.3,19.5789474 46.3,17.1052632 C46.3,14.6842105 44.9,13.5263158 43.5,13.5263158 C42.1,13.5263158 40.75,14.6315789 40.75,17.1052632 Z" id="Shape" fill="#FF5B24" fill-rule="nonzero"></path>
                <path d="M53.75,11.3157895 L53.75,12.8947368 C54.5,11.7894737 55.65,11 57.35,11 C59.5,11 62,12.8947368 62,16.9473684 C62,21.2105263 59.6,23.2631579 57.1,23.2631579 C55.8,23.2631579 54.6,22.7368421 53.7,21.4210526 L53.7,27 L51,27 L51,11.3157895 L53.75,11.3157895 Z M53.75,17.1052632 C53.75,19.4736842 55.05,20.7368421 56.5,20.7368421 C57.9,20.7368421 59.3,19.5789474 59.3,17.1052632 C59.3,14.6842105 57.9,13.5263158 56.5,13.5263158 C55.05,13.5263158 53.75,14.6315789 53.75,17.1052632 Z" id="Shape" fill="#FF5B24" fill-rule="nonzero"></path>
                <path d="M68.5245902,11 C70.7377049,11 72.3114754,12.0815451 73,14.7596567 L70.5901639,15.1716738 C70.5409836,13.832618 69.7540984,13.3690987 68.5737705,13.3690987 C67.6885246,13.3690987 67,13.7811159 67,14.4506438 C67,14.9656652 67.3442623,15.4806867 68.3770492,15.6866953 L70.1967213,16.0472103 C71.9672131,16.4077253 72.9508197,17.6437768 72.9508197,19.2918455 C72.9508197,21.7639485 70.8360656,23 68.8196721,23 C66.704918,23 64.3442623,21.8669528 64,19.0858369 L66.4098361,18.6738197 C66.557377,20.1158798 67.3934426,20.6309013 68.7704918,20.6309013 C69.8032787,20.6309013 70.4918033,20.2188841 70.4918033,19.5493562 C70.4918033,18.9313305 70.147541,18.4678112 69.0163934,18.2618026 L67.3442623,17.9527897 C65.5737705,17.5922747 64.4918033,16.304721 64.4918033,14.6566524 C64.5409836,12.0815451 66.7540984,11 68.5245902,11 Z" id="Path" fill="#FF5B24" fill-rule="nonzero"></path>
            </g>
        </g>
    </g>
</svg>