<svg id="Layer_1" data-name="Layer 1" xmlns="http://www.w3.org/2000/svg" viewBox="0 0 90 43.14"><defs><style>.cls-1,.cls-2,.cls-3{fill:none;}  .cls-1{clip-rule:evenodd;}  .cls-3{fill-rule:evenodd;}  .cls-4{clip-path:url(#clip-path);}  .cls-5{clip-path:url(#clip-path-2);}  .cls-6{clip-path:url(#clip-path-3);}  .cls-7{clip-path:url(#clip-path-4);}  .cls-8{clip-path:url(#clip-path-5);}  .cls-9{clip-path:url(#clip-path-6);}  .cls-10{clip-path:url(#clip-path-7);}  .cls-11{clip-path:url(#clip-path-8);}  .cls-12{clip-path:url(#clip-path-9);}  .cls-13{clip-path:url(#clip-path-10);}  .cls-14{clip-path:url(#clip-path-11);}  .cls-15{clip-path:url(#clip-path-12);}  .cls-16{clip-path:url(#clip-path-13);}  .cls-17{clip-path:url(#clip-path-14);}  .cls-18{clip-path:url(#clip-path-15);}  .cls-19{clip-path:url(#clip-path-16);}  .cls-20{fill:#fff;}  .cls-21{fill:#f2f5f7;}  .cls-22{fill:#f9c212;}  .cls-23{fill:#2c68b2;}  .cls-24{clip-path:url(#clip-path-17);}  .cls-25{clip-path:url(#clip-path-18);}  .cls-26{clip-path:url(#clip-path-19);}  .cls-27{clip-path:url(#clip-path-20);}  .cls-28{clip-path:url(#clip-path-21);}  .cls-29{clip-path:url(#clip-path-22);}  .cls-30{clip-path:url(#clip-path-23);}  .cls-31{clip-path:url(#clip-path-24);}  .cls-32{clip-path:url(#clip-path-25);}  .cls-33{clip-path:url(#clip-path-31);}  .cls-34{clip-path:url(#clip-path-32);}  .cls-35{clip-path:url(#clip-path-33);}  .cls-36{clip-path:url(#clip-path-34);}  .cls-37{clip-path:url(#clip-path-35);}</style><clipPath id="clip-path"><path class="cls-1" d="M-98.18-177h-3.19v10.65h3.17a5.93,5.93,0,0,0,4-1.23,5.26,5.26,0,0,0,2-4.09c0-3.14-2.45-5.33-6-5.33m2.54,8a4.25,4.25,0,0,1-3,.84h-.59v-7h.59a4.16,4.16,0,0,1,3,.86,3.52,3.52,0,0,1,1.2,2.65,3.58,3.58,0,0,1-1.2,2.68"/></clipPath><clipPath id="clip-path-2"><rect class="cls-2" x="-91.21" y="-176.97" width="2.17" height="10.64"/></clipPath><clipPath id="clip-path-3"><path class="cls-1" d="M-83.73-172.88c-1.3-.46-1.69-.77-1.69-1.34s.68-1.18,1.62-1.18a2.27,2.27,0,0,1,1.75.86l1.14-1.42a5,5,0,0,0-3.27-1.18,3.21,3.21,0,0,0-3.47,3c0,1.46.7,2.21,2.73,2.92a8.06,8.06,0,0,1,1.5.6,1.25,1.25,0,0,1,.65,1.1,1.55,1.55,0,0,1-1.68,1.5,2.58,2.58,0,0,1-2.37-1.41l-1.4,1.29a4.38,4.38,0,0,0,3.85,2,3.52,3.52,0,0,0,3.84-3.49c0-1.69-.73-2.46-3.2-3.32"/></clipPath><clipPath id="clip-path-4"><path class="cls-1" d="M-79.85-171.64A5.65,5.65,0,0,0-74-166.08a6.31,6.31,0,0,0,2.72-.62v-2.45A3.56,3.56,0,0,1-73.87-168a3.56,3.56,0,0,1-3.74-3.67A3.61,3.61,0,0,1-74-175.31a3.75,3.75,0,0,1,2.72,1.2v-2.44a5.69,5.69,0,0,0-2.67-.66,5.74,5.74,0,0,0-5.93,5.57"/></clipPath><clipPath id="clip-path-5"><polygon class="cls-1" points="-54.05 -169.82 -57.01 -176.97 -59.38 -176.97 -54.66 -166.05 -53.49 -166.05 -48.69 -176.97 -51.04 -176.97 -54.05 -169.82"/></clipPath><clipPath id="clip-path-6"><polygon class="cls-1" points="-47.71 -166.32 -41.55 -166.32 -41.55 -168.13 -45.54 -168.13 -45.54 -171 -41.7 -171 -41.7 -172.8 -45.54 -172.8 -45.54 -175.16 -41.55 -175.16 -41.55 -176.97 -47.71 -176.97 -47.71 -166.32"/></clipPath><clipPath id="clip-path-7"><path class="cls-1" d="M-33-173.82c0-2-1.43-3.15-3.94-3.15h-3.21v10.65h2.16v-4.28h.29l3,4.28H-32l-3.5-4.49a2.86,2.86,0,0,0,2.53-3m-4.35,1.75h-.64v-3.22h.67c1.35,0,2.09.54,2.09,1.58s-.74,1.64-2.12,1.64"/></clipPath><clipPath id="clip-path-8"><path class="cls-1" d="M-58.73-171.64A5.79,5.79,0,0,1-64.65-166a5.78,5.78,0,0,1-5.91-5.66,5.79,5.79,0,0,1,5.91-5.66,5.8,5.8,0,0,1,5.92,5.66"/></clipPath><clipPath id="clip-path-9"><path class="cls-1" d="M13.5-177H10.31v10.64h3.17a6,6,0,0,0,4-1.23,5.24,5.24,0,0,0,2-4.08c0-3.14-2.45-5.33-6-5.33M16-169a4.22,4.22,0,0,1-3,.85h-.58v-7h.58a4.13,4.13,0,0,1,3,.86,3.52,3.52,0,0,1,1.21,2.65A3.59,3.59,0,0,1,16-169"/></clipPath><clipPath id="clip-path-10"><rect class="cls-2" x="20.47" y="-176.96" width="2.17" height="10.64"/></clipPath><clipPath id="clip-path-11"><path class="cls-1" d="M28-172.88c-1.3-.46-1.69-.76-1.69-1.34s.68-1.18,1.62-1.18a2.31,2.31,0,0,1,1.75.86L30.76-176a5,5,0,0,0-3.27-1.18,3.22,3.22,0,0,0-3.47,3c0,1.47.7,2.22,2.74,2.92a9,9,0,0,1,1.5.61,1.24,1.24,0,0,1,.65,1.1,1.55,1.55,0,0,1-1.68,1.5,2.59,2.59,0,0,1-2.37-1.42l-1.4,1.29a4.38,4.38,0,0,0,3.85,2,3.53,3.53,0,0,0,3.84-3.5c0-1.69-.73-2.45-3.2-3.32"/></clipPath><clipPath id="clip-path-12"><path class="cls-1" d="M31.83-171.63a5.65,5.65,0,0,0,5.87,5.55,6.32,6.32,0,0,0,2.73-.62v-2.44A3.54,3.54,0,0,1,37.81-168a3.55,3.55,0,0,1-3.74-3.67,3.61,3.61,0,0,1,3.63-3.65,3.74,3.74,0,0,1,2.73,1.19v-2.44a5.81,5.81,0,0,0-2.68-.65,5.73,5.73,0,0,0-5.92,5.57"/></clipPath><clipPath id="clip-path-13"><polygon class="cls-1" points="57.63 -169.81 54.67 -176.96 52.29 -176.96 57.02 -166.05 58.18 -166.05 62.99 -176.96 60.64 -176.96 57.63 -169.81"/></clipPath><clipPath id="clip-path-14"><polygon class="cls-1" points="63.97 -166.32 70.13 -166.32 70.13 -168.12 66.14 -168.12 66.14 -171 69.98 -171 69.98 -172.8 66.14 -172.8 66.14 -175.16 70.13 -175.16 70.13 -176.96 63.97 -176.96 63.97 -166.32"/></clipPath><clipPath id="clip-path-15"><path class="cls-1" d="M78.72-173.82c0-2-1.44-3.14-3.94-3.14H71.56v10.64h2.17v-4.28H74l3,4.28h2.67l-3.5-4.48a2.87,2.87,0,0,0,2.53-3m-4.35,1.76h-.64v-3.23h.67c1.35,0,2.09.55,2.09,1.58s-.74,1.65-2.12,1.65"/></clipPath><clipPath id="clip-path-16"><path class="cls-1" d="M53-171.63A5.79,5.79,0,0,1,47-166a5.79,5.79,0,0,1-5.92-5.65A5.79,5.79,0,0,1,47-177.29,5.79,5.79,0,0,1,53-171.63"/></clipPath><clipPath id="clip-path-17"><rect class="cls-2" x="-86.93" y="-243.74" width="40.5" height="22.5" rx="3.89"/></clipPath><clipPath id="clip-path-18"><path class="cls-2" d="M-77-236.18a6,6,0,0,1-1.73,4.23l2.34,3.22h-2.09l-2.55-3.5.66-.5a4.28,4.28,0,0,0,1.71-3.45ZM-83-228.73h1.7v-7.45H-83Zm7,0h1.6v-7.45h-1.6ZM-60.29-234a1.86,1.86,0,0,0-1.58.72v-.58h-1.52v5.15h1.54v-2.71a1.08,1.08,0,0,1,1.15-1.16c.67,0,1.06.4,1.06,1.15v2.72h1.53V-232a2,2,0,0,0-2.18-2Zm-9.2.14H-68v5.15h-1.53v-.33a2.63,2.63,0,0,1-1.52.47,2.7,2.7,0,0,1-2.69-2.72A2.7,2.7,0,0,1-71-234a2.63,2.63,0,0,1,1.52.47v-.33Zm0,2.57a1.35,1.35,0,0,0-1.38-1.32,1.35,1.35,0,0,0-1.39,1.32A1.36,1.36,0,0,0-70.88-230,1.35,1.35,0,0,0-69.5-231.31Zm3.9-1.9v-.67h-1.56v5.15h1.57v-2.41c0-.81.87-1.24,1.47-1.24h0v-1.5a1.92,1.92,0,0,0-1.5.67Zm12.23-.67h1.53v5.15h-1.53v-.33a2.62,2.62,0,0,1-1.51.47,2.7,2.7,0,0,1-2.69-2.72A2.7,2.7,0,0,1-54.88-234a2.62,2.62,0,0,1,1.51.47v-.33Zm0,2.57a1.35,1.35,0,0,0-1.39-1.32,1.35,1.35,0,0,0-1.38,1.32A1.35,1.35,0,0,0-54.76-230,1.36,1.36,0,0,0-53.37-231.31Zm3.16.75a1,1,0,0,0-1,1,1,1,0,0,0,1,1,1,1,0,0,0,1-1A1,1,0,0,0-50.21-230.56Z"/></clipPath><clipPath id="clip-path-19"><rect class="cls-2" x="24.75" y="-243.74" width="40.5" height="22.5" rx="3.89"/></clipPath><clipPath id="clip-path-20"><path class="cls-2" d="M34.65-236.18a6,6,0,0,1-1.73,4.23l2.34,3.22h-2.1l-2.54-3.5.66-.5A4.28,4.28,0,0,0,33-236.18Zm-5.93,7.45h1.7v-7.45h-1.7Zm7,0h1.6v-7.45h-1.6ZM51.39-234a1.86,1.86,0,0,0-1.58.72v-.58H48.29v5.15h1.54v-2.71A1.08,1.08,0,0,1,51-232.6c.67,0,1.06.4,1.06,1.15v2.72h1.52V-232a2,2,0,0,0-2.17-2Zm-9.2.14h1.53v5.15H42.19v-.33a2.68,2.68,0,0,1-1.52.47A2.7,2.7,0,0,1,38-231.31,2.7,2.7,0,0,1,40.67-234a2.68,2.68,0,0,1,1.52.47v-.33Zm0,2.57a1.35,1.35,0,0,0-1.38-1.32,1.35,1.35,0,0,0-1.39,1.32A1.36,1.36,0,0,0,40.8-230,1.35,1.35,0,0,0,42.18-231.31Zm3.9-1.9v-.67H44.51v5.15h1.57v-2.41c0-.81.88-1.24,1.48-1.24h0v-1.5a1.92,1.92,0,0,0-1.5.67Zm12.23-.67h1.53v5.15H58.31v-.33a2.62,2.62,0,0,1-1.51.47,2.71,2.71,0,0,1-2.7-2.72A2.7,2.7,0,0,1,56.8-234a2.62,2.62,0,0,1,1.51.47v-.33Zm0,2.57a1.35,1.35,0,0,0-1.39-1.32,1.35,1.35,0,0,0-1.38,1.32A1.35,1.35,0,0,0,56.92-230,1.36,1.36,0,0,0,58.31-231.31Zm3.15.75a1,1,0,0,0-1,1,1,1,0,0,0,1,1,1,1,0,0,0,1-1A1,1,0,0,0,61.46-230.56Z"/></clipPath><clipPath id="clip-path-21"><path class="cls-1" d="M-56.71,464.33h2.85a1.87,1.87,0,0,0,.34,0,1.23,1.23,0,0,0,1-1.2,1.23,1.23,0,0,0-1-1.2,1.87,1.87,0,0,0-.34,0h-2.85Z"/></clipPath><clipPath id="clip-path-22"><path class="cls-1" d="M-54.19,447.31A4.81,4.81,0,0,0-59.12,452v4.84h7l.48,0c1.58.07,2.74.84,2.74,2.17,0,1.05-.79,1.94-2.24,2.14v.05c1.6.11,2.82.94,2.82,2.25s-1.34,2.34-3.13,2.34h-7.65v9.5h7.23A4.8,4.8,0,0,0-47,470.63V447.31Z"/></clipPath><clipPath id="clip-path-23"><path class="cls-1" d="M-52.85,459.35a1.14,1.14,0,0,0-1-1.12l-.28,0h-2.59v2.27h2.59l.28,0a1.13,1.13,0,0,0,1-1.11"/></clipPath><clipPath id="clip-path-24"><path class="cls-1" d="M-81.47,447.31A4.81,4.81,0,0,0-86.4,452v11.51a10.22,10.22,0,0,0,4.27,1.05,2.33,2.33,0,0,0,2.64-2.31v-5.41h4.24v5.41c0,2.12-1.38,3.81-6.09,3.81a22.32,22.32,0,0,1-5.06-.58v9.83h7.23a4.8,4.8,0,0,0,4.93-4.66V447.31Z"/></clipPath><clipPath id="clip-path-25"><path class="cls-1" d="M-67.83,447.31A4.81,4.81,0,0,0-72.76,452v6.1c1.25-1,3.41-1.65,6.92-1.5a23.41,23.41,0,0,1,3.87.56v2a10.2,10.2,0,0,0-3.73-1c-2.67-.19-4.27,1-4.27,3.22s1.6,3.41,4.27,3.22a10.08,10.08,0,0,0,3.73-1v2a24,24,0,0,1-3.87.55c-3.51.15-5.67-.48-6.92-1.49v10.76h7.23a4.8,4.8,0,0,0,4.93-4.66V447.31Z"/></clipPath><clipPath id="clip-path-31"><path class="cls-1" d="M55,464.33h2.85a1.87,1.87,0,0,0,.34,0,1.22,1.22,0,0,0,0-2.4,1.87,1.87,0,0,0-.34,0H55Z"/></clipPath><clipPath id="clip-path-32"><path class="cls-1" d="M57.49,447.31A4.81,4.81,0,0,0,52.56,452v4.84h7l.49,0c1.58.07,2.74.84,2.74,2.17a2.27,2.27,0,0,1-2.24,2.14v.05c1.6.11,2.82.94,2.82,2.25s-1.34,2.34-3.14,2.34H52.56v9.5h7.23a4.8,4.8,0,0,0,4.93-4.66V447.31Z"/></clipPath><clipPath id="clip-path-33"><path class="cls-1" d="M58.83,459.35a1.14,1.14,0,0,0-1-1.12l-.29,0H55v2.27h2.58l.29,0a1.13,1.13,0,0,0,1-1.11"/></clipPath><clipPath id="clip-path-34"><path class="cls-1" d="M30.21,447.31A4.81,4.81,0,0,0,25.28,452v11.51a10.17,10.17,0,0,0,4.26,1.05c1.71,0,2.65-1,2.65-2.31v-5.41h4.24v5.41c0,2.12-1.38,3.81-6.09,3.81a22.32,22.32,0,0,1-5.06-.58v9.83h7.23a4.8,4.8,0,0,0,4.93-4.66V447.31Z"/></clipPath><clipPath id="clip-path-35"><path class="cls-1" d="M43.85,447.31A4.81,4.81,0,0,0,38.92,452v6.1c1.25-1,3.41-1.65,6.92-1.5a23.41,23.41,0,0,1,3.87.56v2a10.2,10.2,0,0,0-3.73-1c-2.67-.19-4.27,1-4.27,3.22s1.6,3.41,4.27,3.22a10.08,10.08,0,0,0,3.73-1v2a24,24,0,0,1-3.87.55c-3.51.15-5.67-.48-6.92-1.49v10.76h7.23a4.8,4.8,0,0,0,4.93-4.66V447.31Z"/></clipPath></defs><title>Payment-Method-Logos</title><rect class="cls-20" x="0.5" y="0.5" width="89" height="42.14" rx="1.78"/><path class="cls-21" d="M87.72,1A1.28,1.28,0,0,1,89,2.28V40.87a1.27,1.27,0,0,1-1.28,1.27H2.28A1.27,1.27,0,0,1,1,40.87V2.28A1.28,1.28,0,0,1,2.28,1H87.72m0-1H2.28A2.28,2.28,0,0,0,0,2.28V40.87a2.28,2.28,0,0,0,2.28,2.27H87.72A2.28,2.28,0,0,0,90,40.87V2.28A2.28,2.28,0,0,0,87.72,0Z"/><path class="cls-22" d="M23,13.64a2.54,2.54,0,0,0-2.54-2H11.1l-.13.58a24.68,24.68,0,0,1,5.43,1.7,2.2,2.2,0,0,1,1.3,1.76l.07.23,6.43,3.76Z"/><path class="cls-23" d="M31,11.6,25.31,25.21,24.2,19.63l-6.43-3.75,4.32,15.71H27.9l8.91-20Z"/><path class="cls-23" d="M39.17,11.6l-4.55,20h5.5l4.55-20Z"/><path class="cls-23" d="M67.8,24.51,70.7,17l1.66,7.51ZM74.59,11.6h-4.7a2.52,2.52,0,0,0-2.34,1.47L59.3,31.59h5.77l1.15-3h7.06l.67,3H79ZM51.88,17.14c0-.72.75-1.48,2.34-1.67a10.86,10.86,0,0,1,5.42.89l1-4.24a15.61,15.61,0,0,0-5.14-.88c-5.44,0-9.26,2.71-9.29,6.6,0,2.88,2.73,4.49,4.81,5.45s2.86,1.6,2.85,2.48c0,1.34-1.71,1.93-3.29,2a12,12,0,0,1-5.64-1.27l-1,4.39A17.88,17.88,0,0,0,50,31.91c5.78,0,9.56-2.69,9.58-6.84C59.61,19.79,51.83,19.5,51.88,17.14Z"/></svg>
