<?xml version="1.0" encoding="utf-8"?>
<!-- Generator: Adobe Illustrator 27.7.0, SVG Export Plug-In . SVG Version: 6.00 Build 0)  -->
<svg version="1.1" id="Layer_1" xmlns="http://www.w3.org/2000/svg" xmlns:xlink="http://www.w3.org/1999/xlink" x="0px" y="0px"
	 viewBox="0 0 90 43.0999985" style="enable-background:new 0 0 90 43.0999985;" xml:space="preserve">
<style type="text/css">
	.st0{fill:#FFFFFF;}
	.st1{fill:#F2F5F7;}
	.st2{fill:#1AAD19;}
	.st3{fill:#222222;}
</style>
<path class="st0" d="M2.3,0.5h85.4000015c1,0,1.8000031,0.8,1.8000031,1.8v38.5999985c0,1-0.8000031,1.7999992-1.8000031,1.7999992
	H2.3c-1,0-1.8-0.7999992-1.8-1.7999992V2.3C0.5,1.3,1.3,0.5,2.3,0.5z"/>
<path class="st1" d="M87.6999969,1C88.4000015,1,89,1.6,89,2.3v38.5999985c0,0.7000008-0.5999985,1.2999992-1.3000031,1.2999992l0,0
	H2.3c-0.7,0-1.3-0.5999985-1.3-1.2999992l0,0V2.3C1,1.6,1.6,1,2.3,1H87.6999969 M87.6999969,0H2.3C1,0,0,1,0,2.3v38.5999985
	c0,1.2999992,1,2.2999992,2.3,2.2999992h85.4000015c1.3000031,0,2.3000031-1,2.3000031-2.2999992V2.3C90,1,89,0,87.6999969,0z"/>
<g>
	<path class="st2" d="M22.5837955,11.1537867c1.4280567-0.0237169,2.6127625,0.1193304,3.779068,0.427722
		c0.8259239,0.2183895,1.625679,0.5083189,2.3921185,0.8799715c1.3923492,0.6751614,2.6302757,1.5613995,3.6523743,2.7323942
		c0.0799026,0.0915413,0.0467682,0.1123657-0.0418129,0.1507797c-0.6952076,0.3014727-1.3894329,0.605216-2.0825443,0.9114418
		c-1.1638031,0.514183-2.3271122,1.0294857-3.4896221,1.5465679c-1.4445858,0.6425495-2.8878021,1.2881546-4.3323154,1.9308681
		c-0.6111965,0.2719421-1.2252407,0.5375347-1.8359814,0.8104782c-0.4062004,0.1815319-0.7895241,0.1586075-1.1552258-0.1016598
		c-0.637022-0.4533634-1.274168-0.9065609-1.9130764-1.3572731c-0.2102356-0.1483097-0.4192486-0.2997131-0.6479397-0.4194164
		c-0.1805859-0.0945244-0.3423767-0.0704117-0.4767189,0.0610409c-0.1270885,0.124361-0.1544437,0.3046761-0.0753555,0.4780235
		c0.5948677,1.3038292,1.1894779,2.6077728,1.7836494,3.9119167c0.1199684,0.263319,0.2361393,0.5283623,0.3568516,0.7913361
		c0.2146816,0.4676933,0.7298222,0.643362,1.1776333,0.3881893c0.9874916-0.5626926,1.9695091-1.1349277,2.95508-1.700983
		c0.4664135-0.2678795,0.9378567-0.5270729,1.4035358-0.796196c1.0813065-0.6249027,2.1591148-1.2558231,3.2409916-1.8797359
		c0.8064404-0.4650707,1.6175442-0.9220982,2.425642-1.384325c0.9338112-0.5341339,1.8669491-1.069437,2.7995815-1.6056137
		c0.2351875-0.1352119,0.4704781-0.2707386,0.6995506-0.4158058c0.1172371-0.0742474,0.178112-0.0481529,0.2428627,0.0669365
		c0.544075,0.9670734,0.9536667,1.9791775,1.1295929,3.0832348c0.2530785,1.5882301,0.0505066,3.1145573-0.5793266,4.5870419
		c-0.5020027,1.1736393-1.2141762,2.2056942-2.1334915,3.0968685c-0.7482662,0.725359-1.5976028,1.3083019-2.5047092,1.8144798
		c-0.9447708,0.527195-1.948843,0.8988533-2.9911556,1.1861324c-1.2480354,0.3439789-2.5205994,0.4677906-3.8070183,0.4619808
		c-0.5553551-0.0025043-1.1101761-0.0672379-1.6634769-0.1415081c-0.6653957-0.0893173-1.3155193-0.2375088-1.9629517-0.4060478
		c-0.3620758-0.0942535-0.7006912-0.0081291-1.0136452,0.1677265c-0.8200722,0.4608231-1.6338234,0.9328194-2.4502344,1.400116
		c-0.0487404,0.0279007-0.0970449,0.0574856-0.1484194,0.0796986c-0.1231651,0.0532532-0.2458477,0.0626259-0.3561344-0.0301094
		c-0.1167889-0.0981998-0.2004423-0.2148628-0.1567039-0.3775997c0.1572113-0.5849209,0.3193426-1.1685371,0.4750004-1.7538662
		c0.0654974-0.2462959,0.1673164-0.4867001,0.1363306-0.7512646c-0.0268517-0.2292786-0.1282291-0.4137344-0.3096027-0.5597115
		c-0.5802488-0.467001-1.1558447-0.9395542-1.6581173-1.4926872c-0.8681908-0.9561024-1.5374956-2.031002-1.9754696-3.2486629
		c-0.3212242-0.8930721-0.4798698-1.8160839-0.4723549-2.7582531c0.0093212-1.1684303,0.2595978-2.2937298,0.7388048-3.3656139
		c0.3748016-0.8383484,0.8665752-1.6004753,1.4632978-2.2980642c0.6740437-0.7879791,1.4574518-1.4494028,2.3212271-2.020689
		c0.6185112-0.4090719,1.2736301-0.7475176,1.9553452-1.0383472c0.473299-0.2019167,0.9482193-0.4004536,1.4474964-0.5276136
		c0.5159969-0.1314201,1.0297413-0.2715445,1.5570717-0.3591394C21.253376,11.2006607,22.0259342,11.1322355,22.5837955,11.1537867z
		"/>
	<path class="st3" d="M61.9344292,13.8518534c0.6332588,0,1.2665634-0.0042143,1.8997307,0.0033951
		c0.1339073,0.0016098,0.1623039-0.0410662,0.1595955-0.164629c-0.007679-0.3505259,0.0026398-0.7014551-0.0057373-1.0519495
		c-0.0027504-0.1150951,0.0346947-0.1412163,0.1414986-0.1360569c0.1731567,0.0083656,0.3472214,0.0076427,0.5204773,0.0004692
		c0.0965576-0.0039978,0.1288757,0.0218658,0.1264877,0.1230984c-0.0080338,0.3411484-0.0044785,0.6825514-0.0078735,1.0238314
		c-0.0020142,0.2018194-0.0041504,0.2018976,0.1909103,0.2018976c1.2055283,0.0000038,2.4110718,0.0014048,3.6165924-0.0024519
		c0.1123962-0.0003595,0.1618576,0.0217819,0.1516342,0.1443186c-0.0108414,0.1300077-0.0094757,0.2619991-0.0010681,0.3923302
		c0.0070343,0.1091614-0.0269623,0.1432552-0.1402664,0.1425819c-0.8395767-0.0049829-1.6791992-0.0032063-2.5187988-0.0032845
		c-0.3893127-0.0000362-0.7786636,0.0035963-1.1679077-0.0013275c-0.0977402-0.001236-0.1286163,0.0249281-0.1273651,0.124979
		c0.005043,0.4020548,0.0057755,0.804307-0.0021439,1.2062845c-0.0021133,0.1076193,0.0277557,0.1318827,0.1318893,0.1314859
		c0.9709778-0.0037041,1.9419708-0.0020523,2.9129639-0.0015574c0.1673126,0.0000849,0.1658401,0.0004463,0.1125793,0.1573248
		c-0.4458313,1.3130836-1.2212982,2.3990345-2.2797012,3.2903099c-0.1397095,0.1176529-0.2743149,0.2420692-0.4205322,0.3510246
		c-0.0858612,0.0639763-0.0529938,0.0925388,0.0138855,0.1250687c0.3623962,0.1762733,0.7336807,0.3327999,1.1182022,0.4529648
		c0.6706085,0.2095718,1.35009,0.3867664,2.0416107,0.515049c0.1473083,0.0273266,0.2950363,0.0525284,0.4429398,0.0764542
		c0.0838852,0.0135727,0.1163254,0.033083,0.0569916,0.1236858c-0.1253662,0.1914387-0.2432556,0.3884144-0.3521881,0.5895901
		c-0.0539398,0.0996342-0.1285477,0.0794296-0.2038651,0.0624371c-0.3242493-0.0731506-0.6485062-0.1467094-0.9709473-0.2273102
		c-1.0089035-0.2522011-1.9729462-0.6193867-2.876976-1.1352272c-0.078331-0.0446987-0.1311874-0.020071-0.192688,0.014492
		c-0.6053009,0.3401775-1.2356453,0.6255856-1.8916054,0.8538246c-0.6774101,0.2357006-1.3713379,0.4098072-2.0753822,0.5456104
		c-0.0813484,0.0156918-0.1315155-0.0094395-0.1722908-0.0812817c-0.108429-0.1910172-0.2198181-0.3805008-0.3355522-0.5671978
		c-0.0475616-0.0767326-0.0295868-0.1109333,0.0543442-0.1195297c0.5048447-0.0517025,1.0000114-0.1649666,1.4865189-0.2955933
		c0.7588577-0.2037506,1.5121841-0.4347458,2.2155838-0.7978001c0.0988617-0.0510273,0.06987-0.088995,0.0022774-0.1380024
		c-0.5949516-0.4313526-1.1232567-0.9312935-1.5783157-1.5089474c-0.5137291-0.652132-0.9287605-1.3557758-1.1803513-2.1511593
		c-0.036953-0.1168327-0.0242462-0.13939,0.0973854-0.1388798c0.9709778,0.0040751,1.9419899-0.0000734,2.9129524,0.0054064
		c0.1231918,0.0006952,0.1576691-0.0280561,0.1545906-0.153142c-0.009201-0.373847-0.0025101-0.7480659-0.0036125-1.1221361
		c-0.0006332-0.214839,0.0200157-0.1835108-0.1905289-0.1839705c-1.2429848-0.0027151-2.4859734-0.0024214-3.7289619-0.0034113
		c-0.1905594-0.0001516-0.1923981-0.0007286-0.1996803-0.1913691c-0.0044594-0.1166601,0.0100212-0.2353039-0.0062675-0.3499117
		c-0.0181122-0.1274414,0.0421333-0.1337843,0.1410561-0.1333256C60.6491432,13.8532972,61.29179,13.8518457,61.9344292,13.8518534z
		 M64.3869705,16.6749916c0-0.0036373,0-0.0072765,0-0.0109138c-0.7970161,0-1.5940323,0.0006771-2.3910484-0.0008926
		c-0.0950089-0.0001869-0.1301308,0.0119839-0.0761032,0.1168175c0.563343,1.0930481,1.4112358,1.9217033,2.4193001,2.6035328
		c0.0609207,0.0412025,0.1060944,0.0301914,0.1635818-0.0090542c0.7183228-0.4903622,1.3406906-1.0804195,1.8539352-1.7814884
		c0.1793213-0.2449398,0.3434525-0.5015583,0.4803314-0.7732887c0.0282059-0.0560017,0.0958328-0.1460724-0.0587463-0.1456718
		C65.9811401,16.6760979,65.1840591,16.6749916,64.3869705,16.6749916z"/>
	<path class="st3" d="M47.0077591,19.9624271c-0.342556,0.5549049-0.7724533,1.0158825-1.2205391,1.4617081
		c-0.086277,0.0858383-0.1751671,0.1690598-0.2624893,0.2538605c-0.0581894,0.0565147-0.0949059,0.0528393-0.1349907-0.026165
		c-0.0739098-0.145649-0.153904-0.2890968-0.2431946-0.425787c-0.0519447-0.0795231-0.04076-0.1236153,0.0253067-0.1881676
		c0.3648453-0.3564777,0.7356071-0.7072773,1.0479164-1.1138325c0.1400604-0.1823292,0.2637825-0.3743687,0.3895111-0.5658073
		c0.042675-0.0649757,0.0430679-0.123682,0.0160255-0.1970425c-0.3159714-0.8571377-0.5440521-1.7361202-0.650753-2.644619
		c-0.0046349-0.0394344,0.0042381-0.0928307-0.0502396-0.1005726c-0.0453644-0.0064449-0.0553093,0.0416794-0.0734673,0.0733929
		c-0.0533638,0.0931988-0.1069794,0.1862545-0.161293,0.2789021c-0.0322075,0.0549393-0.061264,0.0797939-0.1043663,0.0034618
		c-0.0849762-0.1504726-0.1729622-0.2995358-0.2666016-0.4447689c-0.0615234-0.0954266-0.0522919-0.1788845,0.0022659-0.2733345
		c0.4562073-0.7897873,0.7709618-1.6376686,1.020916-2.5104904c0.0885391-0.3091869,0.1583214-0.6239986,0.227375-0.9382706
		c0.0208244-0.0947609,0.064827-0.1120234,0.1466599-0.0937223c0.1643181,0.0367479,0.328289,0.0755262,0.4936714,0.1068039
		c0.0950279,0.017972,0.0626602,0.0768871,0.0481987,0.1268187c-0.1324539,0.4572811-0.2649498,0.9145708-0.4015465,1.3706331
		c-0.055954,0.1867952-0.0605316,0.1854801,0.1301651,0.1854763c0.5909271-0.0000105,1.1818695,0.0022326,1.7727585-0.0022478
		c0.1041641-0.0007887,0.1517525,0.0172987,0.1427765,0.135025c-0.0113449,0.1487513-0.0055084,0.2990541-0.001976,0.4485674
		c0.0015755,0.066906-0.0221062,0.0915327-0.0890579,0.0884476c-0.088913-0.004097-0.1804619,0.0117521-0.2667503-0.0037737
		c-0.1387482-0.0249653-0.1611557,0.0454674-0.1728859,0.1577272c-0.044651,0.4274254-0.0858307,0.8556108-0.1469917,1.2808428
		c-0.1395149,0.9699688-0.3749275,1.9143372-0.8056946,2.8013744c-0.0253792,0.0522575-0.016304,0.0833111,0.0045738,0.1264687
		c0.1770592,0.3660069,0.4279022,0.6816711,0.7017708,0.9759541c0.2161751,0.2322998,0.4039192,0.4931335,0.6599503,0.6875706
		c0.0474625,0.036047,0.0267982,0.0717678,0.0050659,0.1099377c-0.1039543,0.1826363-0.2087975,0.3647938-0.3104935,0.5486774
		c-0.0406227,0.0734615-0.065506,0.0193481-0.090641-0.0082226c-0.4664459-0.5116863-0.9503098-1.0091743-1.3184891-1.6013145
		C47.0533447,20.018816,47.031929,19.9945126,47.0077591,19.9624271z M47.1335793,14.9698477
		c0-0.0034208-0.0000038-0.0068417-0.0000038-0.0102625c-0.1591644,0-0.3183327,0.0004377-0.4774895-0.0002699
		c-0.0469246-0.0002079-0.098484-0.0095158-0.1185875,0.0482178c-0.0530624,0.1524038-0.1329155,0.2943354-0.1098251,0.4697571
		c0.0627251,0.47651,0.13871,0.9508009,0.213913,1.4253836c0.0754471,0.476078,0.2219696,0.9338284,0.3471375,1.3972015
		c0.0098114,0.0363159,0.0174217,0.07761,0.0605507,0.0865498c0.0545502,0.0113087,0.0545502-0.0408173,0.0684967-0.071312
		c0.0621567-0.1358776,0.1127205-0.2755852,0.1543274-0.4196835c0.1583595-0.5484848,0.258419-1.1080246,0.3269196-1.6735306
		c0.0431976-0.3566027,0.0804291-0.7139606,0.116684-1.0713463c0.0182724-0.1800842,0.0146027-0.1805315-0.160511-0.1806812
		C47.4146538,14.9697523,47.2741165,14.9698477,47.1335793,14.9698477z"/>
	<path class="st3" d="M76.8177643,17.9459801c0-0.7526398-0.0026398-1.5052986,0.0025864-2.2579012
		c0.0008774-0.1265182-0.0348434-0.1605158-0.1633224-0.1600256c-1.3318939,0.0050898-2.663826,0.0011148-3.9957275,0.0062084
		c-0.138237,0.0005283-0.1786804-0.0397053-0.1683044-0.173769c0.0115128-0.1486263,0.0034943-0.2990255-0.0009384-0.4485083
		c-0.0026398-0.0891714,0.0284805-0.1221609,0.1229858-0.1220284c1.3553009,0.0018911,2.7106171-0.0008612,4.065918,0.0017242
		c0.0958786,0.0001822,0.1197662-0.0318842,0.1228104-0.1195841c0.0220947-0.6356373,0.0198517-1.2712183,0.001915-1.9068127
		c-0.0054321-0.19244-0.0078659-0.1939592,0.189537-0.1920252c0.1640701,0.0016069,0.3282013,0.0127821,0.4920959,0.0095787
		c0.0990372-0.001936,0.126358,0.0332155,0.1257706,0.1300297c-0.0039368,0.6451235,0.0012054,1.2903137-0.005127,1.9353991
		c-0.0011902,0.1211691,0.0386505,0.1501818,0.1518555,0.1487722c0.3703537-0.0046129,0.7408371,0.0026779,1.1112137-0.0008192
		c0.0978928-0.0009241,0.132782,0.0305719,0.1286392,0.1285534c-0.006691,0.1586819-0.0083389,0.318099-0.000824,0.4766731
		c0.0051804,0.1092644-0.0402069,0.1329441-0.1403351,0.1316509c-0.3704376-0.0047855-0.7410583,0.0026512-1.111412-0.0046282
		c-0.1121063-0.002203-0.1389465,0.0306139-0.1386719,0.1396685c0.003624,1.4819584,0.0028687,2.9639282,0.0020905,4.4458942
		c-0.0001221,0.244772-0.0307846,0.4849567-0.1358261,0.7100201c-0.2492905,0.5340977-0.6893463,0.7826233-1.2608414,0.8190269
		c-0.5152054,0.0328178-0.5156708,0.0269413-0.7803574-0.4093685c-0.0581665-0.0958824-0.1138-0.1933384-0.1736679-0.2881355
		c-0.0458908-0.072649-0.0345917-0.0942078,0.056015-0.0930977c0.2811356,0.0034428,0.5624084,0.0002098,0.8435745-0.0039768
		c0.4049835-0.006031,0.6374664-0.2102757,0.6449814-0.6168232c0.014061-0.7616634,0.0040359-1.5237675,0.0040359-2.2856884
		C76.8115463,17.9459839,76.8146515,17.945982,76.8177643,17.9459801z"/>
	<path class="st3" d="M41.2560081,28.7354336c0.0833817-0.3625679,0.1777306-0.7188416,0.2578773-1.0781403
		c0.134243-0.6018562,0.32687-1.1879845,0.4696732-1.7872334c0.1103554-0.46311,0.2303658-0.9235592,0.3601379-1.3816471
		c0.0170631-0.0602341,0.0342331-0.0881138,0.0990906-0.0870552c0.1734924,0.0028305,0.3471565,0.0040989,0.520565-0.0007629
		c0.0668716-0.001873,0.0904503,0.0270233,0.1015358,0.0849819c0.1737213,0.9084091,0.4477654,1.7930012,0.6430283,2.6968307
		c0.1025505,0.4746513,0.1964455,0.9508438,0.2953148,1.4261169c0.0085373,0.0410519,0.0183563,0.0816326,0.0515289,0.1171684
		c0.0101128-0.008646,0.0263138-0.0155163,0.0278473-0.0247955c0.2028694-1.2278042,0.5865364-2.4118023,0.8817482-3.6171951
		c0.0477409-0.1949329,0.1038513-0.3878593,0.1497459-0.5831928c0.0164337-0.0699234,0.0417404-0.1029015,0.1198158-0.0999565
		c0.1545601,0.005827,0.3096313,0.0056305,0.4642258,0.0003128c0.0865555-0.0029774,0.1003838,0.0218525,0.0767746,0.1032734
		c-0.3249855,1.1206474-0.6479797,2.241869-0.9693642,3.3635502c-0.1439819,0.5025043-0.2854156,1.0057621-0.4228096,1.5100842
		c-0.0250778,0.0920582-0.0641823,0.1329594-0.1634979,0.1285362c-0.1497536-0.0066681-0.3001137-0.0024776-0.4501381,0.0007343
		c-0.0736275,0.0015755-0.1094513-0.0292397-0.126297-0.1007786c-0.2930374-1.2448139-0.5874519-2.4893036-0.8823471-3.7336826
		c-0.0333481-0.1407108-0.0573425-0.2824993-0.060215-0.4271393c-0.0631371-0.0060177-0.0623703,0.0393944-0.0674553,0.0733204
		c-0.0986748,0.6580639-0.3177261,1.2857628-0.4834099,1.9270287c-0.1821785,0.7050915-0.3952332,1.4015789-0.572979,2.1075897
		c-0.0293159,0.1164532-0.0811424,0.1627789-0.2018127,0.1537571c-0.1211967-0.0090599-0.2441177-0.0064468-0.3655434,0.0018196
		c-0.1162453,0.0079155-0.1617317-0.0389652-0.188694-0.1516838c-0.1606789-0.6716957-0.3261948-1.3423004-0.4971352-2.0114822
		c-0.2437172-0.9540672-0.4925385-1.906847-0.7425652-2.859293c-0.020031-0.0763226,0.0024071-0.0864849,0.0688133-0.0852623
		c0.1594162,0.0029411,0.3191223,0.0056229,0.4783173-0.000946c0.0858803-0.0035419,0.1205559,0.0248814,0.1442757,0.1088181
		c0.1055565,0.3735256,0.1616478,0.7577839,0.2567863,1.1334839c0.2120628,0.8374443,0.428196,1.674017,0.5884171,2.5235176
		C41.1532402,28.3568478,41.174057,28.5512486,41.2560081,28.7354336z"/>
	<path class="st3" d="M55.5594635,18.4067764c0.8578873,0,1.7157898,0.0018559,2.573658-0.0022316
		c0.1136551-0.0005398,0.1581001,0.0296459,0.1576042,0.1481361c-0.0040627,0.9719257-0.0043488,1.9438725-0.002903,2.9158096
		c0.0001297,0.0895729-0.012722,0.1308403-0.1207619,0.1305943c-1.7251091-0.0039101-3.4502373-0.0043297-5.1753464-0.0002346
		c-0.1226006,0.0002918-0.1571617-0.0270176-0.1566467-0.1531391c0.0039902-0.9765854,0.0008545-1.9532127-0.0041389-2.9298038
		c-0.0004578-0.0898266,0.0282135-0.108839,0.1127701-0.1085606c0.8719101,0.0028667,1.7438393,0.0017586,2.6157608,0.0017586
		C55.5594635,18.408329,55.5594635,18.4075527,55.5594635,18.4067764z M55.572113,20.9527359
		c0.618988,0,1.2379837-0.0011387,1.8569603,0.0014305c0.0780449,0.0003242,0.1210175-0.010664,0.1238899-0.1028233
		c0.0165749-0.5327148,0.0213852-1.0651951,0.0035095-1.5980663c-0.0040016-0.1193886-0.0398788-0.1575985-0.1635246-0.1572094
		c-1.2145271,0.0038338-2.4290886,0.0032196-3.6436081-0.0022907c-0.1250648-0.0005665-0.160183,0.0361214-0.1589317,0.1571465
		c0.0052948,0.5141258,0.0074234,1.0284271-0.0014381,1.5424576c-0.0023537,0.1365013,0.0449448,0.1624565,0.1683769,0.1613884
		C54.3622322,20.9495411,54.9671822,20.9523983,55.572113,20.9527359z"/>
	<path class="st3" d="M71.0377579,19.1107235c0-0.8276405,0.0005417-1.6552811-0.0012894-2.4829178
		c-0.0001144-0.0525131,0.026123-0.1350155-0.030899-0.1513329c-0.063324-0.0181255-0.0728302,0.0699768-0.0986176,0.1139641
		c-0.2134705,0.3641605-0.4812088,0.6905823-0.7207336,1.0365543c-0.0476379,0.068819-0.0867386,0.0888672-0.137413-0.006155
		c-0.0945053-0.1772099-0.198288-0.3496609-0.3026962-0.5213852c-0.039444-0.064888-0.036293-0.1142292,0.007988-0.1771908
		c0.2152023-0.3059578,0.4177017-0.619894,0.6147232-0.9383001c0.6453247-1.0429087,1.1393051-2.1537495,1.5286942-3.3128223
		c0.0348206-0.1036711,0.0836105-0.1327467,0.1833496-0.1072159c0.176857,0.0452728,0.3531342,0.0953817,0.5325699,0.1270971
		c0.113472,0.0200558,0.10746,0.0643177,0.0740051,0.150876c-0.2492218,0.6448126-0.5138092,1.2832174-0.8028107,1.9112501
		c-0.0629044,0.1366816-0.079361,0.274704-0.0791626,0.4214582c0.0028839,2.136981,0.0040665,4.2739668,0.0048447,6.4109507
		c0.0000763,0.1958961-0.0025101,0.196909-0.1923447,0.1979485c-0.1453934,0.0007954-0.2917023-0.0116272-0.4359665,0.0007477
		c-0.1350555,0.0115852-0.1544037-0.0481548-0.1535263-0.1624584c0.0045166-0.5844841,0.002655-1.1690159,0.0029373-1.7535305
		c0.0001221-0.252512,0.0000229-0.505024,0.0000229-0.7575359C71.0335388,19.1107235,71.0356522,19.1107235,71.0377579,19.1107235z"
		/>
	<path class="st3" d="M50.616909,16.4741631c-0.140564,0.3634052-0.362381,0.665163-0.5402756,0.9913597
		c-0.1616783,0.2964554-0.1881104,0.2909393-0.3517075-0.0002823c-0.0548744-0.0976868-0.0987549-0.2023888-0.1613464-0.2946568
		c-0.065155-0.0960407-0.0555038-0.1657639,0.0119057-0.2612267c0.4932556-0.6984901,0.8622742-1.4628477,1.1858482-2.2510014
		c0.2748985-0.6695967,0.5217018-1.3490639,0.7354927-2.0403805c0.0200882-0.0649662,0.0579414-0.0793695,0.1162262-0.0642767
		c0.1946106,0.0503912,0.3902588,0.0973845,0.5830231,0.1540689c0.0934715,0.0274858,0.0271912,0.0976925,0.0133095,0.1381416
		c-0.1590271,0.4633131-0.3234978,0.9247684-0.4864006,1.3867607c-0.0730209,0.2070856-0.1533356,0.4114389-0.2521515,0.6075573
		c-0.0493546,0.0979538-0.0414009,0.1997223-0.0413208,0.3016272c0.0017204,2.0705404,0.0041924,4.1410799,0.0063171,6.2116194
		c0.0000992,0.0981445-0.0064926,0.1965675-0.0010033,0.2943592c0.00597,0.1063442-0.0410042,0.139349-0.1421776,0.1359444
		c-0.168602-0.0056705-0.3376503-0.0061646-0.5062408-0.0006943c-0.0888672,0.0028858-0.1126633-0.0317345-0.1115303-0.1149502
		c0.003685-0.2710323,0.0010681-0.5421467,0.0011253-0.8132305c0.0003052-1.3927307,0.0008698-2.7854633,0.0004349-4.178196
		C50.6764183,16.6131229,50.6889,16.5446243,50.616909,16.4741631z"/>
	<path class="st3" d="M55.0652122,26.8143234c0-0.841589,0.0023689-1.6831951-0.0025406-2.5247555
		c-0.0007401-0.1266632,0.0297661-0.1779671,0.1646729-0.1635494c0.1253052,0.0133953,0.2532387,0.0102043,0.3795204,0.0041313
		c0.0943298-0.0045376,0.1221619,0.0318642,0.1219368,0.1218796c-0.0016327,0.6638126,0.0164146,1.3276863-0.0088348,1.9914398
		c-0.0016747,0.0440445-0.0291901,0.1066818,0.0198135,0.1288853c0.0514107,0.0232925,0.0743027-0.0409317,0.1031914-0.0733719
		c0.314312-0.3529472,0.6869621-0.5738506,1.1810684-0.5323486c0.473484,0.0397682,0.7838974,0.3081608,0.9885941,0.7108841
		c0.1306877,0.2571163,0.1855736,0.5376472,0.1853523,0.8272133c-0.0005264,0.6872921-0.0031395,1.3745956,0.000473,2.0618687
		c0.000576,0.109808-0.0288734,0.1507816-0.1437607,0.1415482c-0.130455-0.0104847-0.2628212-0.0077934-0.3936577,0.00033
		c-0.1014366,0.0062981-0.1316223-0.0371628-0.1308174-0.1293163c0.002243-0.2571239,0.0026054-0.5142937,0.0003471-0.7714176
		c-0.0041466-0.4721279,0.0145988-0.9445324-0.0138626-1.4163151c-0.0053177-0.0881271-0.0170364-0.1775799-0.039856-0.2626743
		c-0.1728249-0.6444359-0.9285927-0.8481445-1.4133224-0.3826466c-0.2154007,0.2068596-0.3366089,0.4487438-0.3327904,0.7577152
		c0.0084419,0.6825085-0.0006104,1.3652153,0.0043411,2.0477924c0.0008926,0.1232796-0.0339851,0.1677876-0.1597748,0.1566277
		c-0.1209602-0.0107288-0.2441444-0.0080452-0.3654938,0.0006542c-0.110714,0.0079346-0.1476669-0.0299015-0.1460571-0.141777
		c0.0055199-0.3833122,0.00177-0.7667522,0.0017052-1.1501446C55.0653801,27.7494259,55.0654449,27.2818737,55.0652122,26.8143234z"
		/>
	<path class="st3" d="M67.978241,26.9952145c0-0.7990723,0.0004425-1.5981445-0.0007095-2.3972149
		c-0.0001068-0.0771465,0.0083466-0.1406422,0.1035614-0.1508389c0.6568985-0.0703545,1.3127975-0.1579189,1.9668198,0.0320225
		c0.5997925,0.1741943,0.9806824,0.5552177,1.0542374,1.174799c0.0751419,0.6330185-0.118782,1.1723633-0.69487,1.5255089
		c-0.4279709,0.2623539-0.9023972,0.3192387-1.3903122,0.3158283c-0.1075745-0.0007515-0.2151489-0.0122795-0.3225327-0.0212955
		c-0.0552444-0.0046368-0.0804062-0.0016003-0.0793762,0.0719757c0.0084763,0.6117802,0.0091095,1.2236691,0.0150223,1.8354969
		c0.0008621,0.0898495-0.0313263,0.1269073-0.122818,0.1242599c-0.1404877-0.0040665-0.2814102-0.0048122-0.4217682,0.0014801
		c-0.0900955,0.0040379-0.1059036-0.0315132-0.105545-0.11479c0.0034332-0.7990665,0.0020523-1.5981522,0.0020523-2.3972321
		C67.980751,26.9952145,67.9794922,26.9952145,67.978241,26.9952145z M68.6321106,25.9203949
		c0.0007248-0.0000038,0.001442-0.0000076,0.0021667-0.0000134c0,0.2944202,0.0024185,0.588871-0.0014191,0.8832417
		c-0.0012054,0.0920563,0.0291595,0.1369457,0.1248398,0.1454659c0.2477722,0.0220718,0.4942245,0.0395565,0.7430115,0.0037346
		c0.5722198-0.0823956,0.8818436-0.3710785,0.9550934-0.900259c0.0772247-0.558012-0.1699829-0.9628868-0.6877899-1.1111126
		c-0.3458786-0.0990047-0.6972198-0.0534725-1.0472717-0.0202026c-0.0863724,0.0082092-0.0888977,0.0657291-0.0888062,0.1298943
		C68.6323547,25.3408947,68.6321106,25.6306438,68.6321106,25.9203949z"/>
	<path class="st3" d="M55.5497818,14.5156212c-1.0599174,0-2.1198425-0.0020666-3.1797371,0.0026503
		c-0.1305733,0.0005808-0.1886787-0.0261707-0.1763573-0.1690321c0.0128021-0.1485176,0.0077744-0.2991524,0.0016632-0.4485006
		c-0.0043564-0.1063557,0.0383148-0.1341496,0.141098-0.1336231c0.9051361,0.0046329,1.8102951,0.0043678,2.7154503,0.0054264
		c0.0515785,0.0000601,0.1032295-0.0028448,0.1547279-0.0010939c0.0910225,0.0030947,0.1169853-0.0282373,0.079277-0.1172037
		c-0.1019974-0.2406282-0.193409-0.4858236-0.2997742-0.7244473c-0.0406914-0.0912886-0.025528-0.1340151,0.0639648-0.1703205
		c0.1343231-0.054493,0.2672615-0.1132917,0.3969269-0.1779451c0.0818405-0.0408039,0.1124916-0.0129175,0.1437531,0.0632544
		c0.1400642,0.3412848,0.2956429,0.6757383,0.4526825,1.0096512c0.0434532,0.0923901,0.0951385,0.1192608,0.1912804,0.1188631
		c0.8488617-0.0035067,1.6977539-0.0002804,2.5465889-0.00634c0.1151505-0.0008221,0.1438904,0.0296516,0.1365166,0.1403704
		c-0.0099144,0.1488218-0.005661,0.2992773,0.0030518,0.4484196c0.0072098,0.1233034-0.0279007,0.1676531-0.1632957,0.1668825
		c-1.0692406-0.0060844-2.1385345-0.0033808-3.2078171-0.0033808
		C55.5497818,14.5180416,55.5497818,14.5168314,55.5497818,14.5156212z"/>
	<path class="st3" d="M52.7507362,29.5608025c-0.5456963,0.0169868-1.0571098-0.0906506-1.5242882-0.3909702
		c-0.5682945-0.3653202-0.8803253-0.898468-1.0112457-1.5378132c-0.1776543-0.867588-0.022541-1.6775646,0.5362358-2.3802528
		c0.4388695-0.5519047,1.0395813-0.8258877,1.7328377-0.9066105c0.4761848-0.0554485,0.945137-0.0201702,1.4007759,0.1378212
		c0.1535454,0.0532417,0.1576538,0.0639954,0.0766296,0.2047386c-0.0605087,0.105114-0.1056595,0.2340126-0.1956596,0.3031693
		c-0.0961571,0.0738888-0.2144966-0.0335388-0.3232536-0.0565948c-0.4102554-0.0869732-0.8195877-0.1032581-1.2250099,0.0086288
		c-0.6829605,0.1884785-1.1131096,0.6393547-1.2862244,1.3166466c-0.1491127,0.5833912-0.1378021,1.1686172,0.1117096,1.729105
		c0.2526855,0.5676155,0.6884232,0.9050369,1.3101883,0.996624c0.4460716,0.0657063,0.8871574,0.044075,1.3243904-0.064127
		c0.0360336-0.0089188,0.0763664-0.026926,0.1022034,0.0139408c0.0723,0.1143608,0.1494293,0.2267551,0.2091255,0.3475533
		c0.0355759,0.0719986-0.0389328,0.0912266-0.0913582,0.1105003c-0.2794418,0.1027508-0.5703697,0.1478882-0.8658676,0.1667118
		C52.9385567,29.5658226,52.8444862,29.5608025,52.7507362,29.5608025z"/>
	<path class="st3" d="M43.6688805,15.6924887c-0.506443,0-1.0129242-0.0033951-1.5192986,0.0022888
		c-0.1334915,0.0014982-0.1747055-0.0384569-0.1728592-0.1759157c0.0089378-0.6636457,0.0098228-1.3274794,0.004303-1.991169
		c-0.0010223-0.1227112,0.0380554-0.156558,0.1515656-0.1482468c0.1214218,0.0088921,0.2441635,0.0146255,0.365387,0.0069456
		c0.1009636-0.0063972,0.1275787,0.027029,0.1270218,0.1251612c-0.0026665,0.4674063,0.007061,0.9349251,0.0004768,1.4022369
		c-0.0017281,0.1225414,0.0371017,0.1534052,0.1502991,0.1480942c0.1449585-0.0068026,0.2913628-0.0083399,0.4356651,0.0044203
		c0.1130028,0.0099926,0.1355095-0.0368919,0.135273-0.1344013c-0.0016022-0.6684437,0.0010719-1.3368969,0-2.0053434
		c-0.0004158-0.2588902-0.0030632-0.2636528,0.2551308-0.2555161c0.1285248,0.0040493,0.2927322-0.0562515,0.3764267,0.0353928
		c0.0762138,0.0834503,0.0239983,0.2419271,0.0250015,0.3670101c0.0049019,0.6123304,0.0078735,1.2247066,0.0052986,1.837039
		c-0.0004578,0.1095428,0.0337601,0.1527634,0.143734,0.1502199c0.1545868-0.0035753,0.3097267-0.0032921,0.4639778,0.0060434
		c0.0991364,0.0060015,0.1179123-0.0371819,0.1175728-0.1230955c-0.0019379-0.4908037,0.002655-0.9816475-0.0018005-1.4724159
		c-0.0008774-0.0963259,0.0202484-0.1373558,0.122654-0.1267967c0.0788879,0.0081339,0.1593056,0.0003757,0.2389832,0.0022078
		c0.2583733,0.0059385,0.2370262-0.042263,0.2387085,0.2433167c0.0038261,0.6497393,0.0011749,1.2995157,0.004921,1.949255
		c0.0006294,0.1088839-0.0221939,0.155139-0.1492767,0.1529388c-0.5062599-0.008769-1.0127563-0.0036135-1.519165-0.0036135
		C43.6688805,15.6898603,43.6688805,15.6911745,43.6688805,15.6924887z"/>
	<path class="st3" d="M40.4587784,17.8008518c-0.2251511,0.2879028-0.424614,0.5452118-0.6267052,0.8004475
		c-0.1071396,0.1353188-0.1160049,0.1327972-0.2041626-0.0193977c-0.0772896-0.1334362-0.1523247-0.2683315-0.2345657-0.3986931
		c-0.0442429-0.0701332-0.0432587-0.1231823,0.0141106-0.186142c0.7003021-0.7685261,1.2271652-1.6470585,1.6478958-2.5923357
		c0.0341454-0.0767164,0.0620308-0.1561861,0.0954781-0.2332325c0.02668-0.0614653,0.0628738-0.0830889,0.1315079-0.0427742
		c0.1370621,0.080512,0.2780304,0.1547718,0.4199524,0.2265749c0.0689735,0.0348988,0.0781898,0.0697823,0.0459442,0.1421852
		c-0.1444817,0.3244438-0.287365,0.650526-0.4673119,0.9562912c-0.107666,0.1829548-0.1457367,0.37047-0.1406212,0.5742188
		c0.0296745,1.1826324,0.006897,2.3655128,0.0170708,3.5482388c0.0030136,0.3506069-0.0032196,0.7013512,0.0042458,1.0518322
		c0.0026398,0.1239548-0.0390091,0.1674843-0.1614189,0.1586151c-0.1166229-0.0084496-0.2344284,0.0009308-0.3515968-0.0020752
		c-0.2033806-0.0052166-0.1893539,0.0414047-0.1894836-0.1836777c-0.0006409-1.0752926-0.0003204-2.1505852-0.0003357-3.2258759
		C40.4587784,18.1955338,40.4587784,18.016016,40.4587784,17.8008518z"/>
	<path class="st3" d="M44.8457413,19.8039265c0.1859016-0.1279736,0.3257103-0.2631912,0.4684639-0.3944111
		c0.2291069-0.210598,0.1783371-0.2055321,0.3325691,0.0432796c0.1869202,0.3015308,0.1828346,0.3031921-0.0918465,0.5334835
		c-0.3588753,0.3008804-0.7196159,0.5996571-1.0735435,0.9062366c-0.0973396,0.0843182-0.1430359,0.0629025-0.1958542-0.0387211
		c-0.0752945-0.1448841-0.1582146-0.2858982-0.2402916-0.4271736c-0.0256271-0.0441246-0.0131569-0.0780296,0.0112724-0.1161575
		c0.1099663-0.1716537,0.1418228-0.3631248,0.1406746-0.5627785c-0.0018005-0.3132706-0.005455-0.626564-0.0028839-0.9398041
		c0.0007668-0.0932827-0.0220604-0.1322651-0.1262856-0.1308689c-0.3658028,0.0048981-0.7318077,0.0029678-1.0975876-0.0040436
		c-0.102047-0.0019569-0.1253166,0.0340366-0.1249962,0.1290283c0.0015488,0.4581356-0.0061798,0.9156361-0.1074677,1.3664532
		c-0.121151,0.539238-0.4496193,0.9349461-0.8669014,1.2729588c-0.0655441,0.0530891-0.1052971,0.0415459-0.1433411-0.0266647
		c-0.0751152-0.1346931-0.1512375-0.2688446-0.2284164-0.4023762c-0.0328102-0.0567646-0.0281525-0.0997276,0.024353-0.1459007
		c0.4399643-0.3868866,0.6080437-0.8929253,0.6443939-1.4587994c0.0267067-0.4157696,0.0355339-0.8316898,0.023819-1.2478085
		c-0.0029068-0.1032391,0.0041084-0.1396465,0.1314468-0.1386604c0.8111801,0.0062847,1.622509,0.0009594,2.4336929-0.0086346
		c0.1048164-0.0012398,0.0883636,0.0517616,0.0884132,0.110178c0.0004501,0.5003757,0.0002937,1.0007534,0.0003166,1.5011311
		C44.8457413,19.6736183,44.8457413,19.7233658,44.8457413,19.8039265z"/>
	<path class="st3" d="M61.5162239,29.0311928c-0.1213799,0.1043015-0.2091751,0.1878796-0.3051262,0.2607822
		c-0.4204063,0.3194351-0.885704,0.3719597-1.3679619,0.1822548c-0.6342239-0.2494907-0.8083458-1.1502419-0.3368378-1.6837292
		c0.2071457-0.2343769,0.4662209-0.3858585,0.7673454-0.4698868c0.3363762-0.0938663,0.6805267-0.1317692,1.0279121-0.1402378
		c0.1185837-0.0028896,0.1535263-0.0446415,0.1411819-0.1614742c-0.0456429-0.4319668-0.2536621-0.6920128-0.5987892-0.7393456
		c-0.3418694-0.0468884-0.6749954-0.0120659-0.9923782,0.1207504c-0.1036072,0.0433578-0.1498833,0.0341244-0.2059441-0.0662098
		c-0.1499252-0.2683144-0.1553345-0.2653332,0.1322021-0.3866901c0.3202248-0.1351471,0.6565285-0.1936417,1.0016861-0.1856728
		c0.7378845,0.0170422,1.2456779,0.5103035,1.2935829,1.2482967c0.0284958,0.4390106,0.0191231,0.8787613,0.0144997,1.3181286
		c-0.0037003,0.3510208,0.0004387,0.701395,0.0390816,1.0503178c0.0111694,0.1008511-0.0196266,0.1369038-0.1203957,0.1286831
		c-0.0791702-0.0064583-0.1593552,0.0000038-0.23909-0.0000496c-0.2324638-0.0001545-0.2336731-0.0002232-0.2502289-0.2355747
		C61.5121117,29.2025566,61.5162239,29.132946,61.5162239,29.0311928z M61.4561157,28.0690899
		c0-0.0381165,0.0000191-0.0427876-0.0000038-0.0474586c-0.0019913-0.3790855-0.0021095-0.3821373-0.3831978-0.367672
		c-0.2577591,0.0097828-0.5141182,0.034626-0.7530594,0.145298c-0.3471985,0.1608181-0.4905777,0.446682-0.4189873,0.8222942
		c0.0364532,0.1912479,0.1207504,0.3366604,0.3119202,0.4142704c0.3210678,0.1303406,0.7485466,0.0476837,0.9896393-0.1991119
		C61.4221268,28.6118164,61.4788933,28.3364334,61.4561157,28.0690899z"/>
	<path class="st3" d="M73.9984589,29.004015c-0.1428833,0.1910038-0.2911148,0.3263512-0.4718552,0.4138927
		c-0.3989182,0.1932087-0.8135986,0.2341499-1.2180557,0.0344067c-0.6395035-0.3158245-0.7503128-1.221899-0.2294769-1.7291641
		c0.3120422-0.3039055,0.7059402-0.4087849,1.1140976-0.4858398c0.2029648-0.0383148,0.409584-0.0548649,0.6150894-0.0524921
		c0.1321945,0.001524,0.1559219-0.0471649,0.1493149-0.1647301c-0.02948-0.5247765-0.3917694-0.8125668-0.965889-0.7586555
		c-0.2287445,0.0214767-0.4570312,0.046751-0.6662827,0.1524677c-0.0622559,0.0314541-0.1010208,0.0129509-0.1414871-0.0414619
		c-0.2049332-0.2755814-0.2028351-0.297142,0.1123962-0.4252644c0.4256363-0.1729908,0.8644943-0.2297268,1.3208237-0.1440201
		c0.518837,0.0974503,0.8966522,0.5663795,0.9562836,1.0795631c0.0482025,0.4148655,0.0193863,0.8309059,0.0252151,1.2463284
		c0.0059052,0.420433-0.0025177,0.8411961,0.0357971,1.2604828c0.0076294,0.0834866-0.007782,0.1225643-0.1008148,0.1182499
		c-0.1215897-0.0056343-0.2439117-0.0057201-0.365448,0.0006256c-0.0922699,0.004818-0.1229935-0.0327854-0.1271744-0.1207962
		C74.0357132,29.2763004,74.0171509,29.1656189,73.9984589,29.004015z M73.961731,28.0721664
		c0-0.1348915-0.0016785-0.237648,0.0006485-0.3403149c0.0012894-0.0571842-0.0178528-0.088522-0.079483-0.0869312
		c-0.3507004,0.0090332-0.7034912,0.0024643-1.0344925,0.148447c-0.2269135,0.1000805-0.3855286,0.2531033-0.4353867,0.508379
		c-0.0553207,0.2832298,0.0252991,0.5640163,0.2110825,0.6815739c0.3404388,0.2154255,0.8804474,0.1184483,1.1346283-0.1948948
		C73.9388733,28.5663605,73.991745,28.3156834,73.961731,28.0721664z"/>
	<path class="st3" d="M48.0608673,27.7941513c-0.3844032,0-0.768837,0.0026512-1.1531944-0.0016212
		c-0.1144829-0.0012741-0.1626587,0.0242672-0.1348991,0.1518917c0.0306702,0.1410313,0.0433846,0.2856369,0.0975227,0.4216537
		c0.1767197,0.4439945,0.5175323,0.6574497,0.9824295,0.6948452c0.3058243,0.0245972,0.6100578,0.0043964,0.906559-0.072403
		c0.1322975-0.0342693,0.2059212,0.0025463,0.2518883,0.1215935c0.0033493,0.0086861,0.0075989,0.0170574,0.0118637,0.0253544
		c0.1195259,0.2322063,0.1225395,0.2430668-0.1290245,0.3121357c-0.5084381,0.1395912-1.0276718,0.1892872-1.5401039,0.0428505
		c-0.6844368-0.1955948-1.0484924-0.6775513-1.1780205-1.3932629c-0.0810547-0.4479027-0.0125504-0.881712,0.1639328-1.3018665
		c0.3349419-0.7973919,1.1413879-1.1947079,1.9754715-0.9627838c0.3629951,0.1009331,0.6245232,0.3328838,0.801445,0.6587143
		c0.2016487,0.3713646,0.2662544,0.7725582,0.2468452,1.1915073c-0.0041847,0.0902939-0.0428963,0.1085453-0.1214905,0.1081238
		c-0.3937263-0.0021114-0.7874794-0.0009689-1.181221-0.0009689C48.0608673,27.7913265,48.0608673,27.7927399,48.0608673,27.7941513
		z M47.7620316,27.3204918c0.201561,0,0.4031296-0.0000343,0.6046944,0.0000076
		c0.4183159,0.0000858,0.4207573-0.000536,0.3121376-0.4143238c-0.0943756-0.3595009-0.2948494-0.600399-0.6937752-0.6521492
		c-0.4656258-0.0604019-0.8389816,0.1062927-1.0361671,0.4963074c-0.0676231,0.133749-0.1128578,0.275692-0.1487999,0.421381
		c-0.0264854,0.1073494-0.0046577,0.1539211,0.1181984,0.150919C47.1994057,27.3157673,47.4807739,27.3204613,47.7620316,27.3204918
		z"/>
	<path class="st3" d="M77.1493607,28.7616348c0.1467209-0.3539009,0.2241058-0.7208004,0.3519058-1.0710335
		c0.2081833-0.5705471,0.3848419-1.1514606,0.569313-1.7297401c0.0280304-0.0878792,0.0771103-0.1220188,0.1613388-0.1206837
		c0.1452942,0.002306,0.2907333,0.0115852,0.4358139,0.0074635c0.1118851-0.0031719,0.1372375,0.0240822,0.0934677,0.1342564
		c-0.2620239,0.6595364-0.5278854,1.3178368-0.7731857,1.9836025c-0.2100372,0.5700378-0.4309464,1.1352253-0.6871643,1.6856327
		c-0.204277,0.4388504-0.4534912,0.850378-0.8423767,1.15839c-0.1401443,0.1109886-0.2908554,0.2043743-0.4535294,0.279129
		c-0.0875397,0.0402222-0.1510544,0.0263138-0.1954803-0.0652447c-0.0489044-0.1007748-0.0993958-0.2013607-0.157814-0.2967854
		c-0.0485382-0.0792828-0.0220108-0.1178951,0.0542374-0.1473732c0.4672318-0.1806335,0.7679138-0.5326157,1.0034561-0.9571171
		c0.0883255-0.1591778,0.079895-0.3030415,0.0127258-0.4657269c-0.3296585-0.7985344-0.6537247-1.5993748-0.9768066-2.4005852
		c-0.1082306-0.2684135-0.1988297-0.5439739-0.3269958-0.804245c-0.0332184-0.0674801-0.0281219-0.1023006,0.0584259-0.1021824
		c0.1734772,0.0002365,0.3469467-0.0043011,0.5204315-0.0060787c0.0681229-0.0006962,0.1117706,0.0263882,0.1341934,0.0972404
		c0.2704468,0.8549919,0.6406174,1.6745281,0.9073334,2.5310097C77.0683441,28.5669498,77.0731583,28.6734314,77.1493607,28.7616348
		z"/>
	<path class="st3" d="M64.1736679,27.4669075c0,0.2805805-0.0007248,0.5611649,0.0003128,0.8417416
		c0.0005035,0.1357307,0.0157623,0.2684937,0.0520859,0.4013195c0.0588989,0.2153511,0.1944427,0.3323498,0.4136353,0.3236122
		c0.1551895-0.0061855,0.2297134,0.0668354,0.2852707,0.1926308c0.0300522,0.0680428,0.0694809,0.1325989,0.1102753,0.1951008
		c0.033783,0.0517654,0.0175247,0.0780201-0.0353546,0.089613c-0.3350983,0.0734673-0.6710358,0.1022892-0.9921646-0.0484962
		c-0.2730751-0.1282215-0.3693275-0.384737-0.4295616-0.6555939c-0.0231895-0.1042767-0.0335808-0.2130527-0.035656-0.3200512
		c-0.0131645-0.6777916,0.006485-1.3558311-0.0144386-2.0337257c-0.0026131-0.0845509-0.0263863-0.1077747-0.101162-0.1075344
		c-0.1219406,0.000391-0.2440109-0.0057392-0.3657761-0.0016174c-0.0777626,0.0026302-0.1056519-0.0216942-0.1087456-0.1026993
		c-0.014946-0.3916855-0.0172501-0.3915958,0.3773651-0.4001179c0.1907387-0.0041199,0.1937561-0.004055,0.1979179-0.1941452
		c0.0053177-0.2430248,0.0112-0.4863338,0.0044708-0.7291832c-0.0028229-0.1019707,0.0287285-0.1304874,0.1257439-0.1249142
		c0.1215477,0.0069809,0.2443962,0.0087337,0.365612-0.0007648c0.1166763-0.0091438,0.1571732,0.029253,0.1542892,0.1481457
		c-0.0061188,0.2522869,0.0060654,0.5049915,0.0009689,0.7573299c-0.002121,0.1051788,0.0338287,0.1397419,0.1370239,0.1390038
		c0.2250443-0.0016136,0.4501495,0.0091057,0.6752396,0.0093117c0.1087036,0.0000992,0.1663513,0.0255508,0.1390839,0.1524181
		c-0.0153351,0.0713921-0.0022583,0.148983-0.0009766,0.2237625c0.0014114,0.0815887-0.0346756,0.1151257-0.1195145,0.1145573
		c-0.2344971-0.0015697-0.4690933,0.0073299-0.7035522,0.0045013c-0.0979919-0.0011845-0.1283264,0.0301037-0.1263733,0.1299019
		c0.0064697,0.3318539,0.0024414,0.6639137,0.0024414,0.9958935C64.1793137,27.4669075,64.1764908,27.4669075,64.1736679,27.4669075
		z"/>
	<path class="st3" d="M55.5445099,17.5231152c-0.8911896,0-1.7823982-0.0022373-2.6735573,0.0028229
		c-0.1115799,0.0006351-0.1484451-0.0259609-0.1404877-0.1382294c0.009552-0.1348801,0.0097046-0.2716255-0.0011063-0.4063644
		c-0.0093613-0.1165962,0.0426483-0.1486626,0.1453476-0.1454983c0.1031036,0.0031776,0.2063522,0.0019817,0.309536,0.002512
		c1.6744232,0.0086079,3.3489189-0.0135117,5.0233459,0.0110836c0.1124535,0.0016518,0.1622543,0.0244408,0.1518097,0.1462326
		c-0.0103455,0.1206856-0.0100136,0.2435627-0.0002098,0.3643379c0.0107803,0.1328335-0.0431404,0.1621246-0.1692696,0.1613712
		c-0.8817787-0.0052719-1.7636032-0.0027885-2.6454086-0.0027885
		C55.5445099,17.5201015,55.5445099,17.5216084,55.5445099,17.5231152z"/>
	<path class="st3" d="M55.5576668,15.3466301c0.8907394,0,1.7814903,0.0023985,2.6721992-0.0030365
		c0.1113014-0.000679,0.1353836,0.0334148,0.1292763,0.133913c-0.0079308,0.1303778-0.0085258,0.2620173,0.000061,0.3923063
		c0.0066528,0.1009312-0.0332146,0.1285791-0.1274338,0.1275434c-0.3468018-0.0038147-0.6936569-0.0037546-1.0404854-0.0026112
		c-1.443882,0.0047617-2.8878708-0.0153065-4.3315964,0.0174217c-0.0978889,0.0022182-0.1343689-0.0210838-0.1289749-0.1226473
		c0.0076637-0.1444473,0.0051117-0.2897596-0.0002136-0.4344416c-0.0031166-0.0846453,0.0277977-0.1186514,0.1127663-0.1164045
		c0.1499176,0.0039644,0.2999916,0.0029745,0.4499931,0.0030174c0.7548027,0.0002184,1.5096054,0.0001011,2.2644081,0.0001011
		C55.5576668,15.3434048,55.5576668,15.3450174,55.5576668,15.3466301z"/>
	<path class="st3" d="M41.2523613,12.5311775c0.009922,0.0048494,0.0229454,0.0096445,0.0342903,0.0169992
		c0.1531372,0.0992212,0.3057098,0.1993036,0.4591331,0.2980795c0.0797882,0.0513725,0.0433731,0.1052055,0.0122566,0.1670189
		c-0.3849564,0.7647963-0.8649864,1.4642019-1.4473343,2.0929804c-0.1334686,0.1441097-0.275631,0.2801762-0.4116974,0.4219465
		c-0.055912,0.0582561-0.0922775,0.078434-0.1407547-0.0136147c-0.0760612-0.1444302-0.1654167-0.2820883-0.252697-0.4203873
		c-0.0396729-0.0628681-0.0284271-0.1021957,0.0246048-0.1559439c0.6091118-0.6173697,1.099575-1.3215075,1.5166664-2.0784721
		c0.0495834-0.0899925,0.0967979-0.1812849,0.1465034-0.2712088C41.2062111,12.5652771,41.2142143,12.5348148,41.2523613,12.5311775
		z"/>
	<path class="st3" d="M43.6421509,17.1746178c-0.4967804,0-0.9935799-0.0020142-1.4903259,0.0019684
		c-0.0835342,0.0006695-0.1195641-0.0163326-0.1164856-0.106329c0.0052681-0.1539402,0.0032921-0.3083076-0.0013161-0.462326
		c-0.0021553-0.0721474,0.027153-0.1035194,0.0962601-0.1051826c0.023407-0.0005627,0.0467873-0.0035439,0.0701752-0.0034943
		c0.9560585,0.0020924,1.9121208,0.0036278,2.8681717,0.0073261c0.1980133,0.0007668,0.1981392,0.0045204,0.1991768,0.204195
		c0.0006294,0.1214619-0.0016823,0.2429981,0.0019417,0.3643627c0.002388,0.0800209-0.0295792,0.1018238-0.109375,0.1012344
		C44.6543236,17.1726322,44.1482315,17.1744709,43.6421509,17.1746178z"/>
	<path class="st3" d="M74.0333633,16.6711197c0.0567322,0.0045128,0.0676804,0.0503178,0.0890198,0.084198
		c0.3712616,0.5895119,0.7421188,1.1792679,1.112999,1.7690182c0.0273819,0.0435543,0.0536118,0.0878429,0.0813065,0.1312046
		c0.1284103,0.2010975,0.1288452,0.2015839-0.0842361,0.3233089c-0.1300659,0.0743084-0.2621841,0.1450577-0.3916702,0.2203484
		c-0.0707703,0.0411568-0.1167679,0.0306225-0.1594849-0.0430088c-0.3916931-0.6751671-0.7854233-1.349165-1.1796875-2.0228443
		c-0.0425186-0.0726528-0.0442734-0.1222,0.0411148-0.1684361c0.1480331-0.0801563,0.2900238-0.1713848,0.4344635-0.2581329
		C73.9970245,16.6948547,74.0162964,16.681982,74.0333633,16.6711197z"/>
</g>
</svg>
